<svg width="34" height="34" viewBox="0 0 34 34" fill="none" xmlns="http://www.w3.org/2000/svg">
<circle cx="17" cy="17" r="16.5" fill="white" stroke="#F3F4F9"/>
<path d="M17 16.5556C17.6153 16.5556 18.2168 16.3731 18.7285 16.0313C19.2401 15.6894 19.6388 15.2035 19.8743 14.6351C20.1098 14.0666 20.1714 13.441 20.0514 12.8375C19.9313 12.234 19.635 11.6797 19.1999 11.2446C18.7648 10.8095 18.2105 10.5132 17.607 10.3932C17.0035 10.2731 16.3779 10.3347 15.8095 10.5702C15.241 10.8057 14.7551 11.2044 14.4132 11.716C14.0714 12.2277 13.8889 12.8292 13.8889 13.4445C13.8889 14.2696 14.2167 15.0609 14.8001 15.6444C15.3836 16.2278 16.1749 16.5556 17 16.5556ZM17 11.2223C17.4395 11.2223 17.8692 11.3526 18.2346 11.5968C18.6001 11.841 18.8849 12.188 19.0531 12.5941C19.2213 13.0001 19.2653 13.447 19.1796 13.878C19.0938 14.3091 18.8822 14.7051 18.5714 15.0158C18.2606 15.3266 17.8646 15.5383 17.4336 15.624C17.0025 15.7098 16.5557 15.6657 16.1496 15.4976C15.7436 15.3294 15.3965 15.0445 15.1523 14.6791C14.9081 14.3136 14.7778 13.884 14.7778 13.4445C14.7778 12.8551 15.0119 12.2899 15.4287 11.8731C15.8454 11.4564 16.4107 11.2223 17 11.2223Z" fill="#0078D4"/>
<path d="M22.5422 19.8311C21.8294 19.0778 20.9705 18.4777 20.018 18.0676C19.0654 17.6576 18.0392 17.446 17.0022 17.446C15.9651 17.446 14.9389 17.6576 13.9864 18.0676C13.0338 18.4777 12.1749 19.0778 11.4622 19.8311C11.3076 19.9962 11.2218 20.2139 11.2222 20.44V22.7778C11.2222 23.0135 11.3158 23.2396 11.4825 23.4063C11.6492 23.573 11.8753 23.6667 12.1111 23.6667H21.8888C22.1246 23.6667 22.3507 23.573 22.5174 23.4063C22.6841 23.2396 22.7777 23.0135 22.7777 22.7778V20.44C22.7793 20.2145 22.6951 19.9968 22.5422 19.8311ZM21.8888 22.7778H12.1111V20.4355C12.7409 19.7723 13.4992 19.2441 14.3397 18.8832C15.1801 18.5223 16.0853 18.3362 16.9999 18.3362C17.9146 18.3362 18.8198 18.5223 19.6602 18.8832C20.5007 19.2441 21.259 19.7723 21.8888 20.4355V22.7778Z" fill="#0078D4"/>
</svg>
