<svg width="34" height="34" viewBox="0 0 34 34" fill="none" xmlns="http://www.w3.org/2000/svg">
<circle cx="17" cy="17" r="16.5" fill="white" stroke="#F3F4F9"/>
<path d="M17 16.5552C17.6153 16.5552 18.2168 16.3728 18.7285 16.0309C19.2401 15.6891 19.6388 15.2032 19.8743 14.6347C20.1098 14.0662 20.1714 13.4407 20.0514 12.8372C19.9313 12.2337 19.635 11.6793 19.1999 11.2442C18.7648 10.8091 18.2105 10.5128 17.607 10.3928C17.0035 10.2727 16.3779 10.3344 15.8095 10.5698C15.241 10.8053 14.7551 11.2041 14.4132 11.7157C14.0714 12.2273 13.8889 12.8288 13.8889 13.4441C13.8889 14.2692 14.2167 15.0606 14.8001 15.644C15.3836 16.2275 16.1749 16.5552 17 16.5552ZM17 11.2219C17.4395 11.2219 17.8692 11.3522 18.2346 11.5964C18.6001 11.8406 18.8849 12.1877 19.0531 12.5937C19.2213 12.9998 19.2653 13.4466 19.1796 13.8777C19.0938 14.3087 18.8822 14.7047 18.5714 15.0155C18.2606 15.3263 17.8646 15.5379 17.4336 15.6236C17.0025 15.7094 16.5557 15.6654 16.1496 15.4972C15.7436 15.329 15.3965 15.0442 15.1523 14.6787C14.9081 14.3133 14.7778 13.8836 14.7778 13.4441C14.7778 12.8548 15.0119 12.2895 15.4287 11.8728C15.8454 11.456 16.4107 11.2219 17 11.2219Z" fill="#0078D4"/>
<path d="M22.5422 19.8313C21.8294 19.078 20.9705 18.478 20.018 18.0679C19.0654 17.6578 18.0392 17.4463 17.0022 17.4463C15.9651 17.4463 14.9389 17.6578 13.9864 18.0679C13.0338 18.478 12.1749 19.078 11.4622 19.8313C11.3076 19.9964 11.2218 20.2141 11.2222 20.4402V22.778C11.2222 23.0138 11.3158 23.2399 11.4825 23.4066C11.6492 23.5733 11.8753 23.6669 12.1111 23.6669H21.8888C22.1246 23.6669 22.3507 23.5733 22.5174 23.4066C22.6841 23.2399 22.7777 23.0138 22.7777 22.778V20.4402C22.7793 20.2147 22.6951 19.9971 22.5422 19.8313ZM21.8888 22.778H12.1111V20.4358C12.7409 19.7725 13.4992 19.2444 14.3397 18.8835C15.1801 18.5226 16.0853 18.3364 16.9999 18.3364C17.9146 18.3364 18.8198 18.5226 19.6602 18.8835C20.5007 19.2444 21.259 19.7725 21.8888 20.4358V22.778Z" fill="#0078D4"/>
</svg>
