<svg width="24" height="24" viewBox="0 0 24 24" fill="none" xmlns="http://www.w3.org/2000/svg">
<circle cx="12" cy="12" r="11.5" fill="white" stroke="white"/>
<g clip-path="url(#clip0_2175_7652)">
<path d="M16.9001 7.10784C16.5967 6.8045 16.1067 6.8045 15.8034 7.10784L12.0001 10.9034L8.19673 7.10006C7.89339 6.79673 7.40339 6.79673 7.10006 7.10006C6.79673 7.40339 6.79673 7.89339 7.10006 8.19673L10.9034 12.0001L7.10006 15.8034C6.79673 16.1067 6.79673 16.5967 7.10006 16.9001C7.40339 17.2034 7.89339 17.2034 8.19673 16.9001L12.0001 13.0967L15.8034 16.9001C16.1067 17.2034 16.5967 17.2034 16.9001 16.9001C17.2034 16.5967 17.2034 16.1067 16.9001 15.8034L13.0967 12.0001L16.9001 8.19673C17.1956 7.90117 17.1956 7.40339 16.9001 7.10784Z" fill="black"/>
</g>
<defs>
<clipPath id="clip0_2175_7652">
<rect width="18.6667" height="18.6667" fill="white" transform="translate(2.6665 2.6665)"/>
</clipPath>
</defs>
</svg>
