<svg width="16" height="16" viewBox="0 0 16 16" fill="none" xmlns="http://www.w3.org/2000/svg">
<circle cx="8" cy="8" r="8" fill="#A1AEDB"/>
<path fill-rule="evenodd" clip-rule="evenodd" d="M11.5772 4.42306C11.7855 4.63134 11.7855 4.96902 11.5772 5.1773L5.17718 11.5773C4.9689 11.7856 4.63121 11.7856 4.42293 11.5773C4.21465 11.369 4.21465 11.0313 4.42293 10.8231L10.8229 4.42306C11.0312 4.21478 11.3689 4.21478 11.5772 4.42306Z" fill="white"/>
<path fill-rule="evenodd" clip-rule="evenodd" d="M4.42293 4.42306C4.63121 4.21478 4.9689 4.21478 5.17718 4.42306L11.5772 10.8231C11.7855 11.0313 11.7855 11.369 11.5772 11.5773C11.3689 11.7856 11.0312 11.7856 10.8229 11.5773L4.42293 5.1773C4.21465 4.96902 4.21465 4.63134 4.42293 4.42306Z" fill="white"/>
</svg>
