<svg width="20" height="20" viewBox="0 0 20 20" fill="none" xmlns="http://www.w3.org/2000/svg">
<path d="M10 14.3751C12.4162 14.3751 14.375 12.4163 14.375 10.0001C14.375 7.58382 12.4162 5.62506 10 5.62506C7.58375 5.62506 5.625 7.58382 5.625 10.0001C5.625 12.4163 7.58375 14.3751 10 14.3751Z" stroke="#747475" stroke-linecap="round" stroke-linejoin="round"/>
<path d="M16.875 9.37508L17.6802 8.16724C17.7327 8.08943 17.7674 8.00102 17.7818 7.90828C17.7963 7.81555 17.7902 7.72077 17.7639 7.63067C17.612 7.13045 17.4117 6.64618 17.1661 6.18472C17.1211 6.10257 17.0585 6.03137 16.9828 5.97621C16.9071 5.92104 16.8201 5.88327 16.7281 5.86559L15.3033 5.5806L14.4194 4.69673L14.1345 3.27184C14.1168 3.17985 14.079 3.0929 14.0238 3.01719C13.9687 2.94149 13.8975 2.8789 13.8153 2.8339C13.3538 2.58825 12.8695 2.38807 12.3693 2.23618C12.2792 2.20988 12.1844 2.20375 12.0917 2.2182C11.999 2.23266 11.9105 2.26735 11.8327 2.31982L10.625 3.125H9.37497L8.1672 2.31982C8.08939 2.26735 8.00097 2.23266 7.90824 2.2182C7.81551 2.20375 7.72073 2.20988 7.63064 2.23618C7.1304 2.38807 6.64613 2.58825 6.18464 2.83389C6.10248 2.8789 6.03128 2.94149 5.97611 3.0172C5.92094 3.0929 5.88316 3.17986 5.86548 3.27185L5.58056 4.69665L4.69662 5.5806L3.2718 5.86552C3.17982 5.8832 3.09286 5.92097 3.01716 5.97613C2.94146 6.0313 2.87887 6.1025 2.83386 6.18465C2.58818 6.64614 2.38796 7.13043 2.23605 7.63068C2.20976 7.72077 2.20362 7.81555 2.21808 7.90828C2.23254 8.00101 2.26724 8.08942 2.31971 8.16723L3.12489 9.375V10.625L2.31971 11.8328C2.26724 11.9106 2.23254 11.999 2.21809 12.0917C2.20363 12.1845 2.20977 12.2792 2.23606 12.3693C2.38793 12.8696 2.58811 13.3539 2.83377 13.8154C2.87878 13.8975 2.94137 13.9687 3.01707 14.0239C3.09278 14.079 3.17972 14.1168 3.27171 14.1345L4.69662 14.4195L5.58048 15.3033L5.86541 16.7282C5.88309 16.8202 5.92086 16.9072 5.97602 16.9829C6.03119 17.0586 6.10239 17.1212 6.18454 17.1662C6.646 17.4119 7.13027 17.6121 7.63051 17.7639C7.7206 17.7902 7.81537 17.7963 7.90809 17.7819C8.00082 17.7674 8.08922 17.7327 8.16703 17.6803L9.37489 16.8751H10.6249L11.8327 17.6803C11.9105 17.7328 11.9989 17.7675 12.0917 17.7819C12.1844 17.7964 12.2792 17.7903 12.3693 17.764C12.8695 17.6121 13.3538 17.4119 13.8152 17.1663C13.8974 17.1213 13.9686 17.0587 14.0238 16.983C14.0789 16.9073 14.1167 16.8203 14.1344 16.7283L14.4194 15.3034L15.3032 14.4195L16.7281 14.1346C16.8201 14.1169 16.9071 14.0791 16.9828 14.0239C17.0585 13.9688 17.1211 13.8976 17.1661 13.8154C17.4117 13.354 17.612 12.8697 17.7639 12.3695C17.7902 12.2794 17.7963 12.1846 17.7818 12.0919C17.7674 11.9991 17.7327 11.9107 17.6802 11.8329L16.875 10.6251V9.37508Z" stroke="#747475" stroke-linecap="round" stroke-linejoin="round"/>
</svg>
