<svg width="20" height="20" viewBox="0 0 20 20" fill="none" xmlns="http://www.w3.org/2000/svg">
<rect x="0.4" y="0.4" width="19.2" height="19.2" rx="3.6" fill="white"/>
<rect x="0.4" y="0.4" width="19.2" height="19.2" rx="3.6" stroke="#0078D4" stroke-width="0.8"/>
<path d="M11.6179 8.47607H10.9849V11.5211H11.6179C12.4549 11.5211 12.8336 11.0208 12.8336 10.0061C12.8336 8.99057 12.4511 8.47607 11.6179 8.47607Z" fill="#0078D4"/>
<path d="M4 7C4 6.60218 4.15804 6.22064 4.43934 5.93934C4.72064 5.65804 5.10218 5.5 5.5 5.5H14.5C14.8978 5.5 15.2794 5.65804 15.5607 5.93934C15.842 6.22064 16 6.60218 16 7V13C16 13.3978 15.842 13.7794 15.5607 14.0607C15.2794 14.342 14.8978 14.5 14.5 14.5H5.5C5.10218 14.5 4.72064 14.342 4.43934 14.0607C4.15804 13.7794 4 13.3978 4 13V7ZM7.888 10.276C8.3725 10.276 8.67925 10.5595 8.683 10.951C8.689 11.3537 8.36275 11.6403 7.8685 11.6403C7.42 11.6373 7.09075 11.3965 7.0675 11.0732H6.25C6.2725 11.7587 6.84325 12.3393 7.86475 12.3393C8.79475 12.3393 9.5785 11.8443 9.56875 10.9908C9.559 10.276 9.0085 9.95575 8.59975 9.91675V9.87025C8.92975 9.81775 9.4435 9.475 9.43075 8.839C9.421 8.1595 8.83075 7.6615 7.891 7.66525C6.9085 7.669 6.35875 8.21575 6.3355 8.91775H7.16275C7.17925 8.6245 7.45 8.3545 7.86475 8.3545C8.26375 8.3545 8.56075 8.602 8.56075 8.96425C8.56375 9.3235 8.2735 9.5905 7.86475 9.5905H7.39075V10.276H7.888ZM10.0945 12.25H11.7362C13.0938 12.25 13.75 11.4198 13.75 9.98875C13.75 8.56825 13.1042 7.75075 11.7362 7.75075H10.0945V12.25Z" fill="#0078D4"/>
</svg>
