<svg width="28" height="28" viewBox="0 0 28 28" fill="none" xmlns="http://www.w3.org/2000/svg">
<path d="M8.75 10C8.33579 10 8 10.3358 8 10.75V14.25C8 14.6642 8.33579 15 8.75 15H19.25C19.6642 15 20 14.6642 20 14.25V10.75C20 10.3358 19.6642 10 19.25 10H8.75ZM9.5 13.5V11.5H18.5V13.5H9.5ZM15.75 16C15.3358 16 15 16.3358 15 16.75V19.25C15 19.6642 15.3358 20 15.75 20H19.25C19.6642 20 20 19.6642 20 19.25V16.75C20 16.3358 19.6642 16 19.25 16H15.75ZM16.5 18.5V17.5H18.5V18.5H16.5ZM6 5C4.89543 5 4 5.89543 4 7C4 7.74028 4.4022 8.38663 5 8.73244V22.25C5 22.6642 5.33579 23 5.75 23H22.25C22.6642 23 23 22.6642 23 22.25V8.73244C23.5978 8.38663 24 7.74028 24 7C24 5.89543 23.1046 5 22 5H6ZM21.5 9V21.5H13.5V16.75C13.5 16.3358 13.1642 16 12.75 16H8.75C8.33579 16 8 16.3358 8 16.75V21.5H6.5V9H21.5ZM5.5 7C5.5 6.72386 5.72386 6.5 6 6.5H22C22.2761 6.5 22.5 6.72386 22.5 7C22.5 7.27614 22.2761 7.5 22 7.5H6C5.72386 7.5 5.5 7.27614 5.5 7ZM12 21.5H9.5V17.5H12V21.5Z" fill="#0078D4"/>
</svg>
