<svg width="16" height="16" viewBox="0 0 16 16" fill="none" xmlns="http://www.w3.org/2000/svg">
<path d="M3.33333 14C2.96667 14 2.65289 13.8696 2.392 13.6087C2.13111 13.3478 2.00044 13.0338 2 12.6667V3.33333C2 2.96667 2.13067 2.65289 2.392 2.392C2.65333 2.13111 2.96711 2.00044 3.33333 2H12.6667C13.0333 2 13.3473 2.13067 13.6087 2.392C13.87 2.65333 14.0004 2.96711 14 3.33333V12.6667C14 13.0333 13.8696 13.3473 13.6087 13.6087C13.3478 13.87 13.0338 14.0004 12.6667 14H3.33333ZM4 11.3333H12L9.5 8L7.5 10.6667L6 8.66667L4 11.3333Z" fill="#0078D4"/>
<g clip-path="url(#clip0_3452_35141)">
<mask id="path-2-outside-1_3452_35141" maskUnits="userSpaceOnUse" x="8" y="0" width="8" height="8" fill="black">
<rect fill="white" x="8" width="8" height="8"/>
<path fill-rule="evenodd" clip-rule="evenodd" d="M12 1C11.7515 1 11.55 1.20147 11.55 1.45V3.54922H9.45C9.20147 3.54922 9 3.75069 9 3.99922C9 4.24775 9.20147 4.44922 9.45 4.44922H11.55V6.55C11.55 6.79853 11.7515 7 12 7C12.2485 7 12.45 6.79853 12.45 6.55V4.44922H14.55C14.7985 4.44922 15 4.24775 15 3.99922C15 3.75069 14.7985 3.54922 14.55 3.54922H12.45V1.45C12.45 1.20147 12.2485 1 12 1Z"/>
</mask>
<path fill-rule="evenodd" clip-rule="evenodd" d="M12 1C11.7515 1 11.55 1.20147 11.55 1.45V3.54922H9.45C9.20147 3.54922 9 3.75069 9 3.99922C9 4.24775 9.20147 4.44922 9.45 4.44922H11.55V6.55C11.55 6.79853 11.7515 7 12 7C12.2485 7 12.45 6.79853 12.45 6.55V4.44922H14.55C14.7985 4.44922 15 4.24775 15 3.99922C15 3.75069 14.7985 3.54922 14.55 3.54922H12.45V1.45C12.45 1.20147 12.2485 1 12 1Z" fill="#0078D4"/>
<path d="M11.55 3.54922V3.94922H11.95V3.54922H11.55ZM11.55 4.44922H11.95V4.04922H11.55V4.44922ZM12.45 4.44922V4.04922H12.05V4.44922H12.45ZM12.45 3.54922H12.05V3.94922H12.45V3.54922ZM11.95 1.45C11.95 1.42239 11.9724 1.4 12 1.4V0.6C11.5306 0.6 11.15 0.980558 11.15 1.45H11.95ZM11.95 3.54922V1.45H11.15V3.54922H11.95ZM9.45 3.94922H11.55V3.14922H9.45V3.94922ZM9.4 3.99922C9.4 3.9716 9.42239 3.94922 9.45 3.94922V3.14922C8.98056 3.14922 8.6 3.52978 8.6 3.99922H9.4ZM9.45 4.04922C9.42239 4.04922 9.4 4.02683 9.4 3.99922H8.6C8.6 4.46866 8.98056 4.84922 9.45 4.84922V4.04922ZM11.55 4.04922H9.45V4.84922H11.55V4.04922ZM11.95 6.55V4.44922H11.15V6.55H11.95ZM12 6.6C11.9724 6.6 11.95 6.57761 11.95 6.55H11.15C11.15 7.01944 11.5306 7.4 12 7.4V6.6ZM12.05 6.55C12.05 6.57761 12.0276 6.6 12 6.6V7.4C12.4694 7.4 12.85 7.01944 12.85 6.55H12.05ZM12.05 4.44922V6.55H12.85V4.44922H12.05ZM14.55 4.04922H12.45V4.84922H14.55V4.04922ZM14.6 3.99922C14.6 4.02683 14.5776 4.04922 14.55 4.04922V4.84922C15.0194 4.84922 15.4 4.46866 15.4 3.99922H14.6ZM14.55 3.94922C14.5776 3.94922 14.6 3.9716 14.6 3.99922H15.4C15.4 3.52978 15.0194 3.14922 14.55 3.14922V3.94922ZM12.45 3.94922H14.55V3.14922H12.45V3.94922ZM12.05 1.45V3.54922H12.85V1.45H12.05ZM12 1.4C12.0276 1.4 12.05 1.42239 12.05 1.45H12.85C12.85 0.980558 12.4694 0.6 12 0.6V1.4Z" fill="white" mask="url(#path-2-outside-1_3452_35141)"/>
</g>
<defs>
<clipPath id="clip0_3452_35141">
<rect width="8" height="8" fill="white" transform="translate(8)"/>
</clipPath>
</defs>
</svg>
