<svg width="36" height="30" viewBox="0 0 36 30" fill="none" xmlns="http://www.w3.org/2000/svg">
<rect x="0.5" y="0.5" width="35" height="29" rx="7.5" stroke="#0078D4"/>
<path d="M13.3333 21C12.9667 21 12.6529 20.8696 12.392 20.6087C12.1311 20.3478 12.0004 20.0338 12 19.6667V10.3333C12 9.96667 12.1307 9.65289 12.392 9.392C12.6533 9.13111 12.9671 9.00044 13.3333 9H22.6667C23.0333 9 23.3473 9.13067 23.6087 9.392C23.87 9.65333 24.0004 9.96711 24 10.3333V19.6667C24 20.0333 23.8696 20.3473 23.6087 20.6087C23.3478 20.87 23.0338 21.0004 22.6667 21H13.3333ZM14 18.3333H22L19.5 15L17.5 17.6667L16 15.6667L14 18.3333Z" fill="#0078D4"/>
<g clip-path="url(#clip0_3452_33448)">
<mask id="path-3-outside-1_3452_33448" maskUnits="userSpaceOnUse" x="18" y="7" width="8" height="8" fill="black">
<rect fill="white" x="18" y="7" width="8" height="8"/>
<path fill-rule="evenodd" clip-rule="evenodd" d="M22 8C21.7515 8 21.55 8.20147 21.55 8.45V10.5488H19.45C19.2015 10.5488 19 10.7503 19 10.9988C19 11.2474 19.2015 11.4488 19.45 11.4488H21.55V13.55C21.55 13.7985 21.7515 14 22 14C22.2485 14 22.45 13.7985 22.45 13.55V11.4488H24.55C24.7985 11.4488 25 11.2474 25 10.9988C25 10.7503 24.7985 10.5488 24.55 10.5488H22.45V8.45C22.45 8.20147 22.2485 8 22 8Z"/>
</mask>
<path fill-rule="evenodd" clip-rule="evenodd" d="M22 8C21.7515 8 21.55 8.20147 21.55 8.45V10.5488H19.45C19.2015 10.5488 19 10.7503 19 10.9988C19 11.2474 19.2015 11.4488 19.45 11.4488H21.55V13.55C21.55 13.7985 21.7515 14 22 14C22.2485 14 22.45 13.7985 22.45 13.55V11.4488H24.55C24.7985 11.4488 25 11.2474 25 10.9988C25 10.7503 24.7985 10.5488 24.55 10.5488H22.45V8.45C22.45 8.20147 22.2485 8 22 8Z" fill="#0078D4"/>
<path d="M21.55 10.5488V10.9488H21.95V10.5488H21.55ZM21.55 11.4488H21.95V11.0488H21.55V11.4488ZM22.45 11.4488V11.0488H22.05V11.4488H22.45ZM22.45 10.5488H22.05V10.9488H22.45V10.5488ZM21.95 8.45C21.95 8.42239 21.9724 8.4 22 8.4V7.6C21.5306 7.6 21.15 7.98056 21.15 8.45H21.95ZM21.95 10.5488V8.45H21.15V10.5488H21.95ZM19.45 10.9488H21.55V10.1488H19.45V10.9488ZM19.4 10.9988C19.4 10.9712 19.4224 10.9488 19.45 10.9488V10.1488C18.9806 10.1488 18.6 10.5294 18.6 10.9988H19.4ZM19.45 11.0488C19.4224 11.0488 19.4 11.0264 19.4 10.9988H18.6C18.6 11.4683 18.9806 11.8488 19.45 11.8488V11.0488ZM21.55 11.0488H19.45V11.8488H21.55V11.0488ZM21.95 13.55V11.4488H21.15V13.55H21.95ZM22 13.6C21.9724 13.6 21.95 13.5776 21.95 13.55H21.15C21.15 14.0194 21.5306 14.4 22 14.4V13.6ZM22.05 13.55C22.05 13.5776 22.0276 13.6 22 13.6V14.4C22.4694 14.4 22.85 14.0194 22.85 13.55H22.05ZM22.05 11.4488V13.55H22.85V11.4488H22.05ZM24.55 11.0488H22.45V11.8488H24.55V11.0488ZM24.6 10.9988C24.6 11.0264 24.5776 11.0488 24.55 11.0488V11.8488C25.0194 11.8488 25.4 11.4683 25.4 10.9988H24.6ZM24.55 10.9488C24.5776 10.9488 24.6 10.9712 24.6 10.9988H25.4C25.4 10.5294 25.0194 10.1488 24.55 10.1488V10.9488ZM22.45 10.9488H24.55V10.1488H22.45V10.9488ZM22.05 8.45V10.5488H22.85V8.45H22.05ZM22 8.4C22.0276 8.4 22.05 8.42239 22.05 8.45H22.85C22.85 7.98056 22.4694 7.6 22 7.6V8.4Z" fill="white" mask="url(#path-3-outside-1_3452_33448)"/>
</g>
<defs>
<clipPath id="clip0_3452_33448">
<rect width="8" height="8" fill="white" transform="translate(18 7)"/>
</clipPath>
</defs>
</svg>
