<svg width="22" height="22" viewBox="0 0 22 22" fill="none" xmlns="http://www.w3.org/2000/svg">
<path d="M16.1132 4.06259L14.2799 3.10009C12.6702 2.25584 11.8654 1.83325 11 1.83325C10.1347 1.83325 9.32987 2.25492 7.72021 3.10009L7.42596 3.255L15.6054 7.92909L19.2867 6.08659C18.6945 5.41559 17.7394 4.91417 16.1132 4.06075M19.9357 7.30025L16.2709 9.13358V11.9166C16.2709 12.0989 16.1984 12.2738 16.0695 12.4027C15.9406 12.5317 15.7657 12.6041 15.5834 12.6041C15.401 12.6041 15.2262 12.5317 15.0972 12.4027C14.9683 12.2738 14.8959 12.0989 14.8959 11.9166V9.82109L11.6875 11.4253V20.0786C12.3457 19.9145 13.0946 19.5222 14.2799 18.8998L16.1132 17.9373C18.085 16.9023 19.0713 16.3853 19.6195 15.4549C20.1667 14.5254 20.1667 13.3677 20.1667 11.0549V10.9477C20.1667 9.21242 20.1667 8.12709 19.9357 7.30025ZM10.3125 20.0786V11.4253L2.06437 7.30025C1.83337 8.12709 1.83337 9.21242 1.83337 10.9458V11.0531C1.83337 13.3677 1.83337 14.5254 2.38062 15.4549C2.92879 16.3853 3.91512 16.9033 5.88687 17.9382L7.72021 18.8998C8.90546 19.5222 9.65437 19.9145 10.3125 20.0786ZM2.71337 6.0875L11 10.2308L14.1268 8.66792L5.98129 4.01309L5.88687 4.06259C4.26162 4.91509 3.30554 5.4165 2.71337 6.08842" fill="url(#paint0_linear_3715_42643)"/>
<defs>
<linearGradient id="paint0_linear_3715_42643" x1="11" y1="1.83325" x2="11" y2="20.0786" gradientUnits="userSpaceOnUse">
<stop stop-color="white"/>
<stop offset="1" stop-color="white" stop-opacity="0.8"/>
</linearGradient>
</defs>
</svg>
