<svg width="28" height="28" viewBox="0 0 28 28" fill="none" xmlns="http://www.w3.org/2000/svg">
<path d="M12.5911 4.51203C13.4947 4.14573 14.5053 4.14573 15.4089 4.51203L22.9075 7.552C23.5679 7.81973 24 8.46118 24 9.1738V14.8096C23.5557 14.3832 23.051 14.0194 22.5 13.7322V9.77218L14.7503 12.7644V15.0625C14.0581 15.8031 13.5371 16.7058 13.2503 17.7073V12.7631L5.5 9.74905V18.8265C5.5 18.9283 5.56173 19.0199 5.65607 19.0582L13.1547 22.0982C13.1863 22.111 13.2183 22.1231 13.2503 22.1344V22.1332L13.439 22.2099C13.4976 22.2338 13.5575 22.2538 13.618 22.2699C13.8663 22.7963 14.1832 23.2839 14.5572 23.7214C13.898 23.8204 13.2187 23.7427 12.5911 23.4883L5.09252 20.4483C4.43211 20.1806 4 19.5391 4 18.8265V9.1738C4 8.46118 4.43211 7.81973 5.09252 7.552L12.5911 4.51203ZM14.8453 5.90214C14.3032 5.68236 13.6968 5.68236 13.1547 5.90214L11.2413 6.67784L18.7684 9.60506L21.4373 8.57457L14.8453 5.90214ZM6.58998 8.5635L14.0013 11.4457L16.6917 10.4069L9.21503 7.49929L6.58998 8.5635ZM25 19.5C25 16.4624 22.5376 14 19.5 14C16.4624 14 14 16.4624 14 19.5C14 22.5376 16.4624 25 19.5 25C22.5376 25 25 22.5376 25 19.5ZM19.5424 16.0018L19.6281 16.0166L19.691 16.0378L19.7585 16.0719L19.806 16.104L22.3536 18.6464L22.4114 18.7157C22.5464 18.9106 22.5271 19.18 22.3536 19.3536C22.18 19.5271 21.9106 19.5464 21.7157 19.4114L21.6464 19.3536L19.999 17.706L20 23L19.9919 23.0899C19.9549 23.294 19.794 23.4549 19.5899 23.4919L19.5 23.5L19.4101 23.4919C19.206 23.4549 19.0451 23.294 19.0081 23.0899L19 23L18.999 17.708L17.3536 19.3536L17.2843 19.4114C17.1138 19.5295 16.8862 19.5295 16.7157 19.4114L16.6464 19.3536L16.5886 19.2843C16.4705 19.1138 16.4705 18.8862 16.5886 18.7157L16.6464 18.6464L19.1589 16.1344L19.2153 16.0888L19.2886 16.0467L19.3719 16.0166L19.432 16.005L19.488 16L19.5424 16.0018Z" fill="#0078D4"/>
</svg>
