<svg width="28" height="28" viewBox="0 0 28 28" fill="none" xmlns="http://www.w3.org/2000/svg">
<path d="M18.7489 4L23.3027 4.00052L23.403 4.01444L23.5018 4.04205L23.5621 4.0676C23.6413 4.10246 23.7155 4.15315 23.7808 4.21836L23.8215 4.2624L23.865 4.31878L23.9192 4.4089L23.9579 4.49922L23.977 4.5633L23.9906 4.6273L24 4.7215L24.0004 9.25389C24.0004 9.6681 23.6647 10.0039 23.2504 10.0039C22.8708 10.0039 22.557 9.72174 22.5073 9.35566L22.5004 9.25389L22.5 6.559L16.0607 12.9997C15.7944 13.266 15.3777 13.2902 15.0841 13.0724L15 12.9998L11.9697 10.0892L6.28033 15.7786C5.98744 16.0715 5.51256 16.0715 5.21967 15.7786C4.9534 15.5123 4.9292 15.0957 5.14705 14.8021L5.21967 14.7179L11.4394 8.49826C11.7056 8.23199 12.1223 8.20779 12.4159 8.42563L12.5 8.49825L15.5303 11.4088L21.438 5.5H18.7489C18.3692 5.5 18.0554 5.21785 18.0058 4.85177L17.9989 4.75C17.9989 4.3703 18.2811 4.05651 18.6472 4.00685L18.7489 4ZM5.75 19C6.16421 19 6.5 19.3358 6.5 19.75V23.25C6.5 23.6642 6.16421 24 5.75 24C5.33579 24 5 23.6642 5 23.25V19.75C5 19.3358 5.33579 19 5.75 19ZM11.5 15.75C11.5 15.3358 11.1642 15 10.75 15C10.3358 15 10 15.3358 10 15.75V23.25C10 23.6642 10.3358 24 10.75 24C11.1642 24 11.5 23.6642 11.5 23.25V15.75ZM15.75 17C16.1642 17 16.5 17.3358 16.5 17.75V23.25C16.5 23.6642 16.1642 24 15.75 24C15.3358 24 15 23.6642 15 23.25V17.75C15 17.3358 15.3358 17 15.75 17ZM21.5 12.75C21.5 12.3358 21.1642 12 20.75 12C20.3358 12 20 12.3358 20 12.75V23.25C20 23.6642 20.3358 24 20.75 24C21.1642 24 21.5 23.6642 21.5 23.25V12.75Z" fill="#0078D4"/>
</svg>
