<svg width="16" height="16" viewBox="0 0 16 16" fill="none" xmlns="http://www.w3.org/2000/svg">
<path d="M8.00006 6.75L8.00008 13.5" stroke="white" stroke-linecap="round" stroke-linejoin="round"/>
<path d="M8.00008 2.5L8.00006 4.25" stroke="white" stroke-linecap="round" stroke-linejoin="round"/>
<path d="M8.00006 6.75C8.69042 6.75 9.25006 6.19036 9.25006 5.5C9.25006 4.80964 8.69042 4.25 8.00006 4.25C7.30971 4.25 6.75006 4.80964 6.75006 5.5C6.75006 6.19036 7.30971 6.75 8.00006 6.75Z" stroke="white" stroke-linecap="round" stroke-linejoin="round"/>
<path d="M12.5001 11.75L12.5002 13.5" stroke="white" stroke-linecap="round" stroke-linejoin="round"/>
<path d="M12.5002 2.5L12.5001 9.25" stroke="white" stroke-linecap="round" stroke-linejoin="round"/>
<path d="M12.5001 11.75C13.1904 11.75 13.7501 11.1904 13.7501 10.5C13.7501 9.80964 13.1904 9.25 12.5001 9.25C11.8097 9.25 11.2501 9.80964 11.2501 10.5C11.2501 11.1904 11.8097 11.75 12.5001 11.75Z" stroke="white" stroke-linecap="round" stroke-linejoin="round"/>
<path d="M3.5001 9.75L3.50003 13.5" stroke="white" stroke-linecap="round" stroke-linejoin="round"/>
<path d="M3.50003 2.5L3.5001 7.25" stroke="white" stroke-linecap="round" stroke-linejoin="round"/>
<path d="M3.50006 9.75C4.19042 9.75 4.75006 9.19036 4.75006 8.5C4.75006 7.80964 4.19042 7.25 3.50006 7.25C2.80971 7.25 2.25006 7.80964 2.25006 8.5C2.25006 9.19036 2.80971 9.75 3.50006 9.75Z" stroke="white" stroke-linecap="round" stroke-linejoin="round"/>
</svg>
