<svg width="34" height="34" viewBox="0 0 34 34" fill="none" xmlns="http://www.w3.org/2000/svg">
<circle cx="17" cy="17" r="16.5" fill="white" stroke="#F3F4F9"/>
<path d="M16.9998 16.5562C17.6151 16.5562 18.2166 16.3737 18.7282 16.0319C19.2398 15.69 19.6386 15.2041 19.8741 14.6357C20.1095 14.0672 20.1712 13.4416 20.0511 12.8381C19.9311 12.2347 19.6348 11.6803 19.1997 11.2452C18.7646 10.8101 18.2102 10.5138 17.6067 10.3938C17.0032 10.2737 16.3777 10.3353 15.8092 10.5708C15.2407 10.8063 14.7548 11.205 14.413 11.7167C14.0711 12.2283 13.8887 12.8298 13.8887 13.4451C13.8887 14.2702 14.2164 15.0615 14.7999 15.645C15.3833 16.2284 16.1747 16.5562 16.9998 16.5562ZM16.9998 11.2229C17.4393 11.2229 17.8689 11.3532 18.2344 11.5974C18.5998 11.8416 18.8847 12.1886 19.0528 12.5947C19.221 13.0007 19.2651 13.4476 19.1793 13.8786C19.0936 14.3097 18.8819 14.7057 18.5711 15.0164C18.2603 15.3272 17.8644 15.5389 17.4333 15.6246C17.0022 15.7104 16.5554 15.6664 16.1494 15.4982C15.7433 15.33 15.3963 15.0451 15.1521 14.6797C14.9079 14.3143 14.7776 13.8846 14.7776 13.4451C14.7776 12.8557 15.0117 12.2905 15.4284 11.8737C15.8452 11.457 16.4104 11.2229 16.9998 11.2229Z" fill="#0078D4"/>
<path d="M22.5422 19.8304C21.8294 19.077 20.9705 18.477 20.018 18.0669C19.0654 17.6568 18.0392 17.4453 17.0022 17.4453C15.9651 17.4453 14.9389 17.6568 13.9864 18.0669C13.0338 18.477 12.1749 19.077 11.4622 19.8304C11.3076 19.9954 11.2218 20.2132 11.2222 20.4393V22.777C11.2222 23.0128 11.3158 23.2389 11.4825 23.4056C11.6492 23.5723 11.8753 23.6659 12.1111 23.6659H21.8888C22.1246 23.6659 22.3507 23.5723 22.5174 23.4056C22.6841 23.2389 22.7777 23.0128 22.7777 22.777V20.4393C22.7793 20.2138 22.6951 19.9961 22.5422 19.8304ZM21.8888 22.777H12.1111V20.4348C12.7409 19.7716 13.4992 19.2434 14.3397 18.8825C15.1801 18.5216 16.0853 18.3355 16.9999 18.3355C17.9146 18.3355 18.8198 18.5216 19.6602 18.8825C20.5007 19.2434 21.259 19.7716 21.8888 20.4348V22.777Z" fill="#0078D4"/>
</svg>
