<svg width="49" height="49" viewBox="0 0 49 49" fill="none" xmlns="http://www.w3.org/2000/svg">
<rect width="49" height="49" rx="16" fill="#2D4982"/>
<path fill-rule="evenodd" clip-rule="evenodd" d="M21.7529 10.0551C21.5909 10.1012 21.3989 10.2417 21.1531 10.4939C20.8579 10.7971 20.7232 11.01 20.4174 11.6568C19.9124 12.7249 19.8197 12.8448 19.5007 12.8434C19.3632 12.8428 18.9691 12.7737 18.625 12.6898C17.3125 12.3696 16.608 12.4285 16.1617 12.8957C15.7743 13.3014 15.693 13.6256 15.6476 14.9459C15.6258 15.5824 15.5871 16.1501 15.5618 16.2075C15.505 16.3363 15.054 16.5107 14.4246 16.6472C13.5599 16.8347 13.0569 17.0333 12.7524 17.3072C12.4044 17.6204 12.2529 17.9471 12.2516 18.3873C12.2503 18.8469 12.3218 19.0799 12.7596 20.0409C12.968 20.4981 13.1559 20.9437 13.1774 21.0311C13.2339 21.2613 13.1111 21.416 12.415 21.9921C11.2988 22.9157 11 23.3378 11 23.9909C11 24.644 11.2988 25.0661 12.415 25.9898C13.1111 26.5658 13.2339 26.7205 13.1774 26.9507C13.1559 27.0381 12.968 27.4837 12.7596 27.9409C12.3218 28.9019 12.2503 29.1349 12.2516 29.5945C12.2543 30.4994 12.8836 31.0036 14.4246 31.3354C15.0524 31.4705 15.5049 31.6452 15.5618 31.7743C15.5871 31.8317 15.6259 32.3994 15.6479 33.0359C15.696 34.4224 15.7817 34.7373 16.2178 35.1298C16.6959 35.56 17.2925 35.6009 18.6065 35.2933C18.9732 35.2075 19.3808 35.1373 19.5121 35.1373C19.8181 35.1373 19.9174 35.2676 20.4174 36.325C20.9791 37.5132 21.5042 38 22.2241 38C22.6411 38 23.1813 37.7006 24.0762 36.9734C24.371 36.7339 24.6994 36.4956 24.8061 36.4438C25.0655 36.318 25.194 36.3834 26.0724 37.0878C27.0921 37.9055 27.5457 38.0892 28.1684 37.9365C28.4304 37.8723 28.5481 37.7944 28.8469 37.4878C29.1421 37.1847 29.2768 36.9719 29.5826 36.325C30.0826 35.2676 30.1819 35.1373 30.4879 35.1373C30.6192 35.1373 31.0268 35.2075 31.3935 35.2933C32.7075 35.6009 33.3041 35.56 33.7822 35.1298C34.2183 34.7373 34.304 34.4224 34.3521 33.0359C34.3741 32.3994 34.4129 31.8317 34.4382 31.7743C34.496 31.6431 34.9575 31.4655 35.5754 31.3366C37.1069 31.0171 37.7457 30.505 37.7484 29.5945C37.7497 29.1349 37.6782 28.9019 37.2404 27.9409C37.032 27.4837 36.8441 27.0381 36.8226 26.9507C36.7661 26.7205 36.8889 26.5658 37.585 25.9898C38.7012 25.0661 39 24.644 39 23.9909C39 23.3378 38.7012 22.9157 37.585 21.9921C36.8889 21.416 36.7661 21.2613 36.8226 21.0311C36.8441 20.9437 37.032 20.4981 37.2404 20.0409C37.6782 19.0799 37.7497 18.8469 37.7484 18.3873C37.7457 17.4769 37.1069 16.9647 35.5754 16.6452C34.8048 16.4845 34.4942 16.344 34.4186 16.1221C34.3831 16.0179 34.354 15.5444 34.354 15.0698C34.354 13.767 34.2516 13.3413 33.83 12.8914C33.3961 12.4283 32.7309 12.3726 31.3935 12.6876C31.0268 12.7739 30.6192 12.8445 30.4879 12.8445C30.1819 12.8445 30.0826 12.7142 29.5826 11.6568C29.2768 11.0099 29.1421 10.7971 28.8469 10.494C28.5481 10.1874 28.4304 10.1095 28.1684 10.0453C27.6004 9.9061 27.0975 10.0819 26.3405 10.6843C25.4428 11.3988 25.1648 11.5857 25 11.5857C24.8352 11.5857 24.5572 11.3988 23.6595 10.6843C22.9064 10.0851 22.3239 9.89276 21.7529 10.0551ZM22.6906 18.7071C23.1367 18.916 23.5665 19.3346 23.7828 19.7711C23.9412 20.0906 23.9574 20.1795 23.9574 20.7323C23.9574 21.277 23.9396 21.3783 23.7895 21.6909C22.9628 23.4119 20.6281 23.3752 19.8273 21.6287C19.691 21.3316 19.6677 21.2 19.6679 20.7323C19.6683 20.1086 19.7803 19.7815 20.1526 19.317C20.7634 18.555 21.822 18.3006 22.6906 18.7071ZM29.7087 18.906C29.9421 19.0294 30.083 19.3156 30.0327 19.5642C29.9754 19.8478 20.9473 29.0774 20.6699 29.136C20.2758 29.2192 19.8856 28.8201 19.9676 28.4176C19.9987 28.265 20.9416 27.266 24.4249 23.6951C26.8548 21.2042 28.9474 19.0869 29.0752 18.9899C29.3386 18.7901 29.4593 18.7742 29.7087 18.906ZM21.3634 19.8643C21.0667 20.0173 20.8294 20.4029 20.8294 20.7323C20.8294 20.98 21.0567 21.4257 21.2606 21.5775C21.3639 21.6545 21.5493 21.7079 21.767 21.7235C22.0541 21.744 22.1443 21.7245 22.3175 21.6042C22.4314 21.525 22.5879 21.365 22.6654 21.2485C22.783 21.0715 22.8022 20.9793 22.7821 20.6858C22.7668 20.4632 22.7146 20.2737 22.6393 20.1681C22.4907 19.9596 22.0549 19.7273 21.8125 19.7273C21.7117 19.7273 21.5096 19.7889 21.3634 19.8643ZM29.1575 25.2524C29.5538 25.4555 29.9661 25.9025 30.1727 26.3531C30.3088 26.65 30.3324 26.7822 30.3324 27.2495C30.3324 27.7173 30.3088 27.849 30.1722 28.1471C29.9676 28.5934 29.5021 29.0693 29.0655 29.2785C28.7739 29.4182 28.645 29.4423 28.1875 29.4423C27.7304 29.4423 27.601 29.4182 27.3106 29.279C26.8606 29.0634 26.4324 28.6451 26.2171 28.2107C26.0588 27.8912 26.0426 27.8023 26.0426 27.2495C26.0426 26.7048 26.0604 26.6035 26.2105 26.2909C26.7541 25.1591 28.0703 24.6954 29.1575 25.2524ZM27.6825 26.3776C27.5686 26.4568 27.4121 26.6168 27.3346 26.7333C27.217 26.9103 27.1978 27.0025 27.2179 27.296C27.2332 27.5186 27.2854 27.7081 27.3607 27.8137C27.51 28.0233 27.9456 28.2545 28.1908 28.2545C28.4984 28.2545 28.8784 28.0084 29.0334 27.7088C29.206 27.3751 29.2068 27.1346 29.0365 26.7939C28.8513 26.4235 28.6481 26.288 28.233 26.2583C27.9459 26.2378 27.8557 26.2573 27.6825 26.3776Z" fill="url(#paint0_linear_2361_22035)"/>
<defs>
<linearGradient id="paint0_linear_2361_22035" x1="25" y1="10" x2="25" y2="38" gradientUnits="userSpaceOnUse">
<stop stop-color="white"/>
<stop offset="1" stop-color="white" stop-opacity="0.73"/>
</linearGradient>
</defs>
</svg>
