<svg width="146" height="144" viewBox="0 0 146 144" fill="none" xmlns="http://www.w3.org/2000/svg">
<path d="M91.1738 4.3163C85.1079 1.98311 78.3922 1.98311 72.3263 4.3163L28.9175 21.0113C26.4406 21.963 24.3104 23.6431 22.8077 25.83C21.305 28.0169 20.5004 30.6079 20.5 33.2613V55.7488C23.33 54.745 26.2659 54.0697 29.25 53.7363V35.7638L77.375 56.3875V118.066L81.2425 121.934C84.6349 121.998 88.0076 121.403 91.1738 120.184L134.591 103.489C137.067 102.536 139.195 100.855 140.696 98.6682C142.197 96.4815 143 93.8912 143 91.2388V33.2613C143 30.6089 142.197 28.0186 140.696 25.8319C139.195 23.6451 137.067 21.9644 134.591 21.0113L91.1738 4.3163ZM75.4675 12.48C79.5114 10.9246 83.9886 10.9246 88.0325 12.48L129.315 28.3613L112.279 35.6588L63.3575 17.1438L75.4675 12.48ZM86.125 56.3875L134.25 35.7638V91.2388C134.251 92.1231 133.984 92.9869 133.484 93.7164C132.984 94.4458 132.275 95.0067 131.45 95.325L88.0325 112.02C87.4096 112.262 86.7726 112.467 86.125 112.633V56.3875ZM81.75 48.74L34.185 28.3525L51.0988 21.8513L100.685 40.6288L81.75 48.74ZM33.625 123.5C40.5025 123.5 46.855 121.225 51.965 117.401L74.2775 139.714C74.6837 140.121 75.1661 140.443 75.697 140.664C76.2279 140.884 76.7971 140.998 77.3719 140.998C77.9468 140.999 78.5161 140.886 79.0473 140.666C79.5786 140.446 80.0614 140.124 80.4682 139.718C80.8749 139.312 81.1977 138.83 81.4181 138.299C81.6384 137.768 81.7521 137.199 81.7525 136.624C81.7529 136.049 81.64 135.48 81.4204 134.948C81.2008 134.417 80.8787 133.934 80.4725 133.528L58.16 111.215C62.2901 105.692 64.435 98.9363 64.2475 92.0422C64.0599 85.1481 61.5509 78.5192 57.1266 73.2287C52.7023 67.9382 46.6218 64.2959 39.8697 62.8916C33.1175 61.4874 26.089 62.4032 19.9223 65.491C13.7555 68.5788 8.81149 73.6577 5.89076 79.9053C2.97003 86.153 2.24359 93.2035 3.82906 99.9155C5.41453 106.627 9.21909 112.608 14.6267 116.888C20.0343 121.168 26.7284 123.498 33.625 123.5ZM33.625 114.75C27.8234 114.75 22.2594 112.445 18.1571 108.343C14.0547 104.241 11.75 98.6767 11.75 92.875C11.75 87.0734 14.0547 81.5094 18.1571 77.4071C22.2594 73.3047 27.8234 71 33.625 71C39.4266 71 44.9906 73.3047 49.093 77.4071C53.1953 81.5094 55.5 87.0734 55.5 92.875C55.5 98.6767 53.1953 104.241 49.093 108.343C44.9906 112.445 39.4266 114.75 33.625 114.75Z" fill="#747475" stroke="#F6F7F9" stroke-width="5"/>
</svg>
