<svg width="28" height="28" viewBox="0 0 28 28" fill="none" xmlns="http://www.w3.org/2000/svg">
<rect opacity="0.2" width="28" height="28" rx="8" fill="white"/>
<path d="M14.8334 12.3333H6.50008C6.04175 12.3333 5.66675 12.7083 5.66675 13.1667C5.66675 13.625 6.04175 14 6.50008 14H14.8334C15.2917 14 15.6667 13.625 15.6667 13.1667C15.6667 12.7083 15.2917 12.3333 14.8334 12.3333ZM14.8334 9H6.50008C6.04175 9 5.66675 9.375 5.66675 9.83333C5.66675 10.2917 6.04175 10.6667 6.50008 10.6667H14.8334C15.2917 10.6667 15.6667 10.2917 15.6667 9.83333C15.6667 9.375 15.2917 9 14.8334 9ZM6.50008 17.3333H11.5001C11.9584 17.3333 12.3334 16.9583 12.3334 16.5C12.3334 16.0417 11.9584 15.6667 11.5001 15.6667H6.50008C6.04175 15.6667 5.66675 16.0417 5.66675 16.5C5.66675 16.9583 6.04175 17.3333 6.50008 17.3333ZM22.5084 14.175L22.5834 14.25C22.9084 14.575 22.9084 15.1 22.5834 15.425L17.9334 20.0833C17.6084 20.4083 17.0834 20.4083 16.7584 20.0833L14.1834 17.5083C13.8584 17.1833 13.8584 16.6583 14.1834 16.3333L14.2584 16.2583C14.5834 15.9333 15.1084 15.9333 15.4334 16.2583L17.3501 18.175L21.3334 14.1833C21.6501 13.85 22.1834 13.85 22.5084 14.175Z" fill="white"/>
</svg>
