<svg width="60" height="60" viewBox="0 0 60 60" fill="none" xmlns="http://www.w3.org/2000/svg">
<g filter="url(#filter0_d_2369_28453)">
<circle cx="30" cy="30" r="20" fill="white"/>
</g>
<path d="M32.8125 22.6875H27.1875V25.5H32.8125V22.6875Z" stroke="#0078D4" stroke-width="0.8" stroke-linecap="round" stroke-linejoin="round"/>
<path d="M32.8125 23.8125H35.0625C35.2117 23.8125 35.3548 23.8718 35.4602 23.9773C35.5657 24.0827 35.625 24.2258 35.625 24.375V36.1875C35.625 36.3367 35.5657 36.4798 35.4602 36.5852C35.3548 36.6907 35.2117 36.75 35.0625 36.75H24.9375C24.7883 36.75 24.6452 36.6907 24.5398 36.5852C24.4343 36.4798 24.375 36.3367 24.375 36.1875V24.375C24.375 24.2258 24.4343 24.0827 24.5398 23.9773C24.6452 23.8718 24.7883 23.8125 24.9375 23.8125H27.1875" stroke="#0078D4" stroke-width="0.8" stroke-linecap="round" stroke-linejoin="round"/>
<path d="M27.75 31.6875H32.25" stroke="#0078D4" stroke-width="0.8" stroke-linecap="round" stroke-linejoin="round"/>
<path d="M27.75 29.4375H32.25" stroke="#0078D4" stroke-width="0.8" stroke-linecap="round" stroke-linejoin="round"/>
<defs>
<filter id="filter0_d_2369_28453" x="0" y="0" width="60" height="60" filterUnits="userSpaceOnUse" color-interpolation-filters="sRGB">
<feFlood flood-opacity="0" result="BackgroundImageFix"/>
<feColorMatrix in="SourceAlpha" type="matrix" values="0 0 0 0 0 0 0 0 0 0 0 0 0 0 0 0 0 0 127 0" result="hardAlpha"/>
<feOffset/>
<feGaussianBlur stdDeviation="5"/>
<feComposite in2="hardAlpha" operator="out"/>
<feColorMatrix type="matrix" values="0 0 0 0 0.454902 0 0 0 0 0.454902 0 0 0 0 0.458824 0 0 0 0.12 0"/>
<feBlend mode="normal" in2="BackgroundImageFix" result="effect1_dropShadow_2369_28453"/>
<feBlend mode="normal" in="SourceGraphic" in2="effect1_dropShadow_2369_28453" result="shape"/>
</filter>
</defs>
</svg>
