<svg width="16" height="16" viewBox="0 0 16 16" fill="none" xmlns="http://www.w3.org/2000/svg">
<path d="M13 3.5H11.2675L10.4156 2.2225C10.37 2.15409 10.3082 2.098 10.2357 2.05919C10.1632 2.02038 10.0822 2.00005 10 2H6C5.91777 2.00005 5.83682 2.02038 5.76432 2.05919C5.69182 2.098 5.63001 2.15409 5.58437 2.2225L4.73187 3.5H3C2.60218 3.5 2.22064 3.65804 1.93934 3.93934C1.65804 4.22064 1.5 4.60218 1.5 5V12C1.5 12.3978 1.65804 12.7794 1.93934 13.0607C2.22064 13.342 2.60218 13.5 3 13.5H13C13.3978 13.5 13.7794 13.342 14.0607 13.0607C14.342 12.7794 14.5 12.3978 14.5 12V5C14.5 4.60218 14.342 4.22064 14.0607 3.93934C13.7794 3.65804 13.3978 3.5 13 3.5ZM10.25 8.25C10.25 8.69501 10.118 9.13002 9.87081 9.50003C9.62357 9.87004 9.27217 10.1584 8.86104 10.3287C8.4499 10.499 7.9975 10.5436 7.56105 10.4568C7.12459 10.37 6.72368 10.1557 6.40901 9.84099C6.09434 9.52632 5.88005 9.12541 5.79323 8.68895C5.70642 8.2525 5.75097 7.8001 5.92127 7.38896C6.09157 6.97783 6.37996 6.62643 6.74997 6.37919C7.11998 6.13196 7.55499 6 8 6C8.59674 6 9.16903 6.23705 9.59099 6.65901C10.0129 7.08097 10.25 7.65326 10.25 8.25Z" fill="#0078D4"/>
<g clip-path="url(#clip0_3452_35145)">
<mask id="path-2-outside-1_3452_35145" maskUnits="userSpaceOnUse" x="8" y="0" width="8" height="8" fill="black">
<rect fill="white" x="8" width="8" height="8"/>
<path fill-rule="evenodd" clip-rule="evenodd" d="M12 1C11.7515 1 11.55 1.20147 11.55 1.45V3.54922H9.45C9.20147 3.54922 9 3.75069 9 3.99922C9 4.24775 9.20147 4.44922 9.45 4.44922H11.55V6.55C11.55 6.79853 11.7515 7 12 7C12.2485 7 12.45 6.79853 12.45 6.55V4.44922H14.55C14.7985 4.44922 15 4.24775 15 3.99922C15 3.75069 14.7985 3.54922 14.55 3.54922H12.45V1.45C12.45 1.20147 12.2485 1 12 1Z"/>
</mask>
<path fill-rule="evenodd" clip-rule="evenodd" d="M12 1C11.7515 1 11.55 1.20147 11.55 1.45V3.54922H9.45C9.20147 3.54922 9 3.75069 9 3.99922C9 4.24775 9.20147 4.44922 9.45 4.44922H11.55V6.55C11.55 6.79853 11.7515 7 12 7C12.2485 7 12.45 6.79853 12.45 6.55V4.44922H14.55C14.7985 4.44922 15 4.24775 15 3.99922C15 3.75069 14.7985 3.54922 14.55 3.54922H12.45V1.45C12.45 1.20147 12.2485 1 12 1Z" fill="#0078D4"/>
<path d="M11.55 3.54922V3.94922H11.95V3.54922H11.55ZM11.55 4.44922H11.95V4.04922H11.55V4.44922ZM12.45 4.44922V4.04922H12.05V4.44922H12.45ZM12.45 3.54922H12.05V3.94922H12.45V3.54922ZM11.95 1.45C11.95 1.42239 11.9724 1.4 12 1.4V0.6C11.5306 0.6 11.15 0.980558 11.15 1.45H11.95ZM11.95 3.54922V1.45H11.15V3.54922H11.95ZM9.45 3.94922H11.55V3.14922H9.45V3.94922ZM9.4 3.99922C9.4 3.9716 9.42239 3.94922 9.45 3.94922V3.14922C8.98056 3.14922 8.6 3.52978 8.6 3.99922H9.4ZM9.45 4.04922C9.42239 4.04922 9.4 4.02683 9.4 3.99922H8.6C8.6 4.46866 8.98056 4.84922 9.45 4.84922V4.04922ZM11.55 4.04922H9.45V4.84922H11.55V4.04922ZM11.95 6.55V4.44922H11.15V6.55H11.95ZM12 6.6C11.9724 6.6 11.95 6.57761 11.95 6.55H11.15C11.15 7.01944 11.5306 7.4 12 7.4V6.6ZM12.05 6.55C12.05 6.57761 12.0276 6.6 12 6.6V7.4C12.4694 7.4 12.85 7.01944 12.85 6.55H12.05ZM12.05 4.44922V6.55H12.85V4.44922H12.05ZM14.55 4.04922H12.45V4.84922H14.55V4.04922ZM14.6 3.99922C14.6 4.02683 14.5776 4.04922 14.55 4.04922V4.84922C15.0194 4.84922 15.4 4.46866 15.4 3.99922H14.6ZM14.55 3.94922C14.5776 3.94922 14.6 3.9716 14.6 3.99922H15.4C15.4 3.52978 15.0194 3.14922 14.55 3.14922V3.94922ZM12.45 3.94922H14.55V3.14922H12.45V3.94922ZM12.05 1.45V3.54922H12.85V1.45H12.05ZM12 1.4C12.0276 1.4 12.05 1.42239 12.05 1.45H12.85C12.85 0.980558 12.4694 0.6 12 0.6V1.4Z" fill="white" mask="url(#path-2-outside-1_3452_35145)"/>
</g>
<defs>
<clipPath id="clip0_3452_35145">
<rect width="8" height="8" fill="white" transform="translate(8)"/>
</clipPath>
</defs>
</svg>
