<svg width="28" height="18" viewBox="0 0 28 18" fill="none" xmlns="http://www.w3.org/2000/svg">
<path d="M26.125 0.75H1.375C0.615742 0.75 0 1.36574 0 2.125V15.875C0 16.6343 0.615742 17.25 1.375 17.25H26.125C26.8843 17.25 27.5 16.6343 27.5 15.875V2.125C27.5 1.36574 26.8843 0.75 26.125 0.75ZM2.0625 15.1875V12.4375C3.58145 12.4375 4.8125 13.6686 4.8125 15.1875H2.0625ZM2.0625 5.5625V2.8125H4.8125C4.8125 4.33145 3.58145 5.5625 2.0625 5.5625ZM13.75 13.125C11.8512 13.125 10.3125 11.2778 10.3125 9C10.3125 6.7218 11.8516 4.875 13.75 4.875C15.6484 4.875 17.1875 6.7218 17.1875 9C17.1875 11.2786 15.6479 13.125 13.75 13.125ZM25.4375 15.1875H22.6875C22.6875 13.6686 23.9186 12.4375 25.4375 12.4375V15.1875ZM25.4375 5.5625C23.9186 5.5625 22.6875 4.33145 22.6875 2.8125H25.4375V5.5625Z" fill="url(#paint0_linear_2546_20144)"/>
<defs>
<linearGradient id="paint0_linear_2546_20144" x1="13.75" y1="0.75" x2="13.75" y2="17.25" gradientUnits="userSpaceOnUse">
<stop stop-color="white"/>
<stop offset="1" stop-color="white" stop-opacity="0.8"/>
</linearGradient>
</defs>
</svg>
