<svg width="18" height="18" viewBox="0 0 18 18" fill="none" xmlns="http://www.w3.org/2000/svg">
<path d="M8.55807 7.60789C8.39335 7.44313 8.39335 7.17603 8.55807 7.01127C8.72287 6.84651 8.98997 6.84651 9.1547 7.01127L10.5469 8.40341L11.939 7.01127C12.1037 6.84651 12.3708 6.84651 12.5356 7.01127C12.7003 7.17599 12.7003 7.44313 12.5356 7.60789L11.1434 9L12.5356 10.3921C12.7003 10.5569 12.7003 10.824 12.5356 10.9887C12.3708 11.1535 12.1037 11.1535 11.939 10.9887L10.5469 9.59663L9.1547 10.9887C8.98997 11.1535 8.72287 11.1535 8.55814 10.9887C8.39335 10.824 8.39335 10.5569 8.55814 10.3921L9.95025 9.00003L8.55807 7.60789Z" fill="#242424"/>
<path fill-rule="evenodd" clip-rule="evenodd" d="M6.81825 4.713L2.53125 9L6.81825 13.287C7.13473 13.6035 7.56395 13.7812 8.01151 13.7812H13.7812C14.7132 13.7812 15.4688 13.0257 15.4688 12.0938V5.90625C15.4688 4.97427 14.7132 4.21875 13.7812 4.21875H8.01151C7.56395 4.21875 7.13473 4.39656 6.81825 4.713ZM13.7812 13.05H8.01151C7.75786 13.05 7.51465 12.9492 7.3353 12.7699L3.56541 9L7.3353 5.23008C7.51465 5.05076 7.75786 4.94999 8.01151 4.94999H13.7812C14.3093 4.94999 14.7375 5.37812 14.7375 5.90625V12.0938C14.7375 12.6219 14.3093 13.05 13.7812 13.05Z" fill="#242424"/>
</svg>
