<svg width="16" height="16" viewBox="0 0 16 16" fill="none" xmlns="http://www.w3.org/2000/svg">
<path d="M2.62988 3H13.3693C13.4662 3 13.561 3.02814 13.6422 3.08099C13.7233 3.13384 13.7874 3.20914 13.8266 3.29772C13.8658 3.38631 13.8784 3.48437 13.8629 3.57999C13.8474 3.6756 13.8045 3.76466 13.7393 3.83634L9.62964 8.35697C9.54597 8.449 9.49961 8.56892 9.49961 8.6933V12.2324C9.49961 12.3147 9.47928 12.3958 9.44044 12.4683C9.4016 12.5409 9.34545 12.6028 9.27696 12.6484L7.27696 13.9818C7.20166 14.032 7.11414 14.0608 7.02375 14.0652C6.93336 14.0695 6.84347 14.0493 6.76368 14.0066C6.68389 13.9639 6.61718 13.9003 6.57068 13.8227C6.52417 13.745 6.49961 13.6562 6.49961 13.5657V8.6933C6.49961 8.56892 6.45325 8.449 6.36958 8.35697L2.25991 3.83634C2.19475 3.76466 2.15182 3.6756 2.13632 3.57999C2.12083 3.48437 2.13344 3.38631 2.17263 3.29772C2.21181 3.20914 2.27589 3.13384 2.35706 3.08099C2.43824 3.02814 2.53302 3 2.62988 3V3Z" stroke="#242424" stroke-linecap="round" stroke-linejoin="round"/>
</svg>
