<svg width="219" height="180" viewBox="0 0 219 180" fill="none" xmlns="http://www.w3.org/2000/svg">
<g clip-path="url(#clip0_7660_28615)">
<path d="M38.575 155.125C38.575 155.125 12.9242 87.7141 31.3838 72.7033C43.7215 62.67 56.7993 84.7885 72.4089 73.087C86.3064 62.67 66.931 36.4289 90.1185 29.5613C114.49 22.3448 134.457 80.7803 154.907 72.7C179.721 62.8966 204.405 82.7961 183.075 155.251L38.575 155.125Z" fill="#D4E8FF"/>
<path d="M18.505 149.423C18.0753 148.077 17.6489 146.695 17.2391 145.296L18.2487 144.991C18.6552 146.381 19.0794 147.761 19.5069 149.091L18.505 149.423ZM199.103 147.692L198.058 147.561C198.232 146.135 198.396 144.698 198.549 143.292L199.595 143.404C199.443 144.824 199.277 146.26 199.103 147.691V147.692ZM16.0759 141.14C15.7081 139.758 15.3502 138.35 15.0143 136.956L16.0372 136.701C16.3686 138.088 16.7265 139.486 17.0933 140.86L16.0759 141.14ZM200.027 139.121L198.978 139.02C199.111 137.587 199.235 136.147 199.345 134.738L200.395 134.822C200.284 136.232 200.16 137.678 200.027 139.116V139.121ZM14.0511 132.747C13.7473 131.339 13.4579 129.915 13.1917 128.515L14.2256 128.312C14.4908 129.703 14.778 131.117 15.0806 132.517L14.0511 132.747ZM200.697 130.514L199.646 130.447C199.735 129.016 199.814 127.572 199.878 126.156L200.93 126.206C200.865 127.628 200.787 129.077 200.697 130.514ZM12.4361 124.263C12.2019 122.838 11.9854 121.401 11.7921 119.991L12.8349 119.844C13.0271 121.244 13.2425 122.671 13.4756 124.086L12.4361 124.263ZM201.091 121.893L200.038 121.863C200.08 120.425 200.107 118.98 200.123 117.568L201.176 117.579C201.161 118.998 201.132 120.45 201.091 121.893ZM11.2674 115.702C11.1106 114.263 10.9747 112.816 10.862 111.399L11.9114 111.314C12.0219 112.718 12.1589 114.156 12.3146 115.584L11.2674 115.702ZM200.132 113.272C200.118 111.833 200.092 110.388 200.051 108.978L201.104 108.947C201.145 110.365 201.172 111.816 201.184 113.262L200.132 113.272ZM10.5814 107.086C10.5107 105.637 10.4655 104.184 10.4434 102.765L11.4961 102.748C11.5182 104.156 11.5635 105.597 11.6331 107.033L10.5814 107.086ZM199.878 104.687C199.805 103.251 199.716 101.81 199.614 100.403L200.663 100.323C200.767 101.738 200.856 103.189 200.929 104.633L199.878 104.687ZM11.506 98.4613L10.4533 98.4389C10.4831 96.9873 10.5395 95.5334 10.6212 94.1166L11.6728 94.1794C11.5911 95.5828 11.5358 97.0232 11.506 98.4613ZM199.248 96.1268C199.108 94.6909 198.948 93.2562 198.774 91.864L199.819 91.7305C199.994 93.1328 200.15 94.5765 200.296 96.0225L199.248 96.1268ZM12.0119 89.9098L10.9647 89.7977C11.1072 88.3517 11.2818 86.9057 11.4828 85.5012L12.5256 85.6549C12.3212 87.0515 12.1511 88.4796 12.0064 89.9098H12.0119ZM198.184 87.6124C197.963 86.1844 197.725 84.763 197.47 83.3855L198.505 83.188C198.762 84.5757 199.005 86.0094 199.226 87.4509L198.184 87.6124ZM73.6253 87.461C72.1617 87.2265 71.1023 86.5501 69.6365 85.3823L70.2992 84.5533C71.5839 85.5741 72.5085 86.1866 73.7336 86.3975L73.6253 87.461ZM77.2794 84.9201L76.3405 84.4332C76.8232 83.4741 77.2496 82.1437 77.6075 80.4789L78.637 80.7033C78.2537 82.4869 77.8097 83.8645 77.2794 84.9201ZM66.5457 82.3175C65.7062 81.3685 64.8103 80.277 63.804 78.9791L64.6324 78.3183C65.6266 79.5972 66.5103 80.6741 67.3289 81.603L66.5457 82.3175ZM13.2226 81.4425L12.1887 81.2395C12.4615 79.8114 12.7708 78.3879 13.1066 77.0081L14.1295 77.265C13.797 78.6246 13.4922 80.0302 13.2226 81.4425ZM196.619 79.1922C196.306 77.7799 195.971 76.3799 195.618 75.0303L196.637 74.7566C196.992 76.1196 197.331 77.5331 197.646 78.9589L196.619 79.1922ZM79.3451 76.4023L78.3012 76.2666C78.4625 74.99 78.6072 73.5911 78.7431 71.9925L79.7925 72.0845C79.6555 73.7021 79.5086 75.1111 79.3451 76.4023ZM61.2291 75.534C60.373 74.3595 59.4848 73.1188 58.7204 72.0475L59.5732 71.4193C60.3365 72.4884 61.2224 73.7268 62.0763 74.8969L61.2291 75.534ZM138.333 75.4454C137.482 75.436 136.652 75.1795 135.941 74.7062L136.503 73.8009C137.654 74.539 138.788 74.5412 140.012 73.9523L140.465 74.917C139.802 75.2533 139.073 75.4339 138.332 75.4454H138.333ZM15.2496 73.1412L14.2422 72.8283C14.6609 71.4384 15.1204 70.0563 15.6064 68.7202L16.5951 69.0916C16.1146 70.4086 15.6617 71.7704 15.2496 73.1412ZM143.908 72.1215L143.135 71.3957C144.07 70.345 144.944 69.2392 145.751 68.0842L146.604 68.7113C145.772 69.9007 144.872 71.0394 143.908 72.1215ZM132.945 71.3856C132.174 70.1518 131.485 68.8676 130.881 67.5412L131.833 67.0847C132.417 68.3681 133.083 69.6108 133.829 70.8045L132.945 71.3856ZM194.455 70.9122C194.031 69.5268 193.578 68.1627 193.11 66.8581L194.104 66.4912C194.578 67.8116 195.036 69.1925 195.465 70.5948L194.455 70.9122ZM56.2195 68.5565C55.2563 67.2193 54.4521 66.121 53.6921 65.1013L54.5316 64.4563C55.2961 65.4805 56.1024 66.5877 57.0723 67.9249L56.2195 68.5565ZM80.1095 67.7622L79.059 67.6927C79.1385 66.4396 79.2203 65.0318 79.3076 63.3872L80.3592 63.4444C80.2719 65.0957 80.1902 66.5081 80.1095 67.7656V67.7622ZM18.1736 65.1327L17.2093 64.7009C17.7881 63.3704 18.4045 62.0661 19.0584 60.788L19.993 61.2827C19.3493 62.5391 18.7429 63.8225 18.1736 65.1327ZM149.017 65.1327L148.133 64.546C148.881 63.3906 149.654 62.1656 150.437 60.9294L151.321 61.5071C150.543 62.7456 149.769 63.9717 149.016 65.1316L149.017 65.1327ZM129.185 63.551C128.708 62.3361 128.215 61.0101 127.679 59.498L128.673 59.1356C129.205 60.6366 129.694 61.9513 130.167 63.155L129.185 63.551ZM191.56 62.8847C190.992 61.5441 190.394 60.2406 189.777 59.0156L190.715 58.531C191.341 59.7784 191.95 61.101 192.524 62.4573L191.56 62.8847ZM51.0918 61.7158C50.1363 60.5109 49.2471 59.4396 48.3722 58.4379L49.1609 57.7289C50.0446 58.7385 50.946 59.8266 51.9126 61.0449L51.0918 61.7158ZM80.5779 59.1356L79.5263 59.0818C79.597 57.6526 79.6677 56.2234 79.7472 54.7685L80.7988 54.8246C80.7193 56.2762 80.6486 57.7053 80.5779 59.1334V59.1356ZM153.636 57.9016L152.758 57.3116C153.642 55.9598 154.425 54.7898 155.164 53.7364L156.021 54.3568C155.29 55.3922 154.509 56.5521 153.636 57.8938V57.9016ZM22.0818 57.592L21.1981 57.0165C21.9673 55.7831 22.8161 54.6026 23.7388 53.4829L24.5429 54.1728C23.6492 55.2561 22.827 56.3984 22.0818 57.592ZM126.272 55.4169C125.79 53.9798 125.316 52.5417 124.916 51.3246L125.91 50.988C126.31 52.204 126.783 53.6399 127.264 55.0736L126.272 55.4169ZM45.4769 55.3417C44.4819 54.3498 43.4315 53.4168 42.3309 52.5473L42.9727 51.7004C44.106 52.5946 45.1874 53.5546 46.2115 54.5755L45.4769 55.3417ZM187.735 55.2968C186.98 54.046 186.189 52.8625 185.383 51.7811L186.223 51.1361C187.049 52.2455 187.86 53.4571 188.632 54.7371L187.735 55.2968ZM27.489 51.2662L26.8494 50.4159C28.0143 49.4915 29.3316 48.7847 30.74 48.3282L31.0482 49.3502C29.7594 49.7697 28.5543 50.4185 27.489 51.2662ZM158.562 50.9398L157.743 50.2667C158.641 49.1326 159.597 48.0467 160.606 47.0135L161.35 47.7696C160.367 48.7752 159.436 49.8322 158.562 50.9364V50.9398ZM81.0308 50.5191L79.9792 50.4552C80.0709 48.9004 80.1614 47.4891 80.2564 46.1396L81.307 46.2159C81.212 47.5576 81.1214 48.9654 81.0308 50.5157V50.5191ZM38.8491 50.2947C37.6442 49.6661 36.3466 49.2406 35.0072 49.035L35.1497 47.9749C36.6029 48.1966 38.0109 48.657 39.3186 49.3379L38.8491 50.2947ZM182.673 48.5661C181.711 47.5566 180.667 46.6309 179.552 45.7986L180.172 44.9337C181.334 45.8013 182.423 46.7664 183.426 47.8189L182.673 48.5661ZM123.575 47.2334C123.051 45.6427 122.619 44.3447 122.216 43.15L123.21 42.8034C123.615 44.0004 124.048 45.3005 124.572 46.8946L123.575 47.2334ZM164.505 45.0358L163.902 44.1596C165.093 43.2937 166.403 42.611 167.79 42.1337L168.122 43.1511C166.83 43.5937 165.61 44.2277 164.502 45.0324L164.505 45.0358ZM175.993 43.7255C174.744 43.1815 173.421 42.835 172.068 42.6979L172.167 41.6334C173.626 41.7806 175.054 42.154 176.402 42.7406L175.993 43.7255ZM81.6439 41.9183L80.5945 41.8229C80.7259 40.3231 80.8684 38.8737 81.0186 37.5152L82.0658 37.6353C81.9156 38.9848 81.7742 40.4252 81.6439 41.9183ZM120.812 39.079C120.303 37.6364 119.818 36.3172 119.345 35.0473L120.329 34.6659C120.81 35.9436 121.292 37.2685 121.803 38.7178L120.812 39.079ZM82.6016 33.3702L81.5588 33.2176C81.772 31.72 82.0007 30.2797 82.2558 28.9369L83.2909 29.1354C83.0445 30.4625 82.8126 31.8883 82.6016 33.3702ZM117.781 31.0548C117.215 29.6716 116.644 28.3491 116.085 27.1285L117.041 26.6798C117.606 27.9138 118.182 29.26 118.754 30.6499L117.781 31.0548ZM84.1845 24.95L83.1627 24.6909C83.5306 23.1966 83.936 21.7899 84.3668 20.5088L85.361 20.8555C84.9467 22.1074 84.5446 23.4849 84.1845 24.95ZM114.22 23.2841C113.527 21.9593 112.819 20.7164 112.121 19.5878L113.011 19.0157C113.728 20.1667 114.447 21.4343 115.154 22.7827L114.22 23.2841ZM86.945 16.9393L86.0006 16.4659C86.6309 15.1426 87.3946 13.8892 88.2794 12.7258L89.1068 13.3877C88.2673 14.4925 87.5428 15.6827 86.945 16.9393ZM109.701 16.1215C108.843 15.0177 107.898 13.986 106.877 13.0365L107.584 12.2434C108.647 13.2321 109.63 14.3057 110.524 15.454L109.701 16.1215ZM92.0451 10.6135L91.4773 9.71602C92.7161 8.90706 94.1087 8.37195 95.5645 8.14551L95.7236 9.19887C94.4133 9.40324 93.16 9.8852 92.0451 10.6135ZM103.552 10.6135C102.364 9.95575 101.08 9.49487 99.7489 9.24823L99.9333 8.19487C101.377 8.46031 102.769 8.95871 104.057 9.67115L103.552 10.6135Z" fill="#DCE6FF"/>
<path d="M205.78 133.158C197.04 131.842 198.466 143.727 186.007 143.727C174.616 143.727 170.973 98.4651 162.685 111.404C120.198 177.735 144.869 83.1952 111.08 81.9938C95.8032 81.443 85.6228 97.9906 81.8682 127.283C76.4267 153.764 63.8051 107.091 50.8168 111.425C42.563 114.184 43.5085 143.724 32.1175 143.724C19.6594 143.724 21.0855 131.833 12.3445 133.154C2.9363 134.57 0.125 155.608 0.125 155.608H218C218 155.608 215.185 134.57 205.78 133.158Z" fill="#EEF7FF"/>
<path d="M198.039 146.019C189.998 145.459 191.311 150.532 179.85 150.532C169.37 150.532 169.659 139.159 162.647 136.741C149.733 132.289 139.087 154.82 134.081 143.512C124.572 113.508 96.8388 98.4609 84.0405 143.512C79.0343 154.82 67.3262 134.642 55.4746 136.741C48.184 138.032 48.7507 150.532 38.271 150.532C26.8103 150.532 28.1227 145.457 20.082 146.019C11.4283 146.624 8.83789 155.607 8.83789 155.607H209.282C209.282 155.607 206.696 146.624 198.039 146.019Z" fill="#DCE6FF"/>
<path d="M0.12405 155.607C0.12405 155.607 -1.24239 161.267 5.09492 162.685C13.7564 164.623 64.5995 169.715 52.2486 173.585C45.2761 175.771 55.8077 178.737 89.7687 179.829C123.73 180.922 182.006 176.641 162.407 170.309C142.809 163.976 222.866 168.78 218.004 155.613L0.12405 155.607Z" fill="#CFDDF9"/>
<path d="M108.996 73.1574C108.996 73.1574 111.837 53.9096 122.725 40.125C122.725 40.125 123.335 46.3341 124.314 49.8117C124.314 49.8117 129.45 46.2096 133.73 44.9689C133.73 44.9689 129.45 61.235 116.366 75.0196L108.996 73.1574Z" fill="#CE3932"/>
<path d="M113.785 73.7868C113.785 73.7868 111.368 50.0317 105.255 33.7656C105.255 33.7656 102.809 40.2227 101.953 42.9543L93.5156 36.7451C93.5156 36.7451 99.2597 55.6205 105.499 74.9984L113.785 73.7868Z" fill="#CE3932"/>
<path d="M139.324 65.596C139.324 65.596 147.188 67.6634 147.646 74.0891C147.997 79.025 134.99 77.3872 134.99 77.3872C134.99 77.3872 144.894 79.9033 150.124 77.6485C155.353 75.3937 156.177 73.4373 154.252 69.1532C152.326 64.869 148.657 57.5987 143.796 59.2814C138.936 60.9641 139.324 65.596 139.324 65.596Z" fill="#CE3932"/>
<path d="M157.524 86.7539H64.582V159.029H157.524V86.7539Z" fill="#FCB4B4"/>
<path d="M157.524 86.7549H64.582V97.8337H157.524V86.7549Z" fill="#F49F9F"/>
<path d="M160.577 80.6758H61.5293V92.9695H160.577V80.6758Z" fill="#F9D4D4"/>
<path d="M121.232 80.6762H100.871C100.871 78.6828 101.651 76.7711 103.039 75.3616C104.427 73.952 106.309 73.1602 108.272 73.1602H113.826C114.798 73.1602 115.761 73.3546 116.659 73.7323C117.556 74.11 118.372 74.6636 119.06 75.3616C119.747 76.0595 120.292 76.888 120.664 77.7999C121.036 78.7118 121.227 79.6892 121.227 80.6762H121.232Z" fill="#EB5648"/>
<path d="M135.265 54.0331C119.853 56.8903 111.053 73.1575 111.053 73.1575L119.858 80.6735C143.794 80.6735 152.14 80.6735 155.825 75.7634C159.53 70.8298 150.673 51.177 135.265 54.0331ZM151.678 75.1094C146.758 78.1001 133.859 78.0934 122.242 75.3932C122.242 75.3932 136.85 63.1533 147.554 64.5892C152.415 65.241 154.891 73.1575 151.678 75.1094Z" fill="#EB5648"/>
<path d="M83.1208 65.596C83.1208 65.596 75.2569 67.6634 74.7985 74.0891C74.4461 79.025 87.4543 77.3872 87.4543 77.3872C87.4543 77.3872 77.5502 79.9033 72.3208 77.6485C67.0915 75.3937 66.2685 73.4373 68.1939 69.1532C70.1193 64.869 73.7889 57.5987 78.6493 59.2814C83.5097 60.9641 83.1208 65.596 83.1208 65.596Z" fill="#CE3932"/>
<path d="M66.6188 75.7658C70.305 80.6759 78.6505 80.6759 102.587 80.6759L111.391 73.1599C111.391 73.1599 102.587 56.8938 87.1794 54.0355C71.7719 51.1772 62.9149 70.8299 66.6188 75.7658ZM74.8947 64.5894C85.5976 63.1535 100.207 75.3934 100.207 75.3934C88.59 78.0935 75.6912 78.1003 70.77 75.1096C67.5533 73.1576 70.0343 65.2411 74.8947 64.5894Z" fill="#EB5648"/>
<path d="M74.4172 120.864C74.4172 123.333 73.4513 125.701 71.7318 127.447C70.0124 129.194 67.6804 130.175 65.2487 130.175C65.0278 130.175 64.8069 130.166 64.5859 130.15V111.579C64.8069 111.561 65.0278 111.553 65.2487 111.553C67.6804 111.553 70.0124 112.534 71.7318 114.28C73.4513 116.026 74.4172 118.394 74.4172 120.864Z" fill="#F4D4BE"/>
<path d="M95.2641 115.447C98.8451 111.81 98.8451 105.914 95.2641 102.278C91.6832 98.6411 85.8773 98.6411 82.2964 102.278C78.7154 105.914 78.7154 111.81 82.2964 115.447C85.8773 119.083 91.6832 119.083 95.2641 115.447Z" fill="#F4D4BE"/>
<path d="M95.2642 144.548C98.8451 140.912 98.8451 135.016 95.2641 131.379C91.6832 127.743 85.8773 127.743 82.2964 131.379C78.7154 135.016 78.7154 140.912 82.2964 144.548C85.8773 148.185 91.6832 148.185 95.2642 144.548Z" fill="#F4D4BE"/>
<path d="M73.7759 156.421C73.7769 157.304 73.6538 158.182 73.4103 159.028H64.582V147.109H64.6052C65.8095 147.109 67.0021 147.35 68.1148 147.818C69.2275 148.285 70.2385 148.971 71.0901 149.836C71.9418 150.701 72.6173 151.727 73.0781 152.857C73.539 153.987 73.7761 155.198 73.7759 156.421Z" fill="#F4D4BE"/>
<path d="M114.952 159.029H96.6152C96.6152 156.559 97.5812 154.191 99.3006 152.445C101.02 150.699 103.352 149.718 105.784 149.718C108.215 149.718 110.547 150.699 112.267 152.445C113.986 154.191 114.952 156.559 114.952 159.029Z" fill="#F4D4BE"/>
<path d="M117.785 134.971C122.849 134.971 126.954 130.802 126.954 125.659C126.954 120.516 122.849 116.347 117.785 116.347C112.721 116.347 108.615 120.516 108.615 125.659C108.615 130.802 112.721 134.971 117.785 134.971Z" fill="#F4D4BE"/>
<path d="M144.877 115.912C148.458 112.275 148.458 106.379 144.877 102.743C141.296 99.106 135.491 99.106 131.91 102.743C128.329 106.379 128.329 112.275 131.91 115.912C135.491 119.548 141.296 119.548 144.877 115.912Z" fill="#F4D4BE"/>
<path d="M142.608 153.861C146.189 150.224 146.189 144.328 142.608 140.692C139.027 137.055 133.221 137.055 129.64 140.692C126.059 144.328 126.059 150.224 129.64 153.861C133.221 157.498 139.027 157.498 142.608 153.861Z" fill="#F4D4BE"/>
<path d="M157.52 120.72V139.041C156.199 139.285 154.841 139.231 153.542 138.884C152.244 138.536 151.036 137.903 150.005 137.029C148.974 136.155 148.144 135.062 147.575 133.827C147.006 132.591 146.711 131.244 146.711 129.88C146.711 128.516 147.006 127.169 147.575 125.934C148.144 124.699 148.974 123.605 150.005 122.732C151.036 121.858 152.244 121.225 153.542 120.877C154.841 120.529 156.199 120.476 157.52 120.72Z" fill="#F4D4BE"/>
<path d="M119.857 79.1172H102.248V159.027H119.857V79.1172Z" fill="#EB5648"/>
<path d="M49.3073 104.736C51.1048 104.537 52.8895 104.234 54.6526 103.827C54.6526 103.827 55.8677 104.618 56.5305 106.555C58.2239 111.486 62.2636 109.267 63.0346 113.204C63.7902 117.062 58.6216 121.446 52.4655 118.596C52.471 118.596 43.1622 114.476 49.3073 104.736Z" fill="#8E4A35"/>
<path d="M53.4654 113.756C54.7092 114.261 55.6481 115.395 56.354 116.46C57.8883 118.727 58.4329 121.396 59.299 123.932C60.4809 126.863 62.5123 129.641 64.6134 132.032C65.3181 132.785 64.282 133.995 63.4524 133.397C60.4478 131.345 57.8574 128.876 55.9011 125.699C54.4374 123.246 53.7205 120.17 51.561 118.223C51.6364 118.268 51.7155 118.305 51.7974 118.336C48.8579 117.209 50.5182 112.663 53.4654 113.756Z" fill="#F99370"/>
<path d="M66.8241 132.577C66.739 132.921 65.9779 132.589 65.6808 132.702C65.926 132.999 66.2044 133.266 66.5104 133.498C67.14 133.795 67.784 134.059 68.4413 134.29C69.125 135.106 66.633 134.167 66.3723 134.121C66.3702 134.124 66.3683 134.127 66.3668 134.13C66.9461 134.578 67.5555 134.984 68.1905 135.345C68.7097 136.343 66.2232 134.706 65.9812 134.578C66.4604 135.09 66.9956 135.544 67.5763 135.932C68.0116 136.983 65.6123 135.122 65.419 134.922H65.4112C65.7348 135.376 66.0974 135.8 66.4949 136.189C66.7622 137.228 64.9119 135.318 64.754 135.112C64.5761 135.025 63.8902 134.259 63.2793 133.162C63.0782 132.802 63.8979 132.001 64.2978 131.999C64.652 132.02 65.0028 132.08 65.3439 132.18C65.6996 132.211 66.7357 132.161 66.8241 132.577Z" fill="#F99370"/>
<path d="M53.5461 124.245C53.9338 124.782 54.3823 125.367 54.8352 125.943C54.8473 125.96 54.8606 125.976 54.8727 125.992L55.0285 126.186C55.0423 126.205 55.057 126.224 55.0727 126.242L55.3378 126.569C55.4295 126.682 55.5212 126.794 55.6106 126.906C55.7288 127.048 55.8404 127.181 55.942 127.3C56.0148 127.384 56.106 127.45 56.2084 127.492C56.3108 127.534 56.4214 127.551 56.5315 127.542C56.6416 127.533 56.748 127.498 56.8423 127.439C56.9365 127.381 57.016 127.301 57.0743 127.206C57.7923 126.034 59.0273 124.953 59.9949 124.254C60.1565 124.141 60.2854 123.986 60.3683 123.805C60.4512 123.624 60.4852 123.424 60.4666 123.225C60.3738 122.321 59.8779 121.776 58.9477 120.053C57.7072 117.355 56.0668 114.478 53.6123 113.806C54.3403 116.122 51.8626 121.927 53.5461 124.245Z" fill="#10325B"/>
<path d="M54.8359 125.944C54.8481 125.961 54.8613 125.976 54.8735 125.992L55.0292 126.186C55.043 126.206 55.0578 126.224 55.0734 126.242C55.164 126.354 55.2524 126.467 55.3385 126.57C55.4247 126.673 55.5241 126.794 55.6114 126.906C55.7296 127.049 55.8412 127.181 55.9428 127.3C56.0326 127.404 56.1499 127.479 56.2808 127.518C56.079 126.479 56.1706 125.405 56.5448 124.417C57.0817 123.014 57.4827 121.992 57.3888 121.183C57.2949 120.374 56.5448 119.031 56.5448 119.031L54.8359 125.944Z" fill="#1D3F70"/>
<path d="M48.4459 118.38C45.4788 117.245 42.3483 115.791 40.5035 113.016C37.9971 108.676 41.0271 103.705 44.1809 100.676C44.6459 100.175 45.2855 99.6204 45.8986 100.269C46.547 101.04 45.5738 101.752 45.2358 102.409C41.2039 109.169 42.6001 111.619 49.82 113.707C52.828 114.636 51.4571 119.281 48.4459 118.38Z" fill="#F99370"/>
<path d="M47.9324 99.9142C47.7247 99.6293 47.1481 100.233 46.8278 100.244C46.9421 99.8748 47.0982 99.5201 47.2928 99.1873C47.7639 98.6696 48.2601 98.1762 48.7797 97.7088C49.1022 96.688 47.1559 98.5255 46.9327 98.6702H46.9239C47.29 98.0312 47.6994 97.4187 48.1489 96.8372C48.2517 95.7154 46.5737 98.1934 46.3959 98.4077H46.3948C46.6441 97.7484 46.9669 97.1202 47.3569 96.5354C47.3569 95.3945 45.8491 98.0487 45.7474 98.3123H45.732C45.8591 97.7666 46.0339 97.2335 46.2545 96.7194C46.1087 95.657 45.1211 98.1407 45.0537 98.3931C44.9212 98.5423 44.5776 99.5149 44.4274 100.768C44.3788 101.179 45.4381 101.599 45.8082 101.441C46.1539 101.296 46.5571 100.978 46.7063 100.867C47.0332 100.691 48.0086 100.334 47.9324 99.9142Z" fill="#F99370"/>
<path d="M44.2458 100.612C44.2458 100.612 44.5772 101.398 45.7923 101.611C45.7725 101.703 45.7337 101.789 45.6785 101.864C45.6232 101.94 45.5529 102.003 45.472 102.048C45.1381 102.017 44.8171 101.902 44.5375 101.714C44.2578 101.526 44.0283 101.271 43.8691 100.971C43.9032 100.888 43.9545 100.812 44.0194 100.751C44.0844 100.689 44.1615 100.642 44.2458 100.612Z" fill="#10325B"/>
<path d="M38.9062 114.735C39.4265 116.894 44.7387 117.072 45.934 118.25C47.8439 117.818 50.4144 116.812 51.1744 113.202C50.4166 112.641 49.5284 112.269 47.9576 112.08C45.4015 111.821 44.8768 109.285 43.1558 109.388C41.9396 109.835 39.2642 112.494 38.9062 114.735Z" fill="#10325B"/>
<path d="M40.873 116.419C42.4461 117.162 45.1999 117.532 45.9323 118.25C46.2366 118.199 46.5365 118.124 46.8293 118.025L46.6713 116.779C46.6713 116.779 45.9853 117.39 44.43 117.072C42.8747 116.753 40.873 116.419 40.873 116.419Z" fill="#1D3F70"/>
<path d="M53.7027 112.997L53.5923 113.812C53.1802 115.173 51.3985 114.107 51.1035 113.568C51.1035 113.568 51.2637 112.795 51.2946 112.433L53.7027 112.997Z" fill="#F99370"/>
<path d="M29.8139 155.145L28.8672 149.221C29.1599 149.068 30.6169 149.129 31.1273 148.985C31.4587 148.954 35.5513 147.795 35.9777 147.688L36.5212 151.09L32.1237 151.251C31.8709 151.261 31.6293 151.36 31.4403 151.53C31.2513 151.701 31.1265 151.933 31.0875 152.187C30.8522 153.347 31.251 154.561 30.5175 155.4C30.4603 155.451 30.3906 155.485 30.3158 155.5C30.241 155.514 30.1637 155.508 30.092 155.482C30.0202 155.456 29.9566 155.411 29.9077 155.352C29.8588 155.293 29.8264 155.221 29.8139 155.145Z" fill="#F99370"/>
<path d="M29.3985 148.948C29.2053 149.001 29.0246 149.094 28.8672 149.219L29.8216 155.192C29.8321 155.259 29.8583 155.323 29.8981 155.379C29.9379 155.434 29.9901 155.479 30.0503 155.509C30.1106 155.54 30.1772 155.556 30.2446 155.555C30.312 155.555 30.3783 155.538 30.438 155.506C31.0323 155.169 31.821 154.237 31.5227 151.461C31.5227 151.461 31.0986 150.563 31.1273 148.984C31.1273 148.984 30.1817 148.717 29.3985 148.948Z" fill="#1D3F70"/>
<path d="M31.3617 154.387C31.1474 154.325 31.1684 153.989 30.4559 153.812C30.4246 153.805 30.3974 153.785 30.3802 153.758C30.363 153.73 30.3573 153.697 30.3642 153.665C30.6282 153.288 31.8787 154.36 31.3617 154.387Z" fill="#E8C0A6"/>
<path d="M31.5468 153.499C31.5281 153.499 31.5096 153.494 31.4929 153.486C31.4762 153.477 31.4618 153.465 31.4507 153.449C31.1911 153.133 30.828 152.922 30.4278 152.855C30.3983 152.848 30.3725 152.83 30.3553 152.805C30.3382 152.779 30.331 152.748 30.3351 152.718C30.3393 152.687 30.3545 152.66 30.3778 152.64C30.401 152.62 30.4307 152.61 30.461 152.611C30.9257 152.686 31.3471 152.932 31.644 153.302C31.6573 153.321 31.6652 153.342 31.6671 153.365C31.669 153.388 31.6646 153.411 31.6546 153.431C31.6445 153.451 31.6291 153.468 31.6101 153.48C31.5911 153.492 31.5692 153.499 31.5468 153.499Z" fill="#E8C0A6"/>
<path d="M31.5829 152.392C31.4161 152.362 31.1786 151.914 30.3833 151.762C30.3677 151.76 30.3528 151.754 30.3394 151.745C30.326 151.737 30.3144 151.726 30.3053 151.712C30.2961 151.699 30.2897 151.685 30.2862 151.669C30.2827 151.653 30.2823 151.637 30.2849 151.621C30.2876 151.605 30.2934 151.59 30.3018 151.577C30.3103 151.563 30.3213 151.551 30.3342 151.542C30.3471 151.533 30.3617 151.526 30.3771 151.523C30.3926 151.519 30.4085 151.519 30.4241 151.521C31.2228 151.696 31.985 152.258 31.5829 152.392Z" fill="#E8C0A6"/>
<path d="M30.4468 155.501L29.3985 148.948C29.2053 149.002 29.0246 149.094 28.8672 149.22L29.8216 155.192C29.8321 155.261 29.8588 155.326 29.8994 155.381C29.94 155.437 29.9933 155.482 30.0547 155.513C30.1162 155.543 30.1839 155.558 30.2522 155.555C30.3205 155.553 30.3873 155.535 30.4468 155.501Z" fill="#395B96"/>
<path d="M55.8549 165.215L49.9528 165.15C49.8556 164.829 50.1616 163.383 50.1108 162.848C50.1108 162.624 50.0522 161.39 50.0323 161.165L50.4742 157.783L53.0756 157.812L52.4802 162.239C52.4464 162.493 52.5007 162.752 52.6339 162.97C52.7671 163.188 52.9709 163.353 53.2104 163.435C54.2951 163.868 55.5301 163.679 56.2271 164.548C56.2677 164.614 56.2899 164.691 56.2914 164.769C56.2929 164.848 56.2736 164.925 56.2355 164.993C56.1975 165.061 56.1421 165.118 56.0751 165.157C56.0081 165.196 55.9321 165.216 55.8549 165.215Z" fill="#F99370"/>
<path d="M49.7781 164.567C49.7972 164.771 49.8562 164.968 49.9515 165.147L55.9111 165.214C55.9782 165.214 56.0446 165.199 56.1048 165.169C56.1649 165.139 56.2172 165.094 56.2572 165.039C56.2972 164.985 56.3238 164.921 56.3349 164.854C56.346 164.787 56.3412 164.718 56.3209 164.653C56.0999 164.002 55.3267 163.052 52.5806 162.876C52.5806 162.876 51.6427 163.147 50.1095 162.848C50.1095 162.848 49.6886 163.747 49.7781 164.567Z" fill="#1D3F70"/>
<path d="M54.569 164.42C54.5492 164.419 54.5298 164.414 54.5124 164.405C54.495 164.395 54.4802 164.382 54.4692 164.365C54.4583 164.348 54.4516 164.329 54.4498 164.309C54.4479 164.289 54.4509 164.269 54.4585 164.25C54.5981 163.876 54.8754 163.572 55.2318 163.402C55.2596 163.396 55.2887 163.4 55.3138 163.414C55.339 163.428 55.3585 163.45 55.369 163.477C55.3795 163.504 55.3802 163.534 55.371 163.561C55.3619 163.588 55.3435 163.612 55.319 163.626C55.0226 163.773 54.7934 164.029 54.6794 164.343C54.6706 164.366 54.6554 164.385 54.6357 164.399C54.616 164.412 54.5928 164.42 54.569 164.42Z" fill="#E8C0A6"/>
<path d="M53.6317 164.295C53.6131 164.295 53.5949 164.289 53.5786 164.28C53.5623 164.271 53.5482 164.258 53.5376 164.243C53.5269 164.227 53.5199 164.21 53.517 164.191C53.5142 164.172 53.5157 164.153 53.5213 164.135C53.7422 163.322 54.7905 162.72 54.5033 163.289C54.1515 163.494 53.8843 163.821 53.751 164.21C53.7431 164.236 53.7271 164.258 53.7055 164.273C53.684 164.289 53.6581 164.296 53.6317 164.295Z" fill="#E8C0A6"/>
<path d="M52.5664 164.149C52.5474 164.148 52.5288 164.143 52.5122 164.134C52.4955 164.125 52.4812 164.111 52.4705 164.095C52.4597 164.08 52.4528 164.061 52.4503 164.042C52.4478 164.023 52.4497 164.004 52.4559 163.985C52.6233 163.528 52.9224 163.133 53.3142 162.851C53.3411 162.837 53.3723 162.833 53.4016 162.841C53.431 162.849 53.4564 162.867 53.4729 162.893C53.4894 162.919 53.4958 162.95 53.4907 162.981C53.4857 163.011 53.4696 163.039 53.4457 163.058C53.0993 163.311 52.8342 163.662 52.6835 164.067C52.6749 164.092 52.659 164.113 52.638 164.127C52.617 164.142 52.5919 164.15 52.5664 164.149Z" fill="#E8C0A6"/>
<path d="M56.3187 164.643L49.7793 164.57C49.7984 164.773 49.8574 164.971 49.9527 165.15L55.9122 165.216C55.9805 165.217 56.048 165.202 56.1091 165.171C56.1701 165.139 56.2228 165.094 56.2627 165.037C56.3026 164.981 56.3285 164.916 56.3383 164.847C56.348 164.779 56.3413 164.709 56.3187 164.643Z" fill="#395B96"/>
<path d="M51.3557 109.852C51.3564 109.896 51.3594 109.94 51.3645 109.983C51.4253 109.952 51.401 111.533 51.2695 112.666C52.2637 113.277 53.4556 113.206 53.6743 113.187C53.8665 111.755 53.8897 110.431 53.7793 109.585C53.5164 108.141 51.3082 108.389 51.3557 109.852Z" fill="#E57D61"/>
<path d="M49.7503 108.986C49.9437 110.101 50.3336 111.354 51.2129 112.081C51.574 112.37 52.0004 112.563 52.4534 112.642C55.0073 113.351 58.0108 110.233 55.9628 108.081C55.2238 107.408 55.0515 106.199 54.4605 105.527C53.5978 104.293 51.7442 104.386 50.7567 105.414C49.8652 106.347 49.5736 107.613 49.7503 108.986Z" fill="#F99370"/>
<path d="M53.9394 108.236C53.9574 108.196 53.9593 108.15 53.9447 108.108C53.9301 108.067 53.9001 108.033 53.8611 108.013C53.8221 107.994 53.7772 107.991 53.7359 108.004C53.6947 108.018 53.6603 108.048 53.64 108.087C53.622 108.127 53.6201 108.172 53.6347 108.214C53.6494 108.255 53.6793 108.289 53.7183 108.309C53.7573 108.328 53.8022 108.332 53.8435 108.318C53.8847 108.304 53.9192 108.275 53.9394 108.236Z" fill="#C16256"/>
<path d="M55.3433 107.975C55.3595 107.935 55.3602 107.891 55.3451 107.851C55.33 107.81 55.3004 107.777 55.2622 107.758C55.224 107.739 55.1801 107.736 55.1396 107.749C55.099 107.762 55.0648 107.79 55.0439 107.827C55.0277 107.867 55.027 107.912 55.0421 107.952C55.0572 107.992 55.0868 108.025 55.125 108.044C55.1632 108.063 55.207 108.067 55.2476 108.054C55.2882 108.041 55.3224 108.013 55.3433 107.975Z" fill="#C16256"/>
<path d="M32.0918 148.431C32.1101 149.544 32.2622 150.651 32.5447 151.728C43.875 150.77 48.5785 149.272 49.4633 138.107C49.4633 138.107 53.3296 145.623 49.6368 159.923C49.5263 160.342 49.4158 160.755 49.2987 161.175C49.7913 161.543 50.3526 161.805 50.9483 161.944C51.544 162.084 52.1615 162.098 52.7629 161.986C55.2682 157.151 60.7969 145.512 56.0227 130.284C53.1771 126.941 47.4507 126.602 43.8142 128.28C40.888 135.923 46.0257 145.325 32.0918 148.431Z" fill="#EB5648"/>
<path d="M54.9256 109.447C54.8229 109.447 54.5942 109.492 54.602 109.351C54.6068 109.335 54.6178 109.321 54.6325 109.313C54.6472 109.305 54.6644 109.303 54.6804 109.308C54.8925 109.373 55.1907 109.261 55.2327 109.163C55.2471 109.13 55.2007 109.096 55.1598 109.075C54.8041 108.9 54.3324 107.897 54.6583 108.127C54.6583 108.134 54.9013 108.793 55.2183 108.961C55.5729 109.205 55.2062 109.402 54.9256 109.447Z" fill="#C16256"/>
<path d="M49.7507 108.986C49.944 110.101 50.334 111.354 51.2133 112.081C50.7228 111.481 50.4036 110.127 50.4036 110.127L50.6245 109.519C54.4278 108.211 54.0566 105.1 54.0566 105.1C51.5877 103.36 49.2128 106.435 49.7507 108.986Z" fill="#E57D61"/>
<path d="M53.6453 104.829C53.6453 104.829 53.9954 107.897 50.5943 109.204L49.3571 108.531C48.1265 106.171 50.2452 102.645 53.6453 104.829Z" fill="#8E4A35"/>
<path d="M49.0603 109.56C49.3265 110.82 50.8885 110.458 50.5947 109.208C50.3284 107.947 48.7654 108.307 49.0603 109.56Z" fill="#F99370"/>
<path d="M49.4675 109.816C49.2046 109.544 49.2996 108.988 49.4332 108.89C49.6796 108.686 50.1258 108.788 50.096 108.916C50.0187 109.044 49.7646 108.778 49.5216 108.984C49.2786 109.189 49.6144 109.712 49.4675 109.816Z" fill="#C16256"/>
<path d="M50.0555 109.719C49.9262 109.719 49.8721 109.239 49.3761 109.195C49.3595 109.194 49.344 109.186 49.3329 109.174C49.3217 109.161 49.3158 109.144 49.3164 109.128C49.66 108.857 50.2907 109.742 50.0555 109.719Z" fill="#C16256"/>
<path d="M49.7578 110.136C49.7578 110.174 49.7727 110.21 49.7992 110.237C49.8257 110.264 49.8617 110.279 49.8992 110.279C49.9367 110.279 49.9727 110.264 49.9992 110.237C50.0257 110.21 50.0406 110.174 50.0406 110.136C50.0406 110.098 50.0257 110.061 49.9992 110.034C49.9727 110.007 49.9367 109.992 49.8992 109.992C49.8617 109.992 49.8257 110.007 49.7992 110.034C49.7727 110.061 49.7578 110.098 49.7578 110.136Z" fill="#F4D4BE"/>
<path d="M32.0918 148.431C32.1101 149.544 32.2622 150.652 32.5447 151.728C32.5447 151.728 33.055 151.692 33.8813 151.606C33.3621 150.314 33.3599 148.09 33.3599 148.09C32.9556 148.208 32.5329 148.322 32.0918 148.431Z" fill="#CE3932"/>
<path d="M49.2988 161.175C49.7914 161.543 50.3527 161.805 50.9484 161.944C51.5441 162.084 52.1616 162.098 52.763 161.986C52.763 161.986 52.9463 161.624 53.3009 160.929C53.3009 160.929 50.9282 161.153 49.6368 159.919C49.5308 160.335 49.4192 160.754 49.2988 161.175Z" fill="#CE3932"/>
<path d="M49.6369 159.923C49.5994 160.068 49.5618 160.213 49.5264 160.36H50.2456C52.763 152.701 53.2027 140.089 49.4668 138.106C49.4668 138.106 53.333 145.622 49.6402 159.923H49.6369Z" fill="#CE3932"/>
<path d="M51.9957 161.556C53.973 156.979 55.2908 152.512 55.9149 148.277C56.4142 144.886 56.4672 141.635 56.0861 138.615C55.4234 133.464 53.6791 130.728 53.6559 130.701L53.4273 130.855C53.4438 130.882 55.1638 133.577 55.8111 138.672C56.4087 143.376 56.1867 151.146 51.7383 161.444L51.9957 161.556Z" fill="#CE3932"/>
<path d="M33.0011 151.164C37.0286 150.77 40.0321 150.068 42.1851 149.015C44.338 147.963 45.7332 146.559 46.5815 144.591C48.7013 139.677 47.8938 129.47 47.885 129.368L47.6111 129.392C47.6188 129.493 48.4208 139.63 46.3297 144.479C44.6981 148.261 40.8286 150.118 32.9746 150.885L33.0011 151.164Z" fill="#CE3932"/>
<path d="M43.6203 128.828C46.8536 130.398 52.242 131.567 56.0232 130.286C56.0232 130.286 56.4175 129.975 56.3082 129.155C54.4612 123.349 58.9118 122.694 55.9768 117.983C55.3339 116.957 54.1166 114.76 53.6084 113.802C53.1323 114.96 51.7361 113.864 51.1716 113.201C50.7573 113.22 46.2493 113.605 44.4421 123.388C44.2632 124.379 41.7678 127.295 43.6203 128.828Z" fill="#10325B"/>
<path d="M53.0234 130.813C53.7673 130.773 54.5064 130.668 55.2327 130.499C55.3066 130.044 55.2904 129.579 55.1852 129.13C54.8803 127.825 55.0902 124.317 55.9319 122.452C56.7737 120.588 56.2136 119.003 55.6171 118.25C55.0206 117.497 53.42 114.212 53.3902 114.146C53.2845 114.231 53.1575 114.284 53.0234 114.3C53.2234 115.171 53.7801 117.456 54.5423 119.304C55.5045 121.637 53.4045 121.785 53.6995 126.314C53.8828 129.082 53.4145 130.292 53.0234 130.813Z" fill="#1D3F70"/>
<path d="M48.0918 130.353C49.0373 130.571 49.9972 130.718 50.9639 130.794C51.3715 129.367 50.7429 127.481 51.3494 125.851C52.0707 123.926 52.876 122.322 52.3977 120.137C52.0133 118.384 52.3458 115.35 52.4916 114.22C52.3279 114.154 52.1723 114.07 52.0276 113.968C50.6557 116.711 50.5607 119.493 50.6258 121.751C50.6932 124.107 49.0484 124.854 48.6971 127.748C48.5502 129 48.3127 129.822 48.0918 130.353Z" fill="#1D3F70"/>
<path d="M45.9214 129.742C45.9071 128.914 46.0166 128.089 46.2461 127.295C46.7366 125.638 48.5283 124.138 48.6686 120.393C48.789 117.173 50.8017 114.168 51.3617 113.392C51.301 113.333 51.2391 113.268 51.175 113.199H51.1463C50.2394 113.805 47.8788 115.595 47.5397 118.023C47.1199 121.042 46.6968 122.209 45.0366 124.599C44.1715 125.84 43.6842 127.312 43.6348 128.833C44.3774 129.184 45.1411 129.488 45.9214 129.742Z" fill="#1D3F70"/>
<path d="M39.082 114.046C40.8439 116.21 45.5762 115.992 47.1017 114.404C48.0387 113.446 49.3016 112.888 50.631 112.845C50.1207 112.569 49.2414 112.211 47.96 112.081C46.5969 112.384 45.4414 113.18 43.6331 113.203C42.0646 113.219 41.2416 112.146 40.8263 111.259C40.1789 111.966 39.4919 112.787 39.082 114.046Z" fill="#1D3F70"/>
<path d="M57.0106 118.25C57.3873 121.177 58.6079 120.867 57.9043 123.571C57.6526 124.473 57.5809 125.417 57.6933 126.348C58.3554 125.582 59.1019 124.897 59.918 124.304C59.5966 123.938 59.2906 123.26 59.1448 122.018C59.0741 121.389 59.0189 120.723 58.9426 120.048C58.6764 119.556 58.376 118.969 58.039 118.253C57.2238 116.514 56.233 115.436 55.3945 114.775C56.0905 115.607 56.8228 116.798 57.0106 118.25Z" fill="#1D3F70"/>
<path d="M55.3984 107.39C55.3794 107.39 55.3611 107.383 55.3465 107.371C55.3321 107.36 55.0283 107.116 54.7941 107.354C54.7786 107.37 54.7575 107.379 54.7356 107.379C54.7136 107.379 54.6926 107.37 54.677 107.354C54.6692 107.347 54.663 107.337 54.6588 107.327C54.6545 107.317 54.6523 107.306 54.6523 107.295C54.6523 107.284 54.6545 107.273 54.6588 107.263C54.663 107.253 54.6692 107.243 54.677 107.236C54.951 106.957 55.3034 107.117 55.4503 107.236C55.4587 107.243 55.4657 107.251 55.4709 107.261C55.476 107.271 55.4792 107.282 55.4802 107.293C55.4812 107.304 55.4801 107.315 55.4768 107.325C55.4736 107.336 55.4683 107.346 55.4613 107.354C55.4542 107.365 55.4449 107.374 55.434 107.38C55.423 107.386 55.4109 107.39 55.3984 107.39Z" fill="#C16256"/>
<path d="M53.1667 107.923C53.1553 107.924 53.144 107.922 53.1335 107.918C53.1235 107.913 53.1144 107.907 53.1068 107.899C53.0992 107.89 53.0933 107.881 53.0894 107.87C53.0855 107.86 53.0837 107.849 53.084 107.838C53.0844 107.827 53.087 107.816 53.0916 107.805C53.4229 107.074 54.0736 107.313 54.0802 107.316C54.0909 107.32 54.1006 107.326 54.1089 107.334C54.1172 107.342 54.1238 107.351 54.1284 107.362C54.1329 107.372 54.1353 107.384 54.1354 107.395C54.1355 107.407 54.1332 107.418 54.1288 107.428C54.1248 107.439 54.1187 107.449 54.111 107.457C54.1032 107.465 54.094 107.472 54.0837 107.477C54.0734 107.481 54.0624 107.484 54.0512 107.484C54.0399 107.484 54.0288 107.482 54.0183 107.478C53.9963 107.469 53.5014 107.294 53.2451 107.878C53.2378 107.893 53.2265 107.905 53.2125 107.913C53.1986 107.921 53.1826 107.924 53.1667 107.923Z" fill="#C16256"/>
<path d="M54.432 110.458C54.3378 110.457 54.2456 110.431 54.1647 110.382C54.0673 110.326 53.99 110.241 53.9438 110.137C53.9217 110.09 53.9109 110.039 53.9122 109.987C53.9136 109.935 53.927 109.884 53.9515 109.839C54.0487 109.667 54.305 109.63 54.5215 109.757C54.6187 109.813 54.6961 109.898 54.7424 110.002C54.7649 110.048 54.7761 110.1 54.7749 110.152C54.7738 110.204 54.7604 110.254 54.7358 110.3C54.7091 110.344 54.6724 110.381 54.6288 110.408C54.5852 110.435 54.5359 110.451 54.485 110.455C54.4675 110.457 54.4497 110.458 54.432 110.458ZM54.2509 109.824C54.2165 109.821 54.1819 109.828 54.1507 109.843C54.1195 109.858 54.0927 109.881 54.073 109.91C54.0599 109.936 54.0531 109.964 54.0531 109.994C54.0531 110.023 54.0599 110.052 54.073 110.078C54.1073 110.153 54.1642 110.214 54.2354 110.254C54.3048 110.297 54.3862 110.317 54.4674 110.309C54.4962 110.308 54.5242 110.299 54.5492 110.285C54.5742 110.27 54.5954 110.249 54.611 110.225C54.6241 110.199 54.631 110.17 54.631 110.141C54.631 110.111 54.6241 110.083 54.611 110.057C54.5765 109.981 54.5192 109.92 54.4475 109.88C54.3879 109.844 54.3201 109.825 54.2509 109.824Z" fill="#C16256"/>
<path d="M151.503 124.702C151.257 124.828 151.014 124.944 150.777 125.051C150.113 125.355 149.425 125.602 148.721 125.79C148.565 125.832 148.411 125.869 148.258 125.902C140.692 127.533 138.115 121.407 138.446 118.899C138.492 118.544 138.597 118.308 138.751 118.237C139.037 118.324 139.337 118.356 139.634 118.33C139.909 118.279 140.169 118.169 140.398 118.006C140.619 117.948 140.84 118.173 141.08 118.554C142.29 120.442 144.214 123.827 150.301 118.17C150.733 117.755 151.208 117.388 151.717 117.075C151.803 117.024 151.885 116.979 151.96 116.941C152.117 116.859 152.282 116.793 152.452 116.744C152.543 116.715 152.638 116.7 152.733 116.701C153.449 117.431 153.875 118.404 153.93 119.433C154.069 121.94 152.137 124.38 151.503 124.702Z" fill="#3A72AA"/>
<path d="M141.295 117.033C141.295 117.033 141.958 114.652 143.545 113.089C143.533 113.505 143.549 113.922 143.594 114.336C143.594 114.336 144.297 113.965 144.856 113.877C144.245 115.239 143.335 116.439 142.195 117.386L141.295 117.033Z" fill="#A523A2"/>
<path d="M141.889 117.189C141.889 117.189 141.958 114.154 141.448 112.004C141.448 112.004 141.038 112.779 140.886 113.11L139.92 112.19C139.92 112.19 140.349 114.658 140.831 117.208L141.889 117.189Z" fill="#A523A2"/>
<path d="M145.237 116.57C145.237 116.57 146.197 116.958 146.154 117.775C146.121 118.403 144.506 117.986 144.506 117.986C144.506 117.986 145.721 118.464 146.41 118.265C147.1 118.065 147.24 117.832 147.064 117.255C146.889 116.678 146.539 115.708 145.9 115.84C145.725 115.869 145.565 115.957 145.445 116.089C145.324 116.221 145.251 116.39 145.237 116.57Z" fill="#A523A2"/>
<path d="M135.851 119.402L134.062 133.23L145.758 134.79L147.547 120.961L135.851 119.402Z" fill="#9358E0"/>
<path d="M135.333 119.215L135.061 121.408L138.253 118.893L136.093 118.616L135.333 119.215Z" fill="#9F6EED"/>
<path d="M134.835 123.205L134.562 125.397L142.18 119.397L140.022 119.12L134.835 123.205Z" fill="#9F6EED"/>
<path d="M134.339 127.194L134.066 129.387L146.109 119.901L143.95 119.624L134.339 127.194Z" fill="#9F6EED"/>
<path d="M135.475 118.023L135.301 119.42L147.022 120.924L147.195 119.527L135.475 118.023Z" fill="#7640CC"/>
<path d="M147.689 118.811L135.197 117.208L135.004 118.758L147.496 120.361L147.689 118.811Z" fill="#9F6EED"/>
<path d="M136.436 132.739L138.594 133.016L146.276 126.967L146.549 124.773L136.436 132.739Z" fill="#9F6EED"/>
<path d="M140.365 133.244L142.525 133.521L145.781 130.956L146.054 128.764L140.365 133.244Z" fill="#9F6EED"/>
<path d="M144.293 133.748L145.415 133.893L145.557 132.753L144.293 133.748Z" fill="#9F6EED"/>
<path d="M133.844 131.183L133.693 132.388L134.667 132.513L146.773 122.976L147.046 120.784L133.844 131.183Z" fill="#9F6EED"/>
<path d="M142.576 117.956L140.355 117.671L138.449 132.993L140.67 133.278L142.576 117.956Z" fill="#CE4ABF"/>
<path d="M142.719 118.178L140.15 117.849C140.166 117.725 140.205 117.604 140.266 117.495C140.328 117.386 140.409 117.29 140.507 117.213C140.605 117.136 140.716 117.08 140.836 117.047C140.955 117.013 141.079 117.004 141.202 117.02L141.902 117.11C142.025 117.126 142.143 117.166 142.251 117.228C142.358 117.29 142.453 117.373 142.528 117.472C142.604 117.571 142.66 117.685 142.693 117.806C142.725 117.927 142.734 118.053 142.719 118.178Z" fill="#CE4ABF"/>
<path d="M144.908 115.046C142.92 115.159 141.555 117.066 141.555 117.066L142.549 118.156C145.567 118.544 146.619 118.679 147.162 118.119C147.704 117.559 146.897 114.935 144.908 115.046ZM146.648 117.97C145.985 118.267 144.354 118.057 142.931 117.529C142.931 117.529 144.966 116.222 146.292 116.577C146.896 116.737 147.083 117.776 146.648 117.97Z" fill="#CE4ABF"/>
<path d="M138.152 115.657C138.152 115.657 137.128 115.791 136.968 116.594C136.847 117.21 138.515 117.214 138.515 117.214C138.515 117.214 137.226 117.371 136.603 117.002C135.98 116.633 135.905 116.373 136.215 115.865C136.526 115.357 137.099 114.499 137.689 114.789C137.85 114.861 137.983 114.985 138.067 115.142C138.151 115.3 138.181 115.481 138.152 115.657Z" fill="#A523A2"/>
<path d="M135.908 116.675C136.296 117.348 137.344 117.49 140.368 117.877L141.596 117.071C141.596 117.071 140.741 114.877 138.842 114.267C136.943 113.656 135.518 115.994 135.908 116.675ZM137.123 115.4C138.497 115.392 140.147 117.172 140.147 117.172C138.639 117.325 137.012 117.117 136.439 116.659C136.067 116.362 136.504 115.403 137.127 115.4H137.123Z" fill="#CE4ABF"/>
<path d="M167.684 162.788L165.839 157.501L162.178 159.095L165.381 163.777C165.381 163.777 166.128 164.835 167.684 162.788Z" fill="#F99370"/>
<path d="M153.754 165.065L153.926 158.53L149.693 159.327L151.254 165.024C151.254 165.024 151.62 166.475 153.754 165.065Z" fill="#F99370"/>
<path d="M153.391 107.231C153.391 107.231 150.111 106.445 149.926 110.875C149.771 114.613 149.264 116.327 149.264 116.327C149.264 116.327 153.598 116.913 155.277 116.005C155.299 115.994 153.391 107.231 153.391 107.231Z" fill="#C92828"/>
<path d="M152.724 115.697L152.709 116.737C153.022 117.96 154.578 117.522 155.257 116.775C155.257 116.775 155.172 115.999 155.178 115.639L152.724 115.697Z" fill="#F99370"/>
<path d="M153.875 107.31C150.312 106.413 149.164 111.645 151.124 113.855L153.875 107.31Z" fill="#C92828"/>
<path d="M154.045 166.774C154.019 166.973 153.955 167.163 153.855 167.335L147.825 167.238C147.758 167.238 147.692 167.222 147.633 167.191C147.574 167.16 147.523 167.116 147.484 167.061C147.445 167.006 147.419 166.943 147.409 166.876C147.399 166.809 147.405 166.741 147.426 166.677C147.664 166.04 148.473 165.123 151.254 165.024C151.254 165.024 152.196 165.318 153.754 165.065C153.754 165.065 154.156 165.964 154.045 166.774Z" fill="#EB5648"/>
<path d="M147.429 166.667L154.045 166.779C154.019 166.977 153.955 167.168 153.855 167.34L147.824 167.242C147.756 167.243 147.689 167.226 147.629 167.195C147.569 167.163 147.517 167.117 147.478 167.06C147.439 167.004 147.414 166.938 147.406 166.87C147.397 166.801 147.405 166.732 147.429 166.667Z" fill="#CE3932"/>
<path d="M168.635 164.232C168.692 164.425 168.71 164.628 168.688 164.828L163.138 167.225C163.077 167.253 163.01 167.266 162.943 167.262C162.876 167.259 162.811 167.239 162.753 167.204C162.695 167.17 162.646 167.122 162.61 167.064C162.574 167.006 162.553 166.94 162.547 166.872C162.511 166.191 162.879 165.02 165.385 163.783C165.385 163.783 166.363 163.664 167.686 162.789C167.685 162.788 168.414 163.446 168.635 164.232Z" fill="#EB5648"/>
<path d="M162.545 166.86L168.634 164.231C168.691 164.425 168.709 164.628 168.687 164.828L163.137 167.224C163.075 167.253 163.007 167.266 162.939 167.262C162.87 167.258 162.804 167.237 162.746 167.201C162.688 167.165 162.639 167.115 162.604 167.056C162.569 166.996 162.548 166.929 162.545 166.86Z" fill="#CE3932"/>
<path d="M155.374 113.099C155.374 113.141 155.362 113.185 155.353 113.226C155.294 113.189 155.161 114.744 155.179 115.872C154.119 116.366 152.936 116.185 152.717 116.143C152.76 114.337 152.375 112.585 153.669 111.819C154.483 111.457 155.503 112.18 155.374 113.099Z" fill="#E57D61"/>
<path d="M156.858 111.619C156.858 112.741 156.687 114.031 155.941 114.887C153.943 117.392 148.519 114.887 150.513 111.839C150.789 111.454 150.977 111.011 151.066 110.543C151.673 106.122 156.999 107.733 156.858 111.619Z" fill="#F99370"/>
<path d="M152.558 111.637C152.426 111.462 152.706 111.264 152.83 111.439C152.954 111.614 152.682 111.812 152.558 111.637Z" fill="#C16256"/>
<path d="M151.12 111.634C150.989 111.458 151.268 111.26 151.392 111.435C151.516 111.61 151.244 111.809 151.12 111.634Z" fill="#C16256"/>
<path d="M151.787 112.991C151.501 112.997 151.101 112.868 151.416 112.568C151.782 112.288 151.747 111.612 151.901 111.606C152.082 111.704 151.698 112.474 151.434 112.766C151.489 112.855 151.811 112.91 152.009 112.81C152.016 112.806 152.024 112.804 152.033 112.803C152.041 112.803 152.049 112.804 152.057 112.806C152.065 112.809 152.072 112.813 152.078 112.819C152.084 112.824 152.089 112.831 152.093 112.838C152.12 112.978 151.889 112.974 151.787 112.991Z" fill="#C16256"/>
<path d="M146.3 152.191C146.29 154.168 146.23 158.405 146.344 160.971C146.37 161.532 146.404 162.018 146.448 162.378C149.516 164.173 153.221 163.799 155.237 163.387C155.738 163.29 156.234 163.163 156.721 163.008C156.611 162.559 156.501 162.077 156.406 161.568C155.293 155.979 154.693 147.135 155.102 141.899C156.251 147.361 158.195 157.007 159.654 160.932C159.89 161.562 160.113 162.045 160.317 162.34C166.769 162.442 169.919 158.566 169.919 158.566C169.659 158.027 169.41 157.484 169.17 156.935C165.483 148.521 164.079 139.257 163.792 138.022C163.247 135.769 161.583 132.935 160.826 131.777C154.788 134.033 148.626 132.666 148.626 132.666C147.028 138.947 146.298 145.787 146.3 152.191Z" fill="#CE4ABF"/>
<path d="M161.114 131.996C161.114 131.996 154.347 135.084 148.631 132.67C148.631 132.67 148.234 132.29 148.487 131.422C149.974 128.181 148.818 126.374 148.597 124.447C148.467 123.31 148.661 122.131 149.913 120.592C150.465 119.892 152.078 117.892 152.453 116.739C152.453 116.739 152.72 116.686 152.718 116.691C152.703 116.768 152.81 116.902 153.088 117.15C153.215 117.279 153.373 117.372 153.547 117.419C153.878 117.496 154.388 117.4 155.267 116.774C155.5 116.812 155.73 116.865 155.957 116.932C157.926 117.512 159.1 119.053 159.81 120.97C161.16 124.639 160.825 129.68 161.114 131.996Z" fill="#F99370"/>
<path d="M156.859 111.619C156.859 112.74 156.687 114.031 155.942 114.886C156.326 114.213 156.408 112.844 156.408 112.844L156.085 112.292C152.069 111.696 151.896 108.607 151.896 108.607C153.961 106.511 156.992 109.017 156.859 111.619Z" fill="#E57D61"/>
<path d="M148.259 125.901C149.125 125.707 149.969 125.422 150.777 125.05L150.376 119.569C149.781 120.201 149.241 120.885 148.764 121.613C148.098 122.664 147.645 123.622 148.259 125.901Z" fill="#23659B"/>
<path d="M157.652 112.059C157.606 113.327 155.988 113.261 156.061 111.988C156.105 110.722 157.725 110.785 157.652 112.059Z" fill="#F99370"/>
<path d="M157.289 112.381C157.28 112.381 157.27 112.379 157.262 112.376C157.253 112.372 157.246 112.367 157.239 112.36C157.233 112.353 157.228 112.345 157.226 112.336C157.223 112.327 157.222 112.317 157.224 112.308C157.276 111.926 157.231 111.676 157.095 111.583C156.887 111.424 156.638 111.705 156.508 111.617C156.792 111.076 157.704 111.619 157.289 112.381Z" fill="#C16256"/>
<path d="M156.686 112.389C156.465 112.438 156.907 111.492 157.318 111.683C157.32 111.691 157.32 111.699 157.319 111.708C157.317 111.716 157.314 111.724 157.31 111.731C157.306 111.739 157.3 111.745 157.293 111.75C157.286 111.755 157.278 111.758 157.27 111.76C156.784 111.891 156.812 112.36 156.686 112.389Z" fill="#C16256"/>
<path d="M157.055 112.741C157.061 112.779 157.052 112.818 157.03 112.849C157.008 112.88 156.974 112.901 156.937 112.907C156.899 112.913 156.861 112.904 156.831 112.881C156.8 112.859 156.779 112.825 156.773 112.787C156.767 112.749 156.776 112.71 156.799 112.679C156.821 112.648 156.854 112.627 156.891 112.621C156.929 112.615 156.967 112.624 156.998 112.647C157.028 112.669 157.049 112.703 157.055 112.741Z" fill="#F4D4BE"/>
<path d="M161.201 132.327C161.201 132.327 154.261 135.293 148.539 132.879C148.484 132.764 148.445 132.642 148.422 132.516C148.354 132.152 148.375 131.777 148.482 131.423C149.015 130.26 149.189 129.279 149.181 128.412C149.173 127.428 148.933 126.588 148.722 125.789C148.594 125.344 148.499 124.89 148.437 124.431C148.305 123.295 148.5 122.116 149.751 120.576C150.141 120.087 150.954 118.452 151.675 117.347C151.771 117.2 151.865 117.063 151.957 116.938L151.965 116.928C152.12 116.849 152.282 116.784 152.449 116.736C152.449 117.238 152.237 118.72 152.907 118.839C153.238 118.897 153.526 118.788 153.8 118.595C153.942 118.494 154.077 118.381 154.203 118.259C154.73 117.753 155.246 117.084 155.948 116.933C156.238 117.011 156.521 117.116 156.793 117.246C159.881 118.715 160.626 123.059 160.887 126.893C161.035 129.083 161.024 131.109 161.201 132.327Z" fill="#3A72AA"/>
<path d="M152.258 108.274C152.575 107.829 152.985 107.461 153.457 107.194C153.759 106.996 155.273 106.114 156.9 107.075C158.415 107.972 159.782 110.104 159.461 112.999C159.399 113.558 159.197 114.093 158.874 114.551C158.551 115.009 158.119 115.375 157.618 115.616C156.654 116.082 155.362 116.571 154.241 116.535C154.849 114.976 155.051 113.285 154.828 111.624C152.399 110.585 152.258 108.274 152.258 108.274Z" fill="#C92828"/>
<path d="M153.202 111.333C153.213 111.333 153.224 111.329 153.233 111.322C153.238 111.318 153.243 111.312 153.246 111.306C153.249 111.3 153.251 111.293 153.252 111.286C153.252 111.279 153.251 111.272 153.249 111.266C153.247 111.259 153.244 111.253 153.239 111.248C153.127 111.118 152.987 111.017 152.831 110.95C152.674 110.883 152.504 110.854 152.335 110.863C152.321 110.864 152.309 110.871 152.3 110.881C152.291 110.892 152.286 110.905 152.287 110.919C152.287 110.926 152.289 110.933 152.292 110.939C152.295 110.945 152.299 110.951 152.304 110.955C152.31 110.96 152.316 110.963 152.322 110.965C152.329 110.967 152.336 110.968 152.342 110.967C152.495 110.962 152.648 110.99 152.789 111.049C152.93 111.109 153.056 111.2 153.16 111.314C153.165 111.32 153.171 111.325 153.179 111.329C153.186 111.332 153.194 111.334 153.202 111.333Z" fill="#C16256"/>
<path d="M150.925 111.273C150.939 111.272 150.952 111.265 150.962 111.255C151.043 111.168 151.141 111.101 151.25 111.057C151.359 111.013 151.476 110.993 151.593 111C151.599 111.001 151.606 111 151.613 110.998C151.619 110.996 151.625 110.993 151.631 110.989C151.636 110.984 151.64 110.979 151.643 110.973C151.646 110.967 151.648 110.96 151.649 110.953C151.65 110.939 151.646 110.926 151.638 110.915C151.629 110.904 151.617 110.897 151.604 110.896C151.47 110.886 151.336 110.908 151.212 110.958C151.087 111.008 150.976 111.085 150.885 111.185C150.88 111.19 150.876 111.196 150.873 111.202C150.87 111.208 150.869 111.215 150.869 111.222C150.869 111.229 150.87 111.236 150.873 111.242C150.876 111.249 150.88 111.254 150.885 111.259C150.89 111.264 150.897 111.268 150.904 111.27C150.911 111.272 150.918 111.273 150.925 111.273Z" fill="#C16256"/>
<path d="M154.028 154.63C154.2 157.579 154.604 160.509 155.237 163.392C155.738 163.295 156.234 163.168 156.721 163.013C155.411 157.629 154.655 147.616 155.102 141.904C155.102 141.908 153.656 148.681 154.028 154.63Z" fill="#A523A2"/>
<path d="M159.654 160.936C159.89 161.567 160.113 162.049 160.317 162.344C166.769 162.446 169.919 158.571 169.919 158.571C169.659 158.032 169.41 157.488 169.17 156.939C169.132 156.985 166.241 160.369 159.654 160.936Z" fill="#A523A2"/>
<path d="M146.344 160.972C146.369 161.533 146.403 162.018 146.448 162.378C149.515 164.173 153.22 163.8 155.236 163.388C155.738 163.29 156.233 163.164 156.721 163.009C156.61 162.56 156.5 162.078 156.405 161.568C156.405 161.568 152.219 163.072 146.344 160.972Z" fill="#A523A2"/>
<path d="M155.569 120.921C156.121 122.368 156.57 123.759 156.075 125.225C155.429 127.14 153.656 128.185 152.062 128.67C149.499 129.447 146.877 128.79 145.232 127.784C144.458 127.212 143.529 128.327 144.212 129.004C146.49 131.258 149.719 132.647 153.328 131.77C155.33 131.283 157.582 129.837 158.298 128.44C159.767 125.594 160.322 122.349 159.475 119.628C158.676 116.81 154.566 118.163 155.569 120.921Z" fill="#F99370"/>
<path d="M160.887 126.889C160.719 128.56 160.27 130.078 159.483 130.949C156.942 133.753 151.817 133.556 148.422 132.519C146.808 132.023 145.585 131.338 145.219 130.692C145.036 130.373 144.968 130.069 145.04 129.813C145.04 129.813 145.775 129.352 146.016 128.25C146.016 128.25 146.389 127.848 147.126 128.067C147.252 128.103 147.374 128.152 147.49 128.212C147.797 128.368 148.432 128.437 149.182 128.416C150.821 128.38 153.01 127.958 153.517 127.267C154.615 125.769 154.796 123.453 154.653 121.097C154.595 120.296 154.683 119.491 154.914 118.723C155.299 117.495 155.949 116.928 155.949 116.928C156.383 116.914 156.814 116.997 157.213 117.171C158.069 117.516 159.201 118.338 160.077 120.28C160.797 121.874 161.121 124.534 160.887 126.889Z" fill="#3A72AA"/>
<path d="M145.04 129.811C144.967 130.066 145.04 130.372 145.218 130.689C146.795 130.048 147.125 128.063 147.125 128.063C146.387 127.845 146.015 128.246 146.015 128.246C145.773 129.349 145.04 129.811 145.04 129.811Z" fill="#23659B"/>
<path d="M144.315 125.494C143.998 125.684 144.48 126.327 144.425 126.663C144.087 126.479 143.771 126.256 143.484 125.997C143.066 125.428 142.676 124.839 142.316 124.229C141.386 123.75 142.805 125.99 142.907 126.264L142.9 126.271C142.346 125.784 141.827 125.259 141.344 124.7C140.272 124.387 142.37 126.535 142.546 126.755C141.951 126.381 141.4 125.94 140.903 125.438C139.815 125.264 142.078 127.211 142.332 127.388V127.396C141.824 127.166 141.338 126.891 140.879 126.574C139.834 126.549 142.038 127.961 142.283 128.092C142.405 128.253 143.288 128.781 144.478 129.167C144.868 129.293 145.472 128.309 145.395 127.91C145.15 127.397 144.721 125.381 144.315 125.494Z" fill="#F99370"/>
<path d="M149.474 128.531C149.3 128.531 149.192 128.518 149.171 128.516C149.157 128.515 149.143 128.512 149.131 128.506C149.118 128.5 149.107 128.492 149.098 128.481C149.089 128.471 149.082 128.458 149.077 128.445C149.073 128.432 149.071 128.417 149.073 128.403C149.074 128.389 149.078 128.376 149.084 128.364C149.091 128.351 149.1 128.34 149.111 128.332C149.122 128.323 149.134 128.316 149.148 128.313C149.161 128.309 149.175 128.308 149.189 128.31C149.214 128.31 151.853 128.522 153.367 127.279C154.307 126.509 154.712 124.576 154.57 121.535C154.57 121.451 154.564 121.38 154.561 121.326C154.56 121.312 154.562 121.298 154.566 121.285C154.571 121.271 154.578 121.259 154.587 121.248C154.596 121.238 154.607 121.229 154.62 121.223C154.632 121.218 154.646 121.214 154.66 121.214C154.687 121.214 154.714 121.224 154.734 121.242C154.754 121.261 154.767 121.286 154.77 121.314C154.77 121.366 154.77 121.436 154.779 121.519C154.832 122.679 155 126.207 153.5 127.434C152.211 128.494 150.23 128.552 149.474 128.531Z" fill="#23659B"/>
<path d="M152.633 133.4C151.189 133.343 149.76 133.079 148.388 132.615C148.376 132.61 148.364 132.603 148.354 132.594C148.344 132.585 148.336 132.574 148.33 132.562C148.324 132.55 148.321 132.536 148.32 132.523C148.32 132.509 148.322 132.495 148.326 132.483C148.336 132.457 148.355 132.436 148.38 132.424C148.404 132.413 148.432 132.411 148.458 132.421C148.49 132.433 151.809 133.632 154.676 133.031C157.542 132.43 159.333 131.422 160.659 127.819C160.663 127.807 160.67 127.795 160.679 127.785C160.688 127.775 160.699 127.767 160.711 127.761C160.723 127.756 160.736 127.752 160.75 127.752C160.763 127.752 160.776 127.754 160.789 127.759C160.801 127.763 160.813 127.77 160.823 127.78C160.833 127.789 160.841 127.8 160.846 127.812C160.852 127.824 160.855 127.838 160.856 127.851C160.856 127.865 160.854 127.878 160.85 127.891C159.491 131.585 157.646 132.618 154.717 133.234C154.031 133.37 153.332 133.425 152.633 133.4Z" fill="#23659B"/>
<path d="M152.125 113.606C152.051 113.607 151.976 113.598 151.904 113.579C151.888 113.572 151.874 113.559 151.866 113.543C151.859 113.527 151.857 113.508 151.862 113.491C151.867 113.473 151.879 113.458 151.894 113.449C151.909 113.44 151.928 113.436 151.945 113.44C151.968 113.448 152.504 113.603 152.799 113.008C152.808 112.991 152.823 112.978 152.841 112.972C152.859 112.966 152.878 112.968 152.895 112.977C152.911 112.985 152.924 113 152.93 113.018C152.935 113.036 152.934 113.056 152.926 113.073C152.859 113.232 152.747 113.367 152.605 113.462C152.462 113.557 152.295 113.607 152.125 113.606Z" fill="#C16256"/>
<path d="M157.212 117.175C157.069 117.173 156.927 117.197 156.793 117.246C156.32 117.407 155.851 117.807 155.607 118.031C155.487 118.144 155.245 118.425 154.913 118.728C154.616 119.006 154.285 119.243 153.926 119.433C153.548 119.635 153.123 119.732 152.696 119.715C151.544 119.647 151.604 118.011 151.675 117.349C151.694 117.18 151.714 117.076 151.714 117.076C151.8 117.025 151.882 116.98 151.957 116.942L151.965 116.932C152.119 116.853 152.281 116.788 152.448 116.74C152.448 117.242 152.236 118.724 152.907 118.842C153.238 118.901 153.525 118.792 153.799 118.599C153.942 118.498 154.077 118.385 154.203 118.263C154.729 117.757 155.245 117.088 155.948 116.937C156.381 116.921 156.813 117.003 157.212 117.175Z" fill="#23659B"/>
<path d="M104.499 62.2001C111.962 57.6131 113.972 50.7129 112.371 42.2938C112.13 41.1137 110.373 41.3661 110.458 42.563C110.482 49.2489 107.428 54.3621 100.9 56.7616C100.897 56.7627 101.054 63.8054 104.499 62.2001Z" fill="#F99370"/>
<path d="M110.503 39.4131C110.85 39.4131 110.724 40.2365 110.9 40.5013C111.122 40.1872 111.307 39.8484 111.453 39.4917C111.581 38.8029 111.674 38.1085 111.733 37.4096C112.342 36.5413 112.058 39.2045 112.078 39.4748H112.088C112.371 38.7987 112.608 38.1033 112.796 37.3939C113.616 36.6423 112.669 39.4748 112.608 39.7497C112.977 39.1566 113.278 38.5224 113.504 37.8595C114.395 37.1774 113.215 39.9785 113.069 40.2152V40.222C113.421 39.7945 113.735 39.3361 114.008 38.8522C114.928 38.3385 113.566 40.6146 113.409 40.8188C113.37 41.0151 112.88 42.1279 112.426 42.6495C112.159 42.9569 110.591 42.9311 110.446 42.5553C110.249 42.0259 110.18 41.4562 110.244 40.8939C110.339 40.4744 110.134 39.5994 110.503 39.4131Z" fill="#F99370"/>
<path d="M110.837 58.8575C110.517 59.3525 110.167 59.8261 109.787 60.2755C108.557 61.7461 107.238 63.6409 105.444 64.4766C105.257 64.5637 105.064 64.6387 104.867 64.701C103.94 64.2522 100.726 61.0349 100.74 56.2594C104.919 54.837 109.495 52.1783 110.439 43.5293C110.439 43.5293 111.688 43.9926 112.601 43.6886C113.628 48.0131 113.938 54.054 110.837 58.8575Z" fill="#1D3F70"/>
<path d="M112.753 44.4228C111.704 44.7907 110.394 44.2635 110.354 44.2467C110.385 44.0133 110.414 43.7755 110.439 43.5332C110.439 43.5332 111.687 43.9976 112.6 43.6925C112.6 43.6903 112.666 43.9561 112.753 44.4228Z" fill="#163356"/>
<path d="M110.836 58.8584C110.517 59.3534 110.166 59.827 109.787 60.2763C108.556 61.747 107.237 63.6417 105.443 64.4775L105.589 59.2959C105.589 59.2959 107.794 62.2709 110.836 58.8584Z" fill="#163356"/>
<path d="M97.0425 62.062C88.5301 60.1281 84.4606 54.2364 83.3383 45.7377C83.1958 44.5418 84.9412 44.2109 85.2361 45.3742C87.3537 51.6563 90.7593 56.0638 97.692 56.2175H97.6821C101.446 56.6561 100.808 62.4693 97.0425 62.062Z" fill="#F99370"/>
<path d="M84.0632 42.3561C83.7318 42.4682 84.1151 43.2075 84.0267 43.516C83.7191 43.2909 83.4378 43.0308 83.1883 42.7408C82.851 42.1291 82.5442 41.5005 82.2693 40.8573C81.4198 40.2314 82.5255 42.6679 82.5907 42.927H82.5819C82.1007 42.3779 81.6577 41.7954 81.2563 41.1838C80.2445 40.7351 82.0296 43.1155 82.1732 43.3533C81.638 42.9095 81.1543 42.4052 80.7316 41.8501C79.6723 41.4923 81.6706 43.765 81.8838 43.9445V43.9524C81.4137 43.6642 80.9701 43.3338 80.5582 42.9652C79.5242 42.7756 81.5281 44.492 81.7412 44.6355C81.8396 44.8083 82.4372 45.3984 83.3695 45.9716C83.7152 46.1847 85.2639 45.773 85.2352 45.3714C85.2076 44.9934 84.8541 43.8626 84.7934 43.6887C84.7414 43.3253 84.4741 42.4121 84.0632 42.3561Z" fill="#F99370"/>
<path d="M98.4243 56.0896L94.9668 61.2847L93.6192 63.3106C93.0716 63.0104 92.5433 62.6755 92.0373 62.3077C91.0036 61.5735 90.0494 60.7301 89.1907 59.7915C85.3532 55.559 83.6675 49.3084 83.4863 46.7361C84.7997 46.8483 85.4946 46.127 85.4946 46.127C85.5851 46.3289 85.6823 46.5349 85.7862 46.7451C88.5014 52.5447 93.3695 56.2826 98.4243 56.0896Z" fill="#1D3F70"/>
<path d="M85.7837 46.7501C85.0237 47.5039 83.5744 47.4826 83.5744 47.4826C83.5093 47.0126 83.4883 46.7411 83.4883 46.7411C84.8006 46.8533 85.4954 46.1309 85.4954 46.1309C85.5845 46.3335 85.6806 46.5399 85.7837 46.7501Z" fill="#163356"/>
<path d="M94.9666 61.2846L93.619 63.3105C93.0714 63.0103 92.5431 62.6754 92.0371 62.3076C92.9076 60.1459 94.5457 58.6416 94.5457 58.6416L94.9666 61.2846Z" fill="#163356"/>
<path d="M81.0739 101.44C81.4572 102.744 80.6166 102.048 82.5287 102.273C82.9297 102.32 83.777 102.338 83.3992 101.476C83.1087 100.496 83.5417 97.8415 83.3749 96.8341C82.6149 92.329 79.1209 94.7913 81.0739 101.44Z" fill="#F99370"/>
<path d="M79.0572 98.1737C79.1511 98.9466 79.2284 99.4077 79.2339 99.4571C79.2339 99.4571 81.6299 99.9585 84.8201 99.4571C84.8399 95.2032 84.8112 87.2945 87.9075 84.674C88.6277 84.1861 90.4482 82.8792 91.8102 82.0715C95.2114 80.3888 100.26 79.0998 101.641 75.8455L94.1299 72.6865C79.0726 74.3535 77.6278 88.1157 79.0572 98.1737Z" fill="#3A72AA"/>
<path d="M84.9293 94.5065C85.4253 87.4852 86.1444 85.135 91.8101 82.0714L94.4701 75.8926C87.3076 78.144 81.2221 85.6017 84.9293 94.5065Z" fill="#23659B"/>
<path d="M90.4114 105.697C90.9958 106.851 90.1397 107.093 91.6641 106.639C92.6693 106.259 93.0007 106.168 92.6925 105.238C92.4715 104.134 92.2705 102.022 92.1258 100.905C91.7867 97.5097 87.2488 99.4549 90.4114 105.697Z" fill="#F99370"/>
<path d="M85.0122 93.3782C85.7158 97.4649 86.9133 100.68 87.9085 103.912C87.9085 103.912 91.8245 104.162 93.7896 102.06C92.9479 98.8884 91.4699 92.723 93.076 88.1226C93.7178 86.4399 95.3891 83.7879 100.419 82.2892C106.685 80.4237 105.735 74.6431 105.735 74.6431C103.546 70.3275 101.908 73.9251 101.744 73.9274C100.586 73.9589 99.4366 74.1322 98.3198 74.4434C88.3206 77.516 82.667 83.9102 85.0122 93.3782Z" fill="#3A72AA"/>
<path d="M89.3319 102.868C83.9191 86.7144 86.6653 81.5059 99.4316 75.787C99.5354 75.7466 99.4669 75.5626 99.3564 75.6176C86.8188 81.1436 83.3116 86.9388 89.3319 102.868Z" fill="#23659B"/>
<path d="M80.9283 98.6276C79.9484 87.9503 79.3553 77.8856 94.4048 73.8886C94.5153 73.8684 94.4799 73.6744 94.3617 73.708C79.5795 77.5962 79.3144 87.9492 80.9283 98.6276Z" fill="#23659B"/>
<path d="M87.5312 102.719C87.6649 103.135 87.7908 103.534 87.9068 103.912C87.9068 103.912 91.8228 104.162 93.7879 102.06C93.7879 102.06 93.6609 101.638 93.483 100.924C93.483 100.924 91.3135 103.27 87.5312 102.719Z" fill="#23659B"/>
<path d="M79.0566 98.1738C79.1505 98.9467 79.2279 99.4078 79.2334 99.4572C79.2334 99.4572 81.6293 99.9586 84.8195 99.4572C84.8195 99.1633 84.8195 98.7785 84.8195 98.3241C84.8195 98.3241 81.657 99.0017 79.0566 98.1738Z" fill="#23659B"/>
<path d="M83.5918 103.093C83.5675 103.383 83.415 103.709 83.0837 103.692L77.0291 103.5C76.9565 103.498 76.8855 103.479 76.8221 103.443C76.7587 103.407 76.7048 103.356 76.665 103.294C76.6253 103.232 76.6009 103.162 76.5939 103.088C76.5869 103.015 76.5975 102.941 76.6248 102.872C76.88 102.21 77.9117 101.086 81.0114 101.219C81.4245 101.237 81.9536 101.389 83.3145 101.246C83.5998 101.815 83.697 102.463 83.5918 103.093Z" fill="#EB5648"/>
<path d="M78.4989 102.718C78.5154 102.718 78.5319 102.715 78.5475 102.71C78.5793 102.697 78.6052 102.673 78.6194 102.641C78.6337 102.61 78.6352 102.574 78.6237 102.541C78.4914 102.137 78.2098 101.801 77.8383 101.604C77.8228 101.597 77.8061 101.593 77.7892 101.593C77.7723 101.593 77.7555 101.596 77.7398 101.602C77.7241 101.608 77.7098 101.618 77.6977 101.63C77.6856 101.642 77.6759 101.656 77.6693 101.672C77.6624 101.688 77.6586 101.704 77.6582 101.721C77.6578 101.739 77.6608 101.756 77.667 101.771C77.6732 101.787 77.6824 101.802 77.6942 101.814C77.706 101.826 77.7201 101.836 77.7356 101.843C77.7533 101.85 78.1675 102.042 78.3818 102.628C78.3902 102.653 78.4059 102.675 78.4267 102.691C78.4476 102.707 78.4728 102.716 78.4989 102.718Z" fill="#E8C0A6"/>
<path d="M79.5014 102.626C79.5142 102.628 79.5272 102.628 79.5401 102.626C79.573 102.617 79.6009 102.595 79.6177 102.564C79.6344 102.534 79.6387 102.498 79.6295 102.465C79.4885 101.976 79.1735 101.559 78.7458 101.294C78.7312 101.285 78.7151 101.28 78.6983 101.277C78.6816 101.275 78.6646 101.277 78.6484 101.281C78.6321 101.286 78.6169 101.294 78.6037 101.304C78.5905 101.315 78.5795 101.328 78.5713 101.343C78.5546 101.373 78.5503 101.409 78.5594 101.442C78.5685 101.476 78.5902 101.504 78.6199 101.521C78.9854 101.753 79.2558 102.112 79.381 102.531C79.3885 102.558 79.4042 102.581 79.4258 102.599C79.4475 102.616 79.474 102.625 79.5014 102.626Z" fill="#E8C0A6"/>
<path d="M80.6394 102.52C80.6536 102.522 80.6683 102.522 80.6825 102.52C80.6986 102.514 80.7136 102.506 80.7266 102.495C80.7395 102.484 80.7502 102.471 80.758 102.455C80.7658 102.44 80.7706 102.423 80.772 102.406C80.7735 102.389 80.7716 102.372 80.7664 102.356C80.6084 101.862 80.3074 101.428 79.9026 101.111C79.889 101.099 79.873 101.09 79.8559 101.085C79.8387 101.079 79.8206 101.078 79.8028 101.08C79.785 101.082 79.7679 101.088 79.7525 101.098C79.737 101.107 79.7237 101.119 79.7133 101.134C79.703 101.149 79.6957 101.166 79.6921 101.184C79.6885 101.202 79.6886 101.22 79.6923 101.238C79.6961 101.256 79.7035 101.273 79.714 101.287C79.7246 101.302 79.738 101.314 79.7535 101.324C80.1134 101.608 80.3825 101.995 80.5267 102.434C80.5352 102.458 80.5504 102.479 80.5704 102.494C80.5904 102.509 80.6144 102.518 80.6394 102.52Z" fill="#E8C0A6"/>
<path d="M76.6249 102.874L83.5919 103.098C83.563 103.313 83.4917 103.52 83.382 103.706L77.0292 103.506C76.9576 103.504 76.8875 103.484 76.8247 103.449C76.762 103.414 76.7083 103.364 76.6683 103.304C76.6284 103.244 76.6032 103.174 76.5948 103.102C76.5865 103.03 76.5953 102.957 76.6205 102.889L76.6249 102.874Z" fill="#CE3932"/>
<path d="M93.3558 106.948C93.3989 107.235 93.326 107.588 93.0001 107.65L87.0704 108.904C86.9994 108.92 86.9257 108.918 86.8557 108.898C86.7857 108.878 86.7215 108.841 86.6686 108.791C86.6157 108.74 86.5756 108.677 86.5519 108.608C86.5282 108.538 86.5215 108.463 86.5325 108.39C86.6275 107.686 87.1897 106.339 90.4241 105.735C90.8295 105.66 91.3697 105.681 92.661 105.217C93.0692 105.703 93.3127 106.31 93.3558 106.948Z" fill="#EB5648"/>
<path d="M88.3172 107.791C88.3338 107.788 88.3496 107.782 88.3636 107.772C88.3917 107.753 88.4112 107.723 88.4178 107.689C88.4244 107.655 88.4176 107.62 88.3989 107.591C88.1767 107.229 87.825 106.969 87.418 106.866C87.3854 106.862 87.3528 106.872 87.3267 106.892C87.3006 106.912 87.2829 106.941 87.2773 106.974C87.2717 107.007 87.2785 107.04 87.2965 107.068C87.3144 107.096 87.342 107.116 87.3738 107.124C87.7115 107.215 88.0018 107.434 88.1846 107.736C88.1986 107.758 88.2188 107.775 88.2425 107.785C88.2662 107.795 88.2922 107.797 88.3172 107.791Z" fill="#E8C0A6"/>
<path d="M89.2722 107.468C89.2844 107.464 89.2962 107.46 89.3076 107.454C89.3224 107.446 89.3356 107.435 89.3462 107.421C89.3568 107.408 89.3647 107.392 89.3694 107.376C89.3741 107.359 89.3755 107.342 89.3737 107.325C89.3718 107.308 89.3666 107.291 89.3584 107.276C89.1085 106.835 88.7062 106.503 88.2294 106.346C88.2133 106.341 88.1963 106.34 88.1796 106.342C88.1629 106.344 88.1467 106.349 88.132 106.357C88.1173 106.366 88.1043 106.377 88.094 106.39C88.0836 106.404 88.0759 106.419 88.0715 106.436C88.0668 106.452 88.0653 106.469 88.0672 106.487C88.0691 106.504 88.0743 106.52 88.0825 106.535C88.0907 106.55 88.1018 106.563 88.1151 106.574C88.1284 106.585 88.1436 106.593 88.1599 106.597C88.5693 106.737 88.915 107.023 89.133 107.402C89.1462 107.426 89.1668 107.446 89.1919 107.458C89.2169 107.47 89.2451 107.473 89.2722 107.468Z" fill="#E8C0A6"/>
<path d="M90.3601 107.09C90.3744 107.087 90.3882 107.082 90.4009 107.075C90.4302 107.057 90.4512 107.028 90.4595 106.994C90.4677 106.96 90.4626 106.925 90.4451 106.895C90.1785 106.45 89.7852 106.098 89.3173 105.885C89.2857 105.872 89.2502 105.873 89.2189 105.886C89.1875 105.9 89.1627 105.926 89.1499 105.958C89.1372 105.99 89.1375 106.026 89.1509 106.058C89.1643 106.09 89.1895 106.115 89.2212 106.128C89.635 106.32 89.9838 106.633 90.2242 107.025C90.2372 107.049 90.2574 107.068 90.2818 107.08C90.3062 107.092 90.3336 107.095 90.3601 107.09Z" fill="#E8C0A6"/>
<path d="M86.533 108.39L93.3563 106.947C93.3772 107.163 93.3554 107.381 93.2922 107.588L87.0709 108.904C87.0008 108.919 86.9281 108.917 86.8589 108.898C86.7898 108.879 86.7261 108.843 86.6732 108.794C86.6204 108.745 86.5798 108.683 86.5551 108.615C86.5303 108.547 86.5219 108.473 86.5307 108.401L86.533 108.39Z" fill="#CE3932"/>
<path d="M98.4242 56.0896C98.3711 54.813 98.6981 52.9957 98.9246 52.2609C99.3443 50.8026 101.622 51.5452 101.134 52.9744C101.062 52.9216 100.631 55.5915 100.743 56.3498C102.871 57.1732 96.1729 58.8683 98.4242 56.0896Z" fill="#F99370"/>
<path d="M101.164 52.8554C101.164 52.8722 101.157 52.8902 101.152 52.907C101.146 52.9238 101.14 52.953 101.133 52.9754C101.082 52.9362 100.825 54.4069 100.746 55.4838C99.7168 55.8697 98.6199 55.5859 98.4199 55.5287C98.4764 54.4975 98.6243 53.4737 98.8618 52.4695C98.8982 52.3472 98.9225 52.2766 98.927 52.262C98.938 52.2295 98.949 52.1969 98.9623 52.1655C99.0273 52.0074 99.1257 51.8656 99.2505 51.7503C99.3753 51.6349 99.5236 51.5488 99.6847 51.498C99.9113 51.4269 100.154 51.4278 100.38 51.5005C100.606 51.5733 100.805 51.7145 100.95 51.9053L100.966 51.9277C101.061 52.0598 101.127 52.2106 101.161 52.3703C101.196 52.5301 101.196 52.6953 101.164 52.8554Z" fill="#E57D61"/>
<path d="M97.4297 49.8232C97.4297 49.8232 97.7401 48.5892 98.32 47.832L98.9353 48.3469L97.4297 49.8232Z" fill="#662948"/>
<path d="M96.5652 53.4351C97.1927 54.4885 98.4122 55.0393 99.4859 55.0628C99.8156 55.0782 100.145 55.033 100.459 54.9293C100.563 54.8939 100.665 54.8515 100.764 54.8026C105.579 51.7737 101.824 43.993 98.0874 49.0814C96.9021 50.487 95.285 51.0008 96.5652 53.4351Z" fill="#F99370"/>
<path d="M97.541 52.2272L99.0544 51.8525C99.0544 51.8525 98.9605 52.6187 98.3794 52.6928C97.8194 52.7634 97.541 52.2272 97.541 52.2272Z" fill="#F9F8F3"/>
<path d="M98.9908 50.6197C98.9834 50.5884 98.9852 50.5556 98.9962 50.5254C99.0071 50.4952 99.0266 50.469 99.0522 50.4501C99.0779 50.4312 99.1084 50.4204 99.1401 50.4191C99.1717 50.4178 99.203 50.4261 99.2301 50.4428C99.2571 50.4596 99.2786 50.4842 99.2919 50.5133C99.3052 50.5425 99.3097 50.5751 99.3047 50.6069C99.2998 50.6386 99.2857 50.6682 99.2643 50.6919C99.2428 50.7155 99.2149 50.7322 99.1841 50.7397C99.1636 50.7447 99.1424 50.7456 99.1216 50.7423C99.1008 50.739 99.0809 50.7315 99.063 50.7204C99.045 50.7092 99.0294 50.6946 99.017 50.6773C99.0046 50.6601 98.9957 50.6405 98.9908 50.6197Z" fill="#C16256"/>
<path d="M97.733 50.0806C97.7256 50.0494 97.7274 50.0166 97.7384 49.9864C97.7493 49.9562 97.7688 49.93 97.7944 49.911C97.82 49.8921 97.8506 49.8813 97.8823 49.88C97.9139 49.8787 97.9452 49.887 97.9722 49.9038C97.9993 49.9205 98.0208 49.9451 98.0341 49.9743C98.0474 50.0035 98.0518 50.036 98.0469 50.0678C98.042 50.0996 98.0279 50.1292 98.0064 50.1528C97.985 50.1765 97.9571 50.1931 97.9263 50.2007C97.9058 50.2058 97.8845 50.2068 97.8637 50.2036C97.8429 50.2003 97.8229 50.1929 97.8049 50.1817C97.7869 50.1706 97.7713 50.1559 97.7589 50.1385C97.7466 50.1212 97.7378 50.1015 97.733 50.0806Z" fill="#C16256"/>
<path d="M97.5138 52.2845C97.5254 52.2879 97.5376 52.2879 97.5492 52.2845L99.0625 51.9099C99.0782 51.906 99.0917 51.896 99.1001 51.882C99.1085 51.868 99.1111 51.8512 99.1073 51.8353C99.1035 51.8193 99.0936 51.8056 99.0798 51.7971C99.066 51.7886 99.0495 51.786 99.0338 51.7898L97.5205 52.1634C97.5049 52.1676 97.4916 52.1778 97.4834 52.1919C97.4751 52.2059 97.4726 52.2226 97.4763 52.2386C97.4781 52.2489 97.4825 52.2585 97.4891 52.2666C97.4957 52.2746 97.5042 52.2808 97.5138 52.2845Z" fill="#C16256"/>
<path d="M97.8199 51.5481C97.9053 51.5819 97.9968 51.5968 98.0883 51.5918C98.0969 51.592 98.1053 51.5904 98.1132 51.5871C98.1211 51.5837 98.1282 51.5788 98.134 51.5725C98.1399 51.5662 98.1443 51.5587 98.1472 51.5505C98.15 51.5424 98.1511 51.5337 98.1504 51.525C98.1497 51.5164 98.1472 51.508 98.1431 51.5004C98.139 51.4929 98.1334 51.4862 98.1266 51.481C98.1198 51.4758 98.112 51.472 98.1037 51.47C98.0954 51.4681 98.0868 51.4679 98.0784 51.4695C97.8663 51.4864 97.6089 51.3181 97.5923 51.2182C97.5857 51.1823 97.6354 51.161 97.6785 51.1498C98.0563 51.0466 98.4297 50.4588 98.4451 50.4341C98.45 50.4273 98.4535 50.4196 98.4553 50.4115C98.4572 50.4033 98.4574 50.3948 98.4559 50.3866C98.4544 50.3783 98.4513 50.3705 98.4467 50.3635C98.4422 50.3565 98.4362 50.3505 98.4293 50.346C98.4224 50.3414 98.4146 50.3383 98.4065 50.3368C98.3984 50.3354 98.39 50.3357 98.382 50.3376C98.374 50.3396 98.3664 50.3432 98.3598 50.3482C98.3532 50.3532 98.3476 50.3595 98.3435 50.3668C98.3435 50.3668 97.979 50.94 97.6465 51.0309C97.4664 51.0803 97.4653 51.1924 97.473 51.2384C97.4929 51.3596 97.6509 51.483 97.8199 51.5481Z" fill="#C16256"/>
<path d="M98.3613 48.7374C99.3124 48.4884 100.748 49.2702 101.502 49.4464C101.502 49.4464 101.036 50.714 102.117 51.9581C101.945 53.1864 102.017 53.7529 100.46 54.9297C100.564 54.8942 100.666 54.8519 100.765 54.8029C105.393 51.9188 102.034 44.2771 98.3613 48.7374Z" fill="#E57D61"/>
<path d="M90.6795 73.2609C90.6795 73.2609 96.2027 76.2819 105.787 75.4686C105.787 75.4686 105.816 75.215 105.862 74.773C106.061 72.8884 106.566 67.5834 106.383 63.9185C106.383 63.9185 106.131 60.8112 105.589 59.2956C103.947 54.694 100.744 56.2612 100.744 56.2612C99.996 57.7947 98.2176 59.0141 98.2176 59.0141C98.0303 58.0378 98.1016 57.0286 98.4241 56.0895C95.9575 56.665 93.7427 58.5575 92.7507 62.7081C92.2857 64.6522 90.6011 69.3559 90.4188 71.8227C90.3669 72.5149 90.4332 73.0286 90.6795 73.2609Z" fill="#1D3F70"/>
<path d="M97.5768 56.0898C97.5768 56.0898 97.0963 58.4018 97.959 59.7917C97.959 59.7917 100.61 58.8876 101.561 55.9619C101.265 55.9797 100.98 56.0824 100.738 56.2581C100.738 56.2581 99.5232 57.9711 98.3279 58.7888C98.3279 58.7888 98.0452 57.7792 98.4218 56.0898C98.1443 56.0204 97.8543 56.0204 97.5768 56.0898Z" fill="#163356"/>
<path d="M99.9206 50.4501C99.9067 50.4492 99.8932 50.4445 99.8817 50.4364C99.8702 50.4283 99.8611 50.4171 99.8555 50.4041C99.7932 50.2651 99.7037 50.1405 99.5924 50.0379C99.4811 49.9353 99.3504 49.8568 99.2082 49.8073C99.1985 49.8046 99.1895 49.8 99.1816 49.7937C99.1737 49.7874 99.1671 49.7796 99.1622 49.7708C99.1573 49.7619 99.1541 49.7522 99.1529 49.7421C99.1517 49.732 99.1524 49.7217 99.1551 49.712C99.1578 49.7022 99.1624 49.693 99.1685 49.685C99.1747 49.677 99.1824 49.6703 99.1911 49.6653C99.1998 49.6603 99.2094 49.6571 99.2194 49.6558C99.2293 49.6546 99.2394 49.6554 99.249 49.6581C99.4137 49.7131 99.5652 49.8026 99.6938 49.9206C99.8224 50.0386 99.9252 50.1827 99.9958 50.3435C100.004 50.3623 100.004 50.3835 99.9972 50.4027C99.99 50.4218 99.9755 50.4373 99.9571 50.4456C99.9455 50.4503 99.933 50.4518 99.9206 50.4501Z" fill="#C16256"/>
<path d="M98.7546 49.5307C98.7408 49.5298 98.7274 49.5251 98.716 49.5172C98.3304 49.239 98.0532 49.386 98.0532 49.3871C98.0349 49.3968 98.0135 49.3986 97.9938 49.3923C97.9742 49.386 97.9578 49.372 97.9482 49.3534C97.9387 49.3348 97.9369 49.3132 97.9431 49.2932C97.9493 49.2732 97.9631 49.2565 97.9814 49.2469C97.9957 49.239 98.3459 49.0517 98.8087 49.386C98.8175 49.3919 98.8249 49.3996 98.8306 49.4086C98.8363 49.4175 98.8401 49.4276 98.8417 49.4381C98.8434 49.4487 98.8429 49.4594 98.8402 49.4698C98.8376 49.4801 98.8329 49.4898 98.8264 49.4981C98.8188 49.51 98.8079 49.5193 98.7952 49.5251C98.7825 49.5309 98.7684 49.5328 98.7546 49.5307Z" fill="#C16256"/>
<path d="M90.6801 73.2614C90.6801 73.2614 96.2033 76.2824 105.787 75.4691C105.787 75.4691 105.817 75.2156 105.862 74.7736L105.735 74.6457C105.735 74.6457 94.6535 75.118 90.4183 71.8232C90.3675 72.5154 90.4338 73.0292 90.6801 73.2614Z" fill="#163356"/>
<path d="M98.3318 45.9791C99.0442 45.1254 100.606 44.9448 101.567 46.4458C102.307 47.6012 103.341 47.8435 103.093 48.8117C104.804 50.1578 103.349 52.075 103.349 52.075L102.414 51.7272C102.154 51.3761 101.971 50.9724 101.878 50.5434C101.784 50.1144 101.782 49.67 101.872 49.2402C101.623 49.1977 101.381 49.1187 101.154 49.0057C100.491 48.6512 99.4629 48.3102 98.5958 48.4157C97.7286 48.5211 97.5397 46.9338 98.3318 45.9791Z" fill="#662948"/>
<path d="M103.301 52.8949C103.08 53.3716 102.594 53.6106 102.216 53.43C101.839 53.2494 101.712 52.7154 101.934 52.2398C102.156 51.7641 102.64 51.5241 103.018 51.7047C103.396 51.8853 103.523 52.4181 103.301 52.8949Z" fill="#F99370"/>
<path d="M102.51 52.003C102.527 52.003 102.925 51.9457 103.085 52.1881C103.127 52.255 103.148 52.3331 103.146 52.4124C103.146 52.4203 103.146 52.4281 103.146 52.436C103.122 52.6454 103.05 52.8463 102.936 53.0227C102.928 53.0352 102.917 53.0447 102.903 53.0496C102.89 53.0545 102.875 53.0545 102.862 53.0496H102.852C102.845 53.0455 102.839 53.0401 102.834 53.0337C102.829 53.0272 102.826 53.0199 102.824 53.012C102.822 53.0042 102.821 52.996 102.823 52.988C102.824 52.98 102.827 52.9724 102.831 52.9655C102.922 52.8197 102.986 52.6581 103.019 52.4887C102.664 52.4674 102.403 52.8129 102.4 52.8174C102.392 52.8281 102.381 52.8359 102.369 52.8398C102.356 52.8436 102.343 52.8432 102.33 52.8387L102.316 52.8297C102.31 52.8249 102.304 52.8189 102.3 52.812C102.296 52.8051 102.293 52.7974 102.292 52.7893C102.291 52.7813 102.291 52.7731 102.293 52.7652C102.295 52.7573 102.298 52.7499 102.303 52.7433C102.316 52.7265 102.602 52.3395 103.019 52.3608C103.014 52.3258 103.002 52.2921 102.983 52.2621C102.866 52.0837 102.529 52.1297 102.526 52.1297C102.518 52.131 102.51 52.1307 102.502 52.1287C102.495 52.1268 102.487 52.1234 102.481 52.1185C102.475 52.1137 102.469 52.1077 102.465 52.1007C102.461 52.0938 102.459 52.0861 102.457 52.0781C102.456 52.0696 102.455 52.0608 102.457 52.0522C102.459 52.0436 102.462 52.0355 102.467 52.0284C102.472 52.0213 102.479 52.0154 102.486 52.011C102.494 52.0066 102.502 52.0038 102.51 52.003Z" fill="#C16256"/>
<path d="M101.737 52.866L102.308 52.5597C102.315 52.5174 102.332 52.4773 102.357 52.4428C102.382 52.4082 102.415 52.3802 102.452 52.3609C102.49 52.3417 102.532 52.3318 102.574 52.332C102.617 52.3323 102.658 52.3426 102.696 52.3623C102.761 52.3933 102.812 52.4493 102.836 52.5181C102.861 52.5869 102.858 52.6628 102.827 52.7291C102.797 52.7955 102.742 52.8468 102.674 52.8719C102.606 52.8969 102.531 52.8936 102.466 52.8626L101.895 53.1734C101.874 53.1847 101.851 53.1914 101.827 53.1929C101.804 53.1945 101.78 53.1909 101.758 53.1823C101.727 53.1712 101.7 53.1511 101.681 53.1247C101.661 53.0982 101.649 53.0665 101.647 53.0334C101.645 53.0003 101.652 52.9672 101.668 52.9383C101.684 52.9094 101.708 52.8858 101.737 52.8705V52.866Z" fill="#FDFFDE"/>
<path d="M46.7144 84.6012C46.682 84.6009 46.6506 84.5898 46.6251 84.5696C46.5995 84.5493 46.5813 84.521 46.5733 84.4892C46.5652 84.4573 46.5677 84.4236 46.5805 84.3934C46.5932 84.3631 46.6154 84.338 46.6437 84.3219C46.6956 84.2927 51.8255 81.4153 51.7803 78.336C51.7593 76.9696 50.7132 75.7435 48.6696 74.6913C45.5413 73.0815 43.7274 71.2137 43.1221 68.9869C42.2019 65.6002 44.2433 61.6504 46.5851 57.8811C48.1173 55.4199 48.6177 53.3401 48.072 51.6989C47.4954 49.9646 45.9091 49.3432 45.8936 49.3432C45.8595 49.3278 45.8325 49.2998 45.8179 49.2648C45.8034 49.2299 45.8025 49.1907 45.8155 49.1551C45.8284 49.1195 45.8542 49.0903 45.8876 49.0734C45.921 49.0564 45.9595 49.053 45.9953 49.0638C46.0649 49.0908 47.724 49.7302 48.3481 51.598C48.9259 53.3289 48.4166 55.4973 46.8337 58.0405C44.5272 61.7424 42.5146 65.626 43.4093 68.9028C43.9904 71.0454 45.7567 72.8504 48.8066 74.4209C50.9551 75.5259 52.0553 76.8406 52.0774 78.3259C52.126 81.5847 47.006 84.4565 46.7884 84.5777C46.7663 84.5922 46.7407 84.6003 46.7144 84.6012Z" fill="#1D3F70"/>
<path d="M55.0381 40.3702C54.34 45.8221 50.2683 49.781 45.9437 49.21C43.4637 48.8824 41.4401 47.1369 40.2956 44.679C39.444 42.8505 39.0805 40.6282 39.3777 38.3027C40.0758 32.8486 44.1475 28.892 48.4722 29.463C51.6104 29.8769 54.0197 32.5636 54.8371 36.0894C55.1577 37.4924 55.2258 38.9427 55.0381 40.3702Z" fill="#9F6EED"/>
<path d="M55.039 40.3704C54.3409 45.8223 50.2692 49.7811 45.9445 49.2101C43.4646 48.8826 41.4409 47.1371 40.2965 44.6792C39.977 43.2761 39.91 41.8258 40.0988 40.3984C40.7969 34.9454 44.8686 30.9877 49.1933 31.5587C51.6732 31.8863 53.6969 33.6318 54.8413 36.0896C55.1608 37.4928 55.2278 38.943 55.039 40.3704Z" fill="#9358E0"/>
<path d="M46.1441 47.6426L44.5137 50.281L47.0554 50.6165L46.1441 47.6426Z" fill="#9358E0"/>
<path d="M156.04 64.9835C156.013 64.9826 155.986 64.974 155.964 64.9588C155.941 64.9436 155.923 64.9223 155.912 64.8973C155.9 64.8724 155.896 64.8447 155.899 64.8173C155.902 64.7899 155.913 64.764 155.929 64.7423C155.966 64.6952 159.575 60.0016 158.334 57.1882C157.782 55.9396 156.346 55.2306 154.064 55.0792C150.564 54.847 148.174 53.8564 146.755 52.0503C144.598 49.3031 144.946 44.8563 145.643 40.4611C146.099 37.5859 145.754 35.4736 144.616 34.179C143.415 32.816 141.718 32.8822 141.702 32.8833C141.682 32.8858 141.661 32.884 141.642 32.8782C141.623 32.8723 141.605 32.8625 141.589 32.8493C141.574 32.8361 141.561 32.8198 141.552 32.8014C141.543 32.783 141.538 32.763 141.537 32.7425C141.536 32.7221 141.539 32.7016 141.547 32.6824C141.554 32.6633 141.565 32.6458 141.579 32.6311C141.593 32.6164 141.61 32.6049 141.628 32.5971C141.647 32.5893 141.667 32.5856 141.687 32.5861C142.278 32.5817 142.863 32.7032 143.405 32.9428C143.946 33.1824 144.432 33.5348 144.831 33.9771C146.033 35.3378 146.403 37.5343 145.936 40.5048C145.249 44.8327 144.902 49.2043 146.987 51.8619C148.352 53.6007 150.675 54.5542 154.086 54.7785C156.489 54.9378 158.011 55.7063 158.606 57.0636C159.912 60.0409 156.316 64.7255 156.163 64.9229C156.148 64.9423 156.13 64.958 156.109 64.9685C156.087 64.9791 156.064 64.9842 156.04 64.9835Z" fill="#1D3F70"/>
<path d="M146.631 20.9779C148.099 26.2695 145.888 31.5352 141.69 32.7355C139.284 33.4243 136.747 32.6233 134.744 30.8284C133.253 29.4823 132.058 27.5887 131.43 25.3316C129.962 20.0379 132.174 14.7744 136.371 13.573C139.417 12.7013 142.668 14.209 144.789 17.1246C145.626 18.2859 146.25 19.5913 146.631 20.9779Z" fill="#E063D7"/>
<path d="M146.631 20.9779C148.099 26.2694 145.887 31.5351 141.69 32.7354C139.284 33.4242 136.746 32.6233 134.744 30.8284C133.905 29.6664 133.281 28.3597 132.901 26.9716C131.433 21.679 133.644 16.4155 137.842 15.2141C140.249 14.5253 142.785 15.3263 144.789 17.1212C145.627 18.2836 146.251 19.5902 146.631 20.9779Z" fill="#CE4ABF"/>
<path d="M141.269 31.2158L140.791 34.2929L143.259 33.5862L141.269 31.2158Z" fill="#CE4ABF"/>
<path d="M176.53 110.334C176.497 110.334 176.464 110.322 176.439 110.302C176.413 110.281 176.395 110.251 176.387 110.219C176.379 110.186 176.383 110.152 176.397 110.121C176.411 110.091 176.435 110.066 176.464 110.051C176.517 110.024 181.752 107.35 181.824 104.272C181.855 102.905 180.856 101.639 178.854 100.508C175.79 98.7772 174.047 96.841 173.527 94.5907C172.737 91.1692 174.927 87.299 177.41 83.6341C179.035 81.2346 179.619 79.1761 179.13 77.5147C178.62 75.7591 177.059 75.0826 177.043 75.0759C177.009 75.0595 176.983 75.0307 176.969 74.9952C176.956 74.9597 176.956 74.9203 176.97 74.885C176.984 74.8497 177.011 74.8213 177.045 74.8055C177.079 74.7897 177.118 74.7877 177.154 74.7999C177.223 74.8291 178.856 75.5336 179.409 77.4249C179.921 79.1772 179.329 81.3232 177.651 83.8024C175.205 87.4157 173.048 91.2141 173.812 94.5234C174.312 96.6873 176.007 98.5618 178.995 100.245C181.101 101.434 182.15 102.79 182.116 104.275C182.04 107.528 176.814 110.203 176.593 110.315C176.573 110.326 176.552 110.332 176.53 110.334Z" fill="#1D3F70"/>
<path d="M186.524 66.4614C185.618 71.882 181.399 75.6781 177.1 74.9377C174.634 74.5137 172.681 72.6941 171.628 70.1892C170.847 68.3292 170.567 66.0946 170.954 63.7815C171.859 58.3598 176.077 54.5648 180.377 55.3052C183.497 55.8425 185.802 58.6201 186.485 62.1762C186.752 63.5906 186.765 65.0423 186.524 66.4614Z" fill="#F9B233"/>
<path d="M186.524 66.4611C185.618 71.8816 181.399 75.6778 177.1 74.9374C174.634 74.5133 172.681 72.6938 171.627 70.1888C171.361 68.7743 171.349 67.3226 171.59 65.9035C172.496 60.4819 176.714 56.6869 181.014 57.4273C183.479 57.8513 185.432 59.6709 186.485 62.1758C186.752 63.5902 186.765 65.042 186.524 66.4611Z" fill="#F39200"/>
<path d="M177.36 73.3809L175.631 75.9531L178.158 76.3873L177.36 73.3809Z" fill="#F39200"/>
<path d="M163.834 2.52068C162.178 2.61827 161.665 0.713462 161.827 0L163.263 0.164904V0.159295C163.205 0.687661 163.433 1.21378 164.09 1.03542L164.311 2.48029C164.153 2.50658 163.994 2.52009 163.834 2.52068Z" fill="#2FAC66"/>
<path d="M97.5126 2.96135C97.1739 2.3482 96.6835 1.83546 96.0898 1.47384L96.7526 0.174805C97.5983 0.668161 98.2962 1.38545 98.7719 2.25013L97.5126 2.96135Z" fill="#F9B233"/>
<path d="M32.0146 74.599C31.6759 73.9859 31.1855 73.4732 30.5918 73.1115L31.2546 71.8125C32.0998 72.3061 32.7974 73.0233 33.2728 73.8878L32.0146 74.599Z" fill="#F9B233"/>
<path d="M74.7032 7.31497C74.3629 6.70414 73.8723 6.19352 73.2793 5.83307L73.9421 4.53516C74.7877 5.02769 75.4854 5.74473 75.9603 6.60936L74.7032 7.31497Z" fill="#F9B233"/>
<path d="M156.638 17.0834C156.301 16.4707 155.812 15.9585 155.219 15.5982L155.882 14.2969C156.727 14.7902 157.425 15.5075 157.901 16.3722L156.638 17.0834Z" fill="#F9B233"/>
<path d="M23.5824 49.264C23.4719 49.264 21.0229 49.1305 20.3789 46.7961L21.7663 46.4023C22.1242 47.7047 23.5812 47.8001 23.6442 47.8035L23.5824 49.264Z" fill="#7D44D8"/>
<path d="M17.2327 76.0717C17.1289 76.0717 14.6733 75.9382 14.0293 73.6037L15.4178 73.21C15.7757 74.5124 17.2327 74.6077 17.2957 74.6111L17.2327 76.0717Z" fill="#7D44D8"/>
<path d="M32.079 89.4397L30.6074 91.5566L31.7851 92.4009L33.2567 90.2839L32.079 89.4397Z" fill="#57175E"/>
<path d="M115.919 2.95821L114.447 5.0752L115.625 5.91948L117.097 3.80249L115.919 2.95821Z" fill="#57175E"/>
<path d="M93.4822 21.1518L93.1133 19.7361C94.0368 19.5981 94.2566 18.5795 94.0334 17.9962L95.401 17.5352C95.7987 18.4965 95.5126 20.7143 93.4822 21.1518Z" fill="#00A19A"/>
<path d="M176.553 15.4955L175.273 14.8225C175.321 14.7282 176.471 12.5205 178.827 12.9154L178.594 14.3592C177.279 14.1348 176.581 15.4394 176.553 15.4955Z" fill="#7D44D8"/>
<path d="M157.241 34.2283L156.137 35.1699L157.713 37.076L158.817 36.1344L157.241 34.2283Z" fill="#9B1960"/>
<path d="M171.009 29.9823C170.267 29.9464 169.636 29.7702 168.869 28.7696L170.036 27.9092C170.468 28.7303 171.535 28.5654 171.965 28.1504L172.884 29.2778C172.792 29.3552 172.02 29.9823 171.009 29.9823Z" fill="#00A19A"/>
<path d="M208.125 45.5877C207.383 45.5518 206.752 45.3757 205.986 44.3762L207.152 43.5146C207.585 44.3358 208.652 44.1709 209.082 43.7558L210.001 44.8832C209.908 44.9606 209.137 45.5877 208.125 45.5877Z" fill="#00A19A"/>
<path d="M166.637 98.0369C165.894 98.001 165.264 97.8249 164.498 96.8243L165.663 95.9639C166.096 96.785 167.162 96.6201 167.593 96.205L168.512 97.3268C168.42 97.4099 167.648 98.0369 166.637 98.0369Z" fill="#00A19A"/>
<path d="M186.827 29.5243C186.085 29.4884 185.454 29.3122 184.688 28.3127L185.854 27.4512C186.286 28.2723 187.353 28.1074 187.784 27.6924L188.703 28.8198C188.61 28.8983 187.838 29.5243 186.827 29.5243Z" fill="#00A19A"/>
<path d="M168.642 51.8327C167.9 51.7979 167.269 51.6218 166.504 50.6212L167.669 49.7607C168.102 50.5808 169.169 50.417 169.599 50.0008L170.518 51.1293C170.425 51.2067 169.654 51.8327 168.642 51.8327Z" fill="#00A19A"/>
<path d="M41.0733 8.35194C40.331 8.31604 39.7002 8.13992 38.9336 7.1404L40.0979 6.28223C40.5298 7.10338 41.5969 6.93848 42.0277 6.52341L42.9467 7.65082C42.8595 7.72598 42.0862 8.35194 41.0733 8.35194Z" fill="#00A19A"/>
<path d="M190.008 45.9544C188.019 45.3812 187.77 43.6267 187.76 43.5527L189.188 43.3608V43.3496C189.202 43.4405 189.363 44.247 190.403 44.5466L190.008 45.9544Z" fill="#95C11F"/>
<path d="M192.308 127.949C190.32 127.376 190.07 125.622 190.061 125.548L191.489 125.357V125.346C191.503 125.437 191.663 126.243 192.704 126.542L192.308 127.949Z" fill="#95C11F"/>
<path d="M105.748 27.6725L104.989 26.4285C105.638 26.019 104.878 24.7211 104.867 24.7088L106.09 23.9336C106.536 24.4911 107.276 26.8536 105.748 27.6725Z" fill="#7EAFE0"/>
<path d="M122.184 17.1639C122.004 16.4089 120.552 16.7409 120.537 16.7443L120.193 15.323C120.856 15.0661 123.295 15.0885 123.585 16.8183L122.184 17.1639Z" fill="#7EAFE0"/>
<path d="M55.7936 16.1832C55.456 15.57 54.9662 15.0572 54.373 14.6957L55.0358 13.3955C55.8809 13.8888 56.5784 14.6056 57.054 15.4697L55.7936 16.1832Z" fill="#F9B233"/>
<path d="M60.8042 28.4873L59.502 29.1152L60.6059 31.4764L61.9082 30.8484L60.8042 28.4873Z" fill="#F9B233"/>
<path d="M68.746 48.7103C66.7576 48.137 66.5069 46.3826 66.498 46.3085L67.9263 46.1167V46.1055C67.9407 46.1963 68.1009 47.0029 69.1414 47.3024L68.746 48.7103Z" fill="#95C11F"/>
<path d="M140.693 4.26301C138.705 3.68978 138.455 1.93529 138.445 1.86125L139.874 1.66942V1.6582C139.888 1.74907 140.048 2.55564 141.089 2.85516L140.693 4.26301Z" fill="#95C11F"/>
<path d="M76.6116 24.792C76.4316 24.037 74.979 24.3691 74.9646 24.3724L74.6211 22.9511C75.2839 22.6942 77.7229 22.7155 78.0123 24.4465L76.6116 24.792Z" fill="#7EAFE0"/>
<path d="M22.8672 25.2023L23.9387 24.2308C24.4468 24.8108 25.5747 23.8236 25.5857 23.8135L26.5467 24.9039C26.4341 25.0059 24.7042 26.4744 22.8672 25.2023Z" fill="#7EAFE0"/>
<path d="M197.09 20.4421C197.036 19.7425 196.802 19.0695 196.412 18.4902L197.549 17.5928C198.113 18.4 198.451 19.3476 198.526 20.3344L197.09 20.4421Z" fill="#F9B233"/>
<path d="M208.903 87.4369C208.848 86.7359 208.615 86.0615 208.225 85.4804L209.363 84.583C209.929 85.3902 210.267 86.3383 210.342 87.3258L208.903 87.4369Z" fill="#F9B233"/>
<path d="M20.0027 105.105C19.9476 104.404 19.713 103.729 19.3223 103.148L20.4611 102.251C21.0263 103.058 21.3647 104.005 21.4399 104.993L20.0027 105.105Z" fill="#F9B233"/>
<path d="M187.956 110.468L187.072 109.312C187.154 109.247 189.107 107.731 191.087 109.088L190.279 110.301C189.175 109.544 188.009 110.43 187.956 110.468Z" fill="#7D44D8"/>
<path d="M190.257 89.78L189.373 88.6235C189.455 88.5584 191.408 87.0428 193.387 88.3991L192.581 89.6118C191.477 88.8545 190.306 89.7441 190.257 89.78Z" fill="#7D44D8"/>
<path d="M195.134 72.0834C193.564 70.7182 194.06 69.0187 194.082 68.9424L195.458 69.3754V69.3642C195.434 69.4539 195.247 70.2538 196.068 70.9672L195.134 72.0834Z" fill="#95C11F"/>
<path d="M206.089 106.31C204.519 104.945 205.014 103.245 205.036 103.169L206.413 103.602V103.591C206.39 103.68 206.203 104.48 207.024 105.194L206.089 106.31Z" fill="#95C11F"/>
<path d="M211.058 65.8391C210.804 65.722 210.578 65.5502 210.395 65.3356C210.212 65.121 210.077 64.8688 210 64.5962L211.379 64.1699C211.566 64.8239 212.67 64.5917 213.044 64.4919L213.471 65.8896C213.326 65.9356 212.063 66.3092 211.058 65.8391Z" fill="#7EAFE0"/>
</g>
<defs>
<clipPath id="clip0_7660_28615">
<rect width="218.212" height="180" fill="white"/>
</clipPath>
</defs>
</svg>
