<svg width="16" height="16" viewBox="0 0 16 16" fill="none" xmlns="http://www.w3.org/2000/svg">
<path d="M2 8.66699H3.33333V7.33366H2V8.66699ZM2 11.3337H3.33333V10.0003H2V11.3337ZM2 6.00033H3.33333V4.66699H2V6.00033ZM4.66667 8.66699H14V7.33366H4.66667V8.66699ZM4.66667 11.3337H14V10.0003H4.66667V11.3337ZM4.66667 4.66699V6.00033H14V4.66699H4.66667ZM2 8.66699H3.33333V7.33366H2V8.66699ZM2 11.3337H3.33333V10.0003H2V11.3337ZM2 6.00033H3.33333V4.66699H2V6.00033ZM4.66667 8.66699H14V7.33366H4.66667V8.66699ZM4.66667 11.3337H14V10.0003H4.66667V11.3337ZM4.66667 4.66699V6.00033H14V4.66699H4.66667Z" fill="white"/>
</svg>
