<svg width="16" height="16" viewBox="0 0 16 16" fill="none" xmlns="http://www.w3.org/2000/svg">
<path d="M1.97467 12.6028V3.39746H14.0253V12.6028H1.97467ZM2.64134 6.24346H4.82V4.06413H2.64L2.64134 6.24346ZM5.48734 6.24346H7.66667V4.06413H5.48667L5.48734 6.24346ZM8.33334 6.24346H10.5133V4.06413H8.33334V6.24346ZM11.18 6.24346H13.3587V4.06413H11.18V6.24346ZM11.18 9.09013H13.3587V6.91013H11.18V9.09013ZM8.33334 9.09013H10.5133V6.91013H8.33334V9.09013ZM5.48667 9.09013H7.66667V6.91013H5.48667V9.09013ZM4.82 6.91013H2.642V9.09013H4.82V6.91013ZM11.18 11.9361H13.3587V9.75613H11.18V11.9361ZM8.33334 11.9361H10.5133V9.75613H8.33334V11.9361ZM5.48667 11.9361H7.66667V9.75613H5.48667V11.9361ZM2.64134 11.9361H4.82V9.75613H2.64L2.64134 11.9361Z" fill="white"/>
</svg>
