<svg width="18" height="18" viewBox="0 0 18 18" fill="none" xmlns="http://www.w3.org/2000/svg">
<g clip-path="url(#clip0_2127_5915)">
<path d="M14 2H4C3.73478 2 3.48043 2.09219 3.29289 2.25628C3.10536 2.42038 3 2.64294 3 2.875V15.125C3 15.3571 3.10536 15.5796 3.29289 15.7437C3.48043 15.9078 3.73478 16 4 16H14C14.2652 16 14.5196 15.9078 14.7071 15.7437C14.8946 15.5796 15 15.3571 15 15.125V2.875C15 2.64294 14.8946 2.42038 14.7071 2.25628C14.5196 2.09219 14.2652 2 14 2ZM6.5 12.5H5.5V11.625H6.5V12.5ZM6.5 10.75H5.5V9.875H6.5V10.75ZM6.5 9H5.5V8.125H6.5V9ZM6.5 7.25H5.5V6.375H6.5V7.25ZM6.5 5.5H5.5V4.625H6.5V5.5ZM12.5 12.5H7.5V11.625H12.5V12.5ZM12.5 10.75H7.5V9.875H12.5V10.75ZM12.5 9H7.5V8.125H12.5V9ZM12.5 7.25H7.5V6.375H12.5V7.25ZM12.5 5.5H7.5V4.625H12.5V5.5Z" fill="#0078D4"/>
</g>
<defs>
<clipPath id="clip0_2127_5915">
<rect width="18" height="18" fill="white"/>
</clipPath>
</defs>
</svg>
