<svg width="16" height="16" viewBox="0 0 16 16" fill="none" xmlns="http://www.w3.org/2000/svg">
<path d="M10.6666 10.6673C10.8299 10.6673 10.9875 10.7273 11.1095 10.8358C11.2315 10.9443 11.3095 11.0938 11.3286 11.256L11.3333 11.334V14.0007C11.3332 14.1639 11.2733 14.3215 11.1648 14.4436C11.0563 14.5656 10.9068 14.6435 10.7446 14.6627L10.6666 14.6673H5.33325C5.16996 14.6673 5.01236 14.6073 4.89034 14.4988C4.76831 14.3903 4.69036 14.2408 4.67125 14.0787L4.66658 14.0007V11.334C4.66661 11.1707 4.72656 11.0131 4.83506 10.8911C4.94357 10.769 5.09308 10.6911 5.25525 10.672L5.33325 10.6673H10.6666ZM12.6666 4.66732C13.197 4.66732 13.7057 4.87803 14.0808 5.2531C14.4559 5.62818 14.6666 6.13688 14.6666 6.66732V11.334C14.6666 11.6876 14.5261 12.0267 14.2761 12.2768C14.026 12.5268 13.6869 12.6673 13.3333 12.6673H12.6666V10.6673C12.6666 10.3137 12.5261 9.97456 12.2761 9.72451C12.026 9.47446 11.6869 9.33398 11.3333 9.33398H4.66658C4.31296 9.33398 3.97382 9.47446 3.72378 9.72451C3.47373 9.97456 3.33325 10.3137 3.33325 10.6673V12.6673H2.66659C2.31296 12.6673 1.97382 12.5268 1.72378 12.2768C1.47373 12.0267 1.33325 11.6876 1.33325 11.334V6.66732C1.33325 6.13688 1.54397 5.62818 1.91904 5.2531C2.29411 4.87803 2.80282 4.66732 3.33325 4.66732H12.6666ZM11.3333 6.00065H9.99992C9.83 6.00084 9.66656 6.0659 9.54301 6.18255C9.41945 6.2992 9.34509 6.45862 9.33514 6.62825C9.32518 6.79787 9.38037 6.9649 9.48943 7.09521C9.59849 7.22551 9.75319 7.30925 9.92192 7.32932L9.99992 7.33398H11.3333C11.5032 7.3338 11.6666 7.26873 11.7902 7.15209C11.9137 7.03544 11.9881 6.87602 11.998 6.70639C12.008 6.53676 11.9528 6.36973 11.8437 6.23943C11.7347 6.10913 11.58 6.02539 11.4113 6.00532L11.3333 6.00065ZM11.3333 1.33398C11.5101 1.33398 11.6796 1.40422 11.8047 1.52925C11.9297 1.65427 11.9999 1.82384 11.9999 2.00065V3.33398H3.99992V2.00065C3.99992 1.82384 4.07016 1.65427 4.19518 1.52925C4.3202 1.40422 4.48977 1.33398 4.66658 1.33398H11.3333Z" fill="white"/>
</svg>
