<svg width="14" height="15" viewBox="0 0 14 15" fill="none" xmlns="http://www.w3.org/2000/svg">
<path d="M4.08332 13.3327H2.33332C2.0239 13.3327 1.72716 13.2098 1.50837 12.991C1.28957 12.7722 1.16666 12.4754 1.16666 12.166V8.08268C1.16666 7.77326 1.28957 7.47652 1.50837 7.25772C1.72716 7.03893 2.0239 6.91602 2.33332 6.91602H4.08332M8.16666 5.74935V3.41602C8.16666 2.95189 7.98228 2.50677 7.65409 2.17858C7.3259 1.85039 6.88079 1.66602 6.41666 1.66602L4.08332 6.91602V13.3327H10.6633C10.9447 13.3359 11.2177 13.2373 11.4321 13.055C11.6465 12.8728 11.7878 12.6192 11.83 12.341L12.635 7.09102C12.6604 6.92381 12.6491 6.75308 12.6019 6.59066C12.5548 6.42824 12.4729 6.27802 12.3619 6.1504C12.2509 6.02278 12.1135 5.92081 11.9592 5.85156C11.8049 5.78231 11.6374 5.74743 11.4683 5.74935H8.16666Z" stroke="#747475" stroke-linecap="round" stroke-linejoin="round"/>
</svg>
