<svg width="248" height="178" viewBox="0 0 248 178" fill="none" xmlns="http://www.w3.org/2000/svg">
<g clip-path="url(#clip0_2121_14934)">
<path d="M54.7214 146.415V164.561H44.9604C44.9604 164.369 44.9218 164.167 44.9218 163.966C44.9218 152.63 44.9218 141.3 44.9218 129.965C44.9218 121.536 51.3296 114.115 59.7224 112.727C64.1604 111.917 68.7416 112.811 72.5454 115.23C76.3492 117.649 79.0937 121.413 80.2272 125.767C83.0746 137.376 75.0817 146.358 66.3469 147.943C62.5968 148.689 58.7057 148.227 55.2369 146.622C55.1068 146.559 54.9671 146.492 54.7214 146.415ZM54.7214 130.359C54.7195 131.961 55.1939 133.529 56.0845 134.863C56.9752 136.197 58.2423 137.238 59.7259 137.855C61.2096 138.472 62.8433 138.637 64.421 138.33C65.9987 138.022 67.4496 137.255 68.5907 136.126C69.7317 134.998 70.5118 133.557 70.8326 131.987C71.1533 130.416 71.0003 128.786 70.3928 127.303C69.7853 125.819 68.7505 124.548 67.4191 123.65C66.0877 122.751 64.5193 122.267 62.9118 122.256C61.8353 122.233 60.7652 122.427 59.7653 122.825C58.7655 123.224 57.8563 123.819 57.092 124.575C56.3277 125.331 55.7239 126.233 55.3166 127.227C54.9094 128.22 54.7069 129.285 54.7214 130.359Z" fill="white"/>
<path d="M163.745 114.225V98.8558H173.506C173.506 99.0623 173.53 99.2496 173.53 99.437C173.53 109.773 173.538 120.108 173.554 130.44C173.542 133.832 172.565 137.151 170.736 140.011C168.907 142.871 166.3 145.154 163.221 146.595C160.141 148.037 156.714 148.577 153.338 148.153C149.963 147.729 146.777 146.359 144.152 144.202C141.527 142.044 139.57 139.188 138.509 135.965C137.448 132.743 137.327 129.286 138.159 125.997C138.991 122.708 140.742 119.723 143.209 117.387C145.676 115.052 148.758 113.462 152.095 112.804C155.846 112.064 159.735 112.527 163.205 114.125C163.328 114.18 163.453 114.228 163.581 114.269C163.638 114.264 163.693 114.249 163.745 114.225ZM155.617 122.256C151.329 122.04 147.427 125.94 147.427 130.21C147.465 134.907 150.944 138.481 155.569 138.481C156.638 138.482 157.696 138.274 158.684 137.868C159.672 137.462 160.57 136.865 161.327 136.113C162.083 135.361 162.684 134.468 163.095 133.484C163.505 132.5 163.717 131.446 163.719 130.38C163.72 129.315 163.511 128.26 163.104 127.275C162.696 126.29 162.098 125.395 161.344 124.641C160.589 123.886 159.693 123.287 158.706 122.878C157.72 122.469 156.662 122.258 155.593 122.256H155.617Z" fill="white"/>
<path d="M35.8932 147.39H26.1514L26.0936 146.43C25.2649 146.756 24.4796 147.117 23.6847 147.366C12.223 150.901 2.62575 143.548 0.558881 134.667C-2.0235 123.62 5.27558 115.066 13.3214 113.054C25.0529 110.114 33.8359 118.169 35.5174 126.401C35.7806 127.717 35.9193 129.055 35.9317 130.397C35.9751 135.892 35.9317 141.382 35.9317 146.876C35.9173 147.03 35.9028 147.184 35.8932 147.39ZM17.9225 138.481C18.997 138.497 20.064 138.3 21.0608 137.9C22.0577 137.499 22.9642 136.905 23.7272 136.15C24.4903 135.396 25.0944 134.497 25.504 133.507C25.9137 132.516 26.1207 131.454 26.1129 130.383C26.1207 128.24 25.2801 126.18 23.7736 124.651C22.2672 123.123 20.2165 122.248 18.067 122.218C15.893 122.212 13.8045 123.062 12.2542 124.581C10.7039 126.1 9.81679 128.168 9.78511 130.335C9.78194 131.403 9.99001 132.461 10.3974 133.448C10.8048 134.436 11.4036 135.333 12.1594 136.09C12.9152 136.847 13.8133 137.447 14.8022 137.857C15.7911 138.268 16.8514 138.479 17.9225 138.481Z" fill="white"/>
<path d="M220.114 112.477C229.808 112.251 238.181 120.565 238.085 130.402C238.071 135.149 236.169 139.696 232.796 143.046C229.424 146.397 224.856 148.277 220.095 148.274C210.527 148.365 202.047 140.301 202.139 130.181C202.23 120.321 210.594 112.256 220.114 112.477ZM220.114 122.256C215.918 122.03 211.885 125.844 211.924 130.32C211.918 131.388 212.123 132.446 212.528 133.434C212.932 134.422 213.528 135.321 214.281 136.08C215.034 136.838 215.929 137.442 216.916 137.855C217.903 138.269 218.962 138.485 220.032 138.49C221.103 138.496 222.164 138.291 223.155 137.888C224.146 137.485 225.048 136.891 225.809 136.141C226.57 135.39 227.175 134.497 227.59 133.514C228.005 132.53 228.222 131.474 228.227 130.407C228.248 129.338 228.053 128.275 227.655 127.282C227.257 126.29 226.663 125.387 225.908 124.627C225.153 123.867 224.253 123.265 223.262 122.858C222.27 122.451 221.206 122.246 220.133 122.256H220.114Z" fill="white"/>
<path d="M107.8 112.477C117.253 112.28 125.766 120.359 125.708 130.474C125.66 140.339 117.325 148.317 107.694 148.298C97.9618 148.298 89.6847 140.095 89.7473 130.224C89.81 120.556 98.0244 112.227 107.8 112.477ZM107.704 122.256C105.545 122.263 103.478 123.125 101.957 124.651C100.436 126.177 99.5856 128.243 99.5927 130.395C99.5997 132.546 100.464 134.607 101.995 136.123C103.526 137.64 105.598 138.488 107.757 138.481C108.826 138.483 109.886 138.275 110.874 137.868C111.863 137.462 112.761 136.864 113.518 136.111C114.274 135.357 114.874 134.462 115.283 133.476C115.691 132.491 115.901 131.435 115.899 130.368C115.957 125.839 111.9 122.021 107.704 122.256Z" fill="white"/>
<path d="M118.736 29.3513L147.008 57.5498L118.712 85.7724L90.4411 57.5738L118.736 29.3513ZM118.698 79.1442L140.277 57.6363L118.65 36.0515L97.0705 57.5738L118.698 79.1442Z" fill="white"/>
<path d="M121.41 88.8895C130.95 79.3731 140.425 69.9272 149.836 60.5517L178.261 88.8895H177.625C175.91 88.8895 174.2 88.8895 172.485 88.8895C172.287 88.8997 172.089 88.8668 171.905 88.7929C171.721 88.7191 171.556 88.6062 171.42 88.4621C164.418 81.4592 157.408 74.4628 150.39 67.4728C150.245 67.324 150.091 67.1847 149.754 66.8629C149.644 67.0989 149.506 67.3213 149.344 67.5257C142.378 74.4837 135.411 81.4416 128.444 88.3996C128.29 88.5625 128.102 88.6898 127.893 88.7728C127.684 88.8557 127.46 88.8923 127.235 88.8799C125.308 88.8559 123.386 88.8895 121.41 88.8895Z" fill="white"/>
<path d="M193.303 147.453C193.1 147.453 192.951 147.453 192.797 147.453C189.906 147.453 187.015 147.453 184.125 147.453C183.643 147.453 183.546 147.304 183.546 146.857C183.546 135.89 183.546 124.922 183.546 113.952C183.546 113.784 183.546 113.611 183.575 113.409H193.288L193.303 147.453Z" fill="white"/>
<path d="M59.1201 88.8559L87.507 60.5469L115.889 88.8559C115.793 88.8559 115.614 88.8847 115.441 88.8847C113.63 88.8847 111.818 88.8847 110.011 88.8847C109.83 88.8917 109.649 88.8583 109.483 88.7868C109.316 88.7153 109.167 88.6077 109.048 88.4717C102.065 81.4977 95.0823 74.5285 88.0996 67.5641C87.9214 67.3864 87.7672 67.1895 87.56 66.9493C87.3384 67.1607 87.1698 67.3095 87.0156 67.4632C80.0136 74.4436 73.0165 81.4256 66.0241 88.4092C65.8799 88.5706 65.7011 88.6976 65.5009 88.7807C65.3007 88.8639 65.0844 88.9011 64.8678 88.8895C63.1141 88.8655 61.3604 88.8895 59.6067 88.8895C59.4333 88.8895 59.2598 88.8559 59.1201 88.8559Z" fill="white"/>
<path d="M161.625 88.8559H138.22L149.923 77.1846L161.625 88.8559Z" fill="white"/>
<path d="M87.5407 77.1365L99.2482 88.8271H75.8237L87.5407 77.1365Z" fill="white"/>
<path d="M125.689 7.87695C126.036 7.39665 126.301 7.07004 126.556 6.71462C127.65 5.23049 128.748 3.75116 129.818 2.24781C129.965 1.99885 130.189 1.80455 130.457 1.69444C130.725 1.58433 131.021 1.56445 131.301 1.63783C131.566 1.69066 131.836 1.72428 132.101 1.77231C132.973 1.93561 133.065 2.19978 132.583 2.90583L131.398 4.53885C129.471 7.18051 127.544 9.82218 125.616 12.4494C125.448 12.68 125.086 12.9297 124.87 12.9297C124.653 12.9297 124.388 12.5119 124.32 12.2381C123.135 8.49174 121.963 4.74218 120.803 0.989419C120.543 0.144087 120.746 -0.0864579 121.603 0.0624358C123.53 0.398647 123.27 0.230542 123.858 2.05569C124.446 3.88084 125.048 5.83567 125.689 7.87695Z" fill="white"/>
<path d="M112.256 7.84333C112.454 7.22374 112.632 6.6858 112.801 6.14306C113.283 4.51483 113.822 2.89141 114.309 1.25358C114.35 0.967559 114.491 0.705135 114.707 0.512042C114.923 0.318949 115.2 0.20743 115.489 0.196919C115.793 0.196919 116.091 0.0816461 116.395 0.0336159C117.137 -0.0912627 117.359 0.1681 117.156 0.883751C116.573 2.80496 115.981 4.69255 115.393 6.59935C114.805 8.50615 114.246 10.3745 113.634 12.2525C113.592 12.3972 113.52 12.5317 113.423 12.6474C113.326 12.7631 113.206 12.8576 113.071 12.9249C112.888 12.9778 112.526 12.704 112.367 12.4879C110.002 9.29384 107.66 6.08062 105.314 2.88181C104.832 2.25741 104.967 1.98364 105.733 1.84436C107.732 1.46972 107.487 1.46972 108.576 2.95385L111.9 7.44468C111.967 7.55034 112.073 7.65601 112.256 7.84333Z" fill="white"/>
<path d="M78.1025 44.7786C77.8086 44.5865 77.6207 44.4568 77.428 44.3415C75.6791 43.2656 73.9351 42.1753 72.1669 41.1235C71.8971 40.9935 71.6789 40.7772 71.547 40.509C71.4151 40.2408 71.3772 39.9363 71.4394 39.6441C71.4924 39.3079 71.502 38.9573 71.5406 38.6163C71.6032 38.136 71.8875 37.9583 72.35 38.1792C72.5878 38.3047 72.8179 38.4442 73.0389 38.5971L82.535 44.3895C82.6582 44.4433 82.772 44.5162 82.8722 44.6057C83.0216 44.7882 83.2576 45.0235 83.2287 45.1916C83.1909 45.3106 83.1285 45.4204 83.0455 45.5139C82.9625 45.6074 82.8608 45.6825 82.7469 45.7344C80.4392 46.695 78.117 47.5932 75.7948 48.5153C74.3687 49.0853 72.941 49.652 71.5117 50.2156C70.8083 50.4942 70.5722 50.3357 70.6204 49.5816C70.7553 47.4971 70.7071 47.7613 72.3211 47.1128L78.1025 44.7786Z" fill="white"/>
<path d="M159.905 44.7017L162.589 45.768C163.837 46.2483 165.08 46.7862 166.342 47.2521C166.643 47.3255 166.908 47.5037 167.089 47.7547C167.27 48.0057 167.356 48.3129 167.33 48.621C167.33 48.9044 167.387 49.1926 167.411 49.4807C167.469 50.1532 167.19 50.3789 166.554 50.1339C164.978 49.524 163.408 48.8996 161.837 48.28C159.693 47.4346 157.544 46.5989 155.41 45.7296C155.269 45.6745 155.14 45.5905 155.033 45.483C154.926 45.3754 154.843 45.2467 154.789 45.1052C154.755 44.9179 155.054 44.5865 155.27 44.4472C158.62 42.3659 161.975 40.3006 165.335 38.2513C166.115 37.771 166.332 37.8718 166.458 38.7316C166.455 38.77 166.455 38.8085 166.458 38.8468C166.613 39.331 166.579 39.8558 166.363 40.3162C166.147 40.7766 165.764 41.1387 165.292 41.33C163.596 42.233 162.006 43.3281 160.373 44.3415C160.257 44.452 160.122 44.5528 159.905 44.7017Z" fill="white"/>
<path d="M99.3349 12.1468C99.3349 10.3361 99.3349 8.57339 99.3349 6.81548C99.2989 6.20282 99.2989 5.58858 99.3349 4.97592C99.4103 4.61382 99.6054 4.28741 99.889 4.04894C100.228 3.79828 100.599 3.5932 100.992 3.43896C101.546 3.16999 101.826 3.33329 101.85 3.94808C101.937 6.28715 102.004 8.62622 102.086 10.9653C102.139 12.6367 102.211 14.3274 102.25 15.97C102.25 16.2294 102.168 16.6329 101.999 16.7097C101.861 16.7553 101.714 16.769 101.57 16.7499C101.425 16.7308 101.287 16.6792 101.166 16.5992C97.8414 14.3066 94.5283 11.9995 91.2264 9.67808C90.7109 9.31786 90.7446 8.99605 91.265 8.67905L91.318 8.65024C93.0909 7.68963 92.8693 7.66081 94.4785 8.78952C95.9239 9.81257 97.4222 10.826 98.8917 11.8394C99.0314 11.9547 99.2048 12.0652 99.3349 12.1468Z" fill="white"/>
<path d="M138.48 12.2045L142.359 9.50037C143.009 9.04889 143.655 8.60221 144.286 8.14592C144.472 7.99134 144.703 7.90005 144.944 7.88537C145.186 7.87068 145.426 7.93336 145.63 8.06427C145.929 8.23718 146.242 8.38607 146.545 8.54457C147.22 8.91441 147.249 9.23621 146.627 9.67328L142.522 12.5551C140.663 13.8583 138.805 15.1599 136.948 16.46C136.782 16.5906 136.597 16.6944 136.399 16.7673C135.98 16.8922 135.681 16.5944 135.695 16.0565C135.748 14.2169 135.811 12.3774 135.864 10.5378C135.928 8.36686 135.988 6.1991 136.042 4.03453C136.066 3.22282 136.293 3.12196 137.054 3.43896C138.186 3.91926 138.76 4.54846 138.605 5.92212C138.393 7.80491 138.47 9.71651 138.427 11.6185C138.434 11.8146 138.452 12.0102 138.48 12.2045Z" fill="white"/>
<path d="M156.552 31.6999L162.372 31.9785C162.562 32.0047 162.753 32.0191 162.945 32.0217C164.704 31.9017 164.583 32.4156 165.287 34.063C165.475 34.5001 165.147 34.697 164.728 34.6826C163.617 34.6442 162.502 34.5978 161.384 34.5433L154.013 34.2023C153.57 34.1783 153.131 34.1399 152.688 34.1255C152.341 34.1255 151.903 34.1687 151.826 33.7556C151.81 33.4459 151.913 33.1417 152.115 32.9055C153.883 30.7297 155.675 28.5828 157.463 26.4118C158.195 25.5233 158.908 24.6299 159.664 23.7461C160.17 23.141 160.464 23.1746 160.787 23.8758C161.64 25.7298 161.558 25.5233 160.377 26.9546C159.197 28.3859 158.026 29.7787 156.88 31.2196C156.788 31.3397 156.711 31.4646 156.552 31.6999Z" fill="white"/>
<path d="M79.1721 58.155L72.7258 56.7141C72.1676 56.5967 71.6748 56.2727 71.3467 55.8075C71.0185 55.3422 70.8795 54.7703 70.9576 54.2069C71.0106 53.7938 71.2853 53.7266 71.6321 53.8227L76.1369 54.7833L83.3492 56.3971C83.4793 56.4259 83.6142 56.4547 83.7395 56.4931C83.8506 56.5067 83.9552 56.5529 84.0399 56.6259C84.1246 56.6989 84.1855 56.7954 84.215 56.9031C84.2445 57.0108 84.2411 57.1248 84.2053 57.2306C84.1695 57.3363 84.1029 57.4291 84.0141 57.497C83.8262 57.6891 83.6094 57.8572 83.407 58.0301L74.7782 65.4124C74.1182 65.9743 73.8436 65.8927 73.6412 65.0713C73.198 63.2558 73.0582 63.4575 74.5325 62.1895C75.896 61.032 77.2401 59.8505 78.5892 58.6833L79.1721 58.155Z" fill="white"/>
<path d="M81.422 31.7288C81.2438 31.4982 81.1233 31.3349 80.9981 31.1812C79.6732 29.5818 78.3627 27.9728 77.0233 26.3782C76.8085 26.1699 76.6699 25.8959 76.6297 25.5998C76.5895 25.3038 76.6501 25.0028 76.8017 24.7452C76.9414 24.4714 77.0522 24.1832 77.1823 23.9046C77.4762 23.2754 77.7894 23.2226 78.2423 23.7557C79.3407 25.067 80.4296 26.383 81.5232 27.699C82.9686 29.4473 84.414 31.186 85.8593 32.9439C85.9613 33.0582 86.0384 33.1923 86.0856 33.3379C86.1329 33.4834 86.1494 33.6371 86.1339 33.7893C86.0472 33.991 85.6184 34.1495 85.3342 34.1639C81.3594 34.38 77.3799 34.5673 73.4051 34.7595C72.7113 34.7931 72.5042 34.5241 72.7691 33.8997C73.646 31.8344 73.4099 32.2235 75.2841 32.0842C77.1582 31.9449 79.0468 31.8825 80.9306 31.7816C81.0559 31.7864 81.186 31.7624 81.422 31.7288Z" fill="white"/>
<path d="M88.8271 20.4657C88.2972 19.0248 87.8106 17.7376 87.3191 16.4311C87.006 15.6098 86.7121 14.7741 86.3556 13.9624C86.2216 13.7051 86.1801 13.4099 86.238 13.1259C86.2959 12.8419 86.4496 12.5862 86.6735 12.4014C86.8566 12.2285 87.0204 12.0412 87.1939 11.8587C87.8346 11.1718 88.1093 11.2199 88.4369 12.07C89.3426 14.4523 90.2452 16.8362 91.1445 19.2217C91.6263 20.5329 92.1563 21.8345 92.6236 23.1554C92.6721 23.2893 92.6925 23.4318 92.6833 23.5739C92.6742 23.7161 92.6359 23.8548 92.5706 23.9815C92.4598 24.1256 92.0406 24.1448 91.7998 24.0727C87.9455 22.9841 84.0912 21.8778 80.2369 20.7539C79.5238 20.5521 79.4371 20.2736 79.9382 19.7164C81.2679 18.2755 81.0029 18.2755 82.9252 18.8471C84.7175 19.3658 86.5097 19.8653 88.3068 20.3696C88.4369 20.4032 88.567 20.4176 88.8271 20.4657Z" fill="white"/>
<path d="M158.884 58.1166C159.544 58.6833 160.151 59.2117 160.763 59.7304C161.9 60.691 163.037 61.69 164.188 62.6458C164.414 62.8014 164.584 63.0261 164.671 63.286C164.758 63.5459 164.757 63.8269 164.67 64.0867C164.588 64.3845 164.516 64.6823 164.444 64.9801C164.241 65.7678 163.962 65.8734 163.34 65.3547C162.28 64.4662 161.23 63.5632 160.175 62.6698C158.214 60.9984 156.248 59.3365 154.302 57.6459C154.085 57.4585 153.82 57.0887 153.897 56.8678C153.974 56.6468 154.345 56.4403 154.62 56.3875C158.441 55.5037 162.261 54.644 166.087 53.7794C167.016 53.5729 167.137 53.7794 167.012 54.692C166.848 55.9504 166.212 56.5124 164.959 56.7237C163.066 57.0407 161.206 57.5498 159.337 57.9821C159.183 58.018 159.032 58.0629 158.884 58.1166Z" fill="white"/>
<path d="M149.132 20.4465C151.421 19.7885 153.579 19.1881 155.728 18.5253C156.018 18.3921 156.346 18.3638 156.654 18.4454C156.963 18.5269 157.233 18.7131 157.419 18.9719C157.583 19.1833 157.785 19.3658 157.964 19.5675C158.494 20.1583 158.412 20.4513 157.631 20.6818C155.921 21.1621 154.206 21.6808 152.49 22.1804L146.463 23.9479C146.378 23.9911 146.284 24.0172 146.189 24.0247C145.9 24.0247 145.505 24.0679 145.35 23.9046C145.286 23.7772 145.25 23.6373 145.245 23.4947C145.24 23.3521 145.266 23.2102 145.321 23.0785C146.425 20.0958 147.552 17.1228 148.67 14.1449C148.964 13.3764 149.248 12.6031 149.547 11.8346C149.802 11.191 150.11 11.143 150.592 11.6521L150.631 11.6954C152.1 13.2467 151.859 12.9778 151.243 14.6828C150.626 16.3879 149.976 18.093 149.344 19.7981C149.272 19.971 149.224 20.1727 149.132 20.4465Z" fill="white"/>
<path d="M248 113.587C248.003 114.236 247.877 114.879 247.631 115.48C247.384 116.08 247.022 116.627 246.563 117.088C246.105 117.549 245.56 117.915 244.96 118.166C244.359 118.417 243.715 118.548 243.064 118.551C242.413 118.553 241.768 118.428 241.165 118.183C240.563 117.937 240.015 117.575 239.552 117.118C239.09 116.661 238.722 116.118 238.47 115.52C238.219 114.921 238.088 114.279 238.085 113.63C238.085 110.748 240.185 108.5 242.985 108.476C245.784 108.452 247.981 110.666 248 113.587ZM244.363 113.803L245.928 116.204C246.304 115.856 246.604 115.434 246.809 114.965C247.014 114.496 247.119 113.99 247.119 113.479C247.119 112.967 247.014 112.461 246.809 111.992C246.604 111.523 246.304 111.101 245.928 110.753C245.539 110.366 245.076 110.062 244.566 109.859C244.055 109.656 243.509 109.559 242.96 109.573C242.411 109.587 241.87 109.712 241.371 109.94C240.871 110.169 240.424 110.496 240.055 110.902C239.686 111.294 239.403 111.76 239.225 112.269C239.048 112.778 238.98 113.318 239.025 113.855C239.07 114.391 239.229 114.912 239.489 115.384C239.75 115.856 240.107 116.268 240.537 116.593C242.117 117.818 244.724 117.722 245.712 116.315C244.748 116.641 244.483 115.969 244.126 115.402C243.967 115.138 243.799 114.883 243.621 114.634C243.139 113.956 242.657 113.817 241.766 114.096V116.32H240.894V110.556H243.365C243.519 110.556 243.674 110.556 243.847 110.556C244.849 110.662 245.336 111.219 245.369 112.232C245.396 112.568 245.312 112.902 245.13 113.186C244.948 113.469 244.679 113.686 244.363 113.803ZM241.823 112.842C242.443 112.879 243.065 112.869 243.683 112.813C243.919 112.78 244.112 112.424 244.329 112.213C244.122 112.026 243.943 111.762 243.702 111.665C243.406 111.587 243.098 111.559 242.792 111.584C241.64 111.593 241.64 111.598 241.823 112.871V112.842Z" fill="white"/>
<path d="M69.1413 177.822V175.358C69.1413 173.86 69.1413 172.361 69.1413 170.867C69.1413 170.387 69.2907 170.306 69.7291 170.277C70.0092 170.235 70.2954 170.286 70.5436 170.422C70.7917 170.559 70.988 170.772 71.1022 171.031C71.7815 172.208 72.5475 173.336 73.3618 174.623C73.3955 174.326 73.4244 174.172 73.4244 174.018C73.4244 172.942 73.4244 171.867 73.4244 170.791C73.4244 170.426 73.5256 170.277 73.9062 170.31C75.3515 170.349 75.0576 170.147 75.0673 171.463C75.0673 173.36 75.0673 175.262 75.0673 177.164V177.87C74.6179 177.895 74.1676 177.895 73.7183 177.87C73.5737 177.87 73.4196 177.659 73.328 177.51C72.5283 176.271 71.743 175.017 70.8227 173.778V177.861L69.1413 177.822Z" fill="white"/>
<path d="M169.661 173.663C169.957 174.035 170.209 174.44 170.413 174.868C170.541 175.193 170.589 175.544 170.552 175.89C170.515 176.237 170.394 176.57 170.2 176.86C170.006 177.15 169.744 177.39 169.437 177.557C169.13 177.725 168.787 177.816 168.438 177.822C167.272 177.899 166.096 177.822 164.877 177.822C164.877 177.635 164.839 177.467 164.839 177.299C164.839 175.147 164.839 173 164.839 170.848C164.839 170.368 164.993 170.253 165.436 170.272C166.279 170.315 167.127 170.301 167.975 170.339C169.782 170.435 170.688 172.26 169.661 173.663ZM166.511 176.449C167.055 176.449 167.532 176.473 168.009 176.449C168.486 176.425 168.866 176.223 168.891 175.661C168.908 175.547 168.902 175.431 168.872 175.319C168.843 175.208 168.79 175.104 168.718 175.014C168.646 174.923 168.556 174.849 168.454 174.795C168.352 174.741 168.24 174.709 168.124 174.7C167.587 174.669 167.048 174.669 166.511 174.7V176.449ZM166.511 173.216C166.992 173.216 167.373 173.24 167.768 173.216C167.86 173.216 167.951 173.198 168.036 173.162C168.121 173.126 168.197 173.073 168.261 173.006C168.324 172.94 168.374 172.861 168.406 172.775C168.438 172.689 168.452 172.597 168.447 172.505C168.457 172.419 168.45 172.331 168.425 172.247C168.4 172.163 168.358 172.086 168.302 172.018C168.247 171.951 168.178 171.896 168.1 171.856C168.022 171.815 167.937 171.791 167.85 171.785C167.404 171.761 166.957 171.761 166.511 171.785V173.216Z" fill="white"/>
<path d="M102.905 177.789C101.917 178.038 101.281 177.789 100.824 176.828C100.294 175.871 99.7138 174.942 99.0844 174.047C98.9915 173.886 98.8566 173.753 98.6941 173.663V177.793H97.1139V170.402C98.0774 170.089 98.4966 170.229 99.0025 171.031L101.185 174.479H101.31V170.358H102.905V177.789Z" fill="white"/>
<path d="M109.549 164.648H107.978V157.116C108.382 157.09 108.788 157.09 109.192 157.116C109.385 157.173 109.547 157.302 109.645 157.477C110.358 158.567 111.047 159.676 111.746 160.776C111.846 160.976 112.001 161.143 112.194 161.257V157.164H113.769V164.59C112.676 164.859 112.425 164.763 111.842 163.85C111.222 162.861 110.596 161.871 109.963 160.882C109.867 160.733 109.751 160.594 109.544 160.306L109.549 164.648Z" fill="white"/>
<path d="M71.7863 160.944C72.0139 161.198 72.1887 161.494 72.3004 161.816C72.412 162.137 72.4584 162.478 72.4367 162.818C72.4646 163.228 72.5506 163.632 72.6921 164.018C72.8414 164.465 72.7402 164.652 72.2633 164.676C71.16 164.724 70.8179 164.676 70.8179 163.404C70.8468 161.425 70.2831 161.699 68.8522 161.718C68.8185 161.718 68.7848 161.751 68.6932 161.799C68.6932 162.549 68.6932 163.332 68.6932 164.114C68.6932 164.523 68.6065 164.696 68.1536 164.681C66.8239 164.638 67.0503 164.835 67.0455 163.601C67.0455 161.679 67.0455 159.725 67.0455 157.784V157.145C68.2163 157.145 69.3147 157.059 70.418 157.145C72.5379 157.371 72.9956 159.652 71.7863 160.944ZM68.7029 160.229C69.1843 160.271 69.6689 160.262 70.1482 160.2C70.2916 160.152 70.4221 160.072 70.5298 159.967C70.6375 159.861 70.7196 159.732 70.7697 159.59C70.8324 159.331 70.683 158.807 70.5096 158.754C69.9868 158.598 69.4397 158.54 68.8956 158.581C68.8185 158.581 68.7559 159.206 68.7173 159.542C68.6993 159.77 68.6961 160 68.7077 160.229H68.7029Z" fill="white"/>
<path d="M129.042 160.901C129.564 162.089 129.864 163.362 129.928 164.657C129.533 164.657 129.133 164.657 128.734 164.657C128.252 164.628 128.131 164.22 128.074 163.845C128.016 163.471 128.074 163.077 128.04 162.693C128.011 161.968 127.727 161.699 127.004 161.694H125.968V164.619H124.359V157.059C125.62 157.055 126.88 157.132 128.131 157.289C129.736 157.582 130.164 159.71 129.042 160.901ZM125.973 160.205C126.454 160.231 126.937 160.231 127.418 160.205C127.51 160.196 127.6 160.17 127.681 160.126C127.763 160.083 127.834 160.024 127.892 159.952C127.95 159.88 127.993 159.798 128.019 159.709C128.044 159.62 128.051 159.528 128.04 159.436C128.04 159.042 127.919 158.677 127.495 158.61C126.99 158.546 126.482 158.51 125.973 158.5V160.205Z" fill="white"/>
<path d="M120.322 159.869C120.249 159.187 120.134 158.581 119.358 158.466C118.582 158.351 117.874 158.721 117.773 159.523C117.648 160.41 117.648 161.311 117.773 162.198C117.927 163.202 119.006 163.639 119.946 163.216C120.428 162.995 120.302 162.573 120.254 162.227C120.254 162.112 119.902 161.987 119.7 161.958C119.379 161.933 119.057 161.933 118.736 161.958V160.613H121.892C121.892 161.545 121.892 162.496 121.892 163.447C121.892 163.634 121.671 163.845 121.502 163.985C120.996 164.407 120.381 164.676 119.727 164.761C119.073 164.846 118.409 164.743 117.811 164.465C116.564 163.956 116.024 162.89 116.053 161.559C116.018 160.776 116.062 159.99 116.183 159.215C116.31 158.737 116.552 158.298 116.889 157.934C117.225 157.571 117.645 157.294 118.112 157.129C118.58 156.964 119.081 156.915 119.571 156.987C120.062 157.058 120.528 157.248 120.929 157.539C121.212 157.742 121.446 158.005 121.612 158.311C121.779 158.616 121.875 158.955 121.892 159.302C121.921 159.652 121.844 159.907 121.41 159.869C121.025 159.845 120.683 159.869 120.322 159.869Z" fill="white"/>
<path d="M94.9795 174.182C94.9497 174.691 94.8854 175.198 94.7868 175.699C94.6038 176.424 94.1577 177.056 93.5348 177.472C92.9119 177.888 92.1564 178.059 91.4143 177.952C90.6987 177.883 90.0327 177.558 89.5406 177.035C89.0485 176.513 88.764 175.83 88.7404 175.113C88.6898 174.386 88.6898 173.656 88.7404 172.928C88.7869 172.212 89.0995 171.539 89.6171 171.041C90.1348 170.543 90.8203 170.255 91.5396 170.233C93.2596 170.171 94.5748 171.16 94.8302 172.726C94.9121 173.178 94.9362 173.644 94.9795 174.182ZM90.3737 174.052C90.3737 174.398 90.3447 174.744 90.3737 175.089C90.381 175.447 90.5217 175.79 90.7684 176.05C91.0151 176.31 91.3501 176.469 91.7082 176.497C91.8916 176.517 92.0771 176.5 92.254 176.448C92.4309 176.396 92.5956 176.309 92.7386 176.193C92.8816 176.076 93 175.933 93.087 175.771C93.1739 175.609 93.2277 175.431 93.2451 175.248C93.327 174.485 93.327 173.715 93.2451 172.952C93.208 172.596 93.0395 172.267 92.7724 172.028C92.5052 171.789 92.1585 171.658 91.7997 171.66C91.4495 171.672 91.1156 171.811 90.8604 172.051C90.6051 172.29 90.4459 172.614 90.4122 172.962C90.3704 173.323 90.3575 173.688 90.3737 174.052Z" fill="white"/>
<path d="M151.946 174.033C152.065 174.915 151.887 175.812 151.44 176.583C151.083 177.122 150.567 177.537 149.962 177.77C149.358 178.004 148.696 178.044 148.068 177.885C147.435 177.738 146.868 177.388 146.453 176.889C146.038 176.391 145.798 175.77 145.77 175.123C145.7 174.301 145.728 173.474 145.851 172.659C146.145 170.992 147.446 170.109 149.224 170.258C149.95 170.331 150.625 170.662 151.126 171.192C151.627 171.721 151.92 172.412 151.951 173.139C151.965 173.442 151.946 173.769 151.946 174.033ZM147.326 174.095C147.347 174.528 147.392 174.959 147.461 175.387C147.509 175.693 147.664 175.972 147.899 176.174C148.133 176.377 148.432 176.491 148.742 176.497C149.479 176.497 150.101 176.175 150.188 175.464C150.303 174.56 150.303 173.645 150.188 172.741C150.126 172.413 149.944 172.12 149.676 171.919C149.408 171.719 149.075 171.627 148.742 171.66C148.422 171.672 148.115 171.795 147.876 172.008C147.637 172.221 147.48 172.511 147.432 172.827C147.373 173.248 147.338 173.671 147.326 174.095Z" fill="white"/>
<path d="M58.6528 160.853C58.6868 160.282 58.7609 159.714 58.8744 159.153C59.2646 157.746 60.4354 156.972 61.9771 157.016C62.6387 157.017 63.2795 157.247 63.79 157.666C64.3005 158.086 64.6491 158.669 64.7763 159.316C64.9456 160.314 64.9538 161.332 64.8004 162.333C64.5306 164.018 63.1286 164.893 61.2881 164.734C60.569 164.628 59.9126 164.266 59.4398 163.715C58.9671 163.164 58.7098 162.462 58.7154 161.737C58.7154 161.449 58.7154 161.161 58.7154 160.872L58.6528 160.853ZM60.3005 160.882C60.3154 161.317 60.3589 161.75 60.4306 162.179C60.484 162.495 60.6476 162.782 60.8927 162.989C61.1378 163.197 61.4485 163.311 61.7699 163.312C62.0928 163.339 62.414 163.245 62.6713 163.049C62.9287 162.853 63.1037 162.568 63.1623 162.251C63.2758 161.343 63.2758 160.425 63.1623 159.518C63.0989 159.194 62.9144 158.906 62.646 158.712C62.3776 158.519 62.0455 158.434 61.7169 158.476C61.4057 158.487 61.1079 158.605 60.8749 158.811C60.6419 159.017 60.4882 159.298 60.4402 159.604C60.3674 160.033 60.3207 160.467 60.3005 160.901V160.882Z" fill="white"/>
<path d="M144.016 159.729H142.546C142.243 158.634 141.939 158.37 141.101 158.456C140.926 158.453 140.756 158.511 140.619 158.619C140.483 158.728 140.389 158.881 140.354 159.052C140.316 159.214 140.341 159.385 140.425 159.529C140.51 159.673 140.646 159.779 140.807 159.825C141.178 159.984 141.578 160.07 141.939 160.243C142.472 160.449 142.974 160.728 143.428 161.074C143.667 161.293 143.851 161.565 143.963 161.868C144.076 162.171 144.115 162.497 144.076 162.818C144.037 163.139 143.923 163.446 143.741 163.714C143.56 163.982 143.317 164.203 143.033 164.359C142.423 164.678 141.734 164.812 141.049 164.744C140.364 164.677 139.714 164.411 139.179 163.98C138.96 163.79 138.788 163.554 138.673 163.289C138.559 163.024 138.506 162.736 138.519 162.448C138.519 162.131 138.658 161.967 138.972 161.996C139.183 162.008 139.396 162.008 139.607 161.996C139.969 161.963 140.118 162.078 140.128 162.477C140.128 163.015 140.576 163.211 141.019 163.312C141.239 163.392 141.478 163.404 141.705 163.347C141.932 163.289 142.136 163.165 142.291 162.991C142.356 162.917 142.402 162.829 142.428 162.734C142.453 162.639 142.456 162.54 142.436 162.444C142.417 162.347 142.375 162.257 142.315 162.18C142.255 162.102 142.177 162.039 142.089 161.996C141.78 161.836 141.458 161.705 141.125 161.602C140.726 161.47 140.333 161.318 139.95 161.146C139.536 160.974 139.19 160.673 138.962 160.289C138.733 159.905 138.635 159.458 138.682 159.014C138.743 158.553 138.947 158.124 139.265 157.784C139.583 157.445 139.999 157.213 140.455 157.121C142.166 156.679 143.76 157.554 143.982 159.042C144.008 159.27 144.02 159.5 144.016 159.729Z" fill="white"/>
<path d="M135.922 175.123C136.148 176.309 136.852 176.79 137.777 176.463C137.903 176.412 138.016 176.334 138.108 176.234C138.201 176.134 138.27 176.016 138.311 175.887C138.313 175.752 138.284 175.618 138.226 175.496C138.169 175.374 138.084 175.266 137.979 175.181C137.663 175.003 137.326 174.865 136.977 174.768C136.56 174.63 136.152 174.47 135.753 174.287C135.366 174.105 135.049 173.802 134.849 173.424C134.649 173.047 134.578 172.615 134.645 172.193C134.689 171.79 134.848 171.408 135.105 171.094C135.361 170.779 135.704 170.546 136.09 170.421C136.682 170.177 137.337 170.131 137.957 170.29C138.577 170.448 139.129 170.802 139.53 171.3C139.608 171.41 139.679 171.526 139.742 171.646C140.224 172.606 139.974 173.014 138.904 173.019H138.422C138.244 171.939 137.854 171.554 137.068 171.655C136.883 171.655 136.703 171.719 136.558 171.835C136.413 171.951 136.313 172.113 136.274 172.294C136.187 172.717 136.466 172.942 136.799 173.077C137.314 173.288 137.854 173.428 138.369 173.634C139.608 174.114 140.152 175.075 139.95 176.237C139.896 176.561 139.758 176.866 139.548 177.119C139.338 177.372 139.064 177.565 138.755 177.678C138.186 177.948 137.553 178.054 136.927 177.983C136.301 177.913 135.708 177.669 135.214 177.28L135.17 177.246C134.664 176.823 134.183 175.728 134.496 175.493C134.809 175.257 135.435 175.229 135.922 175.123Z" fill="white"/>
<path d="M178.965 159.753C178.825 158.716 178.454 158.375 177.616 158.452C177.211 158.49 176.845 158.673 176.85 159.081C176.869 159.232 176.923 159.377 177.006 159.505C177.09 159.633 177.201 159.741 177.331 159.821C177.824 160.031 178.327 160.216 178.839 160.373C179.75 160.748 180.487 161.3 180.535 162.405C180.596 162.887 180.477 163.376 180.199 163.776C179.922 164.177 179.507 164.461 179.032 164.576C178.512 164.758 177.957 164.815 177.41 164.742C176.864 164.668 176.343 164.466 175.891 164.153C175.637 163.976 175.426 163.746 175.272 163.479C175.118 163.212 175.025 162.914 175 162.606C174.956 162.222 175.072 161.967 175.525 161.992C175.852 161.992 176.175 161.992 176.488 161.992C176.763 163.077 177.288 163.514 178.146 163.303C178.303 163.259 178.449 163.183 178.576 163.081C178.703 162.979 178.807 162.851 178.883 162.707C179.056 162.318 178.762 162.011 178.401 161.862C178.04 161.713 177.62 161.641 177.259 161.468C176.728 161.256 176.23 160.97 175.78 160.618C175.572 160.41 175.413 160.159 175.312 159.883C175.212 159.607 175.173 159.312 175.198 159.02C175.223 158.727 175.312 158.444 175.458 158.189C175.605 157.934 175.805 157.714 176.045 157.544C176.56 157.185 177.173 156.992 177.801 156.992C178.429 156.992 179.042 157.185 179.557 157.544C179.958 157.895 180.265 158.339 180.453 158.836C180.723 159.552 180.516 159.763 179.764 159.763L178.965 159.753Z" fill="white"/>
<path d="M177.341 170.296V171.737H174.147V173.264H176.893V174.705H174.113C174.086 175.185 174.086 175.666 174.113 176.146C174.113 176.276 174.407 176.458 174.571 176.463C175.472 176.497 176.373 176.463 177.336 176.463V177.822H172.504C172.504 177.654 172.465 177.505 172.465 177.342C172.465 175.176 172.465 173.019 172.465 170.834C172.465 170.402 172.595 170.272 173.024 170.282C174.436 170.31 175.852 170.296 177.341 170.296Z" fill="white"/>
<path d="M173.299 157.164V158.5H170.89C170.076 158.5 170.076 158.5 170.076 159.297V159.998H172.841V161.473H170.109V163.197H173.304V164.662H169.589C168.414 164.662 168.414 164.662 168.414 163.466V157.164H173.299Z" fill="white"/>
<path d="M186.803 170.32H188.331C188.331 170.536 188.364 170.738 188.364 170.94C188.364 172.318 188.364 173.701 188.364 175.085C188.364 176.002 188.846 176.525 189.617 176.559C190.479 176.559 191 176.036 191.005 175.085C191.005 173.72 191.005 172.361 191.005 170.997V170.334H192.585C192.585 170.502 192.619 170.666 192.619 170.815C192.619 172.256 192.619 173.73 192.619 175.19C192.619 176.89 191.443 177.962 189.617 177.952C187.873 177.952 186.755 176.876 186.75 175.2C186.75 173.644 186.75 172.092 186.75 170.536C186.764 170.463 186.782 170.391 186.803 170.32Z" fill="white"/>
<path d="M114.665 171.722V173.25H117.489C117.518 173.63 117.518 174.012 117.489 174.393C117.489 174.518 117.219 174.681 117.069 174.691C116.303 174.72 115.533 174.691 114.714 174.691V176.444C115.504 176.444 116.289 176.444 117.069 176.444C118.081 176.444 117.966 176.295 117.97 177.38C117.967 177.522 117.956 177.663 117.937 177.803H113.119V170.334H117.889V171.722H114.665Z" fill="white"/>
<path d="M136.794 157.16V158.5H133.604V160.017H136.346V161.458H133.633V163.202H136.789C136.847 163.293 136.881 163.327 136.885 163.36C137.011 164.662 137.011 164.662 135.734 164.662H132.01V157.16H136.794Z" fill="white"/>
<path d="M82.4193 157.136H87.2035V158.5H84.0285V160.022C84.7319 160.022 85.4209 160.066 86.1002 160.022C86.7073 159.969 86.9 160.195 86.8181 160.762C86.8033 160.994 86.8033 161.226 86.8181 161.458H84.0526V163.221H87.2035V164.624H82.3856L82.4193 157.136Z" fill="white"/>
<path d="M121.439 175.08V177.817H119.878V170.286C121.261 170.378 122.668 170.07 124.026 170.517C125.091 170.868 125.631 171.915 125.472 173.111C125.402 173.639 125.147 174.126 124.752 174.485C124.357 174.845 123.848 175.054 123.313 175.075C122.721 175.113 122.128 175.08 121.439 175.08ZM121.439 171.718C121.439 172.323 121.439 172.856 121.439 173.384C121.46 173.455 121.499 173.52 121.552 173.571C121.605 173.623 121.671 173.659 121.743 173.677C122.163 173.718 122.585 173.718 123.005 173.677C123.261 173.663 123.5 173.547 123.67 173.357C123.841 173.166 123.928 172.916 123.913 172.661C123.899 172.407 123.783 172.168 123.592 171.998C123.401 171.829 123.15 171.741 122.894 171.756C122.461 171.718 122.003 171.737 121.449 171.737L121.439 171.718Z" fill="white"/>
<path d="M102.047 164.672C101.574 164.696 101.1 164.696 100.626 164.672C100.53 164.64 100.443 164.586 100.371 164.516C100.299 164.445 100.245 164.358 100.212 164.263C99.6625 162.851 99.6721 162.866 98.1449 162.866C97.7354 162.866 97.586 163.034 97.4607 163.384C96.9789 164.748 96.9789 164.744 95.4999 164.638C95.4662 164.629 95.4338 164.616 95.4035 164.6C95.4167 164.481 95.4392 164.364 95.471 164.249C96.2755 162.011 97.1042 159.787 97.8799 157.525C98.063 156.987 98.4099 157.088 98.7808 157.078C99.1518 157.068 99.3734 157.078 99.518 157.496C100.332 159.888 101.175 162.222 102.047 164.672ZM98.776 160.061H98.6363L98.1834 161.377H99.2048L98.776 160.061Z" fill="white"/>
<path d="M48.6605 177.813C48.6051 177.827 48.5488 177.839 48.4919 177.846C47.0754 177.899 47.0465 177.904 46.5985 176.569C46.478 176.218 46.3142 176.05 45.9432 176.112H45.8324C44.3871 176.112 44.3871 176.112 43.8716 177.476C43.7752 177.75 43.6451 177.88 43.3368 177.861C42.9369 177.837 42.5322 177.861 42.0408 177.861C42.2094 177.38 42.3588 176.963 42.5226 176.54C43.226 174.595 43.9342 172.649 44.6183 170.699C44.6322 170.629 44.6605 170.563 44.7015 170.505C44.7425 170.446 44.7953 170.397 44.8565 170.36C44.9177 170.323 44.9859 170.299 45.0569 170.289C45.1279 170.28 45.2 170.286 45.2687 170.306C45.5964 170.358 46.0059 170.113 46.189 170.637C46.9935 172.952 47.8174 175.262 48.6316 177.577C48.6477 177.655 48.6574 177.734 48.6605 177.813ZM44.8737 174.585H45.9095L45.4277 173.274L45.2928 173.298L44.8737 174.585Z" fill="white"/>
<path d="M67.4502 177.813C67.325 177.813 67.2864 177.846 67.2527 177.846C65.8073 177.899 65.7832 177.904 65.3255 176.545C65.2147 176.213 65.0702 176.064 64.7185 176.112H64.6607C64.1789 176.112 63.5477 175.954 63.2153 176.184C62.8829 176.415 62.8299 177.049 62.6034 177.486C62.5533 177.576 62.4843 177.654 62.4011 177.714C62.3179 177.775 62.2226 177.816 62.1217 177.837C61.6756 177.864 61.2283 177.864 60.7823 177.837C61.0906 176.982 61.3845 176.18 61.6736 175.373C62.2325 173.826 62.8106 172.284 63.3309 170.723C63.5092 170.19 63.8754 170.301 64.2415 170.277C64.3188 170.257 64.3993 170.253 64.4782 170.265C64.557 170.277 64.6326 170.305 64.7002 170.348C64.7678 170.39 64.8261 170.445 64.8715 170.511C64.9169 170.576 64.9484 170.65 64.9642 170.728C65.7688 173.096 66.6167 175.435 67.4502 177.813ZM64.651 174.599L64.1982 173.279H64.0584L63.6104 174.59L64.651 174.599Z" fill="white"/>
<path d="M178.574 177.851C179.162 176.223 179.726 174.676 180.285 173.13C180.583 172.299 180.906 171.478 181.176 170.637C181.292 170.282 181.528 170.262 181.798 170.301C182.067 170.339 182.52 170.094 182.694 170.579C183.542 172.981 184.39 175.382 185.266 177.851C184.785 177.879 184.302 177.879 183.821 177.851C183.672 177.851 183.489 177.635 183.426 177.476C182.901 176.127 182.906 176.141 181.446 176.122C181.022 176.122 180.805 176.218 180.67 176.655C180.28 177.899 180.256 177.89 178.955 177.87L178.574 177.851ZM182 173.259H181.875L181.393 174.609H182.438L182 173.259Z" fill="white"/>
<path d="M78.777 160.056C78.777 159.782 78.7385 159.652 78.7288 159.523C78.7368 159.289 78.6641 159.06 78.5229 158.874C78.3816 158.688 78.1805 158.556 77.9532 158.5C77.6985 158.403 77.4192 158.393 77.1581 158.47C76.8969 158.547 76.6685 158.708 76.5078 158.927C76.3811 159.072 76.2947 159.248 76.2573 159.436C76.1859 160.396 76.1859 161.359 76.2573 162.318C76.2935 162.62 76.4482 162.895 76.6875 163.083C76.9269 163.271 77.2313 163.357 77.534 163.322C77.6841 163.338 77.8358 163.321 77.9789 163.274C78.1221 163.226 78.2533 163.149 78.3638 163.046C78.4743 162.944 78.5615 162.819 78.6195 162.68C78.6775 162.541 78.7049 162.392 78.6999 162.241C78.6999 161.819 78.8782 161.737 79.2588 161.737C80.3573 161.737 80.5693 162.011 80.1646 163.058C79.991 163.53 79.68 163.939 79.2713 164.233C78.8627 164.528 78.3752 164.694 77.8713 164.71C76.556 164.845 75.4623 164.427 74.8938 163.211C74.5428 162.481 74.3606 161.68 74.3606 160.87C74.3606 160.06 74.5428 159.26 74.8938 158.529C75.6888 156.828 78.1314 156.434 79.5431 157.688C79.6282 157.765 79.7086 157.847 79.784 157.933C80.1983 158.413 80.5404 159.624 80.2417 159.782C79.7703 159.947 79.2764 160.04 78.777 160.056Z" fill="white"/>
<path d="M109.467 173.202C109.428 172.952 109.395 172.765 109.366 172.577C109.343 172.355 109.247 172.147 109.094 171.984C108.941 171.821 108.739 171.712 108.518 171.674C108.297 171.602 108.06 171.595 107.835 171.656C107.611 171.716 107.409 171.841 107.255 172.015C107.123 172.153 107.021 172.316 106.957 172.496C106.634 173.526 106.634 174.63 106.957 175.661C107.03 175.955 107.215 176.21 107.473 176.37C107.732 176.53 108.042 176.584 108.339 176.521C109.043 176.425 109.303 176.136 109.409 175.325C109.409 175.229 109.438 175.137 109.452 175.013H110.835C111.163 175.709 110.835 176.718 110.093 177.318C108.421 178.668 105.81 177.918 105.333 175.824C105.099 174.701 105.099 173.542 105.333 172.419C105.757 170.354 108.224 169.537 109.973 170.709C110.284 170.921 110.541 171.202 110.724 171.531C110.906 171.859 111.009 172.226 111.023 172.601C111.057 173.005 110.888 173.221 110.459 173.202C110.117 173.192 109.799 173.202 109.467 173.202Z" fill="white"/>
<path d="M85.4209 173.207C85.4209 173 85.3823 172.851 85.3679 172.702C85.3589 172.46 85.2686 172.227 85.1114 172.041C84.9542 171.856 84.7392 171.728 84.5007 171.679C84.2616 171.601 84.0039 171.599 83.7636 171.674C83.5234 171.749 83.3127 171.897 83.1613 172.097C83.0368 172.219 82.9498 172.374 82.9108 172.544C82.8337 173.562 82.8337 174.585 82.9108 175.603C82.933 175.758 82.9876 175.906 83.0708 176.038C83.1541 176.17 83.2642 176.283 83.3941 176.37C83.524 176.457 83.6707 176.515 83.8248 176.542C83.9789 176.569 84.1369 176.563 84.2887 176.525C85.0065 176.439 85.2763 176.122 85.3679 175.277C85.3679 175.205 85.3679 175.128 85.4064 175.017H86.8518C86.9914 175.56 86.9256 176.134 86.6669 176.631C86.4083 177.129 85.975 177.513 85.4498 177.712C84.9859 177.931 84.4736 178.028 83.9613 177.995C83.4491 177.962 82.9539 177.799 82.5226 177.521C82.0913 177.244 81.7382 176.861 81.4967 176.409C81.2552 175.958 81.1333 175.452 81.1426 174.94C81.0898 174.119 81.1318 173.294 81.2679 172.481C81.378 172.002 81.605 171.557 81.9289 171.185C82.2527 170.814 82.6635 170.528 83.1246 170.353C83.5858 170.177 84.0832 170.118 84.5729 170.18C85.0625 170.243 85.5291 170.424 85.9316 170.709C86.2365 170.913 86.4897 171.185 86.6711 171.504C86.8526 171.822 86.9573 172.178 86.977 172.544C87.0252 172.99 86.8759 173.245 86.3748 173.207C86.0568 173.187 85.7581 173.207 85.4209 173.207Z" fill="white"/>
<path d="M155.767 171.732V173.389H158.609V174.83H155.747V177.827H154.129C154.129 177.649 154.09 177.5 154.09 177.347C154.09 175.181 154.09 173.024 154.09 170.844C154.09 170.411 154.22 170.282 154.649 170.291C155.974 170.291 157.304 170.291 158.628 170.291C158.778 170.291 158.927 170.32 159.11 170.334V171.727L155.767 171.732Z" fill="white"/>
<path d="M204.856 173.389C205.338 172.457 205.786 171.636 206.186 170.786C206.237 170.623 206.346 170.485 206.492 170.396C206.639 170.308 206.812 170.276 206.981 170.306C207.38 170.339 207.78 170.306 208.301 170.306C208.094 170.699 207.935 170.992 207.776 171.266C207.212 172.313 206.658 173.37 206.065 174.403C205.764 174.892 205.621 175.462 205.656 176.036C205.689 176.607 205.656 177.183 205.656 177.798H204.013C204.013 177.236 203.984 176.684 204.013 176.136C204.055 175.462 203.887 174.791 203.531 174.215C202.804 172.957 202.134 171.665 201.382 170.282C202.009 170.282 202.539 170.248 203.064 170.282C203.213 170.282 203.377 170.527 203.464 170.695C203.936 171.574 204.369 172.428 204.856 173.389Z" fill="white"/>
<path d="M198.159 177.837H196.54V171.761H194.319V170.32H200.356V171.718H198.159V177.837Z" fill="white"/>
<path d="M41.3181 170.349V171.718H39.1308V177.817H37.5023V171.756H35.2813V170.349H41.3181Z" fill="white"/>
<path d="M129.119 177.813V171.746H126.927V170.344H132.973V171.718H130.752V177.813H129.119Z" fill="white"/>
<path d="M149.499 158.5V157.136H155.617C155.641 157.505 155.641 157.876 155.617 158.245C155.617 158.346 155.348 158.481 155.203 158.485C154.61 158.514 154.018 158.485 153.372 158.485V164.604H151.763C151.763 164.398 151.724 164.196 151.724 163.994C151.724 162.366 151.724 160.733 151.724 159.105C151.724 158.625 151.609 158.442 151.117 158.476C150.626 158.509 150.077 158.5 149.499 158.5Z" fill="white"/>
<path d="M163.254 157.164V163.226H166.482C166.535 163.312 166.568 163.341 166.573 163.375C166.698 164.676 166.698 164.676 165.422 164.676C164.304 164.676 163.191 164.676 162.049 164.676C161.89 164.676 161.601 164.475 161.596 164.359C161.596 161.958 161.596 159.609 161.596 157.184L163.254 157.164Z" fill="white"/>
<path d="M89.1885 157.145H90.7832V163.207H94.1268V164.672C92.5658 164.672 91.0337 164.672 89.4968 164.672C89.3908 164.672 89.2029 164.436 89.2029 164.311C89.1836 161.934 89.1885 159.576 89.1885 157.145Z" fill="white"/>
<path d="M50.4383 170.334H52.033C52.033 171.295 52.033 172.256 52.033 173.183C52.033 174.11 52.0619 174.945 52.033 175.829C52.0089 176.353 52.2016 176.487 52.6979 176.463C53.5603 176.429 54.4227 176.463 55.3429 176.463V177.822H50.4383V170.334Z" fill="white"/>
<path d="M103.816 164.6V157.16H105.352V164.6H103.816Z" fill="white"/>
<path d="M159.067 164.633H157.544V157.16H159.086L159.067 164.633Z" fill="white"/>
<path d="M31.9329 170.334H33.4649V177.808H31.9329V170.334Z" fill="white"/>
<path d="M57.3616 170.334H58.8937V177.808H57.3616V170.334Z" fill="white"/>
<path d="M161.273 27.6798C161.776 27.6923 162.254 27.9003 162.605 28.2592C162.956 28.6182 163.153 29.0997 163.152 29.601C163.145 29.9721 163.027 30.3326 162.815 30.6373C162.602 30.9421 162.304 31.1774 161.958 31.3137C161.612 31.4501 161.233 31.4813 160.869 31.4036C160.505 31.3259 160.172 31.1427 159.912 30.877C159.652 30.6112 159.477 30.2748 159.408 29.9101C159.339 29.5453 159.38 29.1685 159.526 28.8268C159.671 28.4852 159.915 28.1941 160.226 27.99C160.537 27.7859 160.901 27.678 161.273 27.6798Z" fill="white"/>
<path d="M76.026 59.4182C76.0389 59.6725 75.9999 59.9267 75.9111 60.1655C75.8224 60.4042 75.6859 60.6225 75.5099 60.8071C75.334 60.9916 75.1222 61.1385 74.8875 61.2389C74.6528 61.3393 74.4001 61.3911 74.1447 61.3911C73.8893 61.3911 73.6365 61.3393 73.4018 61.2389C73.1671 61.1385 72.9553 60.9916 72.7794 60.8071C72.6034 60.6225 72.4669 60.4042 72.3782 60.1655C72.2895 59.9267 72.2504 59.6725 72.2633 59.4182C72.2709 58.9137 72.4772 58.4324 72.8378 58.0783C73.1984 57.7242 73.6843 57.5257 74.1904 57.5258C74.6837 57.5396 75.152 57.7453 75.4951 58.099C75.8382 58.4527 76.0287 58.9262 76.026 59.4182Z" fill="white"/>
<path d="M140.918 5.76362C141.413 5.76488 141.887 5.96097 142.237 6.30915C142.587 6.65732 142.785 7.12936 142.787 7.62239C142.803 7.87639 142.766 8.13082 142.679 8.37025C142.593 8.60968 142.459 8.82911 142.285 9.01522C142.111 9.20133 141.9 9.35024 141.667 9.4529C141.433 9.55557 141.181 9.60985 140.926 9.61246C140.671 9.61507 140.418 9.56594 140.182 9.46806C139.947 9.37019 139.733 9.2256 139.556 9.04309C139.378 8.86057 139.239 8.64393 139.148 8.40631C139.056 8.1687 139.014 7.91507 139.025 7.66082C139.021 7.4116 139.068 7.16424 139.162 6.93325C139.256 6.70225 139.395 6.49226 139.571 6.31557C139.748 6.13889 139.958 5.99906 140.189 5.90428C140.42 5.8095 140.668 5.76168 140.918 5.76362Z" fill="white"/>
<path d="M72.9522 46.2099C72.6972 46.2227 72.4421 46.1838 72.2026 46.0953C71.9631 46.0069 71.7442 45.8708 71.5591 45.6954C71.374 45.52 71.2266 45.3088 71.1259 45.0748C71.0251 44.8409 70.9732 44.5889 70.9732 44.3343C70.9732 44.0797 71.0251 43.8277 71.1259 43.5937C71.2266 43.3598 71.374 43.1486 71.5591 42.9732C71.7442 42.7978 71.9631 42.6617 72.2026 42.5733C72.4421 42.4848 72.6972 42.4458 72.9522 42.4587C73.4347 42.4831 73.8894 42.6913 74.2223 43.0404C74.5552 43.3894 74.7408 43.8527 74.7408 44.3343C74.7408 44.8159 74.5552 45.2792 74.2223 45.6282C73.8894 45.9773 73.4347 46.1855 72.9522 46.2099Z" fill="white"/>
<path d="M78.5651 29.6779C78.5689 30.1713 78.3763 30.6461 78.0295 30.9982C77.6827 31.3502 77.2099 31.5508 76.715 31.5559C76.2039 31.5559 75.7137 31.3534 75.3523 30.9931C74.9909 30.6328 74.7878 30.1442 74.7878 29.6346C74.791 29.3862 74.8434 29.1407 74.9421 28.9126C75.0409 28.6844 75.1839 28.4779 75.3631 28.3051C75.5422 28.1323 75.7539 27.9966 75.986 27.9058C76.218 27.8149 76.4658 27.7708 76.715 27.7759C76.9637 27.773 77.2103 27.8208 77.4399 27.9161C77.6694 28.0114 77.8771 28.1524 78.0502 28.3303C78.2233 28.5083 78.3583 28.7196 78.4468 28.9513C78.5353 29.1829 78.5755 29.4302 78.5651 29.6779Z" fill="white"/>
<path d="M152.905 18.775C152.655 18.7841 152.407 18.7412 152.175 18.649C151.943 18.5569 151.732 18.4176 151.557 18.24C151.382 18.0624 151.247 17.8504 151.158 17.6175C151.07 17.3847 151.032 17.136 151.045 16.8874C151.045 16.6427 151.094 16.4005 151.188 16.1746C151.282 15.9487 151.421 15.7437 151.595 15.5714C151.769 15.399 151.976 15.2627 152.203 15.1704C152.43 15.0781 152.674 15.0316 152.919 15.0335C153.423 15.0448 153.902 15.2521 154.254 15.6112C154.606 15.9703 154.803 16.4525 154.803 16.9547C154.799 17.1987 154.747 17.4397 154.65 17.6635C154.552 17.8874 154.411 18.0898 154.234 18.259C154.058 18.4283 153.849 18.561 153.621 18.6495C153.393 18.7381 153.15 18.7807 152.905 18.775Z" fill="white"/>
<path d="M165.065 46.109C164.82 46.1168 164.576 46.0752 164.347 45.9869C164.119 45.8986 163.91 45.7653 163.735 45.595C163.559 45.4247 163.419 45.2208 163.324 44.9955C163.229 44.7703 163.181 44.5282 163.181 44.2839C163.174 44.0355 163.216 43.7882 163.305 43.5563C163.395 43.3245 163.53 43.1129 163.703 42.9338C163.876 42.7548 164.083 42.6121 164.312 42.514C164.541 42.4159 164.787 42.3645 165.036 42.3627C165.547 42.3627 166.038 42.5651 166.399 42.9254C166.76 43.2857 166.963 43.7743 166.963 44.2839C166.953 44.7765 166.748 45.245 166.392 45.587C166.036 45.9291 165.559 46.1167 165.065 46.109Z" fill="white"/>
<path d="M86.8904 16.9931C86.8943 17.242 86.848 17.4892 86.7542 17.72C86.6604 17.9508 86.5211 18.1604 86.3445 18.3365C86.1679 18.5125 85.9576 18.6514 85.7261 18.7449C85.4946 18.8384 85.2467 18.8846 84.9969 18.8807C84.496 18.8749 84.018 18.6711 83.6678 18.3139C83.3177 17.9568 83.1243 17.4756 83.13 16.9763C83.1358 16.4769 83.3402 16.0003 83.6985 15.6513C84.0567 15.3022 84.5394 15.1094 85.0403 15.1151C85.5352 15.1202 86.008 15.3207 86.3548 15.6728C86.7016 16.0248 86.8942 16.4997 86.8904 16.9931Z" fill="white"/>
<path d="M97.0079 5.85488C97.3768 5.85967 97.736 5.97348 98.04 6.18189C98.344 6.3903 98.5792 6.68394 98.7157 7.02565C98.8522 7.36736 98.884 7.74176 98.807 8.10148C98.73 8.4612 98.5476 8.79005 98.2831 9.04641C98.0185 9.30277 97.6836 9.47511 97.3207 9.54162C96.9578 9.60813 96.5833 9.56581 96.2446 9.42003C95.9058 9.27426 95.6181 9.03156 95.4178 8.72268C95.2174 8.41379 95.1136 8.0526 95.1192 7.68483C95.1178 7.43962 95.1661 7.19666 95.2611 6.97051C95.3562 6.74436 95.4961 6.53969 95.6725 6.36879C95.8489 6.19788 96.0581 6.06427 96.2876 5.97596C96.517 5.88765 96.762 5.84646 97.0079 5.85488Z" fill="white"/>
<path d="M165.735 59.3365C165.741 59.5818 165.697 59.8258 165.605 60.0537C165.514 60.2815 165.377 60.4886 165.204 60.6623C165.03 60.836 164.822 60.9728 164.594 61.0644C164.366 61.156 164.121 61.2006 163.875 61.1953C163.62 61.2057 163.366 61.1643 163.127 61.0736C162.889 60.9829 162.671 60.8449 162.488 60.6678C162.304 60.4907 162.159 60.2784 162.06 60.0436C161.962 59.8088 161.912 59.5565 161.915 59.3021C161.917 59.0476 161.971 58.7962 162.074 58.5632C162.176 58.3303 162.326 58.1205 162.512 57.9468C162.699 57.773 162.919 57.6389 163.159 57.5525C163.399 57.4661 163.654 57.4292 163.909 57.4441C164.155 57.4446 164.398 57.4944 164.624 57.5906C164.85 57.6868 165.054 57.8274 165.225 58.004C165.395 58.1806 165.528 58.3896 165.616 58.6185C165.703 58.8475 165.744 59.0917 165.735 59.3365Z" fill="white"/>
<path d="M118.683 69.226L107.048 57.6363L118.664 46.0418L130.295 57.6363L118.683 69.226Z" fill="white"/>
</g>
<defs>
<clipPath id="clip0_2121_14934">
<rect width="248" height="178" fill="white"/>
</clipPath>
</defs>
</svg>
