<svg width="14" height="14" viewBox="0 0 14 14" fill="none" xmlns="http://www.w3.org/2000/svg">
<path d="M2.48437 9.6791C1.83209 8.57951 1.60366 7.27963 1.84197 6.02355C2.08027 4.76746 2.76892 3.64157 3.77861 2.85729C4.78829 2.07302 6.04955 1.68431 7.32555 1.76416C8.60155 1.84401 9.80451 2.38692 10.7085 3.29095C11.6126 4.19498 12.1555 5.39794 12.2354 6.67394C12.3152 7.94993 11.9265 9.2112 11.1422 10.2209C10.358 11.2306 9.23208 11.9192 7.97599 12.1575C6.7199 12.3959 5.42002 12.1674 4.32044 11.5152L4.32045 11.5151L2.5072 12.0332C2.43218 12.0546 2.35279 12.0556 2.27726 12.036C2.20174 12.0164 2.13282 11.977 2.07765 11.9219C2.02248 11.8667 1.98306 11.7978 1.96349 11.7222C1.94392 11.6467 1.9449 11.5673 1.96634 11.4923L2.48441 9.67906L2.48437 9.6791Z" stroke="#242424" stroke-linecap="round" stroke-linejoin="round"/>
<path d="M4.37492 7.6582C4.73736 7.6582 5.03117 7.36439 5.03117 7.00195C5.03117 6.63952 4.73736 6.3457 4.37492 6.3457C4.01249 6.3457 3.71867 6.63952 3.71867 7.00195C3.71867 7.36439 4.01249 7.6582 4.37492 7.6582Z" fill="#242424"/>
<path d="M7 7.6582C7.36244 7.6582 7.65625 7.36439 7.65625 7.00195C7.65625 6.63952 7.36244 6.3457 7 6.3457C6.63756 6.3457 6.34375 6.63952 6.34375 7.00195C6.34375 7.36439 6.63756 7.6582 7 7.6582Z" fill="#242424"/>
<path d="M9.62508 7.6582C9.98751 7.6582 10.2813 7.36439 10.2813 7.00195C10.2813 6.63952 9.98751 6.3457 9.62508 6.3457C9.26264 6.3457 8.96883 6.63952 8.96883 7.00195C8.96883 7.36439 9.26264 7.6582 9.62508 7.6582Z" fill="#242424"/>
</svg>
