<svg width="80" height="80" viewBox="0 0 80 80" fill="none" xmlns="http://www.w3.org/2000/svg">
<path d="M65.7035 11.2119L7.47613 27.635C6.98628 27.7732 6.55027 28.0576 6.22637 28.4502C5.90247 28.8428 5.70611 29.3249 5.66355 29.8321C5.62098 30.3392 5.73423 30.8473 5.98816 31.2884C6.24209 31.7295 6.6246 32.0826 7.08457 32.3005L33.838 44.9731C34.3598 45.2203 34.7799 45.6405 35.0271 46.1623L47.6997 72.9156C47.9176 73.3756 48.2707 73.7581 48.7118 74.0121C49.1529 74.266 49.661 74.3792 50.1682 74.3367C50.6753 74.2941 51.1575 74.0977 51.5501 73.7738C51.9427 73.4499 52.227 73.0139 52.3652 72.5241L68.7883 14.2967C68.909 13.8689 68.9134 13.4168 68.8012 12.9868C68.689 12.5568 68.4642 12.1645 68.15 11.8502C67.8357 11.536 67.4434 11.3112 67.0134 11.199C66.5834 11.0868 66.1313 11.0912 65.7035 11.2119Z" stroke="#242424" stroke-width="3" stroke-linecap="round" stroke-linejoin="round"/>
<path d="M34.6445 45.3553L48.7867 31.2132" stroke="#242424" stroke-width="3" stroke-linecap="round" stroke-linejoin="round"/>
</svg>
