<svg width="15" height="14" viewBox="0 0 15 14" fill="none" xmlns="http://www.w3.org/2000/svg">
<mask id="path-1-inside-1_2438_15852" fill="white">
<path fill-rule="evenodd" clip-rule="evenodd" d="M8.8562 2.18754H6.1437C6.05768 2.6078 5.85012 2.99354 5.54679 3.29688C5.24346 3.60021 4.85772 3.80777 4.43745 3.89379C4.43728 4.02018 4.43728 4.14657 4.43745 4.27295C4.85772 4.35897 5.24346 4.56653 5.54679 4.86986C5.85012 5.1732 6.05768 5.55894 6.1437 5.9792H8.8562C8.94222 5.55894 9.14978 5.1732 9.45311 4.86986C9.75644 4.56653 10.1422 4.35897 10.5625 4.27295C10.5626 4.14657 10.5626 4.02018 10.5625 3.89379C10.1422 3.80777 9.75644 3.60021 9.45311 3.29688C9.14978 2.99354 8.94222 2.6078 8.8562 2.18754ZM9.20912 1.31429C9.0487 1.31254 8.87837 1.31254 8.69695 1.31254H6.30295C6.12212 1.31254 5.9512 1.31254 5.79137 1.31429C5.75951 1.31142 5.72743 1.312 5.6957 1.31604C5.43203 1.3207 5.19812 1.33179 4.99512 1.3592C4.62879 1.4082 4.29804 1.5167 4.03262 1.78212C3.76662 2.04812 3.65812 2.37887 3.60912 2.74462C3.5817 2.9482 3.57062 3.18212 3.56595 3.44579C3.56196 3.47733 3.56137 3.50921 3.5642 3.54087C3.56245 3.70129 3.56245 3.8722 3.56245 4.05304V4.1137C3.56245 4.29454 3.56245 4.46545 3.5642 4.62587C3.56137 4.65754 3.56196 4.68941 3.56595 4.72095C3.57062 4.9852 3.5817 5.21854 3.60912 5.42154C3.65812 5.78787 3.76662 6.11862 4.03262 6.38404C4.29804 6.65004 4.62879 6.75854 4.99512 6.80754C5.19812 6.83495 5.43203 6.84604 5.6957 6.8507C5.72743 6.8548 5.75951 6.85538 5.79137 6.85245C5.9512 6.8542 6.12212 6.8542 6.30295 6.8542H8.69695C8.87779 6.8542 9.0487 6.8542 9.20912 6.85245C9.24078 6.85535 9.27267 6.85476 9.3042 6.8507C9.56845 6.84604 9.80237 6.83495 10.0048 6.80754C10.3711 6.75854 10.7019 6.65004 10.9673 6.38404C11.2333 6.11862 11.3418 5.78787 11.3908 5.42154C11.4184 5.18902 11.4328 4.95511 11.434 4.72095C11.4379 4.68941 11.4385 4.65754 11.4357 4.62587C11.4375 4.46545 11.4375 4.29454 11.4375 4.1137V4.05304C11.4375 3.8722 11.4375 3.70129 11.4357 3.54087C11.4386 3.50921 11.438 3.47732 11.434 3.44579C11.4327 3.21163 11.4183 2.97774 11.3908 2.7452C11.3418 2.37887 11.2333 2.04812 10.9679 1.7827C10.7019 1.5167 10.3711 1.4082 10.0054 1.3592C9.77265 1.33163 9.53855 1.31721 9.3042 1.31604C9.27266 1.31203 9.24078 1.31144 9.20912 1.31429ZM9.77145 2.2132C9.8375 2.38772 9.93989 2.54621 10.0718 2.67815C10.2038 2.8101 10.3623 2.91249 10.5368 2.97854C10.5331 2.93956 10.5286 2.90066 10.5234 2.86187C10.4878 2.59237 10.4248 2.47687 10.3484 2.40104C10.2725 2.3252 10.1576 2.26279 9.8887 2.22604C9.8499 2.22097 9.81101 2.21669 9.77204 2.2132M10.5374 5.1882C10.3629 5.25425 10.2044 5.35664 10.0724 5.48859C9.94047 5.62053 9.83808 5.77902 9.77204 5.95354C9.81287 5.95004 9.85195 5.94537 9.8887 5.9407C10.1582 5.90395 10.2737 5.84154 10.3495 5.7657C10.4254 5.68987 10.4884 5.57437 10.5245 5.30487C10.5292 5.26812 10.5339 5.22904 10.5374 5.1882ZM5.22904 5.95354C5.16299 5.77902 5.0606 5.62053 4.92865 5.48859C4.79671 5.35664 4.63822 5.25425 4.4637 5.1882C4.46779 5.22904 4.47187 5.26812 4.47712 5.30487C4.51329 5.57437 4.5757 5.68987 4.65212 5.7657C4.72795 5.84154 4.84287 5.90395 5.11179 5.9407C5.14912 5.94537 5.1882 5.95004 5.22904 5.95354ZM4.4637 2.97854C4.63822 2.91249 4.79671 2.8101 4.92865 2.67815C5.0606 2.54621 5.16299 2.38772 5.22904 2.2132C5.1882 2.2167 5.14912 2.22137 5.11237 2.22662C4.84287 2.26279 4.72737 2.3252 4.65154 2.40162C4.5757 2.47745 4.51329 2.59237 4.47654 2.86129L4.4637 2.97854ZM7.49995 3.93754C7.46127 3.93754 7.42418 3.9529 7.39683 3.98025C7.36948 4.0076 7.35412 4.04469 7.35412 4.08337C7.35412 4.12205 7.36948 4.15914 7.39683 4.18649C7.42418 4.21384 7.46127 4.2292 7.49995 4.2292C7.53863 4.2292 7.57572 4.21384 7.60307 4.18649C7.63042 4.15914 7.64579 4.12205 7.64579 4.08337C7.64579 4.04469 7.63042 4.0076 7.60307 3.98025C7.57572 3.9529 7.53863 3.93754 7.49995 3.93754ZM6.47912 4.08337C6.47912 3.81263 6.58667 3.55298 6.77811 3.36153C6.96956 3.17009 7.22921 3.06254 7.49995 3.06254C7.77069 3.06254 8.03035 3.17009 8.22179 3.36153C8.41323 3.55298 8.52079 3.81263 8.52079 4.08337C8.52079 4.35411 8.41323 4.61377 8.22179 4.80521C8.03035 4.99665 7.77069 5.1042 7.49995 5.1042C7.22921 5.1042 6.96956 4.99665 6.77811 4.80521C6.58667 4.61377 6.47912 4.35411 6.47912 4.08337ZM5.56562 8.42804C6.65412 8.21745 7.81904 8.2647 8.76229 8.82704C8.89412 8.90579 9.01895 9.00437 9.12687 9.1257C9.3462 9.37245 9.45937 9.67812 9.46462 9.98495C9.57604 9.9132 9.68804 9.83329 9.8012 9.74754L10.8559 8.95129C11.12 8.75711 11.4392 8.65239 11.767 8.65239C12.0948 8.65239 12.4141 8.75711 12.6782 8.95129C13.1653 9.31879 13.3601 9.9797 13.0107 10.5397C12.7628 10.937 12.3895 11.487 12.0091 11.8394C11.6241 12.1952 11.0775 12.495 10.664 12.6945C10.1611 12.9372 9.61862 13.0714 9.0907 13.1565C8.01154 13.3315 6.8892 13.3047 5.82287 13.0848C5.27297 12.9716 4.71304 12.9144 4.15162 12.9139H2.83329C2.71725 12.9139 2.60597 12.8678 2.52393 12.7857C2.44188 12.7037 2.39579 12.5924 2.39579 12.4764C2.39579 12.3603 2.44188 12.2491 2.52393 12.167C2.60597 12.085 2.71725 12.0389 2.83329 12.0389H4.15162C4.77112 12.0389 5.39704 12.1036 5.99962 12.2279C6.97155 12.4273 7.97154 12.4492 8.95129 12.2926C9.43429 12.2145 9.88579 12.0984 10.2836 11.9065C10.682 11.714 11.13 11.4608 11.4141 11.1977C11.7017 10.9311 12.0231 10.4697 12.2687 10.0765C12.3428 9.95754 12.3323 9.78662 12.1509 9.64954C11.935 9.4862 11.5985 9.4862 11.3832 9.64954L10.3291 10.4458C9.90795 10.7637 9.38995 11.1038 8.7477 11.2065C8.68042 11.2171 8.61293 11.2264 8.54529 11.2345C8.13656 11.2816 7.724 11.2855 7.31445 11.2461C7.25624 11.2421 7.19941 11.2265 7.14733 11.2002C7.09524 11.1738 7.04895 11.1374 7.01117 11.0929C6.97339 11.0484 6.94489 10.9968 6.92735 10.9412C6.9098 10.8855 6.90357 10.8269 6.90902 10.7688C6.91447 10.7107 6.93149 10.6543 6.95907 10.6029C6.98665 10.5514 7.02425 10.5061 7.06963 10.4694C7.11502 10.4327 7.16729 10.4055 7.22336 10.3893C7.27943 10.3731 7.33817 10.3683 7.39612 10.3752C7.71972 10.4066 8.04563 10.406 8.36912 10.3735L8.38662 10.3717C8.44104 10.3379 8.48729 10.2925 8.52203 10.2387C8.55677 10.1849 8.57913 10.124 8.5875 10.0605C8.59587 9.99699 8.59005 9.93242 8.57044 9.87144C8.55083 9.81046 8.51793 9.7546 8.47412 9.70787C8.42764 9.6567 8.37353 9.61301 8.3137 9.57837C7.62479 9.16712 6.70429 9.09887 5.73187 9.2867C4.78206 9.47778 3.88164 9.86198 3.08645 10.4155C3.03957 10.4487 2.9866 10.4724 2.93056 10.4852C2.87453 10.4979 2.81652 10.4995 2.75986 10.4899C2.70321 10.4803 2.649 10.4596 2.60034 10.429C2.55169 10.3984 2.50953 10.3585 2.47629 10.3116C2.44304 10.2647 2.41935 10.2118 2.40658 10.1557C2.3938 10.0997 2.39219 10.0417 2.40183 9.98503C2.41147 9.92837 2.43218 9.87417 2.46277 9.82551C2.49336 9.77686 2.53324 9.7347 2.58012 9.70145C3.47708 9.07611 4.49344 8.64259 5.56562 8.42804Z"/>
</mask>
<path fill-rule="evenodd" clip-rule="evenodd" d="M8.8562 2.18754H6.1437C6.05768 2.6078 5.85012 2.99354 5.54679 3.29688C5.24346 3.60021 4.85772 3.80777 4.43745 3.89379C4.43728 4.02018 4.43728 4.14657 4.43745 4.27295C4.85772 4.35897 5.24346 4.56653 5.54679 4.86986C5.85012 5.1732 6.05768 5.55894 6.1437 5.9792H8.8562C8.94222 5.55894 9.14978 5.1732 9.45311 4.86986C9.75644 4.56653 10.1422 4.35897 10.5625 4.27295C10.5626 4.14657 10.5626 4.02018 10.5625 3.89379C10.1422 3.80777 9.75644 3.60021 9.45311 3.29688C9.14978 2.99354 8.94222 2.6078 8.8562 2.18754ZM9.20912 1.31429C9.0487 1.31254 8.87837 1.31254 8.69695 1.31254H6.30295C6.12212 1.31254 5.9512 1.31254 5.79137 1.31429C5.75951 1.31142 5.72743 1.312 5.6957 1.31604C5.43203 1.3207 5.19812 1.33179 4.99512 1.3592C4.62879 1.4082 4.29804 1.5167 4.03262 1.78212C3.76662 2.04812 3.65812 2.37887 3.60912 2.74462C3.5817 2.9482 3.57062 3.18212 3.56595 3.44579C3.56196 3.47733 3.56137 3.50921 3.5642 3.54087C3.56245 3.70129 3.56245 3.8722 3.56245 4.05304V4.1137C3.56245 4.29454 3.56245 4.46545 3.5642 4.62587C3.56137 4.65754 3.56196 4.68941 3.56595 4.72095C3.57062 4.9852 3.5817 5.21854 3.60912 5.42154C3.65812 5.78787 3.76662 6.11862 4.03262 6.38404C4.29804 6.65004 4.62879 6.75854 4.99512 6.80754C5.19812 6.83495 5.43203 6.84604 5.6957 6.8507C5.72743 6.8548 5.75951 6.85538 5.79137 6.85245C5.9512 6.8542 6.12212 6.8542 6.30295 6.8542H8.69695C8.87779 6.8542 9.0487 6.8542 9.20912 6.85245C9.24078 6.85535 9.27267 6.85476 9.3042 6.8507C9.56845 6.84604 9.80237 6.83495 10.0048 6.80754C10.3711 6.75854 10.7019 6.65004 10.9673 6.38404C11.2333 6.11862 11.3418 5.78787 11.3908 5.42154C11.4184 5.18902 11.4328 4.95511 11.434 4.72095C11.4379 4.68941 11.4385 4.65754 11.4357 4.62587C11.4375 4.46545 11.4375 4.29454 11.4375 4.1137V4.05304C11.4375 3.8722 11.4375 3.70129 11.4357 3.54087C11.4386 3.50921 11.438 3.47732 11.434 3.44579C11.4327 3.21163 11.4183 2.97774 11.3908 2.7452C11.3418 2.37887 11.2333 2.04812 10.9679 1.7827C10.7019 1.5167 10.3711 1.4082 10.0054 1.3592C9.77265 1.33163 9.53855 1.31721 9.3042 1.31604C9.27266 1.31203 9.24078 1.31144 9.20912 1.31429ZM9.77145 2.2132C9.8375 2.38772 9.93989 2.54621 10.0718 2.67815C10.2038 2.8101 10.3623 2.91249 10.5368 2.97854C10.5331 2.93956 10.5286 2.90066 10.5234 2.86187C10.4878 2.59237 10.4248 2.47687 10.3484 2.40104C10.2725 2.3252 10.1576 2.26279 9.8887 2.22604C9.8499 2.22097 9.81101 2.21669 9.77204 2.2132M10.5374 5.1882C10.3629 5.25425 10.2044 5.35664 10.0724 5.48859C9.94047 5.62053 9.83808 5.77902 9.77204 5.95354C9.81287 5.95004 9.85195 5.94537 9.8887 5.9407C10.1582 5.90395 10.2737 5.84154 10.3495 5.7657C10.4254 5.68987 10.4884 5.57437 10.5245 5.30487C10.5292 5.26812 10.5339 5.22904 10.5374 5.1882ZM5.22904 5.95354C5.16299 5.77902 5.0606 5.62053 4.92865 5.48859C4.79671 5.35664 4.63822 5.25425 4.4637 5.1882C4.46779 5.22904 4.47187 5.26812 4.47712 5.30487C4.51329 5.57437 4.5757 5.68987 4.65212 5.7657C4.72795 5.84154 4.84287 5.90395 5.11179 5.9407C5.14912 5.94537 5.1882 5.95004 5.22904 5.95354ZM4.4637 2.97854C4.63822 2.91249 4.79671 2.8101 4.92865 2.67815C5.0606 2.54621 5.16299 2.38772 5.22904 2.2132C5.1882 2.2167 5.14912 2.22137 5.11237 2.22662C4.84287 2.26279 4.72737 2.3252 4.65154 2.40162C4.5757 2.47745 4.51329 2.59237 4.47654 2.86129L4.4637 2.97854ZM7.49995 3.93754C7.46127 3.93754 7.42418 3.9529 7.39683 3.98025C7.36948 4.0076 7.35412 4.04469 7.35412 4.08337C7.35412 4.12205 7.36948 4.15914 7.39683 4.18649C7.42418 4.21384 7.46127 4.2292 7.49995 4.2292C7.53863 4.2292 7.57572 4.21384 7.60307 4.18649C7.63042 4.15914 7.64579 4.12205 7.64579 4.08337C7.64579 4.04469 7.63042 4.0076 7.60307 3.98025C7.57572 3.9529 7.53863 3.93754 7.49995 3.93754ZM6.47912 4.08337C6.47912 3.81263 6.58667 3.55298 6.77811 3.36153C6.96956 3.17009 7.22921 3.06254 7.49995 3.06254C7.77069 3.06254 8.03035 3.17009 8.22179 3.36153C8.41323 3.55298 8.52079 3.81263 8.52079 4.08337C8.52079 4.35411 8.41323 4.61377 8.22179 4.80521C8.03035 4.99665 7.77069 5.1042 7.49995 5.1042C7.22921 5.1042 6.96956 4.99665 6.77811 4.80521C6.58667 4.61377 6.47912 4.35411 6.47912 4.08337ZM5.56562 8.42804C6.65412 8.21745 7.81904 8.2647 8.76229 8.82704C8.89412 8.90579 9.01895 9.00437 9.12687 9.1257C9.3462 9.37245 9.45937 9.67812 9.46462 9.98495C9.57604 9.9132 9.68804 9.83329 9.8012 9.74754L10.8559 8.95129C11.12 8.75711 11.4392 8.65239 11.767 8.65239C12.0948 8.65239 12.4141 8.75711 12.6782 8.95129C13.1653 9.31879 13.3601 9.9797 13.0107 10.5397C12.7628 10.937 12.3895 11.487 12.0091 11.8394C11.6241 12.1952 11.0775 12.495 10.664 12.6945C10.1611 12.9372 9.61862 13.0714 9.0907 13.1565C8.01154 13.3315 6.8892 13.3047 5.82287 13.0848C5.27297 12.9716 4.71304 12.9144 4.15162 12.9139H2.83329C2.71725 12.9139 2.60597 12.8678 2.52393 12.7857C2.44188 12.7037 2.39579 12.5924 2.39579 12.4764C2.39579 12.3603 2.44188 12.2491 2.52393 12.167C2.60597 12.085 2.71725 12.0389 2.83329 12.0389H4.15162C4.77112 12.0389 5.39704 12.1036 5.99962 12.2279C6.97155 12.4273 7.97154 12.4492 8.95129 12.2926C9.43429 12.2145 9.88579 12.0984 10.2836 11.9065C10.682 11.714 11.13 11.4608 11.4141 11.1977C11.7017 10.9311 12.0231 10.4697 12.2687 10.0765C12.3428 9.95754 12.3323 9.78662 12.1509 9.64954C11.935 9.4862 11.5985 9.4862 11.3832 9.64954L10.3291 10.4458C9.90795 10.7637 9.38995 11.1038 8.7477 11.2065C8.68042 11.2171 8.61293 11.2264 8.54529 11.2345C8.13656 11.2816 7.724 11.2855 7.31445 11.2461C7.25624 11.2421 7.19941 11.2265 7.14733 11.2002C7.09524 11.1738 7.04895 11.1374 7.01117 11.0929C6.97339 11.0484 6.94489 10.9968 6.92735 10.9412C6.9098 10.8855 6.90357 10.8269 6.90902 10.7688C6.91447 10.7107 6.93149 10.6543 6.95907 10.6029C6.98665 10.5514 7.02425 10.5061 7.06963 10.4694C7.11502 10.4327 7.16729 10.4055 7.22336 10.3893C7.27943 10.3731 7.33817 10.3683 7.39612 10.3752C7.71972 10.4066 8.04563 10.406 8.36912 10.3735L8.38662 10.3717C8.44104 10.3379 8.48729 10.2925 8.52203 10.2387C8.55677 10.1849 8.57913 10.124 8.5875 10.0605C8.59587 9.99699 8.59005 9.93242 8.57044 9.87144C8.55083 9.81046 8.51793 9.7546 8.47412 9.70787C8.42764 9.6567 8.37353 9.61301 8.3137 9.57837C7.62479 9.16712 6.70429 9.09887 5.73187 9.2867C4.78206 9.47778 3.88164 9.86198 3.08645 10.4155C3.03957 10.4487 2.9866 10.4724 2.93056 10.4852C2.87453 10.4979 2.81652 10.4995 2.75986 10.4899C2.70321 10.4803 2.649 10.4596 2.60034 10.429C2.55169 10.3984 2.50953 10.3585 2.47629 10.3116C2.44304 10.2647 2.41935 10.2118 2.40658 10.1557C2.3938 10.0997 2.39219 10.0417 2.40183 9.98503C2.41147 9.92837 2.43218 9.87417 2.46277 9.82551C2.49336 9.77686 2.53324 9.7347 2.58012 9.70145C3.47708 9.07611 4.49344 8.64259 5.56562 8.42804Z" fill="white"/>
<path d="M8.8562 2.18754L9.05214 2.14743L9.01941 1.98754H8.8562V2.18754ZM6.1437 2.18754V1.98754H5.98049L5.94776 2.14743L6.1437 2.18754ZM4.43745 3.89379L4.39735 3.69785L4.23767 3.73053L4.23745 3.89352L4.43745 3.89379ZM4.43745 4.27295L4.23745 4.27322L4.23767 4.43621L4.39735 4.46889L4.43745 4.27295ZM6.1437 5.9792L5.94776 6.01931L5.98049 6.1792H6.1437V5.9792ZM8.8562 5.9792V6.1792H9.01941L9.05214 6.01931L8.8562 5.9792ZM10.5625 4.27295L10.6026 4.46889L10.7623 4.4362L10.7625 4.27315L10.5625 4.27295ZM10.5625 3.89379L10.7625 3.89359L10.7623 3.73054L10.6026 3.69785L10.5625 3.89379ZM9.20912 1.31429L9.20694 1.51428L9.217 1.51439L9.22702 1.51348L9.20912 1.31429ZM5.79137 1.31429L5.77343 1.51348L5.78347 1.51439L5.79356 1.51428L5.79137 1.31429ZM5.6957 1.31604L5.69924 1.51601L5.71012 1.51581L5.72092 1.51444L5.6957 1.31604ZM4.99512 1.3592L5.02163 1.55744L5.02189 1.5574L4.99512 1.3592ZM3.60912 2.74462L3.80733 2.77131L3.80735 2.77118L3.60912 2.74462ZM3.56595 3.44579L3.76437 3.47092L3.76573 3.46017L3.76592 3.44933L3.56595 3.44579ZM3.5642 3.54087L3.76419 3.54305L3.7643 3.53303L3.76341 3.52305L3.5642 3.54087ZM3.5642 4.62587L3.76341 4.64366L3.7643 4.63369L3.76419 4.62369L3.5642 4.62587ZM3.56595 4.72095L3.76592 4.71742L3.76573 4.70659L3.76437 4.69585L3.56595 4.72095ZM3.60912 5.42154L3.80735 5.39502L3.80732 5.39477L3.60912 5.42154ZM4.03262 6.38404L4.1742 6.24277L4.17388 6.24246L4.03262 6.38404ZM4.99512 6.80754L5.02189 6.60934L5.02163 6.6093L4.99512 6.80754ZM5.6957 6.8507L5.72129 6.65235L5.71031 6.65093L5.69924 6.65074L5.6957 6.8507ZM5.79137 6.85245L5.79356 6.65247L5.78328 6.65235L5.77305 6.6533L5.79137 6.85245ZM9.20912 6.85245L9.22731 6.65328L9.21714 6.65235L9.20694 6.65247L9.20912 6.85245ZM9.3042 6.8507L9.30067 6.65074L9.28964 6.65093L9.27869 6.65234L9.3042 6.8507ZM10.0048 6.80754L9.97827 6.6093L9.97794 6.60935L10.0048 6.80754ZM10.9673 6.38404L10.826 6.24246L10.8257 6.24277L10.9673 6.38404ZM11.3908 5.42154L11.589 5.44806L11.5894 5.44515L11.3908 5.42154ZM11.434 4.72095L11.2355 4.69604L11.234 4.70798L11.234 4.72L11.434 4.72095ZM11.4357 4.62587L11.2357 4.62369L11.2356 4.63359L11.2365 4.64346L11.4357 4.62587ZM11.4357 3.54087L11.2365 3.52268L11.2356 3.53285L11.2357 3.54305L11.4357 3.54087ZM11.434 3.44579L11.234 3.44683L11.234 3.45911L11.2356 3.4713L11.434 3.44579ZM11.3908 2.7452L11.5894 2.72168L11.589 2.71869L11.3908 2.7452ZM10.0054 1.3592L10.0319 1.16095L10.0289 1.16059L10.0054 1.3592ZM9.3042 1.31604L9.27898 1.51444L9.29104 1.51597L9.3032 1.51604L9.3042 1.31604ZM10.5368 2.97854L10.466 3.16559L10.766 3.27913L10.7359 2.95977L10.5368 2.97854ZM10.5234 2.86187L10.3251 2.88805L10.3252 2.8888L10.5234 2.86187ZM10.3484 2.40104L10.2069 2.54246L10.2075 2.543L10.3484 2.40104ZM9.8887 2.22604L9.91578 2.02788L9.9146 2.02772L9.8887 2.22604ZM10.5374 5.1882L10.7366 5.20528L10.7638 4.88867L10.4666 5.00115L10.5374 5.1882ZM9.77204 5.95354L9.58498 5.88275L9.47251 6.17994L9.78912 6.15281L9.77204 5.95354ZM9.8887 5.9407L9.9139 6.13912L9.91572 6.13887L9.8887 5.9407ZM10.5245 5.30487L10.7228 5.33147L10.7229 5.33007L10.5245 5.30487ZM5.22904 5.95354L5.21196 6.15281L5.52857 6.17994L5.41609 5.88275L5.22904 5.95354ZM4.4637 5.1882L4.53449 5.00115L4.23257 4.88689L4.26469 5.2081L4.4637 5.1882ZM4.47712 5.30487L4.67535 5.27827L4.67511 5.27659L4.47712 5.30487ZM4.65212 5.7657L4.79354 5.62428L4.793 5.62374L4.65212 5.7657ZM5.11179 5.9407L5.0847 6.13888L5.08698 6.13916L5.11179 5.9407ZM4.4637 2.97854L4.26489 2.95678L4.2294 3.28106L4.53449 3.16559L4.4637 2.97854ZM5.22904 2.2132L5.41609 2.284L5.52857 1.9868L5.21196 2.01393L5.22904 2.2132ZM5.11237 2.22662L5.13897 2.42485L5.14065 2.42461L5.11237 2.22662ZM4.65154 2.40162L4.79296 2.54304L4.7935 2.5425L4.65154 2.40162ZM4.47654 2.86129L4.27831 2.8342L4.27772 2.83953L4.47654 2.86129ZM6.47912 4.08337H6.67912H6.47912ZM5.56562 8.42804L5.52763 8.23167L5.52637 8.23193L5.56562 8.42804ZM8.76229 8.82704L8.86485 8.65534L8.8647 8.65525L8.76229 8.82704ZM9.12687 9.1257L9.27635 8.99283L9.27631 8.99279L9.12687 9.1257ZM9.46462 9.98495L9.26465 9.98838L9.2708 10.3477L9.5729 10.1531L9.46462 9.98495ZM9.8012 9.74754L9.68069 9.58792L9.68041 9.58813L9.8012 9.74754ZM10.8559 8.95129L10.7374 8.79014L10.7354 8.79167L10.8559 8.95129ZM11.767 8.65239V8.85239V8.65239ZM12.6782 8.95129L12.7987 8.79162L12.7967 8.79015L12.6782 8.95129ZM13.0107 10.5397L13.1804 10.6456L13.1804 10.6456L13.0107 10.5397ZM12.0091 11.8394L12.1449 11.9862L12.145 11.9861L12.0091 11.8394ZM10.664 12.6945L10.5771 12.5144L10.577 12.5144L10.664 12.6945ZM9.0907 13.1565L9.05885 12.9591L9.05869 12.9591L9.0907 13.1565ZM5.82287 13.0848L5.86327 12.8889L5.86318 12.8889L5.82287 13.0848ZM4.15162 12.9139L4.15179 12.7139H4.15162V12.9139ZM5.99962 12.2279L5.95923 12.4237L5.95942 12.4238L5.99962 12.2279ZM8.95129 12.2926L8.98286 12.4901L8.98324 12.4901L8.95129 12.2926ZM10.2836 11.9065L10.3705 12.0866L10.3706 12.0865L10.2836 11.9065ZM11.4141 11.1977L11.55 11.3444L11.5501 11.3444L11.4141 11.1977ZM12.2687 10.0765L12.4383 10.1825L12.4385 10.1822L12.2687 10.0765ZM12.1509 9.64954L12.0302 9.80902L12.0303 9.80911L12.1509 9.64954ZM11.3832 9.64954L11.5038 9.80912L11.5041 9.80886L11.3832 9.64954ZM10.3291 10.4458L10.4496 10.6054L10.4497 10.6054L10.3291 10.4458ZM8.7477 11.2065L8.779 11.404L8.77927 11.4039L8.7477 11.2065ZM8.54529 11.2345L8.56821 11.4331L8.56879 11.4331L8.54529 11.2345ZM7.31445 11.2461L7.33361 11.047L7.32824 11.0466L7.31445 11.2461ZM7.39612 10.3752L7.37257 10.5739L7.37678 10.5743L7.39612 10.3752ZM8.36912 10.3735L8.34922 10.1744L8.34907 10.1745L8.36912 10.3735ZM8.38662 10.3717L8.40652 10.5707L8.45267 10.5661L8.49208 10.5416L8.38662 10.3717ZM8.47412 9.70787L8.32605 9.84236L8.32823 9.84468L8.47412 9.70787ZM8.3137 9.57837L8.21118 9.75012L8.21348 9.75145L8.3137 9.57837ZM5.73187 9.2867L5.69394 9.09033L5.69242 9.09063L5.73187 9.2867ZM3.08645 10.4155L2.97219 10.2513L2.97076 10.2523L3.08645 10.4155ZM2.58012 9.70145L2.46573 9.53739L2.46443 9.53831L2.58012 9.70145ZM8.8562 1.98754H6.1437V2.38754H8.8562V1.98754ZM5.94776 2.14743C5.8696 2.52931 5.681 2.87983 5.40537 3.15546L5.68821 3.4383C6.01925 3.10726 6.24577 2.68629 6.33964 2.22764L5.94776 2.14743ZM5.40537 3.15546C5.12974 3.43108 4.77923 3.61969 4.39735 3.69785L4.47756 4.08973C4.9362 3.99585 5.35718 3.76933 5.68821 3.4383L5.40537 3.15546ZM4.23745 3.89352C4.23728 4.02009 4.23728 4.14665 4.23745 4.27322L4.63745 4.27269C4.63728 4.14648 4.63728 4.02027 4.63745 3.89405L4.23745 3.89352ZM4.39735 4.46889C4.77923 4.54705 5.12974 4.73566 5.40537 5.01129L5.68821 4.72844C5.35718 4.39741 4.9362 4.17089 4.47756 4.07702L4.39735 4.46889ZM5.40537 5.01129C5.681 5.28691 5.8696 5.63743 5.94776 6.01931L6.33964 5.9391C6.24577 5.48045 6.01925 5.05948 5.68821 4.72844L5.40537 5.01129ZM6.1437 6.1792H8.8562V5.7792H6.1437V6.1792ZM9.05214 6.01931C9.1303 5.63743 9.31891 5.28691 9.59453 5.01129L9.31169 4.72844C8.98066 5.05948 8.75414 5.48045 8.66026 5.9391L9.05214 6.01931ZM9.59453 5.01129C9.87016 4.73566 10.2207 4.54705 10.6026 4.46889L10.5223 4.07702C10.0637 4.17089 9.64273 4.39741 9.31169 4.72844L9.59453 5.01129ZM10.7625 4.27315C10.7626 4.14663 10.7626 4.02011 10.7625 3.89359L10.3625 3.89398C10.3626 4.02024 10.3626 4.1465 10.3625 4.27276L10.7625 4.27315ZM10.6026 3.69785C10.2207 3.61969 9.87016 3.43108 9.59453 3.15546L9.31169 3.4383C9.64273 3.76933 10.0637 3.99585 10.5223 4.08973L10.6026 3.69785ZM9.59453 3.15546C9.31891 2.87983 9.1303 2.52931 9.05214 2.14743L8.66026 2.22764C8.75414 2.68629 8.98066 3.10726 9.31169 3.4383L9.59453 3.15546ZM9.2113 1.1143C9.04959 1.11254 8.87812 1.11254 8.69695 1.11254V1.51254C8.87862 1.51254 9.04781 1.51254 9.20694 1.51428L9.2113 1.1143ZM8.69695 1.11254H6.30295V1.51254H8.69695V1.11254ZM6.30295 1.11254C6.12237 1.11254 5.95031 1.11254 5.78918 1.1143L5.79356 1.51428C5.95209 1.51254 6.12187 1.51254 6.30295 1.51254V1.11254ZM5.80931 1.11509C5.76308 1.11093 5.71653 1.11178 5.67049 1.11763L5.72092 1.51444C5.73833 1.51223 5.75594 1.51191 5.77343 1.51348L5.80931 1.11509ZM5.69216 1.11607C5.42627 1.12078 5.18308 1.132 4.96835 1.161L5.02189 1.5574C5.21316 1.53157 5.4378 1.52063 5.69924 1.51601L5.69216 1.11607ZM4.9686 1.16097C4.58007 1.21294 4.20002 1.33188 3.8912 1.6407L4.17404 1.92354C4.39605 1.70153 4.6775 1.60347 5.02163 1.55744L4.9686 1.16097ZM3.8912 1.6407C3.58185 1.95005 3.46287 2.33004 3.41089 2.71806L3.80735 2.77118C3.85336 2.4277 3.95139 2.14619 4.17404 1.92354L3.8912 1.6407ZM3.41091 2.71793C3.38192 2.93318 3.37069 3.17633 3.36598 3.44225L3.76592 3.44933C3.77055 3.18791 3.78148 2.96322 3.80733 2.77131L3.41091 2.71793ZM3.36754 3.42065C3.36174 3.46644 3.36089 3.51272 3.365 3.55869L3.76341 3.52305C3.76185 3.50569 3.76218 3.48822 3.76437 3.47092L3.36754 3.42065ZM3.36421 3.53869C3.36245 3.7004 3.36245 3.87245 3.36245 4.05304H3.76245C3.76245 3.87196 3.76245 3.70218 3.76419 3.54305L3.36421 3.53869ZM3.36245 4.05304V4.1137H3.76245V4.05304H3.36245ZM3.36245 4.1137C3.36245 4.29429 3.36245 4.46634 3.36421 4.62805L3.76419 4.62369C3.76245 4.46457 3.76245 4.29479 3.76245 4.1137H3.36245ZM3.36499 4.60808C3.36089 4.65403 3.36174 4.70029 3.36753 4.74606L3.76437 4.69585C3.76218 4.67854 3.76186 4.66104 3.76341 4.64366L3.36499 4.60808ZM3.36598 4.72449C3.37069 4.99099 3.38192 5.23358 3.41092 5.44831L3.80732 5.39477C3.78149 5.20349 3.77055 4.97942 3.76592 4.71742L3.36598 4.72449ZM3.41088 5.44805C3.46286 5.8366 3.58182 6.21676 3.89135 6.52561L4.17388 6.24246C3.95142 6.02048 3.85338 5.73914 3.80735 5.39502L3.41088 5.44805ZM3.89104 6.5253C4.1999 6.83484 4.58005 6.9538 4.9686 7.00577L5.02163 6.6093C4.67752 6.56327 4.39617 6.46524 4.1742 6.24277L3.89104 6.5253ZM4.96835 7.00574C5.18308 7.03474 5.42627 7.04597 5.69216 7.05067L5.69924 6.65074C5.4378 6.64611 5.21316 6.63517 5.02189 6.60934L4.96835 7.00574ZM5.67011 7.04906C5.7164 7.05503 5.76321 7.05589 5.80969 7.05161L5.77305 6.6533C5.75581 6.65488 5.73846 6.65456 5.72129 6.65235L5.67011 7.04906ZM5.78918 7.05244C5.95031 7.05421 6.12237 7.0542 6.30295 7.0542V6.6542C6.12187 6.6542 5.95209 6.6542 5.79356 6.65247L5.78918 7.05244ZM6.30295 7.0542H8.69695V6.6542H6.30295V7.0542ZM8.69695 7.0542C8.87754 7.0542 9.04959 7.05421 9.2113 7.05244L9.20694 6.65247C9.04781 6.6542 8.87803 6.6542 8.69695 6.6542V7.0542ZM9.19093 7.05163C9.23714 7.05585 9.28368 7.05499 9.32971 7.04907L9.27869 6.65234C9.26165 6.65453 9.24442 6.65485 9.22731 6.65328L9.19093 7.05163ZM9.30773 7.05067C9.57418 7.04597 9.81742 7.03474 10.0316 7.00573L9.97794 6.60935C9.78731 6.63517 9.56272 6.64611 9.30067 6.65074L9.30773 7.05067ZM10.0313 7.00577C10.4199 6.9538 10.8 6.83484 11.1089 6.5253L10.8257 6.24277C10.6037 6.46524 10.3224 6.56327 9.97827 6.6093L10.0313 7.00577ZM11.1086 6.52561C11.4181 6.21676 11.537 5.8366 11.589 5.44805L11.1926 5.39502C11.1465 5.73914 11.0485 6.02048 10.826 6.24246L11.1086 6.52561ZM11.5894 5.44515C11.6179 5.2051 11.6328 4.96363 11.6339 4.7219L11.234 4.72C11.2329 4.94659 11.2189 5.17293 11.1922 5.39793L11.5894 5.44515ZM11.6324 4.74587C11.6381 4.70022 11.639 4.6541 11.6349 4.60828L11.2365 4.64346C11.238 4.66097 11.2377 4.6786 11.2355 4.69604L11.6324 4.74587ZM11.6357 4.62805C11.6375 4.46634 11.6375 4.29429 11.6375 4.1137H11.2375C11.2375 4.29479 11.2374 4.46457 11.2357 4.62369L11.6357 4.62805ZM11.6375 4.1137V4.05304H11.2375V4.1137H11.6375ZM11.6375 4.05304C11.6375 3.87245 11.6375 3.7004 11.6357 3.53869L11.2357 3.54305C11.2374 3.70218 11.2375 3.87196 11.2375 4.05304H11.6375ZM11.6349 3.55906C11.6391 3.51285 11.6382 3.46631 11.6323 3.42028L11.2356 3.4713C11.2378 3.48834 11.2381 3.50557 11.2365 3.52268L11.6349 3.55906ZM11.6339 3.44475C11.6327 3.20308 11.6178 2.96168 11.5894 2.72168L11.1922 2.76873C11.2188 2.99379 11.2328 3.22019 11.234 3.44683L11.6339 3.44475ZM11.589 2.71869C11.5371 2.33016 11.4181 1.9501 11.1093 1.64128L10.8264 1.92413C11.0485 2.14614 11.1465 2.42758 11.1926 2.77172L11.589 2.71869ZM11.1093 1.64128C10.7999 1.33194 10.42 1.21296 10.0319 1.16098L9.97881 1.55743C10.3223 1.60345 10.6038 1.70147 10.8264 1.92413L11.1093 1.64128ZM10.0289 1.16059C9.7887 1.13213 9.54709 1.11726 9.30521 1.11604L9.3032 1.51604C9.53002 1.51717 9.75659 1.53112 9.98183 1.55781L10.0289 1.16059ZM9.32942 1.11763C9.28358 1.11181 9.23724 1.11095 9.19122 1.11509L9.22702 1.51348C9.24433 1.51193 9.26175 1.51225 9.27898 1.51444L9.32942 1.11763ZM9.5844 2.284C9.66048 2.48503 9.77843 2.66759 9.93042 2.81957L10.2133 2.53673C10.1014 2.42483 10.0145 2.29042 9.9585 2.14241L9.5844 2.284ZM9.93042 2.81957C10.0824 2.97156 10.265 3.08951 10.466 3.16559L10.6076 2.79149C10.4596 2.73547 10.3252 2.64863 10.2133 2.53673L9.93042 2.81957ZM10.7359 2.95977C10.732 2.91807 10.7272 2.87645 10.7215 2.83494L10.3252 2.8888C10.3301 2.92487 10.3343 2.96105 10.3377 2.9973L10.7359 2.95977ZM10.7216 2.83569C10.6831 2.54339 10.6094 2.37833 10.4892 2.25908L10.2075 2.543C10.2402 2.57541 10.2925 2.64135 10.3251 2.88805L10.7216 2.83569ZM10.4898 2.25962C10.3708 2.14061 10.2069 2.06766 9.91578 2.02788L9.86162 2.4242C10.1084 2.45792 10.1743 2.5098 10.2069 2.54246L10.4898 2.25962ZM9.9146 2.02772C9.87312 2.0223 9.83153 2.01773 9.78986 2.014L9.75421 2.41241C9.79048 2.41565 9.82669 2.41964 9.8628 2.42435L9.9146 2.02772ZM10.4666 5.00115C10.2655 5.07723 10.083 5.19518 9.931 5.34717L10.2138 5.63001C10.3257 5.51811 10.4602 5.43127 10.6082 5.37526L10.4666 5.00115ZM9.931 5.34717C9.77901 5.49916 9.66106 5.68172 9.58498 5.88275L9.95909 6.02433C10.0151 5.87632 10.1019 5.74191 10.2138 5.63001L9.931 5.34717ZM9.78912 6.15281C9.83402 6.14896 9.87626 6.14389 9.9139 6.13911L9.86351 5.7423C9.82764 5.74685 9.79172 5.75112 9.75496 5.75427L9.78912 6.15281ZM9.91572 6.13887C10.2071 6.09914 10.3718 6.02629 10.491 5.90713L10.2081 5.62428C10.1756 5.65678 10.1093 5.70877 9.86168 5.74254L9.91572 6.13887ZM10.491 5.90713C10.6099 5.78815 10.6835 5.62365 10.7228 5.33147L10.3263 5.27827C10.2932 5.52509 10.2408 5.59159 10.2081 5.62428L10.491 5.90713ZM10.7229 5.33007C10.7277 5.29244 10.7328 5.25019 10.7366 5.20528L10.3381 5.17112C10.3349 5.20789 10.3307 5.24381 10.3261 5.27968L10.7229 5.33007ZM5.41609 5.88275C5.34001 5.68172 5.22206 5.49916 5.07007 5.34717L4.78723 5.63001C4.89913 5.74191 4.98597 5.87632 5.04198 6.02433L5.41609 5.88275ZM5.07007 5.34717C4.91808 5.19518 4.73552 5.07723 4.53449 5.00115L4.39291 5.37526C4.54092 5.43127 4.67533 5.51811 4.78723 5.63001L5.07007 5.34717ZM4.26469 5.2081C4.26877 5.24888 4.27322 5.29176 4.27913 5.33316L4.67511 5.27659C4.67052 5.24448 4.6668 5.20919 4.66271 5.1683L4.26469 5.2081ZM4.2789 5.33147C4.31802 5.62298 4.39088 5.78822 4.51124 5.90767L4.793 5.62374C4.76053 5.59152 4.70856 5.52577 4.67534 5.27827L4.2789 5.33147ZM4.5107 5.90713C4.6297 6.02613 4.79362 6.09908 5.08471 6.13886L5.13887 5.74255C4.89212 5.70883 4.8262 5.65695 4.79354 5.62428L4.5107 5.90713ZM5.08698 6.13916C5.12486 6.14389 5.16709 6.14896 5.21196 6.15281L5.24612 5.75427C5.20931 5.75111 5.17338 5.74685 5.13659 5.74225L5.08698 6.13916ZM4.53449 3.16559C4.73552 3.08951 4.91808 2.97156 5.07007 2.81957L4.78723 2.53673C4.67533 2.64863 4.54092 2.73547 4.39291 2.79149L4.53449 3.16559ZM5.07007 2.81957C5.22206 2.66759 5.34001 2.48503 5.41609 2.284L5.04198 2.14241C4.98597 2.29042 4.89913 2.42483 4.78723 2.53673L5.07007 2.81957ZM5.21196 2.01393C5.16689 2.0178 5.12404 2.02292 5.08408 2.02863L5.14065 2.42461C5.1742 2.41982 5.20951 2.41561 5.24612 2.41247L5.21196 2.01393ZM5.08577 2.0284C4.79426 2.06752 4.62902 2.14038 4.50957 2.26074L4.7935 2.5425C4.82572 2.51003 4.89147 2.45806 5.13897 2.42484L5.08577 2.0284ZM4.51011 2.2602C4.39111 2.3792 4.31816 2.54312 4.27838 2.83421L4.67469 2.88837C4.70841 2.64162 4.76029 2.57571 4.79296 2.54304L4.51011 2.2602ZM4.27772 2.83953L4.26489 2.95678L4.66251 3.0003L4.67535 2.88305L4.27772 2.83953ZM7.49995 3.73754C7.40823 3.73754 7.32027 3.77397 7.25541 3.83883L7.53825 4.12167C7.5281 4.13183 7.51432 4.13754 7.49995 4.13754V3.73754ZM7.25541 3.83883C7.19055 3.90369 7.15412 3.99165 7.15412 4.08337H7.55412C7.55412 4.09774 7.54841 4.11151 7.53825 4.12167L7.25541 3.83883ZM7.15412 4.08337C7.15412 4.17509 7.19055 4.26306 7.25541 4.32791L7.53825 4.04507C7.54841 4.05523 7.55412 4.06901 7.55412 4.08337H7.15412ZM7.25541 4.32791C7.32027 4.39277 7.40823 4.4292 7.49995 4.4292V4.0292C7.51432 4.0292 7.5281 4.03491 7.53825 4.04507L7.25541 4.32791ZM7.49995 4.4292C7.59167 4.4292 7.67964 4.39277 7.74449 4.32791L7.46165 4.04507C7.47181 4.03491 7.48559 4.0292 7.49995 4.0292V4.4292ZM7.74449 4.32791C7.80935 4.26306 7.84579 4.17509 7.84579 4.08337H7.44579C7.44579 4.06901 7.45149 4.05523 7.46165 4.04507L7.74449 4.32791ZM7.84579 4.08337C7.84579 3.99165 7.80935 3.90369 7.74449 3.83883L7.46165 4.12167C7.45149 4.11151 7.44579 4.09774 7.44579 4.08337H7.84579ZM7.74449 3.83883C7.67964 3.77397 7.59167 3.73754 7.49995 3.73754V4.13754C7.48559 4.13754 7.47181 4.13183 7.46165 4.12167L7.74449 3.83883ZM6.67912 4.08337C6.67912 3.86567 6.7656 3.65689 6.91953 3.50295L6.63669 3.22011C6.40774 3.44906 6.27912 3.75959 6.27912 4.08337H6.67912ZM6.91953 3.50295C7.07347 3.34902 7.28225 3.26254 7.49995 3.26254V2.86254C7.17617 2.86254 6.86564 2.99116 6.63669 3.22011L6.91953 3.50295ZM7.49995 3.26254C7.71765 3.26254 7.92643 3.34902 8.08037 3.50295L8.36321 3.22011C8.13426 2.99116 7.82374 2.86254 7.49995 2.86254V3.26254ZM8.08037 3.50295C8.23431 3.65689 8.32079 3.86567 8.32079 4.08337H8.72079C8.72079 3.75959 8.59216 3.44906 8.36321 3.22011L8.08037 3.50295ZM8.32079 4.08337C8.32079 4.30107 8.23431 4.50985 8.08037 4.66379L8.36321 4.94663C8.59216 4.71768 8.72079 4.40716 8.72079 4.08337H8.32079ZM8.08037 4.66379C7.92643 4.81772 7.71765 4.9042 7.49995 4.9042V5.3042C7.82374 5.3042 8.13426 5.17558 8.36321 4.94663L8.08037 4.66379ZM7.49995 4.9042C7.28225 4.9042 7.07347 4.81772 6.91953 4.66379L6.63669 4.94663C6.86564 5.17558 7.17617 5.3042 7.49995 5.3042V4.9042ZM6.91953 4.66379C6.7656 4.50985 6.67912 4.30107 6.67912 4.08337H6.27912C6.27912 4.40716 6.40774 4.71768 6.63669 4.94663L6.91953 4.66379ZM5.60361 8.6244C6.6657 8.41892 7.77464 8.47108 8.65987 8.99883L8.8647 8.65525C7.86343 8.05832 6.64254 8.01599 5.52763 8.23168L5.60361 8.6244ZM8.65972 8.99874C8.77627 9.06836 8.88469 9.15436 8.97743 9.25862L9.27631 8.99279C9.15321 8.85439 9.01197 8.74322 8.86485 8.65534L8.65972 8.99874ZM8.97739 9.25858C9.16448 9.46906 9.2602 9.72861 9.26465 9.98838L9.66459 9.98153C9.65853 9.62763 9.52792 9.27585 9.27635 8.99283L8.97739 9.25858ZM9.5729 10.1531C9.68972 10.0779 9.806 9.99483 9.92199 9.90694L9.68041 9.58813C9.57007 9.67174 9.46235 9.74854 9.35633 9.8168L9.5729 10.1531ZM9.92171 9.90716L10.9764 9.11091L10.7354 8.79167L9.68069 9.58792L9.92171 9.90716ZM10.9743 9.11243C11.2041 8.9435 11.4818 8.85239 11.767 8.85239V8.45239C11.3966 8.45239 11.0359 8.57073 10.7374 8.79015L10.9743 9.11243ZM11.767 8.85239C12.0522 8.85239 12.33 8.9435 12.5597 9.11243L12.7967 8.79015C12.4982 8.57073 12.1375 8.45239 11.767 8.45239V8.85239ZM12.5577 9.11094C12.976 9.42653 13.1268 9.97577 12.841 10.4338L13.1804 10.6456C13.5934 9.98364 13.3545 9.21104 12.7987 8.79163L12.5577 9.11094ZM12.841 10.4338C12.5937 10.8301 12.2323 11.36 11.8732 11.6927L12.145 11.9861C12.5466 11.6141 12.9318 11.0439 13.1804 10.6456L12.841 10.4338ZM11.8734 11.6925C11.5111 12.0273 10.9868 12.3167 10.5771 12.5144L10.7508 12.8747C11.1682 12.6733 11.7371 12.3631 12.1449 11.9862L11.8734 11.6925ZM10.577 12.5144C10.0982 12.7455 9.57651 12.8756 9.05885 12.9591L9.12256 13.354C9.66073 13.2672 10.2241 13.1289 10.7509 12.8747L10.577 12.5144ZM9.05869 12.9591C8.00386 13.1302 6.90606 13.104 5.86327 12.8889L5.78247 13.2807C6.87234 13.5054 8.01922 13.5329 9.12272 13.354L9.05869 12.9591ZM5.86318 12.8889C5.30008 12.773 4.7267 12.7144 4.15179 12.7139L4.15145 13.1139C4.69938 13.1143 5.24587 13.1702 5.78255 13.2807L5.86318 12.8889ZM4.15162 12.7139H2.83329V13.1139H4.15162V12.7139ZM2.83329 12.7139C2.7703 12.7139 2.70989 12.6888 2.66535 12.6443L2.3825 12.9272C2.50206 13.0467 2.66421 13.1139 2.83329 13.1139V12.7139ZM2.66535 12.6443C2.62081 12.5998 2.59579 12.5394 2.59579 12.4764H2.19579C2.19579 12.6454 2.26295 12.8076 2.3825 12.9272L2.66535 12.6443ZM2.59579 12.4764C2.59579 12.4134 2.62081 12.353 2.66535 12.3084L2.3825 12.0256C2.26295 12.1451 2.19579 12.3073 2.19579 12.4764H2.59579ZM2.66535 12.3084C2.70989 12.2639 2.7703 12.2389 2.83329 12.2389V11.8389C2.66421 11.8389 2.50206 11.906 2.3825 12.0256L2.66535 12.3084ZM2.83329 12.2389H4.15162V11.8389H2.83329V12.2389ZM4.15162 12.2389C4.75741 12.2389 5.36979 12.3022 5.95923 12.4237L6.04001 12.032C5.42428 11.905 4.78483 11.8389 4.15162 11.8389V12.2389ZM5.95942 12.4238C6.95498 12.6281 7.97929 12.6505 8.98286 12.4901L8.91971 12.0951C7.9638 12.2479 6.98812 12.2265 6.03982 12.032L5.95942 12.4238ZM8.98324 12.4901C9.47633 12.4103 9.94867 12.2901 10.3705 12.0866L10.1967 11.7263C9.8229 11.9067 9.39224 12.0187 8.91933 12.0952L8.98324 12.4901ZM10.3706 12.0865C10.7723 11.8924 11.243 11.6288 11.55 11.3444L11.2782 11.051C11.0171 11.2928 10.5917 11.5355 10.1966 11.7264L10.3706 12.0865ZM11.5501 11.3444C11.8589 11.0581 12.1922 10.5766 12.4383 10.1825L12.0991 9.97058C11.8541 10.3628 11.5445 10.8041 11.2782 11.051L11.5501 11.3444ZM12.4385 10.1822C12.5007 10.0822 12.5289 9.9572 12.5011 9.82785C12.4733 9.69795 12.3931 9.58193 12.2714 9.48997L12.0303 9.80911C12.09 9.85423 12.1058 9.89221 12.1101 9.91179C12.1144 9.93191 12.1107 9.95184 12.0989 9.97084L12.4385 10.1822ZM12.2716 9.49006C11.9844 9.27277 11.5491 9.27257 11.2623 9.49021L11.5041 9.80886C11.6478 9.69984 11.8856 9.69964 12.0302 9.80902L12.2716 9.49006ZM11.2627 9.48995L10.2086 10.2862L10.4497 10.6054L11.5038 9.80912L11.2627 9.48995ZM10.2086 10.2862C9.79311 10.5998 9.30783 10.9144 8.71613 11.009L8.77927 11.4039C9.47208 11.2932 10.0228 10.9276 10.4496 10.6054L10.2086 10.2862ZM8.71641 11.0089C8.65171 11.0192 8.58683 11.0281 8.52178 11.0358L8.56879 11.4331C8.63904 11.4248 8.70913 11.4151 8.779 11.404L8.71641 11.0089ZM8.52236 11.0358C8.12761 11.0813 7.72915 11.0851 7.3336 11.047L7.2953 11.4452C7.71885 11.4859 8.14551 11.4819 8.56821 11.4331L8.52236 11.0358ZM7.32824 11.0466C7.29663 11.0444 7.26579 11.0359 7.23751 11.0216L7.05714 11.3787C7.13304 11.417 7.21584 11.4398 7.30066 11.4456L7.32824 11.0466ZM7.23751 11.0216C7.20924 11.0074 7.18411 10.9876 7.1636 10.9634L6.85874 11.2224C6.91378 11.2872 6.98124 11.3403 7.05714 11.3787L7.23751 11.0216ZM7.1636 10.9634C7.14309 10.9393 7.12762 10.9113 7.1181 10.8811L6.7366 11.0013C6.76216 11.0824 6.80369 11.1576 6.85874 11.2224L7.1636 10.9634ZM7.1181 10.8811C7.10857 10.8508 7.10519 10.819 7.10815 10.7875L6.7099 10.7501C6.70196 10.8348 6.71104 10.9202 6.7366 11.0013L7.1181 10.8811ZM7.10815 10.7875C7.11111 10.7559 7.12034 10.7253 7.13532 10.6974L6.78282 10.5083C6.74263 10.5833 6.71783 10.6655 6.7099 10.7501L7.10815 10.7875ZM7.13532 10.6974C7.15029 10.6695 7.1707 10.6448 7.19534 10.6249L6.94393 10.3138C6.87779 10.3673 6.82302 10.4334 6.78282 10.5083L7.13532 10.6974ZM7.19534 10.6249C7.21998 10.605 7.24835 10.5902 7.27879 10.5815L7.16793 10.1971C7.08623 10.2207 7.01007 10.2604 6.94393 10.3138L7.19534 10.6249ZM7.27879 10.5815C7.30923 10.5727 7.34112 10.5701 7.37257 10.5738L7.41966 10.1766C7.33522 10.1666 7.24963 10.1736 7.16793 10.1971L7.27879 10.5815ZM7.37678 10.5743C7.71348 10.607 8.05259 10.6064 8.38917 10.5724L8.34907 10.1745C8.03868 10.2057 7.72596 10.2063 7.41545 10.1761L7.37678 10.5743ZM8.38902 10.5725L8.40652 10.5707L8.36672 10.1727L8.34922 10.1744L8.38902 10.5725ZM8.49208 10.5416C8.57166 10.4923 8.63928 10.4258 8.69007 10.3471L8.354 10.1302C8.33531 10.1592 8.31043 10.1836 8.28116 10.2018L8.49208 10.5416ZM8.69007 10.3471C8.74086 10.2685 8.77355 10.1795 8.78579 10.0866L8.38922 10.0344C8.38472 10.0685 8.37269 10.1013 8.354 10.1302L8.69007 10.3471ZM8.78579 10.0866C8.79803 9.99379 8.78951 9.89938 8.76084 9.81022L8.38004 9.93267C8.39059 9.96547 8.39372 10.0002 8.38922 10.0344L8.78579 10.0866ZM8.76084 9.81022C8.73217 9.72107 8.68407 9.63938 8.62001 9.57107L8.32823 9.84468C8.35179 9.86981 8.36949 9.89986 8.38004 9.93267L8.76084 9.81022ZM8.62217 9.5734C8.56183 9.50697 8.49159 9.45027 8.41393 9.40529L8.21348 9.75145C8.25547 9.77576 8.29345 9.80642 8.32607 9.84234L8.62217 9.5734ZM8.41622 9.40664C7.66928 8.96076 6.69278 8.8974 5.69394 9.09033L5.7698 9.48307C6.71579 9.30035 7.58029 9.37348 8.21119 9.7501L8.41622 9.40664ZM5.69242 9.09063C4.71575 9.28712 3.78987 9.68217 2.9722 10.2513L3.20071 10.5796C3.9734 10.0418 4.84836 9.66845 5.77131 9.48278L5.69242 9.09063ZM2.97076 10.2523C2.9453 10.2704 2.91654 10.2832 2.88611 10.2902L2.97502 10.6802C3.05666 10.6615 3.13384 10.627 3.20214 10.5786L2.97076 10.2523ZM2.88611 10.2902C2.85568 10.2971 2.82418 10.298 2.79342 10.2927L2.72631 10.6871C2.80886 10.7011 2.89337 10.6988 2.97502 10.6802L2.88611 10.2902ZM2.79342 10.2927C2.76265 10.2875 2.73321 10.2763 2.70679 10.2597L2.49389 10.5983C2.56479 10.6429 2.64376 10.673 2.72631 10.6871L2.79342 10.2927ZM2.70679 10.2597C2.68037 10.243 2.65748 10.2214 2.63943 10.1959L2.31314 10.4273C2.36158 10.4956 2.423 10.5537 2.49389 10.5983L2.70679 10.2597ZM2.63943 10.1959C2.62137 10.1705 2.60851 10.1417 2.60157 10.1113L2.21158 10.2002C2.23019 10.2818 2.2647 10.359 2.31314 10.4273L2.63943 10.1959ZM2.60157 10.1113C2.59464 10.0808 2.59376 10.0494 2.599 10.0186L2.20467 9.95148C2.19062 10.034 2.19297 10.1185 2.21158 10.2002L2.60157 10.1113ZM2.599 10.0186C2.60423 9.98782 2.61548 9.95838 2.63209 9.93196L2.29345 9.71906C2.24889 9.78995 2.21871 9.86893 2.20467 9.95148L2.599 10.0186ZM2.63209 9.93196C2.6487 9.90554 2.67035 9.88265 2.69581 9.8646L2.46443 9.53831C2.39612 9.58675 2.33802 9.64817 2.29345 9.71906L2.63209 9.93196ZM2.6945 9.86552C3.56889 9.25591 4.55967 8.83331 5.60486 8.62415L5.52637 8.23193C4.42721 8.45188 3.38527 8.89631 2.46574 9.53739L2.6945 9.86552Z" fill="#0178D4" mask="url(#path-1-inside-1_2438_15852)"/>
</svg>
