<svg width="80" height="80" viewBox="0 0 80 80" fill="none" xmlns="http://www.w3.org/2000/svg">
<path d="M52.5 52.5H65V65H52.5V52.5ZM42.5 42.5H52.5V52.5H42.5V42.5ZM65 65H75V75H65V65ZM67.5 42.5H75V50H67.5V42.5ZM42.5 67.5H50V75H42.5V67.5ZM52.5 15H65V27.5H52.5V15Z" fill="#747475"/>
<path d="M75 37.5H42.5V5H75V37.5ZM49.375 30.625H68.125V11.875H49.375V30.625ZM15 15H27.5V27.5H15V15Z" fill="#747475"/>
<path d="M37.5 37.5H5V5H37.5V37.5ZM11.875 30.625H30.625V11.875H11.875V30.625ZM15 52.5H27.5V65H15V52.5Z" fill="#747475"/>
<path d="M37.5 75H5V42.5H37.5V75ZM11.875 68.125H30.625V49.375H11.875V68.125Z" fill="#747475"/>
</svg>
