<svg width="99" height="98" viewBox="0 0 99 98" fill="none" xmlns="http://www.w3.org/2000/svg">
<path fill-rule="evenodd" clip-rule="evenodd" d="M43.2571 0.268795C31.9594 1.74456 21.8477 6.88703 13.9241 15.1867C7.0654 22.3708 2.52076 31.5263 0.943926 41.336C0.451941 44.3961 0.345121 51.6535 0.743686 54.9314C2.60519 70.2408 11.495 83.6745 24.9836 91.5613C29.8751 94.4213 35.4814 96.4239 41.5237 97.4698C44.849 98.0452 51.9039 98.1804 55.4361 97.7361C76.5235 95.0844 93.4173 79.4399 97.6275 58.6653C98.5215 54.2535 98.7629 47.4897 98.1911 42.8698C95.449 20.7152 77.7515 3.01313 55.6026 0.270327C52.6976 -0.0894699 46.0057 -0.0902358 43.2571 0.268795ZM55.0303 6.6046C70.4431 8.54394 84.0631 19.3783 89.5448 34.0597C92.5099 42.0016 93.0105 51.2593 90.9179 59.4586C87.0975 74.4284 75.5406 86.1818 60.6195 90.2723C52.1362 92.5978 42.4887 92.1163 34.2494 88.9556C21.5024 84.0657 11.6675 73.1135 8.13762 59.8774C6.31058 53.027 6.31058 44.9637 8.13762 38.1134C10.1383 30.6107 14.1806 23.723 19.736 18.3502C29.2462 9.15267 41.8765 4.94941 55.0303 6.6046ZM69.4835 30.8324C69.2729 30.9467 62.6183 37.5138 54.6956 45.4263L40.2906 59.8125L35.0737 54.6156C32.2043 51.7573 29.6685 49.3234 29.4386 49.207C29.2085 49.0905 28.5624 48.9958 28.0029 48.9961C26.1343 48.9975 24.9773 50.1548 24.9759 52.0239C24.9755 52.5836 25.0703 53.2298 25.1867 53.46C25.4878 54.0553 38.1736 66.7721 38.7967 67.1032C39.4095 67.4287 41.0985 67.4657 41.6904 67.1664C42.2842 66.8663 73.3748 35.7958 73.7073 35.1703C73.8585 34.8857 73.9818 34.1964 73.9814 33.6384C73.9801 31.7536 72.8204 30.6103 70.9192 30.6195C70.3402 30.6224 69.6941 30.7181 69.4835 30.8324Z" fill="url(#paint0_linear_2113_53395)"/>
<defs>
<linearGradient id="paint0_linear_2113_53395" x1="49.5" y1="0" x2="49.5" y2="98" gradientUnits="userSpaceOnUse">
<stop stop-color="#30BE3E" stop-opacity="0.78"/>
<stop offset="1" stop-color="#1E9F52"/>
</linearGradient>
</defs>
</svg>
