<svg width="17" height="17" viewBox="0 0 17 17" fill="none" xmlns="http://www.w3.org/2000/svg">
<path d="M14.1834 3.81392L12.4469 4.30398C12.2765 3.81392 12.035 3.37003 11.7225 2.9723C11.41 2.57457 11.0016 2.25852 10.4973 2.02415C10.0002 1.78977 9.38228 1.67259 8.64364 1.67259C7.53569 1.67259 6.6266 1.93537 5.91637 2.46094C5.20614 2.98651 4.85103 3.66477 4.85103 4.49574C4.85103 5.19886 5.09251 5.7706 5.57546 6.21094C6.06552 6.64418 6.81836 6.98864 7.83398 7.24432L10.3056 7.85156C11.6763 8.18537 12.7026 8.71449 13.3844 9.43892C14.0733 10.1634 14.4178 11.0724 14.4178 12.1662C14.4178 13.0895 14.1621 13.9098 13.6507 14.6271C13.1394 15.3445 12.4256 15.9091 11.5094 16.321C10.6003 16.7259 9.54563 16.9283 8.34535 16.9283C6.74734 16.9283 5.42987 16.5696 4.39293 15.8523C3.356 15.1278 2.69194 14.0838 2.40075 12.7202L4.22248 12.2727C4.45685 13.2457 4.91495 13.9808 5.59677 14.478C6.28569 14.9751 7.19123 15.2237 8.31339 15.2237C9.57049 15.2237 10.5755 14.9432 11.3283 14.3821C12.0811 13.8139 12.4576 13.1037 12.4576 12.2514C12.4576 11.5909 12.2374 11.0369 11.7971 10.5895C11.3567 10.1349 10.6891 9.80114 9.79421 9.58807L7.12021 8.94886C5.69975 8.60795 4.64861 8.06818 3.9668 7.32955C3.28498 6.59091 2.94407 5.67472 2.94407 4.58097C2.94407 3.67898 3.1891 2.88707 3.67915 2.20526C4.16921 1.51634 4.84393 0.976562 5.7033 0.585938C6.56268 0.195312 7.54279 0 8.64364 0C10.1422 0 11.339 0.340909 12.2338 1.02273C13.1358 1.69744 13.7857 2.62784 14.1834 3.81392Z" fill="#747475"/>
<path d="M0.685547 6.76491H16.0691V8.81037H0.685547V6.76491Z" fill="#747475"/>
</svg>
