<svg width="16" height="16" viewBox="0 0 16 16" fill="none" xmlns="http://www.w3.org/2000/svg">
<path d="M7.99988 7.99879C8.84146 7.99879 9.52369 7.31656 9.52369 6.47498C9.52369 5.6334 8.84146 4.95117 7.99988 4.95117C7.15831 4.95117 6.47607 5.6334 6.47607 6.47498C6.47607 7.31656 7.15831 7.99879 7.99988 7.99879Z" stroke="#747475" stroke-width="0.8" stroke-linecap="round" stroke-linejoin="round"/>
<path d="M2.6665 4.95173H3.42841V4.18983C3.42841 3.78569 3.58895 3.3981 3.87472 3.11233C4.16049 2.82656 4.54808 2.66602 4.95222 2.66602H11.0475C11.4516 2.66602 11.8392 2.82656 12.125 3.11233C12.4107 3.3981 12.5713 3.78569 12.5713 4.18983V11.8089C12.5713 12.213 12.4107 12.6006 12.125 12.8864C11.8392 13.1721 11.4516 13.3327 11.0475 13.3327H4.95222C4.54808 13.3327 4.16049 13.1721 3.87472 12.8864C3.58895 12.6006 3.42841 12.213 3.42841 11.8089V11.047H2.6665M2.6665 7.99935H3.42841M2.6665 6.47554H3.42841M2.6665 9.52316H3.42841" stroke="#747475" stroke-width="0.8" stroke-linecap="round" stroke-linejoin="round"/>
<path fill-rule="evenodd" clip-rule="evenodd" d="M10.2858 10.2857V9.52381C10.2858 9.11967 10.1252 8.73208 9.83947 8.44631C9.5537 8.16054 9.16611 8 8.76197 8H7.23817C6.83403 8 6.44644 8.16054 6.16067 8.44631C5.8749 8.73208 5.71436 9.11967 5.71436 9.52381V10.2857C5.71436 10.4878 5.79463 10.6816 5.93751 10.8245C6.0804 10.9673 6.27419 11.0476 6.47626 11.0476H9.52388C9.72595 11.0476 9.91974 10.9673 10.0626 10.8245C10.2055 10.6816 10.2858 10.4878 10.2858 10.2857Z" stroke="#747475" stroke-width="0.8" stroke-linecap="round" stroke-linejoin="round"/>
</svg>
