<svg width="30" height="30" viewBox="0 0 30 30" fill="none" xmlns="http://www.w3.org/2000/svg">
<path d="M28.125 14.0625H20.625V9.375H25.6153C25.8026 9.375 25.9857 9.43114 26.1409 9.53619C26.296 9.64123 26.4161 9.79035 26.4857 9.96432L28.125 14.0625Z" stroke="#242424" stroke-width="1.4" stroke-linecap="round" stroke-linejoin="round"/>
<path d="M1.875 16.875H20.625" stroke="#242424" stroke-width="1.4" stroke-linecap="round" stroke-linejoin="round"/>
<path d="M22.0312 25.3125C23.5846 25.3125 24.8438 24.0533 24.8438 22.5C24.8438 20.9467 23.5846 19.6875 22.0312 19.6875C20.4779 19.6875 19.2188 20.9467 19.2188 22.5C19.2188 24.0533 20.4779 25.3125 22.0312 25.3125Z" stroke="#242424" stroke-width="1.4" stroke-miterlimit="10"/>
<path d="M7.96875 25.3125C9.52205 25.3125 10.7812 24.0533 10.7812 22.5C10.7812 20.9467 9.52205 19.6875 7.96875 19.6875C6.41545 19.6875 5.15625 20.9467 5.15625 22.5C5.15625 24.0533 6.41545 25.3125 7.96875 25.3125Z" stroke="#242424" stroke-width="1.4" stroke-miterlimit="10"/>
<path d="M19.2188 22.5H10.7812" stroke="#242424" stroke-width="1.4" stroke-linecap="round" stroke-linejoin="round"/>
<path d="M5.15625 22.5H2.8125C2.56386 22.5 2.3254 22.4012 2.14959 22.2254C1.97377 22.0496 1.875 21.8111 1.875 21.5625V8.4375C1.875 8.18886 1.97377 7.9504 2.14959 7.77459C2.3254 7.59877 2.56386 7.5 2.8125 7.5H20.625V20.0643" stroke="#242424" stroke-width="1.4" stroke-linecap="round" stroke-linejoin="round"/>
<path d="M20.625 20.0643V14.0625H28.125V21.5625C28.125 21.8111 28.0262 22.0496 27.8504 22.2254C27.6746 22.4012 27.4361 22.5 27.1875 22.5H24.8438" stroke="#242424" stroke-width="1.4" stroke-linecap="round" stroke-linejoin="round"/>
</svg>
