<svg width="30" height="30" viewBox="0 0 30 30" fill="none" xmlns="http://www.w3.org/2000/svg">
<path d="M5.625 5.15625V5.625H6.5625C6.81114 5.625 7.0496 5.52623 7.22541 5.35041C7.40123 5.1746 7.5 4.93614 7.5 4.6875V3.75H7.03125C6.65829 3.75 6.3006 3.89816 6.03688 4.16188C5.77316 4.4256 5.625 4.78329 5.625 5.15625ZM7.03125 1.875H15.4688C17.28 1.875 18.75 3.345 18.75 5.15625V6.17438L24.3281 11.7525C24.9375 12.3619 25.4209 13.0854 25.7506 13.8817C26.0804 14.6779 26.2501 15.5313 26.25 16.3931V27.1875C26.25 27.4361 26.1512 27.6746 25.9754 27.8504C25.7996 28.0262 25.5611 28.125 25.3125 28.125C25.0639 28.125 24.8254 28.0262 24.6496 27.8504C24.4738 27.6746 24.375 27.4361 24.375 27.1875V16.3931C24.3751 15.7775 24.254 15.1679 24.0185 14.5991C23.783 14.0303 23.4377 13.5135 23.0025 13.0781L18.75 8.82562V13.6725L20.3512 15.2738C20.5273 15.4495 20.6263 15.6881 20.6265 15.9368C20.6266 16.1856 20.528 16.4243 20.3522 16.6003C20.1764 16.7764 19.9379 16.8753 19.6891 16.8755C19.4403 16.8757 19.2017 16.777 19.0256 16.6012L17.1825 14.7562C17.1602 14.736 17.139 14.7148 17.1188 14.6925L14.8238 12.3975C14.6961 12.265 14.5434 12.1594 14.3744 12.0866C14.2055 12.0139 14.0237 11.9756 13.8398 11.9739C13.6559 11.9723 13.4735 12.0073 13.3032 12.0769C13.133 12.1466 12.9784 12.2495 12.8484 12.3796C12.7184 12.5097 12.6156 12.6645 12.5461 12.8348C12.4766 13.0051 12.4418 13.1875 12.4436 13.3715C12.4454 13.5554 12.4839 13.7371 12.5568 13.906C12.6297 14.0749 12.7355 14.2275 12.8681 14.355L15.6637 17.1488C15.7511 17.2358 15.8204 17.3393 15.8677 17.4532C15.915 17.5671 15.9393 17.6892 15.9394 17.8125V19.6875C15.9394 20.1845 16.1367 20.6611 16.4879 21.0127C16.8391 21.3642 17.3155 21.562 17.8125 21.5625C18.0611 21.5625 18.2996 21.6613 18.4754 21.8371C18.6512 22.0129 18.75 22.2514 18.75 22.5V24.8438C18.75 25.714 18.4043 26.5486 17.7889 27.1639C17.1736 27.7793 16.339 28.125 15.4688 28.125H7.03125C6.16101 28.125 5.32641 27.7793 4.71106 27.1639C4.0957 26.5486 3.75 25.714 3.75 24.8438V5.15625C3.75 3.345 5.22 1.875 7.03125 1.875ZM15 26.25H15.4688C15.8417 26.25 16.1994 26.1018 16.4631 25.8381C16.7268 25.5744 16.875 25.2167 16.875 24.8438V24.375H15.9375C15.6889 24.375 15.4504 24.4738 15.2746 24.6496C15.0988 24.8254 15 25.0639 15 25.3125V26.25ZM15.3938 22.5525C14.9765 22.2012 14.6412 21.7629 14.4112 21.2683C14.1813 20.7737 14.0622 20.2348 14.0625 19.6894V18.2006L13.7006 17.8387C13.2385 18.237 12.6862 18.5165 12.0916 18.653C11.497 18.7895 10.8781 18.7788 10.2885 18.622C9.69894 18.4652 9.15655 18.1668 8.70837 17.7529C8.2602 17.339 7.91977 16.822 7.71662 16.2468C7.51346 15.6716 7.45372 15.0554 7.54257 14.4519C7.63143 13.8483 7.86619 13.2756 8.2265 12.7833C8.5868 12.291 9.06178 11.894 9.61022 11.6268C10.1587 11.3596 10.764 11.2303 11.3737 11.25C11.6662 10.9098 12.0257 10.6336 12.4298 10.4388C12.834 10.244 13.274 10.1347 13.7223 10.1178C14.1706 10.1009 14.6176 10.1767 15.0352 10.3406C15.4528 10.5044 15.8322 10.7528 16.1494 11.07L16.875 11.7975V7.5H15.9375C15.1916 7.5 14.4762 7.20368 13.9488 6.67624C13.4213 6.14879 13.125 5.43342 13.125 4.6875V3.75H9.375V4.6875C9.375 5.43342 9.07868 6.14879 8.55124 6.67624C8.02379 7.20368 7.30842 7.5 6.5625 7.5H5.625V22.5H6.5625C7.30842 22.5 8.02379 22.7963 8.55124 23.3238C9.07868 23.8512 9.375 24.5666 9.375 25.3125V26.25H13.125V25.3125C13.1249 24.6609 13.351 24.0294 13.7648 23.526C14.1786 23.0226 14.7544 22.6785 15.3938 22.5525ZM15.9375 5.625H16.875V5.15625C16.875 4.78329 16.7268 4.4256 16.4631 4.16188C16.1994 3.89816 15.8417 3.75 15.4688 3.75H15V4.6875C15 4.93614 15.0988 5.1746 15.2746 5.35041C15.4504 5.52623 15.6889 5.625 15.9375 5.625ZM5.625 24.375V24.8438C5.625 25.62 6.255 26.25 7.03125 26.25H7.5V25.3125C7.5 25.0639 7.40123 24.8254 7.22541 24.6496C7.0496 24.4738 6.81114 24.375 6.5625 24.375H5.625ZM12.3675 16.5056L11.5425 15.6806C11.2231 15.3628 10.9735 14.9819 10.8095 14.5622C10.6455 14.1425 10.5708 13.6933 10.59 13.2431C10.3397 13.3381 10.1126 13.4856 9.92408 13.6757C9.73554 13.8658 9.58989 14.094 9.49692 14.3451C9.40396 14.5962 9.36585 14.8642 9.38514 15.1313C9.40443 15.3983 9.48069 15.6581 9.60878 15.8932C9.73686 16.1283 9.91381 16.3332 10.1277 16.4942C10.3416 16.6552 10.5875 16.7686 10.8489 16.8266C11.1103 16.8846 11.381 16.886 11.643 16.8306C11.9049 16.7753 12.152 16.6644 12.3675 16.5056Z" fill="#00CC6A"/>
</svg>
