<svg width="50" height="50" viewBox="0 0 50 50" fill="none" xmlns="http://www.w3.org/2000/svg">
<circle cx="25" cy="25" r="25" fill="#F6F7F9"/>
<path d="M22.69 18.1797C21.1375 17.4385 18.9676 17.0754 16.0625 17.0625C15.7885 17.0588 15.5199 17.1387 15.2925 17.2915C15.1058 17.4177 14.953 17.5878 14.8475 17.7869C14.7421 17.986 14.6871 18.2079 14.6875 18.4332V30.7266C14.6875 31.5576 15.2788 32.1845 16.0625 32.1845C19.1163 32.1845 22.1795 32.4698 24.0143 34.204C24.0394 34.2279 24.0709 34.2438 24.105 34.2498C24.1391 34.2559 24.1742 34.2518 24.206 34.2381C24.2377 34.2243 24.2648 34.2016 24.2837 34.1726C24.3027 34.1436 24.3127 34.1097 24.3125 34.0751V19.5899C24.3126 19.4922 24.2917 19.3956 24.2512 19.3066C24.2107 19.2177 24.1516 19.1385 24.0779 19.0743C23.6576 18.715 23.1908 18.4141 22.69 18.1797ZM34.7075 17.2902C34.48 17.1378 34.2114 17.0583 33.9375 17.0625C31.0324 17.0754 28.8625 17.4368 27.31 18.1797C26.8093 18.4137 26.3423 18.714 25.9217 19.0726C25.8481 19.1368 25.7892 19.2161 25.7488 19.305C25.7084 19.394 25.6875 19.4905 25.6875 19.5882V34.0743C25.6875 34.1075 25.6973 34.14 25.7157 34.1678C25.7341 34.1955 25.7602 34.2171 25.7909 34.23C25.8215 34.2429 25.8553 34.2465 25.888 34.2402C25.9207 34.234 25.9508 34.2183 25.9745 34.195C27.0775 33.0993 29.0133 32.1832 33.9392 32.1836C34.3039 32.1836 34.6536 32.0388 34.9115 31.7809C35.1694 31.523 35.3142 31.1733 35.3142 30.8086V18.4336C35.3147 18.2079 35.2596 17.9855 35.1538 17.7861C35.048 17.5867 34.8947 17.4164 34.7075 17.2902Z" fill="#0078D4"/>
</svg>
