<svg width="34" height="34" viewBox="0 0 34 34" fill="none" xmlns="http://www.w3.org/2000/svg">
<circle cx="17" cy="17" r="16.5" fill="white" stroke="#F3F4F9"/>
<path d="M17 16.5557C17.6153 16.5557 18.2168 16.3733 18.7285 16.0314C19.2401 15.6895 19.6388 15.2037 19.8743 14.6352C20.1098 14.0667 20.1714 13.4412 20.0514 12.8377C19.9313 12.2342 19.635 11.6798 19.1999 11.2447C18.7648 10.8096 18.2105 10.5133 17.607 10.3933C17.0035 10.2732 16.3779 10.3348 15.8095 10.5703C15.241 10.8058 14.7551 11.2045 14.4132 11.7162C14.0714 12.2278 13.8889 12.8293 13.8889 13.4446C13.8889 14.2697 14.2167 15.061 14.8001 15.6445C15.3836 16.2279 16.1749 16.5557 17 16.5557ZM17 11.2224C17.4395 11.2224 17.8692 11.3527 18.2346 11.5969C18.6001 11.8411 18.8849 12.1881 19.0531 12.5942C19.2213 13.0003 19.2653 13.4471 19.1796 13.8781C19.0938 14.3092 18.8822 14.7052 18.5714 15.016C18.2606 15.3267 17.8646 15.5384 17.4336 15.6241C17.0025 15.7099 16.5557 15.6659 16.1496 15.4977C15.7436 15.3295 15.3965 15.0447 15.1523 14.6792C14.9081 14.3138 14.7778 13.8841 14.7778 13.4446C14.7778 12.8552 15.0119 12.29 15.4287 11.8733C15.8454 11.4565 16.4107 11.2224 17 11.2224Z" fill="#0078D4"/>
<path d="M22.5422 19.8313C21.8294 19.078 20.9705 18.478 20.018 18.0679C19.0654 17.6578 18.0392 17.4463 17.0022 17.4463C15.9651 17.4463 14.9389 17.6578 13.9864 18.0679C13.0338 18.478 12.1749 19.078 11.4622 19.8313C11.3076 19.9964 11.2218 20.2141 11.2222 20.4402V22.778C11.2222 23.0138 11.3158 23.2399 11.4825 23.4066C11.6492 23.5733 11.8753 23.6669 12.1111 23.6669H21.8888C22.1246 23.6669 22.3507 23.5733 22.5174 23.4066C22.6841 23.2399 22.7777 23.0138 22.7777 22.778V20.4402C22.7793 20.2147 22.6951 19.9971 22.5422 19.8313ZM21.8888 22.778H12.1111V20.4358C12.7409 19.7725 13.4992 19.2444 14.3397 18.8835C15.1801 18.5226 16.0853 18.3364 16.9999 18.3364C17.9146 18.3364 18.8198 18.5226 19.6602 18.8835C20.5007 19.2444 21.259 19.7725 21.8888 20.4358V22.778Z" fill="#0078D4"/>
</svg>
