<svg width="25" height="20" viewBox="0 0 25 20" fill="none" xmlns="http://www.w3.org/2000/svg">
<path d="M0 19.0625V6.69141C0 5.66797 0.621094 4.75 1.57031 4.37109L12.0352 0.1875C12.332 0.0664062 12.6641 0.0664062 12.9648 0.1875L23.4297 4.37109C24.3789 4.75 25 5.67188 25 6.69141V19.0625C25 19.582 24.582 20 24.0625 20H22.1875C21.668 20 21.25 19.582 21.25 19.0625V8.75C21.25 8.05859 20.6914 7.5 20 7.5H5C4.30859 7.5 3.75 8.05859 3.75 8.75V19.0625C3.75 19.582 3.33203 20 2.8125 20H0.9375C0.417969 20 0 19.582 0 19.0625ZM19.0625 20H5.9375C5.41797 20 5 19.582 5 19.0625V16.875H20V19.0625C20 19.582 19.582 20 19.0625 20ZM5 15.625V13.125H20V15.625H5ZM5 11.875V8.75H20V11.875H5Z" fill="url(#paint0_linear_3464_24810)"/>
<defs>
<linearGradient id="paint0_linear_3464_24810" x1="12.5" y1="0.0966797" x2="12.5" y2="20" gradientUnits="userSpaceOnUse">
<stop stop-color="white"/>
<stop offset="1" stop-color="white" stop-opacity="0.8"/>
</linearGradient>
</defs>
</svg>
