<svg width="13" height="10" viewBox="0 0 13 10" fill="none" xmlns="http://www.w3.org/2000/svg">
<path d="M6.5 0.5C3.54545 0.5 1.02227 2.366 0 5C1.02227 7.634 3.54545 9.5 6.5 9.5C9.45455 9.5 11.9777 7.634 13 5C11.9777 2.366 9.45455 0.5 6.5 0.5ZM6.5 8C4.86909 8 3.54545 6.656 3.54545 5C3.54545 3.344 4.86909 2 6.5 2C8.13091 2 9.45455 3.344 9.45455 5C9.45455 6.656 8.13091 8 6.5 8ZM6.5 3.2C5.51909 3.2 4.72727 4.004 4.72727 5C4.72727 5.996 5.51909 6.8 6.5 6.8C7.48091 6.8 8.27273 5.996 8.27273 5C8.27273 4.004 7.48091 3.2 6.5 3.2Z" fill="#242424"/>
</svg>
