<svg width="18" height="18" viewBox="0 0 18 18" fill="none" xmlns="http://www.w3.org/2000/svg">
<g clip-path="url(#clip0_2228_49887)">
<path d="M13.5 12V8.25C13.5 5.9475 12.27 4.02 10.125 3.51V3C10.125 2.3775 9.61498 1.875 8.99248 1.875C8.36998 1.875 7.87498 2.3775 7.87498 3V3.51C5.72248 4.02 4.49998 5.94 4.49998 8.25V12L3.52498 12.9675C3.05248 13.44 3.38248 14.25 4.04998 14.25H13.9275C14.595 14.25 14.9325 13.44 14.46 12.9675L13.5 12ZM8.99248 16.5C9.81748 16.5 10.4925 15.825 10.4925 15H7.49248C7.49248 15.825 8.15998 16.5 8.99248 16.5ZM5.07748 3.5475C5.39248 3.2625 5.39998 2.775 5.09998 2.475C4.81498 2.19 4.34998 2.1825 4.05748 2.46C2.77498 3.63 1.88998 5.22 1.60498 7.005C1.53748 7.4625 1.88998 7.875 2.35498 7.875C2.71498 7.875 3.02998 7.6125 3.08998 7.2525C3.31498 5.7975 4.03498 4.5 5.07748 3.5475ZM13.95 2.46C13.65 2.1825 13.185 2.19 12.9 2.475C12.6 2.775 12.615 3.255 12.9225 3.54C13.9575 4.4925 14.685 5.79 14.91 7.245C14.9625 7.605 15.2775 7.8675 15.645 7.8675C16.1025 7.8675 16.4625 7.455 16.3875 6.9975C16.1025 5.22 15.225 3.6375 13.95 2.46Z" fill="#0078D4"/>
</g>
<defs>
<clipPath id="clip0_2228_49887">
<rect width="18" height="18" fill="white"/>
</clipPath>
</defs>
</svg>
