<svg width="60" height="60" viewBox="0 0 60 60" fill="none" xmlns="http://www.w3.org/2000/svg">
<g filter="url(#filter0_d_2122_16996)">
<circle cx="30" cy="30" r="20" fill="#0078D4"/>
</g>
<path d="M33.0081 22.75H34.1562C34.7944 22.75 35.4065 23.0035 35.8577 23.4548C36.309 23.906 36.5625 24.5181 36.5625 25.1562V38.2188C36.5625 38.8569 36.309 39.469 35.8577 39.9202C35.4065 40.3715 34.7944 40.625 34.1562 40.625H23.8438C23.2056 40.625 22.5935 40.3715 22.1423 39.9202C21.691 39.469 21.4375 38.8569 21.4375 38.2188V25.1562C21.4375 24.5181 21.691 23.906 22.1423 23.4548C22.5935 23.0035 23.2056 22.75 23.8438 22.75H24.9919C25.1342 22.3478 25.3977 21.9995 25.7462 21.7533C26.0946 21.507 26.5108 21.3749 26.9375 21.375H31.0625C31.9604 21.375 32.7249 21.9491 33.0081 22.75ZM31.0625 22.75H26.9375C26.7552 22.75 26.5803 22.8224 26.4514 22.9514C26.3224 23.0803 26.25 23.2552 26.25 23.4375C26.25 23.6198 26.3224 23.7947 26.4514 23.9236C26.5803 24.0526 26.7552 24.125 26.9375 24.125H31.0625C31.2448 24.125 31.4197 24.0526 31.5486 23.9236C31.6776 23.7947 31.75 23.6198 31.75 23.4375C31.75 23.2552 31.6776 23.0803 31.5486 22.9514C31.4197 22.8224 31.2448 22.75 31.0625 22.75ZM25.5625 28.25C25.3802 28.25 25.2053 28.3224 25.0764 28.4514C24.9474 28.5803 24.875 28.7552 24.875 28.9375C24.875 29.1198 24.9474 29.2947 25.0764 29.4236C25.2053 29.5526 25.3802 29.625 25.5625 29.625H32.4375C32.6198 29.625 32.7947 29.5526 32.9236 29.4236C33.0526 29.2947 33.125 29.1198 33.125 28.9375C33.125 28.7552 33.0526 28.5803 32.9236 28.4514C32.7947 28.3224 32.6198 28.25 32.4375 28.25H25.5625ZM24.875 32.375C24.875 32.5573 24.9474 32.7322 25.0764 32.8611C25.2053 32.9901 25.3802 33.0625 25.5625 33.0625H29C29.1823 33.0625 29.3572 32.9901 29.4861 32.8611C29.6151 32.7322 29.6875 32.5573 29.6875 32.375C29.6875 32.1927 29.6151 32.0178 29.4861 31.8889C29.3572 31.7599 29.1823 31.6875 29 31.6875H25.5625C25.3802 31.6875 25.2053 31.7599 25.0764 31.8889C24.9474 32.0178 24.875 32.1927 24.875 32.375ZM25.5625 35.125C25.3802 35.125 25.2053 35.1974 25.0764 35.3264C24.9474 35.4553 24.875 35.6302 24.875 35.8125C24.875 35.9948 24.9474 36.1697 25.0764 36.2986C25.2053 36.4276 25.3802 36.5 25.5625 36.5H31.0625C31.2448 36.5 31.4197 36.4276 31.5486 36.2986C31.6776 36.1697 31.75 35.9948 31.75 35.8125C31.75 35.6302 31.6776 35.4553 31.5486 35.3264C31.4197 35.1974 31.2448 35.125 31.0625 35.125H25.5625Z" fill="url(#paint0_linear_2122_16996)"/>
<circle cx="35.5" cy="22.5" r="6.5" fill="white"/>
<circle cx="35.5" cy="22.5" r="5.5" fill="#0078D4"/>
<path d="M35.5 19V26" stroke="white" stroke-width="2" stroke-linecap="round" stroke-linejoin="round"/>
<g filter="url(#filter1_d_2122_16996)">
<path d="M32 22.5H35.5L39 22.5" stroke="white" stroke-width="2" stroke-linecap="round" stroke-linejoin="round"/>
</g>
<defs>
<filter id="filter0_d_2122_16996" x="0" y="0" width="60" height="60" filterUnits="userSpaceOnUse" color-interpolation-filters="sRGB">
<feFlood flood-opacity="0" result="BackgroundImageFix"/>
<feColorMatrix in="SourceAlpha" type="matrix" values="0 0 0 0 0 0 0 0 0 0 0 0 0 0 0 0 0 0 127 0" result="hardAlpha"/>
<feOffset/>
<feGaussianBlur stdDeviation="5"/>
<feComposite in2="hardAlpha" operator="out"/>
<feColorMatrix type="matrix" values="0 0 0 0 0.454902 0 0 0 0 0.454902 0 0 0 0 0.458824 0 0 0 0.12 0"/>
<feBlend mode="normal" in2="BackgroundImageFix" result="effect1_dropShadow_2122_16996"/>
<feBlend mode="normal" in="SourceGraphic" in2="effect1_dropShadow_2122_16996" result="shape"/>
</filter>
<filter id="filter1_d_2122_16996" x="27" y="21.5" width="17" height="10" filterUnits="userSpaceOnUse" color-interpolation-filters="sRGB">
<feFlood flood-opacity="0" result="BackgroundImageFix"/>
<feColorMatrix in="SourceAlpha" type="matrix" values="0 0 0 0 0 0 0 0 0 0 0 0 0 0 0 0 0 0 127 0" result="hardAlpha"/>
<feOffset dy="4"/>
<feGaussianBlur stdDeviation="2"/>
<feComposite in2="hardAlpha" operator="out"/>
<feColorMatrix type="matrix" values="0 0 0 0 0 0 0 0 0 0 0 0 0 0 0 0 0 0 0.25 0"/>
<feBlend mode="normal" in2="BackgroundImageFix" result="effect1_dropShadow_2122_16996"/>
<feBlend mode="normal" in="SourceGraphic" in2="effect1_dropShadow_2122_16996" result="shape"/>
</filter>
<linearGradient id="paint0_linear_2122_16996" x1="29" y1="21.375" x2="29" y2="40.625" gradientUnits="userSpaceOnUse">
<stop stop-color="white"/>
<stop offset="1" stop-color="white" stop-opacity="0.8"/>
</linearGradient>
</defs>
</svg>
