<svg width="18" height="17" viewBox="0 0 18 17" fill="none" xmlns="http://www.w3.org/2000/svg">
<path d="M14.0001 11.3333V7.16658C14.0001 4.60825 12.6334 2.46659 10.2501 1.89992V1.33325C10.2501 0.641585 9.68339 0.083252 8.99173 0.083252C8.30006 0.083252 7.75006 0.641585 7.75006 1.33325V1.89992C5.35839 2.46659 4.00006 4.59992 4.00006 7.16658V11.3333L2.91673 12.4083C2.39173 12.9333 2.7584 13.8333 3.50006 13.8333H14.4751C15.2167 13.8333 15.5917 12.9333 15.0667 12.4083L14.0001 11.3333ZM8.99173 16.3333C9.90839 16.3333 10.6584 15.5833 10.6584 14.6666H7.32506C7.32506 15.5833 8.06673 16.3333 8.99173 16.3333ZM4.64173 1.94159C4.99173 1.62492 5.00006 1.08325 4.66673 0.749919C4.35006 0.433252 3.83339 0.424919 3.50839 0.733252C2.0834 2.03325 1.10006 3.79992 0.783396 5.78325C0.708396 6.29159 1.10006 6.74992 1.61673 6.74992C2.01673 6.74992 2.36673 6.45825 2.4334 6.05825C2.6834 4.44159 3.4834 2.99992 4.64173 1.94159ZM14.5001 0.733252C14.1667 0.424919 13.6501 0.433252 13.3334 0.749919C13.0001 1.08325 13.0167 1.61659 13.3584 1.93325C14.5084 2.99159 15.3167 4.43325 15.5667 6.04992C15.6251 6.44992 15.9751 6.74158 16.3834 6.74158C16.8917 6.74158 17.2917 6.28325 17.2084 5.77492C16.8917 3.79992 15.9167 2.04159 14.5001 0.733252Z" fill="white"/>
</svg>
