<svg width="13" height="14" viewBox="0 0 13 14" fill="none" xmlns="http://www.w3.org/2000/svg">
<g clip-path="url(#clip0_2113_53040)">
<path d="M6.50002 4.29167C7.99502 4.29167 9.20835 5.505 9.20835 7C9.20835 7.35208 9.13794 7.6825 9.01335 7.99125L10.595 9.57292C11.4129 8.89042 12.0575 8.0075 12.4529 7C11.5159 4.62208 9.20294 2.9375 6.4946 2.9375C5.73627 2.9375 5.01044 3.07292 4.33877 3.31667L5.50877 4.48667C5.81752 4.36208 6.14794 4.29167 6.50002 4.29167ZM1.08335 2.81292L2.31835 4.04792L2.56752 4.29708C1.66835 4.99583 0.964187 5.9275 0.541687 7C1.47877 9.37792 3.79169 11.0625 6.50002 11.0625C7.3396 11.0625 8.14127 10.9 8.87252 10.6075L9.10002 10.835L10.6871 12.4167L11.375 11.7288L1.77127 2.125L1.08335 2.81292ZM4.07877 5.80833L4.91835 6.64792C4.89127 6.76167 4.87502 6.88083 4.87502 7C4.87502 7.89917 5.60085 8.625 6.50002 8.625C6.61919 8.625 6.73835 8.60875 6.8521 8.58167L7.69169 9.42125C7.32877 9.6 6.92794 9.70833 6.50002 9.70833C5.00502 9.70833 3.79169 8.495 3.79169 7C3.79169 6.57208 3.90002 6.17125 4.07877 5.80833ZM6.41335 5.38583L8.1196 7.09208L8.13044 7.00542C8.13044 6.10625 7.4046 5.38042 6.50544 5.38042L6.41335 5.38583Z" fill="#242424"/>
</g>
<defs>
<clipPath id="clip0_2113_53040">
<rect width="13" height="13" fill="white" transform="translate(0 0.5)"/>
</clipPath>
</defs>
</svg>
