<svg width="24" height="24" viewBox="0 0 24 24" fill="none" xmlns="http://www.w3.org/2000/svg">
<g clip-path="url(#clip0_2096_16043)">
<path d="M0.0761719 10.543C0.0761719 10.2695 0.203125 9.98633 0.457031 9.77148L10.6328 1.22656C11.4824 0.523438 12.5371 0.523438 13.377 1.22656L18.0254 5.14258V3.42383C18.0254 2.98438 18.3184 2.70117 18.7578 2.70117H20.0762C20.5059 2.70117 20.7891 2.98438 20.7891 3.42383V7.45703L23.5332 9.77148C23.7871 9.97656 23.9141 10.2402 23.9141 10.5723C23.9141 11.1289 23.4844 11.4805 22.918 11.4805C22.6152 11.4805 22.3516 11.3145 22.1172 11.1191L12.4199 2.98438C12.1562 2.75 11.8535 2.75 11.5898 2.98438L1.88281 11.1191C1.64844 11.3145 1.38477 11.4805 1.08203 11.4805C0.457031 11.4805 0.0761719 11.0508 0.0761719 10.543ZM3.24023 19.3223V11.8711L11.3945 5.03516C11.7656 4.72266 12.2246 4.71289 12.5957 5.03516L20.7598 11.8809V19.3223C20.7598 20.7285 19.8809 21.5684 18.4355 21.5684H5.55469C4.11914 21.5684 3.24023 20.7285 3.24023 19.3223ZM14.5488 19.5957V13.3164C14.5488 12.8574 14.2559 12.5645 13.7969 12.5645H10.1934C9.73438 12.5645 9.43164 12.8574 9.43164 13.3164V19.5957H14.5488Z" fill="#B6B6B6"/>
</g>
<defs>
<clipPath id="clip0_2096_16043">
<rect width="24" height="24" fill="white"/>
</clipPath>
</defs>
</svg>
