<svg width="29" height="28" viewBox="0 0 29 28" fill="none" xmlns="http://www.w3.org/2000/svg">
<path fill-rule="evenodd" clip-rule="evenodd" d="M11.2529 0.055147C11.0909 0.101194 10.8989 0.241712 10.6531 0.493936C10.3579 0.797081 10.2232 1.00996 9.91738 1.65681C9.41244 2.72485 9.31974 2.84484 9.00075 2.84344C8.86318 2.84283 8.46906 2.7737 8.12499 2.68977C6.81245 2.36957 6.10804 2.42847 5.66173 2.8957C5.27429 3.30136 5.19302 3.62558 5.14762 4.9459C5.12576 5.5824 5.08715 6.15014 5.06183 6.20751C5.00499 6.33634 4.55403 6.51072 3.92463 6.64716C3.05989 6.8347 2.55686 7.03326 2.25241 7.30723C1.90441 7.62036 1.7529 7.94714 1.75165 8.38727C1.75028 8.84695 1.82183 9.07993 2.25962 10.0409C2.46797 10.4981 2.65595 10.9437 2.67739 11.0311C2.73388 11.2613 2.61114 11.416 1.91495 11.9921C0.798791 12.9157 0.5 13.3378 0.5 13.9909C0.5 14.644 0.798791 15.0661 1.91495 15.9898C2.61114 16.5658 2.73388 16.7205 2.67739 16.9507C2.65595 17.0381 2.46797 17.4837 2.25962 17.9409C1.82183 18.9019 1.75028 19.1349 1.75165 19.5945C1.75427 20.4994 2.38361 21.0036 3.92463 21.3354C4.55242 21.4705 5.00487 21.6452 5.06183 21.7743C5.08715 21.8317 5.12587 22.3994 5.14792 23.0359C5.196 24.4224 5.28167 24.7373 5.7178 25.1298C6.19592 25.56 6.79249 25.6009 8.10652 25.2933C8.47323 25.2075 8.88076 25.1373 9.01213 25.1373C9.31813 25.1373 9.41745 25.2676 9.91738 26.325C10.4791 27.5132 11.0042 28 11.7241 28C12.1411 28 12.6813 27.7006 13.5762 26.9734C13.871 26.7339 14.1994 26.4956 14.3061 26.4438C14.5655 26.318 14.694 26.3834 15.5724 27.0878C16.5921 27.9055 17.0457 28.0892 17.6684 27.9365C17.9304 27.8723 18.0481 27.7944 18.3469 27.4878C18.6421 27.1847 18.7768 26.9719 19.0826 26.325C19.5826 25.2676 19.6819 25.1373 19.9879 25.1373C20.1192 25.1373 20.5268 25.2075 20.8935 25.2933C22.2075 25.6009 22.8041 25.56 23.2822 25.1298C23.7183 24.7373 23.804 24.4224 23.8521 23.0359C23.8741 22.3994 23.9129 21.8317 23.9382 21.7743C23.996 21.6431 24.4575 21.4655 25.0754 21.3366C26.6069 21.0171 27.2457 20.505 27.2484 19.5945C27.2497 19.1349 27.1782 18.9019 26.7404 17.9409C26.532 17.4837 26.3441 17.0381 26.3226 16.9507C26.2661 16.7205 26.3889 16.5658 27.085 15.9898C28.2012 15.0661 28.5 14.644 28.5 13.9909C28.5 13.3378 28.2012 12.9157 27.085 11.9921C26.3889 11.416 26.2661 11.2613 26.3226 11.0311C26.3441 10.9437 26.532 10.4981 26.7404 10.0409C27.1782 9.07993 27.2497 8.84695 27.2484 8.38727C27.2457 7.47686 26.6069 6.96468 25.0754 6.64521C24.3048 6.48447 23.9942 6.34401 23.9186 6.12206C23.8831 6.0179 23.854 5.5444 23.854 5.06979C23.854 3.76701 23.7516 3.34125 23.33 2.89138C22.8961 2.42829 22.2309 2.37262 20.8935 2.68758C20.5268 2.77389 20.1192 2.84454 19.9879 2.84454C19.6819 2.84454 19.5826 2.71419 19.0826 1.65681C18.7768 1.0099 18.6421 0.797142 18.3469 0.493997C18.0481 0.187381 17.9304 0.109539 17.6684 0.0452797C17.1004 -0.0938976 16.5975 0.081886 15.8405 0.684338C14.9428 1.3988 14.6648 1.58573 14.5 1.58573C14.3352 1.58573 14.0572 1.3988 13.1595 0.684338C12.4064 0.0850533 11.8239 -0.107237 11.2529 0.055147ZM12.1906 8.7071C12.6367 8.91596 13.0665 9.33459 13.2828 9.77106C13.4412 10.0906 13.4574 10.1795 13.4574 10.7323C13.4574 11.277 13.4396 11.3783 13.2895 11.6909C12.4628 13.4119 10.1281 13.3752 9.3273 11.6287C9.19104 11.3316 9.16769 11.2 9.16793 10.7323C9.16829 10.1086 9.2803 9.78148 9.65261 9.31699C10.2634 8.55495 11.322 8.3006 12.1906 8.7071ZM19.2087 8.90603C19.4421 9.02937 19.583 9.31558 19.5327 9.56422C19.4754 9.84781 10.4473 19.0774 10.1699 19.136C9.77582 19.2192 9.38563 18.8201 9.46761 18.4176C9.49865 18.265 10.4416 17.266 13.9249 13.6951C16.3548 11.2042 18.4474 9.08687 18.5752 8.9899C18.8386 8.79012 18.9593 8.77416 19.2087 8.90603ZM10.8634 9.86432C10.5667 10.0173 10.3294 10.4029 10.3294 10.7323C10.3294 10.98 10.5567 11.4257 10.7606 11.5775C10.8639 11.6545 11.0493 11.7079 11.267 11.7235C11.5541 11.744 11.6443 11.7245 11.8175 11.6042C11.9314 11.525 12.0879 11.365 12.1654 11.2485C12.283 11.0715 12.3022 10.9793 12.2821 10.6858C12.2668 10.4632 12.2146 10.2737 12.1393 10.1681C11.9907 9.95964 11.5549 9.72727 11.3125 9.72727C11.2117 9.72727 11.0096 9.78891 10.8634 9.86432ZM18.6575 15.2524C19.0538 15.4555 19.4661 15.9025 19.6727 16.3531C19.8088 16.65 19.8324 16.7822 19.8324 17.2495C19.8324 17.7173 19.8088 17.849 19.6722 18.1471C19.4676 18.5934 19.0021 19.0693 18.5655 19.2785C18.2739 19.4182 18.145 19.4423 17.6875 19.4423C17.2304 19.4423 17.101 19.4182 16.8106 19.279C16.3606 19.0634 15.9324 18.6451 15.7171 18.2107C15.5588 17.8912 15.5426 17.8023 15.5426 17.2495C15.5426 16.7048 15.5604 16.6035 15.7105 16.2909C16.2541 15.1591 17.5703 14.6954 18.6575 15.2524ZM17.1825 16.3776C17.0686 16.4568 16.9121 16.6168 16.8346 16.7333C16.717 16.9103 16.6978 17.0025 16.7179 17.296C16.7332 17.5186 16.7854 17.7081 16.8607 17.8137C17.01 18.0233 17.4456 18.2545 17.6908 18.2545C17.9984 18.2545 18.3784 18.0084 18.5334 17.7088C18.706 17.3751 18.7068 17.1346 18.5365 16.7939C18.3513 16.4235 18.1481 16.288 17.733 16.2583C17.4459 16.2378 17.3557 16.2573 17.1825 16.3776Z" fill="url(#paint0_linear_2096_11423)"/>
<defs>
<linearGradient id="paint0_linear_2096_11423" x1="14.5" y1="0" x2="14.5" y2="28" gradientUnits="userSpaceOnUse">
<stop stop-color="white"/>
<stop offset="1" stop-color="white" stop-opacity="0.8"/>
</linearGradient>
</defs>
</svg>
