<svg width="26" height="25" viewBox="0 0 26 25" fill="none" xmlns="http://www.w3.org/2000/svg">
<path d="M17.5547 3.125H18.8594C19.5846 3.125 20.2801 3.41309 20.7929 3.92588C21.3057 4.43867 21.5938 5.13417 21.5938 5.85938V20.7031C21.5938 21.4283 21.3057 22.1238 20.7929 22.6366C20.2801 23.1494 19.5846 23.4375 18.8594 23.4375H7.14062C6.41542 23.4375 5.71992 23.1494 5.20713 22.6366C4.69434 22.1238 4.40625 21.4283 4.40625 20.7031V5.85938C4.40625 5.13417 4.69434 4.43867 5.20713 3.92588C5.71992 3.41309 6.41542 3.125 7.14062 3.125H8.44531C8.60704 2.66791 8.9065 2.2722 9.30246 1.99237C9.69842 1.71255 10.1714 1.56236 10.6562 1.5625H15.3438C16.3641 1.5625 17.2328 2.21484 17.5547 3.125ZM15.3438 3.125H10.6562C10.449 3.125 10.2503 3.20731 10.1038 3.35382C9.95731 3.50034 9.875 3.69905 9.875 3.90625C9.875 4.11345 9.95731 4.31216 10.1038 4.45868C10.2503 4.60519 10.449 4.6875 10.6562 4.6875H15.3438C15.551 4.6875 15.7497 4.60519 15.8962 4.45868C16.0427 4.31216 16.125 4.11345 16.125 3.90625C16.125 3.69905 16.0427 3.50034 15.8962 3.35382C15.7497 3.20731 15.551 3.125 15.3438 3.125ZM9.09375 9.375C8.88655 9.375 8.68784 9.45731 8.54132 9.60382C8.39481 9.75034 8.3125 9.94905 8.3125 10.1562C8.3125 10.3635 8.39481 10.5622 8.54132 10.7087C8.68784 10.8552 8.88655 10.9375 9.09375 10.9375H16.9062C17.1135 10.9375 17.3122 10.8552 17.4587 10.7087C17.6052 10.5622 17.6875 10.3635 17.6875 10.1562C17.6875 9.94905 17.6052 9.75034 17.4587 9.60382C17.3122 9.45731 17.1135 9.375 16.9062 9.375H9.09375ZM8.3125 14.0625C8.3125 14.2697 8.39481 14.4684 8.54132 14.6149C8.68784 14.7614 8.88655 14.8438 9.09375 14.8438H13C13.2072 14.8438 13.4059 14.7614 13.5524 14.6149C13.6989 14.4684 13.7812 14.2697 13.7812 14.0625C13.7812 13.8553 13.6989 13.6566 13.5524 13.5101C13.4059 13.3636 13.2072 13.2812 13 13.2812H9.09375C8.88655 13.2812 8.68784 13.3636 8.54132 13.5101C8.39481 13.6566 8.3125 13.8553 8.3125 14.0625ZM9.09375 17.1875C8.88655 17.1875 8.68784 17.2698 8.54132 17.4163C8.39481 17.5628 8.3125 17.7615 8.3125 17.9688C8.3125 18.176 8.39481 18.3747 8.54132 18.5212C8.68784 18.6677 8.88655 18.75 9.09375 18.75H15.3438C15.551 18.75 15.7497 18.6677 15.8962 18.5212C16.0427 18.3747 16.125 18.176 16.125 17.9688C16.125 17.7615 16.0427 17.5628 15.8962 17.4163C15.7497 17.2698 15.551 17.1875 15.3438 17.1875H9.09375Z" fill="#B6B6B6"/>
</svg>
