<svg width="12" height="13" viewBox="0 0 12 13" fill="none" xmlns="http://www.w3.org/2000/svg">
<path d="M2.25 2.375L9.75 10.625" stroke="#747475" stroke-width="0.8" stroke-linecap="round" stroke-linejoin="round"/>
<path d="M7.26128 7.88734C6.89331 8.2218 6.40756 8.39639 5.91087 8.37272C5.41418 8.34905 4.94723 8.12904 4.61274 7.7611C4.27825 7.39316 4.10361 6.90743 4.12724 6.41073C4.15087 5.91404 4.37083 5.44707 4.73874 5.11255" stroke="#747475" stroke-width="0.8" stroke-linecap="round" stroke-linejoin="round"/>
<path d="M3.46849 3.71533C1.55743 4.68309 0.75 6.50001 0.75 6.50001C0.75 6.50001 2.25 9.87464 6 9.87464C6.87862 9.88164 7.74628 9.67927 8.53114 9.28427" stroke="#747475" stroke-width="0.8" stroke-linecap="round" stroke-linejoin="round"/>
<path d="M9.77857 8.42666C10.8005 7.51133 11.25 6.50013 11.25 6.50013C11.25 6.50013 9.75 3.12476 6 3.12476C5.67521 3.12423 5.35094 3.15064 5.03052 3.20371" stroke="#747475" stroke-width="0.8" stroke-linecap="round" stroke-linejoin="round"/>
<path d="M6.35291 4.6582C6.75142 4.73473 7.11439 4.9384 7.38735 5.23867C7.66032 5.53894 7.82857 5.91962 7.86687 6.32361" stroke="#747475" stroke-width="0.8" stroke-linecap="round" stroke-linejoin="round"/>
</svg>
