<svg width="24" height="24" viewBox="0 0 24 24" fill="none" xmlns="http://www.w3.org/2000/svg">
<path d="M12.089 12L11.9894 21.6385" stroke="white" stroke-linecap="round" stroke-linejoin="round"/>
<path d="M20.6144 16.4372V7.56241C20.6144 7.4296 20.5792 7.29917 20.5122 7.18445C20.4453 7.06973 20.3491 6.97485 20.2335 6.90949L12.3585 2.45841C12.2459 2.39477 12.1188 2.36133 11.9894 2.36133C11.8601 2.36133 11.733 2.39477 11.6204 2.45841L3.7454 6.90949C3.62977 6.97485 3.53358 7.06973 3.46664 7.18445C3.39971 7.29917 3.36444 7.4296 3.36444 7.56241V16.4372C3.36444 16.57 3.39971 16.7005 3.46664 16.8152C3.53358 16.9299 3.62977 17.0248 3.7454 17.0901L11.6204 21.5412C11.733 21.6049 11.8601 21.6383 11.9894 21.6383C12.1188 21.6383 12.2459 21.6049 12.3585 21.5412L20.2335 17.0901C20.3491 17.0248 20.4453 16.9299 20.5122 16.8152C20.5792 16.7005 20.6144 16.57 20.6144 16.4372V16.4372Z" stroke="white" stroke-linecap="round" stroke-linejoin="round"/>
<path d="M20.5117 7.18365L12.089 11.9999L3.4678 7.18262" stroke="white" stroke-linecap="round" stroke-linejoin="round"/>
<path d="M16.5958 13.9227V9.42269L7.89777 4.5625" stroke="white" stroke-linecap="round" stroke-linejoin="round"/>
</svg>
