<svg width="18" height="18" viewBox="0 0 18 18" fill="none" xmlns="http://www.w3.org/2000/svg">
<path fill-rule="evenodd" clip-rule="evenodd" d="M8.0007 1.04324C6.78417 1.19388 5.60561 1.6298 4.591 2.30439C3.01537 3.35194 1.86857 4.88493 1.32909 6.66471C1.2034 7.07938 1.07586 7.70605 1.03104 8.12928C0.989654 8.51979 0.989654 9.47604 1.03104 9.86655C1.36678 13.036 3.60949 15.7428 6.66776 16.6698C7.42946 16.9007 8.13136 17 9.00096 17C9.65457 17 10.013 16.9672 10.5785 16.8558C11.5966 16.6553 12.5521 16.2625 13.4109 15.6914C14.9866 14.6439 16.1334 13.1109 16.6728 11.3311C16.9037 10.5694 17.003 9.86752 17.003 8.99791C17.003 8.34431 16.9703 7.9859 16.8589 7.42041C16.2922 4.54385 14.1485 2.1791 11.3342 1.32604C10.9195 1.20035 10.2928 1.07281 9.86959 1.02799C9.45993 0.984573 8.40487 0.9932 8.0007 1.04324ZM10.0169 4.13286C10.4376 4.24527 10.7693 4.55757 10.8746 4.94057C10.9332 5.15407 10.9064 5.47962 10.8144 5.66892C10.6344 6.03945 10.2163 6.30959 9.78482 6.33419C8.83098 6.38858 8.18888 5.41954 8.67181 4.65453C8.75327 4.5255 9.00156 4.29562 9.13318 4.22742C9.3789 4.10007 9.74672 4.06072 10.0169 4.13286ZM9.07911 7.47277C9.48221 7.55763 9.80664 7.80157 9.97681 8.14782C10.0785 8.35462 10.0793 8.36025 10.0767 8.79439C10.0736 9.29837 10.0766 9.28336 9.70352 10.6077C9.38609 11.7344 9.31467 12.0607 9.31404 12.3874C9.31311 12.8504 9.4493 12.9929 9.92098 13.0223C10.1554 13.0369 10.4977 12.9807 10.7241 12.8905C10.7702 12.8721 10.7695 12.8929 10.7174 13.1116C10.6858 13.2444 10.6489 13.3638 10.6354 13.377C10.5805 13.4305 9.56342 13.789 9.34986 13.83C9.0621 13.8854 8.57173 13.8852 8.33907 13.8295C7.8214 13.7058 7.42818 13.3644 7.3138 12.9394C7.26229 12.748 7.27126 12.2871 7.33265 11.9688C7.36097 11.8219 7.5091 11.2587 7.6618 10.7171C7.98123 9.58432 8.06322 9.2155 8.06322 8.9117C8.06322 8.54895 7.96772 8.36869 7.74354 8.30833C7.52289 8.24891 7.12926 8.2686 6.86591 8.35224C6.73359 8.39426 6.62559 8.41958 6.62587 8.40851C6.62825 8.31961 6.75522 7.9201 6.78757 7.89972C6.86072 7.85368 7.58825 7.59277 7.82369 7.52819C8.27724 7.40375 8.66916 7.38646 9.07911 7.47277Z" fill="#0078D4"/>
</svg>
