<svg width="32" height="32" viewBox="0 0 32 32" fill="none" xmlns="http://www.w3.org/2000/svg">
<mask id="mask0_2120_14280" style="mask-type:alpha" maskUnits="userSpaceOnUse" x="0" y="0" width="32" height="32">
<circle cx="16" cy="16" r="16" fill="#D9D9D9"/>
</mask>
<g mask="url(#mask0_2120_14280)">
<path d="M33.8889 -0.611328H-1.88889C-3.24444 -0.611328 -4.54447 -0.0728378 -5.50299 0.885681C-6.46151 1.8442 -7 3.14423 -7 4.49978L-7 27.4998C-7 28.8553 -6.46151 30.1554 -5.50299 31.1139C-4.54447 32.0724 -3.24444 32.6109 -1.88889 32.6109H33.8889C35.2444 32.6109 36.5445 32.0724 37.503 31.1139C38.4615 30.1554 39 28.8553 39 27.4998V4.49978C39 3.14423 38.4615 1.8442 37.503 0.885681C36.5445 -0.0728378 35.2444 -0.611328 33.8889 -0.611328Z" fill="#DA251D"/>
<path d="M18.2399 13.4913L16 6.59766L13.76 13.4913H6.51245L12.3762 17.7501L10.1362 24.6437L16 20.3836L21.8637 24.6437L19.6237 17.7501L25.4875 13.4913H18.2399Z" fill="#FFFF00"/>
</g>
</svg>
