<svg width="18" height="18" viewBox="0 0 18 18" fill="none" xmlns="http://www.w3.org/2000/svg">
<path d="M8.43709 7.48265L6.60896 4.31625C6.42285 3.99327 6.37259 3.60962 6.46922 3.24961C6.56584 2.88959 6.80145 2.58267 7.12427 2.39629C7.44709 2.20991 7.8307 2.15933 8.19079 2.25565C8.55089 2.35198 8.85801 2.58734 9.04466 2.91L11.8572 7.78139" stroke="#0078D4" stroke-width="0.8" stroke-linecap="round" stroke-linejoin="round"/>
<path d="M6.28262 9.37603L3.61074 4.74821C3.51822 4.58827 3.45813 4.41167 3.4339 4.22849C3.40967 4.04532 3.42177 3.85917 3.46952 3.68067C3.51726 3.50218 3.59972 3.33484 3.71217 3.18823C3.82462 3.04162 3.96486 2.9186 4.12488 2.82622C4.28489 2.73383 4.46155 2.67389 4.64474 2.64981C4.82794 2.62573 5.01408 2.63799 5.19253 2.68589C5.37099 2.73378 5.53826 2.81638 5.68477 2.92895C5.83129 3.04152 5.95419 3.18187 6.04644 3.34196L8.43706 7.48264" stroke="#0078D4" stroke-width="0.8" stroke-linecap="round" stroke-linejoin="round"/>
<path d="M10.8276 11.6233C10.4547 10.9773 10.3536 10.2096 10.5467 9.48913C10.7397 8.76863 11.2111 8.15433 11.8571 7.78137L11.154 6.56352C11.0614 6.40358 11.0014 6.22698 10.9771 6.0438C10.9529 5.86063 10.965 5.67447 11.0127 5.49598C11.0605 5.31748 11.1429 5.15015 11.2554 5.00354C11.3678 4.85693 11.5081 4.73391 11.6681 4.64153C11.8281 4.54914 12.0048 4.4892 12.188 4.46512C12.3712 4.44104 12.5573 4.4533 12.7358 4.50119C12.9142 4.54909 13.0815 4.63169 13.228 4.74426C13.3745 4.85683 13.4974 4.99718 13.5897 5.15727L14.9959 7.59296C15.3654 8.23269 15.6053 8.93895 15.7019 9.67141C15.7985 10.4039 15.7498 11.1482 15.5586 11.8618C15.3675 12.5754 15.0377 13.2444 14.5879 13.8306C14.1382 14.4167 13.5775 14.9085 12.9376 15.2779C12.2978 15.6473 11.5915 15.8871 10.859 15.9835C10.1266 16.0799 9.38228 16.031 8.66868 15.8397C7.95509 15.6484 7.28616 15.3184 6.70012 14.8686C6.11407 14.4187 5.62238 13.8579 5.25313 13.218L2.58125 8.59014C2.39514 8.26717 2.34488 7.88352 2.44151 7.5235C2.53813 7.16349 2.77374 6.85656 3.09656 6.67019C3.41938 6.48381 3.80299 6.43322 4.16308 6.52955C4.52318 6.62587 4.8303 6.86123 5.01695 7.18389L6.28257 9.37602" stroke="#0078D4" stroke-width="0.8" stroke-linecap="round" stroke-linejoin="round"/>
<path d="M5.70193 16.8752C4.74853 16.2137 3.95378 15.3489 3.375 14.3431" stroke="#0078D4" stroke-width="0.8" stroke-linecap="round" stroke-linejoin="round"/>
<path d="M12.375 2.17969C13.0168 2.1796 13.6473 2.34855 14.203 2.66952C14.7588 2.99049 15.2202 3.45218 15.5409 4.00812" stroke="#0078D4" stroke-width="0.8" stroke-linecap="round" stroke-linejoin="round"/>
</svg>
