<svg width="12" height="13" viewBox="0 0 12 13" fill="none" xmlns="http://www.w3.org/2000/svg">
<path d="M10.875 3.5H1.125C0.917893 3.5 0.75 3.66789 0.75 3.875V9.125C0.75 9.33211 0.917893 9.5 1.125 9.5H10.875C11.0821 9.5 11.25 9.33211 11.25 9.125V3.875C11.25 3.66789 11.0821 3.5 10.875 3.5Z" stroke="#00CC6A" stroke-width="0.8" stroke-linecap="round" stroke-linejoin="round"/>
<path d="M6 8C6.82843 8 7.5 7.32843 7.5 6.5C7.5 5.67157 6.82843 5 6 5C5.17157 5 4.5 5.67157 4.5 6.5C4.5 7.32843 5.17157 8 6 8Z" stroke="#00CC6A" stroke-width="0.8" stroke-linecap="round" stroke-linejoin="round"/>
<path d="M8.25 3.5L11.25 6.125" stroke="#00CC6A" stroke-width="0.8" stroke-linecap="round" stroke-linejoin="round"/>
<path d="M8.25 9.5L11.25 6.875" stroke="#00CC6A" stroke-width="0.8" stroke-linecap="round" stroke-linejoin="round"/>
<path d="M3.75 3.5L0.75 6.125" stroke="#00CC6A" stroke-width="0.8" stroke-linecap="round" stroke-linejoin="round"/>
<path d="M3.75 9.5L0.75 6.875" stroke="#00CC6A" stroke-width="0.8" stroke-linecap="round" stroke-linejoin="round"/>
</svg>
