<svg width="25" height="24" viewBox="0 0 25 24" fill="none" xmlns="http://www.w3.org/2000/svg">
<path d="M18.078 4.432L16.078 3.382C14.322 2.461 13.444 2 12.5 2C11.556 2 10.678 2.46 8.922 3.382L8.601 3.551L17.524 8.65L21.54 6.64C20.894 5.908 19.852 5.361 18.078 4.43M22.248 7.964L18.25 9.964V13C18.25 13.1989 18.171 13.3897 18.0303 13.5303C17.8897 13.671 17.6989 13.75 17.5 13.75C17.3011 13.75 17.1103 13.671 16.9697 13.5303C16.829 13.3897 16.75 13.1989 16.75 13V10.714L13.25 12.464V21.904C13.968 21.725 14.785 21.297 16.078 20.618L18.078 19.568C20.229 18.439 21.305 17.875 21.903 16.86C22.5 15.846 22.5 14.583 22.5 12.06V11.943C22.5 10.05 22.5 8.866 22.248 7.964ZM11.75 21.904V12.464L2.752 7.964C2.5 8.866 2.5 10.05 2.5 11.941V12.058C2.5 14.583 2.5 15.846 3.097 16.86C3.695 17.875 4.771 18.44 6.922 19.569L8.922 20.618C10.215 21.297 11.032 21.725 11.75 21.904ZM3.46 6.641L12.5 11.161L15.911 9.456L7.025 4.378L6.922 4.432C5.149 5.362 4.106 5.909 3.46 6.642" fill="#B6B6B6"/>
</svg>
