<svg width="20" height="20" viewBox="0 0 20 20" fill="none" xmlns="http://www.w3.org/2000/svg">
<circle cx="10" cy="10" r="9.5" fill="#0078D4" stroke="#0078D4"/>
<path d="M10.0445 10L9.99472 14.8192" stroke="#FFFFFF" stroke-width="0.8" stroke-linecap="round" stroke-linejoin="round"/>
<path d="M14.3072 12.2186V7.78121C14.3072 7.7148 14.2896 7.64958 14.2561 7.59222C14.2227 7.53487 14.1746 7.48742 14.1167 7.45475L10.1792 5.2292C10.1229 5.19739 10.0594 5.18066 9.99472 5.18066C9.93006 5.18066 9.86649 5.19739 9.8102 5.2292L5.8727 7.45475C5.81489 7.48742 5.76679 7.53487 5.73332 7.59222C5.69986 7.64958 5.68222 7.7148 5.68222 7.78121V12.2186C5.68222 12.285 5.69986 12.3502 5.73332 12.4076C5.76679 12.465 5.81489 12.5124 5.8727 12.5451L9.8102 14.7706C9.86649 14.8024 9.93006 14.8192 9.99472 14.8192C10.0594 14.8192 10.1229 14.8024 10.1792 14.7706L14.1167 12.5451C14.1746 12.5124 14.2227 12.465 14.2561 12.4076C14.2896 12.3502 14.3072 12.285 14.3072 12.2186V12.2186Z" stroke="#FFFFFF" stroke-width="0.8" stroke-linecap="round" stroke-linejoin="round"/>
<path d="M14.2559 7.59231L10.0445 10.0004L5.7339 7.5918" stroke="#FFFFFF" stroke-width="0.8" stroke-linecap="round" stroke-linejoin="round"/>
<path d="M12.2979 10.9613V8.71134L7.94888 6.28125" stroke="#FFFFFF" stroke-width="0.8" stroke-linecap="round" stroke-linejoin="round"/>
</svg>
