<svg width="29" height="28" viewBox="0 0 29 28" fill="none" xmlns="http://www.w3.org/2000/svg">
<path d="M21.4999 12.8333C23.2383 12.8333 24.8483 13.3816 26.1666 14.3033V9.33325C26.1666 8.03825 25.1283 6.99992 23.8333 6.99992H19.1666V4.66659C19.1666 3.37159 18.1283 2.33325 16.8333 2.33325H12.1666C10.8716 2.33325 9.83325 3.37159 9.83325 4.66659V6.99992H5.16659C3.87159 6.99992 2.84492 8.03825 2.84492 9.33325L2.83325 22.1666C2.83325 23.4616 3.87159 24.4999 5.16659 24.4999H14.1266C13.5347 23.2557 13.2674 21.8818 13.3498 20.5065C13.4321 19.1311 13.8613 17.7989 14.5974 16.6342C15.3335 15.4694 16.3526 14.51 17.5595 13.8454C18.7665 13.1808 20.1221 12.8326 21.4999 12.8333ZM12.1666 4.66659H16.8333V6.99992H12.1666V4.66659Z" fill="url(#paint0_linear_2096_11418)"/>
<path d="M21.5001 15.1667C18.2801 15.1667 15.6667 17.7801 15.6667 21.0001C15.6667 24.2201 18.2801 26.8334 21.5001 26.8334C24.7201 26.8334 27.3334 24.2201 27.3334 21.0001C27.3334 17.7801 24.7201 15.1667 21.5001 15.1667ZM23.4251 23.7417L20.9167 21.2334V17.5001H22.0834V20.7551L24.2417 22.9134L23.4251 23.7417Z" fill="url(#paint1_linear_2096_11418)"/>
<defs>
<linearGradient id="paint0_linear_2096_11418" x1="14.4999" y1="2.33325" x2="14.4999" y2="24.4999" gradientUnits="userSpaceOnUse">
<stop stop-color="white"/>
<stop offset="1" stop-color="white" stop-opacity="0.8"/>
</linearGradient>
<linearGradient id="paint1_linear_2096_11418" x1="21.5001" y1="15.1667" x2="21.5001" y2="26.8334" gradientUnits="userSpaceOnUse">
<stop stop-color="white"/>
<stop offset="1" stop-color="white" stop-opacity="0.8"/>
</linearGradient>
</defs>
</svg>
