<svg width="12" height="13" viewBox="0 0 12 13" fill="none" xmlns="http://www.w3.org/2000/svg">
<path d="M7.875 1.625H4.125V3.5H7.875V1.625Z" stroke="#0078D4" stroke-width="0.8" stroke-linecap="round" stroke-linejoin="round"/>
<path d="M7.875 2.375H9.375C9.47446 2.375 9.56984 2.41451 9.64017 2.48484C9.71049 2.55516 9.75 2.65054 9.75 2.75V10.625C9.75 10.7245 9.71049 10.8198 9.64017 10.8902C9.56984 10.9605 9.47446 11 9.375 11H2.625C2.52554 11 2.43016 10.9605 2.35984 10.8902C2.28951 10.8198 2.25 10.7245 2.25 10.625V2.75C2.25 2.65054 2.28951 2.55516 2.35984 2.48484C2.43016 2.41451 2.52554 2.375 2.625 2.375H4.125" stroke="#0078D4" stroke-width="0.8" stroke-linecap="round" stroke-linejoin="round"/>
<path d="M4.5 7.625H7.5" stroke="#0078D4" stroke-width="0.8" stroke-linecap="round" stroke-linejoin="round"/>
<path d="M4.5 6.125H7.5" stroke="#0078D4" stroke-width="0.8" stroke-linecap="round" stroke-linejoin="round"/>
</svg>
