<svg width="28" height="28" viewBox="0 0 28 28" fill="none" xmlns="http://www.w3.org/2000/svg">
<path d="M14.0001 14C16.1853 14 18.1651 14.7233 19.6176 15.7348C20.9978 16.6973 22.1668 18.1277 22.1668 19.6665C22.1668 20.5112 21.8063 21.2112 21.2381 21.7315C20.7038 22.2227 20.0061 22.5412 19.2874 22.7582C17.8512 23.1933 15.9601 23.3333 14.0001 23.3333C12.0401 23.3333 10.1489 23.1933 8.71275 22.7582C7.99408 22.5412 7.29642 22.2227 6.76092 21.7315C6.19508 21.2123 5.83342 20.5123 5.83342 19.6677C5.83342 18.1288 7.00242 16.6985 8.38258 15.736C9.83508 14.7233 11.8149 14 14.0001 14ZM22.1668 15.1667C23.3848 15.1667 24.4908 15.5692 25.3086 16.1385C26.0553 16.66 26.8334 17.5268 26.8334 18.5838C26.8334 19.187 26.5709 19.6875 26.1801 20.0457C25.8231 20.3735 25.3821 20.566 24.9796 20.6873C24.4313 20.853 23.7838 20.9382 23.1118 20.9755C23.2541 20.573 23.3334 20.1355 23.3334 19.6665C23.3334 17.8757 22.2146 16.3543 20.9628 15.2985C21.3581 15.211 21.7618 15.1668 22.1668 15.1667ZM5.83342 15.1667C6.24992 15.1667 6.65358 15.2133 7.03742 15.2985C5.78675 16.3543 4.66675 17.8757 4.66675 19.6665C4.66675 20.1355 4.74608 20.573 4.88842 20.9755C4.21642 20.9382 3.57008 20.853 3.02058 20.6873C2.61808 20.566 2.17708 20.3735 1.81892 20.0457C1.61344 19.8619 1.44912 19.6368 1.33673 19.385C1.22434 19.1333 1.16641 18.8607 1.16675 18.585C1.16675 17.5292 1.94375 16.6612 2.69158 16.1397C3.61646 15.5053 4.71187 15.166 5.83342 15.1667ZM21.5834 8.16667C22.357 8.16667 23.0988 8.47396 23.6458 9.02094C24.1928 9.56792 24.5001 10.3098 24.5001 11.0833C24.5001 11.8569 24.1928 12.5987 23.6458 13.1457C23.0988 13.6927 22.357 14 21.5834 14C20.8099 14 20.068 13.6927 19.521 13.1457C18.974 12.5987 18.6667 11.8569 18.6667 11.0833C18.6667 10.3098 18.974 9.56792 19.521 9.02094C20.068 8.47396 20.8099 8.16667 21.5834 8.16667ZM6.41675 8.16667C7.1903 8.16667 7.93216 8.47396 8.47915 9.02094C9.02613 9.56792 9.33342 10.3098 9.33342 11.0833C9.33342 11.8569 9.02613 12.5987 8.47915 13.1457C7.93216 13.6927 7.1903 14 6.41675 14C5.6432 14 4.90134 13.6927 4.35435 13.1457C3.80737 12.5987 3.50008 11.8569 3.50008 11.0833C3.50008 10.3098 3.80737 9.56792 4.35435 9.02094C4.90134 8.47396 5.6432 8.16667 6.41675 8.16667ZM14.0001 3.5C15.2378 3.5 16.4247 3.99167 17.2999 4.86683C18.1751 5.742 18.6667 6.92899 18.6667 8.16667C18.6667 9.40434 18.1751 10.5913 17.2999 11.4665C16.4247 12.3417 15.2378 12.8333 14.0001 12.8333C12.7624 12.8333 11.5754 12.3417 10.7003 11.4665C9.82508 10.5913 9.33342 9.40434 9.33342 8.16667C9.33342 6.92899 9.82508 5.742 10.7003 4.86683C11.5754 3.99167 12.7624 3.5 14.0001 3.5Z" fill="url(#paint0_linear_2228_47115)"/>
<defs>
<linearGradient id="paint0_linear_2228_47115" x1="14.0001" y1="3.5" x2="14.0001" y2="23.3333" gradientUnits="userSpaceOnUse">
<stop stop-color="white"/>
<stop offset="1" stop-color="white" stop-opacity="0.8"/>
</linearGradient>
</defs>
</svg>
