<svg width="20" height="26" viewBox="0 0 20 26" fill="none" xmlns="http://www.w3.org/2000/svg">
<path d="M15.1012 2.5H16.5625C17.3747 2.5 18.1537 2.82266 18.728 3.39699C19.3023 3.97132 19.625 4.75027 19.625 5.5625V22.1875C19.625 22.9997 19.3023 23.7787 18.728 24.353C18.1537 24.9273 17.3747 25.25 16.5625 25.25H3.4375C2.62527 25.25 1.84632 24.9273 1.27199 24.353C0.697655 23.7787 0.375 22.9997 0.375 22.1875V5.5625C0.375 4.75027 0.697655 3.97132 1.27199 3.39699C1.84632 2.82266 2.62527 2.5 3.4375 2.5H4.89875C5.07988 1.98806 5.41528 1.54487 5.85875 1.23146C6.30223 0.918052 6.83196 0.749843 7.375 0.75H12.625C13.7677 0.75 14.7408 1.48063 15.1012 2.5ZM12.625 2.5H7.375C7.14294 2.5 6.92038 2.59219 6.75628 2.75628C6.59219 2.92038 6.5 3.14294 6.5 3.375C6.5 3.60706 6.59219 3.82962 6.75628 3.99372C6.92038 4.15781 7.14294 4.25 7.375 4.25H12.625C12.8571 4.25 13.0796 4.15781 13.2437 3.99372C13.4078 3.82962 13.5 3.60706 13.5 3.375C13.5 3.14294 13.4078 2.92038 13.2437 2.75628C13.0796 2.59219 12.8571 2.5 12.625 2.5ZM5.625 9.5C5.39294 9.5 5.17038 9.59219 5.00628 9.75628C4.84219 9.92038 4.75 10.1429 4.75 10.375C4.75 10.6071 4.84219 10.8296 5.00628 10.9937C5.17038 11.1578 5.39294 11.25 5.625 11.25H14.375C14.6071 11.25 14.8296 11.1578 14.9937 10.9937C15.1578 10.8296 15.25 10.6071 15.25 10.375C15.25 10.1429 15.1578 9.92038 14.9937 9.75628C14.8296 9.59219 14.6071 9.5 14.375 9.5H5.625ZM4.75 14.75C4.75 14.9821 4.84219 15.2046 5.00628 15.3687C5.17038 15.5328 5.39294 15.625 5.625 15.625H10C10.2321 15.625 10.4546 15.5328 10.6187 15.3687C10.7828 15.2046 10.875 14.9821 10.875 14.75C10.875 14.5179 10.7828 14.2954 10.6187 14.1313C10.4546 13.9672 10.2321 13.875 10 13.875H5.625C5.39294 13.875 5.17038 13.9672 5.00628 14.1313C4.84219 14.2954 4.75 14.5179 4.75 14.75ZM5.625 18.25C5.39294 18.25 5.17038 18.3422 5.00628 18.5063C4.84219 18.6704 4.75 18.8929 4.75 19.125C4.75 19.3571 4.84219 19.5796 5.00628 19.7437C5.17038 19.9078 5.39294 20 5.625 20H12.625C12.8571 20 13.0796 19.9078 13.2437 19.7437C13.4078 19.5796 13.5 19.3571 13.5 19.125C13.5 18.8929 13.4078 18.6704 13.2437 18.5063C13.0796 18.3422 12.8571 18.25 12.625 18.25H5.625Z" fill="url(#paint0_linear_3604_1404)"/>
<defs>
<linearGradient id="paint0_linear_3604_1404" x1="10" y1="0.75" x2="10" y2="25.25" gradientUnits="userSpaceOnUse">
<stop stop-color="white"/>
<stop offset="1" stop-color="white" stop-opacity="0.8"/>
</linearGradient>
</defs>
</svg>
