<svg width="17" height="16" viewBox="0 0 17 16" fill="none" xmlns="http://www.w3.org/2000/svg">
<path d="M11 1.5H6V4H11V1.5Z" stroke="white" stroke-width="0.8" stroke-linecap="round" stroke-linejoin="round"/>
<path d="M11 2.5H13C13.1326 2.5 13.2598 2.55268 13.3536 2.64645C13.4473 2.74021 13.5 2.86739 13.5 3V13.5C13.5 13.6326 13.4473 13.7598 13.3536 13.8536C13.2598 13.9473 13.1326 14 13 14H4C3.86739 14 3.74021 13.9473 3.64645 13.8536C3.55268 13.7598 3.5 13.6326 3.5 13.5V3C3.5 2.86739 3.55268 2.74021 3.64645 2.64645C3.74021 2.55268 3.86739 2.5 4 2.5H6" stroke="white" stroke-width="0.8" stroke-linecap="round" stroke-linejoin="round"/>
<path d="M6.5 9.5H10.5" stroke="white" stroke-width="0.8" stroke-linecap="round" stroke-linejoin="round"/>
<path d="M6.5 7.5H10.5" stroke="white" stroke-width="0.8" stroke-linecap="round" stroke-linejoin="round"/>
</svg>
