<svg width="28" height="10" viewBox="0 0 28 10" fill="none" xmlns="http://www.w3.org/2000/svg">
<path d="M27.2076 4.06539C28.0729 3.42858 28.2576 2.2133 27.6208 1.34802C26.984 0.482747 25.7687 0.298025 24.9035 0.93483L19.0847 5.22233H13.2222C12.7944 5.22233 12.4444 4.87233 12.4444 4.44455C12.4444 4.01678 12.7944 3.66678 13.2222 3.66678H17.1111C17.9715 3.66678 18.6667 2.97164 18.6667 2.11122C18.6667 1.2508 17.9715 0.555664 17.1111 0.555664H9.41597C8.00139 0.555664 6.63056 1.03691 5.52708 1.91678L3.34444 3.66678H1.55556C0.695139 3.66678 0 4.36191 0 5.22233V8.33344C0 9.19386 0.695139 9.889 1.55556 9.889H17.1354C18.5451 9.889 19.9208 9.43692 21.0583 8.6008L27.2125 4.06539H27.2076ZM9.41111 3.66191C9.41343 3.66518 9.4149 3.66898 9.4154 3.67295C9.41589 3.67693 9.4154 3.68097 9.41396 3.68471C9.41252 3.68845 9.41017 3.69177 9.40714 3.69438C9.4041 3.697 9.40046 3.69882 9.39655 3.69969C9.39264 3.70056 9.38857 3.70045 9.38471 3.69937C9.38086 3.69829 9.37733 3.69627 9.37444 3.69349C9.37155 3.69071 9.36939 3.68726 9.36815 3.68345C9.36692 3.67964 9.36665 3.67558 9.36736 3.67164C9.36504 3.66837 9.36357 3.66457 9.36308 3.6606C9.36258 3.65662 9.36307 3.65258 9.36452 3.64884C9.36596 3.64511 9.3683 3.64178 9.37134 3.63917C9.37437 3.63655 9.37801 3.63473 9.38192 3.63386C9.38583 3.63299 9.3899 3.6331 9.39376 3.63418C9.39762 3.63527 9.40115 3.63729 9.40404 3.64006C9.40693 3.64284 9.40908 3.64629 9.41032 3.6501C9.41155 3.65391 9.41183 3.65797 9.41111 3.66191Z" fill="url(#paint0_linear_2096_11455)"/>
<defs>
<linearGradient id="paint0_linear_2096_11455" x1="13.9998" y1="0.555664" x2="13.9998" y2="9.889" gradientUnits="userSpaceOnUse">
<stop stop-color="white"/>
<stop offset="1" stop-color="white" stop-opacity="0.4"/>
</linearGradient>
</defs>
</svg>
