<svg width="28" height="28" viewBox="0 0 28 28" fill="none" xmlns="http://www.w3.org/2000/svg">
<path d="M20.5076 5.17059L18.1743 3.94559C16.1256 2.87109 15.1013 2.33325 13.9999 2.33325C12.8986 2.33325 11.8743 2.86992 9.82559 3.94559L9.45109 4.14275L19.8613 10.0916L24.5466 7.74658C23.7929 6.89258 22.5773 6.25442 20.5076 5.16825M25.3726 9.29125L20.7083 11.6246V15.1666C20.7083 15.3986 20.6161 15.6212 20.452 15.7853C20.2879 15.9494 20.0653 16.0416 19.8333 16.0416C19.6012 16.0416 19.3786 15.9494 19.2145 15.7853C19.0504 15.6212 18.9583 15.3986 18.9583 15.1666V12.4996L14.8749 14.5413V25.5546C15.7126 25.3458 16.6658 24.8464 18.1743 24.0543L20.5076 22.8293C23.0171 21.5121 24.2724 20.8541 24.9701 19.6699C25.6666 18.4869 25.6666 17.0134 25.6666 14.0699V13.9334C25.6666 11.7249 25.6666 10.3436 25.3726 9.29125ZM13.1249 25.5546V14.5413L2.62725 9.29125C2.33325 10.3436 2.33325 11.7249 2.33325 13.9311V14.0676C2.33325 17.0134 2.33325 18.4869 3.02975 19.6699C3.72742 20.8541 4.98275 21.5133 7.49225 22.8304L9.82559 24.0543C11.3341 24.8464 12.2873 25.3458 13.1249 25.5546ZM3.45325 7.74775L13.9999 13.0211L17.9794 11.0319L7.61242 5.10758L7.49225 5.17059C5.42375 6.25559 4.20692 6.89375 3.45325 7.74892" fill="url(#paint0_linear_2096_11457)"/>
<defs>
<linearGradient id="paint0_linear_2096_11457" x1="13.9999" y1="2.33325" x2="13.9999" y2="25.5546" gradientUnits="userSpaceOnUse">
<stop stop-color="white"/>
<stop offset="1" stop-color="white" stop-opacity="0.8"/>
</linearGradient>
</defs>
</svg>
