<svg width="16" height="16" viewBox="0 0 16 16" fill="none" xmlns="http://www.w3.org/2000/svg">
<path d="M7.66646 1.61744L2.62556 2.62562L1.61738 7.66652C1.60123 7.74724 1.60527 7.83069 1.62912 7.90947C1.65297 7.98826 1.69591 8.05993 1.75411 8.11813L8.28241 14.6464C8.32884 14.6929 8.38396 14.7297 8.44462 14.7548C8.50529 14.7799 8.5703 14.7929 8.63596 14.7929C8.70163 14.7929 8.76664 14.7799 8.82731 14.7548C8.88797 14.7297 8.94309 14.6929 8.98952 14.6464L14.6464 8.98958C14.6928 8.94315 14.7296 8.88803 14.7548 8.82737C14.7799 8.7667 14.7928 8.70169 14.7928 8.63603C14.7928 8.57036 14.7799 8.50535 14.7548 8.44468C14.7296 8.38402 14.6928 8.3289 14.6464 8.28247L8.11807 1.75417C8.05987 1.69597 7.98819 1.65303 7.90941 1.62918C7.83063 1.60533 7.74718 1.60129 7.66646 1.61744V1.61744Z" stroke="#F4AD22" stroke-linecap="round" stroke-linejoin="round"/>
<path d="M5.25 6C5.66421 6 6 5.66421 6 5.25C6 4.83579 5.66421 4.5 5.25 4.5C4.83579 4.5 4.5 4.83579 4.5 5.25C4.5 5.66421 4.83579 6 5.25 6Z" fill="#F4AD22"/>
</svg>
