<svg width="48" height="48" viewBox="0 0 48 48" fill="none" xmlns="http://www.w3.org/2000/svg">
<rect x="0.5" y="0.5" width="47" height="47" rx="7.5" fill="white" stroke="#0078D4"/>
<path d="M31.5625 17.125H16.4375C16.0578 17.125 15.75 17.4328 15.75 17.8125V30.1875C15.75 30.5672 16.0578 30.875 16.4375 30.875H31.5625C31.9422 30.875 32.25 30.5672 32.25 30.1875V17.8125C32.25 17.4328 31.9422 17.125 31.5625 17.125Z" stroke="#0078D4" stroke-linecap="round" stroke-linejoin="round"/>
<path d="M15.75 27.4375L20.0764 23.1112C20.1402 23.0473 20.216 22.9967 20.2994 22.9621C20.3828 22.9276 20.4722 22.9098 20.5625 22.9098C20.6528 22.9098 20.7422 22.9276 20.8256 22.9621C20.909 22.9967 20.9848 23.0473 21.0486 23.1112L24.8889 26.9514C24.9527 27.0152 25.0285 27.0659 25.1119 27.1004C25.1953 27.135 25.2847 27.1527 25.375 27.1527C25.4653 27.1527 25.5547 27.135 25.6381 27.1004C25.7215 27.0659 25.7973 27.0152 25.8611 26.9514L27.6389 25.1737C27.7027 25.1098 27.7785 25.0592 27.8619 25.0246C27.9453 24.9901 28.0347 24.9723 28.125 24.9723C28.2153 24.9723 28.3047 24.9901 28.3881 25.0246C28.4715 25.0592 28.5473 25.1098 28.6111 25.1737L32.25 28.8125" stroke="#0078D4" stroke-linecap="round" stroke-linejoin="round"/>
<path d="M26.4062 22.625C26.9758 22.625 27.4375 22.1633 27.4375 21.5938C27.4375 21.0242 26.9758 20.5625 26.4062 20.5625C25.8367 20.5625 25.375 21.0242 25.375 21.5938C25.375 22.1633 25.8367 22.625 26.4062 22.625Z" fill="#0078D4"/>
</svg>
