<svg width="68" height="44" viewBox="0 0 68 44" fill="none" xmlns="http://www.w3.org/2000/svg">
<rect x="0.5" y="0.5" width="67" height="43" rx="7.5" fill="white" stroke="#0078D4"/>
<path d="M28.8333 20C28.4667 20 28.1529 19.8696 27.892 19.6087C27.6311 19.3478 27.5004 19.0338 27.5 18.6667V9.33333C27.5 8.96667 27.6307 8.65289 27.892 8.392C28.1533 8.13111 28.4671 8.00044 28.8333 8H38.1667C38.5333 8 38.8473 8.13067 39.1087 8.392C39.37 8.65333 39.5004 8.96711 39.5 9.33333V18.6667C39.5 19.0333 39.3696 19.3473 39.1087 19.6087C38.8478 19.87 38.5338 20.0004 38.1667 20H28.8333ZM29.5 17.3333H37.5L35 14L33 16.6667L31.5 14.6667L29.5 17.3333Z" fill="#0078D4"/>
<mask id="path-3-outside-1_3435_25014" maskUnits="userSpaceOnUse" x="33.5" y="6" width="8" height="8" fill="black">
<rect fill="white" x="33.5" y="6" width="8" height="8"/>
<path fill-rule="evenodd" clip-rule="evenodd" d="M37.5 7C37.2515 7 37.05 7.20147 37.05 7.45V9.54922H34.95C34.7015 9.54922 34.5 9.75069 34.5 9.99922C34.5 10.2477 34.7015 10.4492 34.95 10.4492H37.05V12.55C37.05 12.7985 37.2515 13 37.5 13C37.7485 13 37.95 12.7985 37.95 12.55V10.4492H40.05C40.2985 10.4492 40.5 10.2477 40.5 9.99922C40.5 9.75069 40.2985 9.54922 40.05 9.54922H37.95V7.45C37.95 7.20147 37.7485 7 37.5 7Z"/>
</mask>
<path fill-rule="evenodd" clip-rule="evenodd" d="M37.5 7C37.2515 7 37.05 7.20147 37.05 7.45V9.54922H34.95C34.7015 9.54922 34.5 9.75069 34.5 9.99922C34.5 10.2477 34.7015 10.4492 34.95 10.4492H37.05V12.55C37.05 12.7985 37.2515 13 37.5 13C37.7485 13 37.95 12.7985 37.95 12.55V10.4492H40.05C40.2985 10.4492 40.5 10.2477 40.5 9.99922C40.5 9.75069 40.2985 9.54922 40.05 9.54922H37.95V7.45C37.95 7.20147 37.7485 7 37.5 7Z" fill="#0078D4"/>
<path d="M37.05 9.54922V9.94922H37.45V9.54922H37.05ZM37.05 10.4492H37.45V10.0492H37.05V10.4492ZM37.95 10.4492V10.0492H37.55V10.4492H37.95ZM37.95 9.54922H37.55V9.94922H37.95V9.54922ZM37.45 7.45C37.45 7.42239 37.4724 7.4 37.5 7.4V6.6C37.0306 6.6 36.65 6.98056 36.65 7.45H37.45ZM37.45 9.54922V7.45H36.65V9.54922H37.45ZM34.95 9.94922H37.05V9.14922H34.95V9.94922ZM34.9 9.99922C34.9 9.9716 34.9224 9.94922 34.95 9.94922V9.14922C34.4806 9.14922 34.1 9.52978 34.1 9.99922H34.9ZM34.95 10.0492C34.9224 10.0492 34.9 10.0268 34.9 9.99922H34.1C34.1 10.4687 34.4806 10.8492 34.95 10.8492V10.0492ZM37.05 10.0492H34.95V10.8492H37.05V10.0492ZM37.45 12.55V10.4492H36.65V12.55H37.45ZM37.5 12.6C37.4724 12.6 37.45 12.5776 37.45 12.55H36.65C36.65 13.0194 37.0306 13.4 37.5 13.4V12.6ZM37.55 12.55C37.55 12.5776 37.5276 12.6 37.5 12.6V13.4C37.9694 13.4 38.35 13.0194 38.35 12.55H37.55ZM37.55 10.4492V12.55H38.35V10.4492H37.55ZM40.05 10.0492H37.95V10.8492H40.05V10.0492ZM40.1 9.99922C40.1 10.0268 40.0776 10.0492 40.05 10.0492V10.8492C40.5194 10.8492 40.9 10.4687 40.9 9.99922H40.1ZM40.05 9.94922C40.0776 9.94922 40.1 9.9716 40.1 9.99922H40.9C40.9 9.52978 40.5194 9.14922 40.05 9.14922V9.94922ZM37.95 9.94922H40.05V9.14922H37.95V9.94922ZM37.55 7.45V9.54922H38.35V7.45H37.55ZM37.5 7.4C37.5276 7.4 37.55 7.42239 37.55 7.45H38.35C38.35 6.98056 37.9694 6.6 37.5 6.6V7.4Z" fill="white" mask="url(#path-3-outside-1_3435_25014)"/>
<path d="M8.61186 29.5085V28.7273H14.0664V29.5085H11.7795V36H10.8988V29.5085H8.61186ZM16.1749 36.1278C15.8292 36.1278 15.5156 36.0627 15.2338 35.9325C14.9521 35.8 14.7284 35.6094 14.5627 35.3608C14.397 35.1098 14.3141 34.8068 14.3141 34.4517C14.3141 34.1392 14.3757 33.8859 14.4988 33.6918C14.6219 33.4953 14.7864 33.3414 14.9924 33.2301C15.1983 33.1188 15.4256 33.036 15.6742 32.9815C15.9251 32.9247 16.1773 32.8797 16.4306 32.8466C16.762 32.804 17.0307 32.772 17.2367 32.7507C17.445 32.727 17.5965 32.688 17.6912 32.6335C17.7883 32.5791 17.8368 32.4844 17.8368 32.3494V32.321C17.8368 31.9706 17.7409 31.6984 17.5492 31.5043C17.3598 31.3101 17.0721 31.2131 16.6863 31.2131C16.2862 31.2131 15.9725 31.3007 15.7452 31.4759C15.5179 31.651 15.3581 31.8381 15.2658 32.0369L14.4703 31.7528C14.6124 31.4214 14.8018 31.1634 15.0385 30.9787C15.2776 30.7917 15.5381 30.6615 15.8198 30.5881C16.1039 30.5123 16.3832 30.4744 16.6578 30.4744C16.833 30.4744 17.0343 30.4957 17.2615 30.5384C17.4912 30.5786 17.7125 30.6626 17.9256 30.7905C18.141 30.9183 18.3198 31.1113 18.4618 31.3693C18.6039 31.6274 18.6749 31.973 18.6749 32.4062V36H17.8368V35.2614H17.7942C17.7374 35.3797 17.6427 35.5064 17.5101 35.6413C17.3775 35.7763 17.2012 35.8911 16.981 35.9858C16.7608 36.0805 16.4921 36.1278 16.1749 36.1278ZM16.3027 35.375C16.6342 35.375 16.9135 35.3099 17.1408 35.1797C17.3704 35.0495 17.5433 34.8814 17.6593 34.6754C17.7776 34.4695 17.8368 34.2528 17.8368 34.0256V33.2585C17.8013 33.3011 17.7232 33.3402 17.6025 33.3757C17.4841 33.4089 17.3468 33.4384 17.1905 33.4645C17.0366 33.4882 16.8863 33.5095 16.7395 33.5284C16.5951 33.545 16.4779 33.5592 16.388 33.571C16.1702 33.5994 15.9666 33.6456 15.7772 33.7095C15.5901 33.7711 15.4386 33.8646 15.3226 33.9901C15.209 34.1132 15.1522 34.2812 15.1522 34.4943C15.1522 34.7855 15.2599 35.0057 15.4753 35.1548C15.6931 35.3016 15.9689 35.375 16.3027 35.375ZM17.084 29.8068H16.388V29.0398C16.6365 29.0256 16.8117 28.9912 16.9135 28.9368C17.0177 28.8823 17.0698 28.7983 17.0698 28.6847C17.0698 28.5568 16.9952 28.4633 16.8461 28.4041C16.6969 28.3449 16.5158 28.3153 16.3027 28.3153L16.3311 27.7756C16.8212 27.7756 17.1917 27.8608 17.4426 28.0312C17.696 28.2017 17.8226 28.429 17.8226 28.7131C17.8226 28.9545 17.7457 29.1309 17.5918 29.2422C17.4379 29.3535 17.2686 29.4233 17.084 29.4517V29.8068ZM20.2045 36V30.5455H21.0426V36H20.2045ZM20.6307 29.6364C20.4673 29.6364 20.3265 29.5807 20.2081 29.4695C20.0921 29.3582 20.0341 29.2244 20.0341 29.0682C20.0341 28.9119 20.0921 28.7782 20.2081 28.6669C20.3265 28.5556 20.4673 28.5 20.6307 28.5C20.794 28.5 20.9337 28.5556 21.0497 28.6669C21.1681 28.7782 21.2273 28.9119 21.2273 29.0682C21.2273 29.2244 21.1681 29.3582 21.0497 29.4695C20.9337 29.5807 20.794 29.6364 20.6307 29.6364ZM26.9952 36.1278C26.6496 36.1278 26.3359 36.0627 26.0542 35.9325C25.7724 35.8 25.5487 35.6094 25.383 35.3608C25.2173 35.1098 25.1344 34.8068 25.1344 34.4517C25.1344 34.1392 25.196 33.8859 25.3191 33.6918C25.4422 33.4953 25.6067 33.3414 25.8127 33.2301C26.0186 33.1188 26.2459 33.036 26.4945 32.9815C26.7454 32.9247 26.9976 32.8797 27.2509 32.8466C27.5823 32.804 27.851 32.772 28.057 32.7507C28.2653 32.727 28.4168 32.688 28.5115 32.6335C28.6086 32.5791 28.6571 32.4844 28.6571 32.3494V32.321C28.6571 31.9706 28.5613 31.6984 28.3695 31.5043C28.1801 31.3101 27.8925 31.2131 27.5066 31.2131C27.1065 31.2131 26.7928 31.3007 26.5655 31.4759C26.3382 31.651 26.1784 31.8381 26.0861 32.0369L25.2907 31.7528C25.4327 31.4214 25.6221 31.1634 25.8588 30.9787C26.098 30.7917 26.3584 30.6615 26.6401 30.5881C26.9242 30.5123 27.2035 30.4744 27.4782 30.4744C27.6533 30.4744 27.8546 30.4957 28.0819 30.5384C28.3115 30.5786 28.5328 30.6626 28.7459 30.7905C28.9614 30.9183 29.1401 31.1113 29.2821 31.3693C29.4242 31.6274 29.4952 31.973 29.4952 32.4062V36H28.6571V35.2614H28.6145C28.5577 35.3797 28.463 35.5064 28.3304 35.6413C28.1979 35.7763 28.0215 35.8911 27.8013 35.9858C27.5811 36.0805 27.3124 36.1278 26.9952 36.1278ZM27.123 35.375C27.4545 35.375 27.7338 35.3099 27.9611 35.1797C28.1908 35.0495 28.3636 34.8814 28.4796 34.6754C28.598 34.4695 28.6571 34.2528 28.6571 34.0256V33.2585C28.6216 33.3011 28.5435 33.3402 28.4228 33.3757C28.3044 33.4089 28.1671 33.4384 28.0108 33.4645C27.8569 33.4882 27.7066 33.5095 27.5598 33.5284C27.4154 33.545 27.2982 33.5592 27.2083 33.571C26.9905 33.5994 26.7869 33.6456 26.5975 33.7095C26.4105 33.7711 26.2589 33.8646 26.1429 33.9901C26.0293 34.1132 25.9725 34.2812 25.9725 34.4943C25.9725 34.7855 26.0802 35.0057 26.2956 35.1548C26.5134 35.3016 26.7892 35.375 27.123 35.375ZM27.9043 29.8068H27.2083V29.0398C27.4569 29.0256 27.632 28.9912 27.7338 28.9368C27.838 28.8823 27.8901 28.7983 27.8901 28.6847C27.8901 28.5568 27.8155 28.4633 27.6664 28.4041C27.5172 28.3449 27.3361 28.3153 27.123 28.3153L27.1515 27.7756C27.6415 27.7756 28.012 27.8608 28.263 28.0312C28.5163 28.2017 28.6429 28.429 28.6429 28.7131C28.6429 28.9545 28.566 29.1309 28.4121 29.2422C28.2582 29.3535 28.089 29.4233 27.9043 29.4517V29.8068ZM31.8629 32.7188V36H31.0249V30.5455H31.8345V31.3977H31.9055C32.0334 31.1207 32.2275 30.8982 32.4879 30.7301C32.7483 30.5597 33.0845 30.4744 33.4964 30.4744C33.8658 30.4744 34.1889 30.5502 34.4659 30.7017C34.7429 30.8509 34.9583 31.0781 35.1122 31.3835C35.2661 31.6866 35.343 32.0701 35.343 32.5341V36H34.505V32.5909C34.505 32.1624 34.3937 31.8286 34.1712 31.5895C33.9486 31.348 33.6432 31.2273 33.255 31.2273C32.9875 31.2273 32.7483 31.2853 32.5376 31.4013C32.3293 31.5173 32.1648 31.6866 32.044 31.9091C31.9233 32.1316 31.8629 32.4015 31.8629 32.7188ZM37.7125 32.7188V36H36.8745V28.7273H37.7125V31.3977H37.7836C37.9114 31.116 38.1032 30.8923 38.3588 30.7266C38.6169 30.5585 38.9602 30.4744 39.3887 30.4744C39.7604 30.4744 40.0859 30.549 40.3652 30.6982C40.6446 30.8449 40.8612 31.071 41.0151 31.3764C41.1713 31.6795 41.2495 32.0653 41.2495 32.5341V36H40.4114V32.5909C40.4114 32.1577 40.2989 31.8227 40.074 31.5859C39.8515 31.3468 39.5426 31.2273 39.1472 31.2273C38.8726 31.2273 38.6264 31.2853 38.4086 31.4013C38.1931 31.5173 38.0227 31.6866 37.8972 31.9091C37.7741 32.1316 37.7125 32.4015 37.7125 32.7188ZM46.4332 28.7273V36H45.5952V28.7273H46.4332ZM50.2551 36.1136C49.7296 36.1136 49.2762 35.9976 48.8951 35.7656C48.5163 35.5312 48.2239 35.2045 48.0179 34.7855C47.8143 34.3641 47.7125 33.8741 47.7125 33.3153C47.7125 32.7566 47.8143 32.2642 48.0179 31.8381C48.2239 31.4096 48.5104 31.0758 48.8773 30.8366C49.2466 30.5952 49.6775 30.4744 50.1699 30.4744C50.454 30.4744 50.7346 30.5218 51.0115 30.6165C51.2885 30.7112 51.5407 30.8651 51.7679 31.0781C51.9952 31.2888 52.1763 31.5682 52.3113 31.9162C52.4462 32.2642 52.5137 32.6927 52.5137 33.2017V33.5568H48.3091V32.8324H51.6614C51.6614 32.5246 51.5998 32.25 51.4767 32.0085C51.356 31.767 51.1832 31.5765 50.9583 31.4368C50.7357 31.2971 50.473 31.2273 50.1699 31.2273C49.8361 31.2273 49.5473 31.3101 49.3034 31.4759C49.062 31.6392 48.8761 31.8523 48.7459 32.1151C48.6157 32.3778 48.5506 32.6596 48.5506 32.9602V33.4432C48.5506 33.8551 48.6216 34.2043 48.7637 34.4908C48.9081 34.7749 49.1081 34.9915 49.3638 35.1406C49.6195 35.2874 49.9166 35.3608 50.2551 35.3608C50.4753 35.3608 50.6742 35.33 50.8517 35.2685C51.0317 35.2045 51.1867 35.1098 51.3169 34.9844C51.4471 34.8565 51.5478 34.6979 51.6188 34.5085L52.4284 34.7358C52.3432 35.0104 52.2 35.2519 51.9988 35.4602C51.7975 35.6662 51.5489 35.8272 51.253 35.9432C50.9571 36.0568 50.6245 36.1136 50.2551 36.1136ZM50.8659 29.892L50.1273 28.8977L49.3887 29.892H48.5932V29.8352L49.7438 28.358H50.5108L51.6614 29.8352V29.892H50.8659ZM54.6266 32.7188V36H53.7885V30.5455H54.5982V31.3977H54.6692C54.7971 31.1207 54.9912 30.8982 55.2516 30.7301C55.512 30.5597 55.8482 30.4744 56.2601 30.4744C56.6294 30.4744 56.9526 30.5502 57.2296 30.7017C57.5066 30.8509 57.722 31.0781 57.8759 31.3835C58.0298 31.6866 58.1067 32.0701 58.1067 32.5341V36H57.2686V32.5909C57.2686 32.1624 57.1574 31.8286 56.9348 31.5895C56.7123 31.348 56.4069 31.2273 56.0186 31.2273C55.7511 31.2273 55.512 31.2853 55.3013 31.4013C55.093 31.5173 54.9284 31.6866 54.8077 31.9091C54.687 32.1316 54.6266 32.4015 54.6266 32.7188Z" fill="#0078D4"/>
</svg>
