<svg width="36" height="30" viewBox="0 0 36 30" fill="none" xmlns="http://www.w3.org/2000/svg">
<rect x="0.5" y="0.5" width="35" height="29" rx="7.5" stroke="#0078D4"/>
<path d="M23 10.5H21.2675L20.4156 9.2225C20.37 9.15409 20.3082 9.098 20.2357 9.05919C20.1632 9.02038 20.0822 9.00005 20 9H16C15.9178 9.00005 15.8368 9.02038 15.7643 9.05919C15.6918 9.098 15.63 9.15409 15.5844 9.2225L14.7319 10.5H13C12.6022 10.5 12.2206 10.658 11.9393 10.9393C11.658 11.2206 11.5 11.6022 11.5 12V19C11.5 19.3978 11.658 19.7794 11.9393 20.0607C12.2206 20.342 12.6022 20.5 13 20.5H23C23.3978 20.5 23.7794 20.342 24.0607 20.0607C24.342 19.7794 24.5 19.3978 24.5 19V12C24.5 11.6022 24.342 11.2206 24.0607 10.9393C23.7794 10.658 23.3978 10.5 23 10.5ZM20.25 15.25C20.25 15.695 20.118 16.13 19.8708 16.5C19.6236 16.87 19.2722 17.1584 18.861 17.3287C18.4499 17.499 17.9975 17.5436 17.561 17.4568C17.1246 17.37 16.7237 17.1557 16.409 16.841C16.0943 16.5263 15.88 16.1254 15.7932 15.689C15.7064 15.2525 15.751 14.8001 15.9213 14.389C16.0916 13.9778 16.38 13.6264 16.75 13.3792C17.12 13.132 17.555 13 18 13C18.5967 13 19.169 13.2371 19.591 13.659C20.0129 14.081 20.25 14.6533 20.25 15.25Z" fill="#0078D4"/>
<g clip-path="url(#clip0_3452_33451)">
<mask id="path-3-outside-1_3452_33451" maskUnits="userSpaceOnUse" x="18" y="7" width="8" height="8" fill="black">
<rect fill="white" x="18" y="7" width="8" height="8"/>
<path fill-rule="evenodd" clip-rule="evenodd" d="M22 8C21.7515 8 21.55 8.20147 21.55 8.45V10.5488H19.45C19.2015 10.5488 19 10.7503 19 10.9988C19 11.2474 19.2015 11.4488 19.45 11.4488H21.55V13.55C21.55 13.7985 21.7515 14 22 14C22.2485 14 22.45 13.7985 22.45 13.55V11.4488H24.55C24.7985 11.4488 25 11.2474 25 10.9988C25 10.7503 24.7985 10.5488 24.55 10.5488H22.45V8.45C22.45 8.20147 22.2485 8 22 8Z"/>
</mask>
<path fill-rule="evenodd" clip-rule="evenodd" d="M22 8C21.7515 8 21.55 8.20147 21.55 8.45V10.5488H19.45C19.2015 10.5488 19 10.7503 19 10.9988C19 11.2474 19.2015 11.4488 19.45 11.4488H21.55V13.55C21.55 13.7985 21.7515 14 22 14C22.2485 14 22.45 13.7985 22.45 13.55V11.4488H24.55C24.7985 11.4488 25 11.2474 25 10.9988C25 10.7503 24.7985 10.5488 24.55 10.5488H22.45V8.45C22.45 8.20147 22.2485 8 22 8Z" fill="#0078D4"/>
<path d="M21.55 10.5488V10.9488H21.95V10.5488H21.55ZM21.55 11.4488H21.95V11.0488H21.55V11.4488ZM22.45 11.4488V11.0488H22.05V11.4488H22.45ZM22.45 10.5488H22.05V10.9488H22.45V10.5488ZM21.95 8.45C21.95 8.42239 21.9724 8.4 22 8.4V7.6C21.5306 7.6 21.15 7.98056 21.15 8.45H21.95ZM21.95 10.5488V8.45H21.15V10.5488H21.95ZM19.45 10.9488H21.55V10.1488H19.45V10.9488ZM19.4 10.9988C19.4 10.9712 19.4224 10.9488 19.45 10.9488V10.1488C18.9806 10.1488 18.6 10.5294 18.6 10.9988H19.4ZM19.45 11.0488C19.4224 11.0488 19.4 11.0264 19.4 10.9988H18.6C18.6 11.4683 18.9806 11.8488 19.45 11.8488V11.0488ZM21.55 11.0488H19.45V11.8488H21.55V11.0488ZM21.95 13.55V11.4488H21.15V13.55H21.95ZM22 13.6C21.9724 13.6 21.95 13.5776 21.95 13.55H21.15C21.15 14.0194 21.5306 14.4 22 14.4V13.6ZM22.05 13.55C22.05 13.5776 22.0276 13.6 22 13.6V14.4C22.4694 14.4 22.85 14.0194 22.85 13.55H22.05ZM22.05 11.4488V13.55H22.85V11.4488H22.05ZM24.55 11.0488H22.45V11.8488H24.55V11.0488ZM24.6 10.9988C24.6 11.0264 24.5776 11.0488 24.55 11.0488V11.8488C25.0194 11.8488 25.4 11.4683 25.4 10.9988H24.6ZM24.55 10.9488C24.5776 10.9488 24.6 10.9712 24.6 10.9988H25.4C25.4 10.5294 25.0194 10.1488 24.55 10.1488V10.9488ZM22.45 10.9488H24.55V10.1488H22.45V10.9488ZM22.05 8.45V10.5488H22.85V8.45H22.05ZM22 8.4C22.0276 8.4 22.05 8.42239 22.05 8.45H22.85C22.85 7.98056 22.4694 7.6 22 7.6V8.4Z" fill="white" mask="url(#path-3-outside-1_3452_33451)"/>
</g>
<defs>
<clipPath id="clip0_3452_33451">
<rect width="8" height="8" fill="white" transform="translate(18 7)"/>
</clipPath>
</defs>
</svg>
