<svg width="204" height="175" viewBox="0 0 174 125" fill="none" xmlns="http://www.w3.org/2000/svg">
<g clip-path="url(#clip0_2096_7854)">
<path d="M38.3932 102.82V115.563H31.5447C31.5447 115.428 31.5177 115.286 31.5177 115.144C31.5177 107.184 31.5177 99.2276 31.5177 91.2675C31.5177 85.3481 36.0135 80.1369 41.9019 79.1622C45.0157 78.5931 48.23 79.221 50.8988 80.9198C53.5676 82.6185 55.4931 85.2623 56.2884 88.3196C58.2862 96.4719 52.6783 102.779 46.5498 103.892C43.9187 104.417 41.1887 104.092 38.7549 102.965C38.6636 102.921 38.5656 102.874 38.3932 102.82ZM38.3932 91.5441C38.3919 92.6696 38.7247 93.7702 39.3496 94.7071C39.9745 95.644 40.8635 96.3752 41.9045 96.8085C42.9454 97.2418 44.0916 97.3577 45.1986 97.1416C46.3055 96.9256 47.3234 96.3872 48.124 95.5945C48.9246 94.8017 49.472 93.7901 49.697 92.6873C49.922 91.5845 49.8147 90.4399 49.3884 89.3979C48.9622 88.356 48.2362 87.4633 47.3021 86.8326C46.368 86.2019 45.2675 85.8614 44.1397 85.854C43.3844 85.8381 42.6336 85.9741 41.9321 86.2539C41.2306 86.5336 40.5927 86.9514 40.0564 87.4824C39.5202 88.0134 39.0966 88.6467 38.8108 89.3445C38.5251 90.0423 38.383 90.7904 38.3932 91.5441Z" fill="white"/>
<path d="M114.886 80.2145V69.4211H121.734C121.734 69.5662 121.751 69.6977 121.751 69.8293C121.751 77.0878 121.757 84.3451 121.768 91.6014C121.76 93.9832 121.074 96.3138 119.79 98.3221C118.507 100.33 116.679 101.934 114.518 102.946C112.357 103.958 109.953 104.338 107.584 104.04C105.216 103.743 102.981 102.78 101.139 101.265C99.2972 99.7499 97.9242 97.7442 97.1798 95.4811C96.4354 93.218 96.3501 90.7906 96.9339 88.4811C97.5176 86.1715 98.7464 84.0748 100.477 82.4347C102.208 80.7945 104.37 79.6784 106.712 79.2161C109.343 78.6968 112.072 79.0215 114.507 80.1436C114.593 80.1823 114.681 80.2161 114.771 80.2448C114.81 80.2415 114.849 80.2313 114.886 80.2145ZM109.183 85.854C106.175 85.7022 103.437 88.441 103.437 91.4395C103.464 94.7382 105.904 97.2476 109.149 97.2476C109.899 97.2488 110.642 97.1025 111.335 96.8172C112.028 96.5319 112.658 96.1133 113.189 95.585C113.72 95.0568 114.141 94.4294 114.429 93.7387C114.717 93.0479 114.866 92.3073 114.867 91.5592C114.868 90.8111 114.722 90.0701 114.436 89.3785C114.15 88.6869 113.73 88.0583 113.201 87.5285C112.671 86.9987 112.043 86.5781 111.35 86.2908C110.658 86.0035 109.916 85.8551 109.166 85.854H109.183Z" fill="white"/>
<path d="M25.1831 103.505H18.3482L18.3076 102.83C17.7262 103.059 17.1752 103.312 16.6175 103.488C8.5758 105.97 1.84228 100.806 0.392139 94.5698C-1.41969 86.8121 3.70144 80.8049 9.34651 79.3917C17.5775 77.3274 23.7397 82.9838 24.9195 88.765C25.1042 89.6893 25.2015 90.6288 25.2102 91.5712C25.2406 95.4298 25.2102 99.2851 25.2102 103.144C25.2 103.252 25.1899 103.36 25.1831 103.505ZM12.5747 97.2478C13.3286 97.2595 14.0772 97.1208 14.7766 96.8398C15.476 96.5587 16.112 96.141 16.6474 95.6112C17.1827 95.0815 17.6065 94.4503 17.894 93.7548C18.1814 93.0593 18.3267 92.3134 18.3212 91.5611C18.3266 90.0562 17.7369 88.6098 16.6799 87.5362C15.623 86.4626 14.1842 85.8485 12.6761 85.8272C11.1508 85.8235 9.68544 86.4197 8.59774 87.4868C7.51004 88.5538 6.88761 90.0055 6.86538 91.5274C6.86316 92.2772 7.00914 93.0202 7.29498 93.7137C7.58082 94.4072 8.00091 95.0376 8.5312 95.569C9.06149 96.1003 9.69158 96.522 10.3854 96.8101C11.0792 97.0982 11.8232 97.247 12.5747 97.2478Z" fill="white"/>
<path d="M154.435 78.9868C161.236 78.8283 167.111 84.6668 167.043 91.5745C167.034 94.9077 165.699 98.1009 163.333 100.454C160.967 102.807 157.762 104.127 154.421 104.125C147.708 104.189 141.759 98.5261 141.823 91.4193C141.887 84.4948 147.756 78.8316 154.435 78.9868ZM154.435 85.854C151.491 85.6955 148.661 88.3736 148.688 91.5172C148.685 92.2666 148.828 93.0095 149.112 93.7034C149.396 94.3974 149.814 95.0287 150.342 95.5615C150.87 96.0942 151.499 96.518 152.191 96.8084C152.883 97.0989 153.626 97.2505 154.378 97.2545C155.129 97.2585 155.873 97.1148 156.569 96.8317C157.264 96.5486 157.897 96.1315 158.431 95.6044C158.965 95.0773 159.389 94.4504 159.68 93.7595C159.971 93.0686 160.123 92.3273 160.127 91.5779C160.142 90.8271 160.005 90.081 159.726 89.3838C159.446 88.6866 159.029 88.0524 158.5 87.5187C157.97 86.985 157.339 86.5628 156.643 86.2768C155.947 85.9909 155.201 85.8471 154.449 85.854H154.435Z" fill="white"/>
<path d="M75.6338 78.9868C82.2659 78.8485 88.2389 84.5217 88.1983 91.625C88.1645 98.553 82.3166 104.155 75.5594 104.142C68.7313 104.142 62.924 98.381 62.9679 91.4497C63.0118 84.66 68.7752 78.8114 75.6338 78.9868ZM75.5662 85.854C74.052 85.8589 72.6018 86.4638 71.5346 87.5357C70.4674 88.6075 69.8706 90.0585 69.8755 91.5694C69.8804 93.0803 70.4867 94.5274 71.5609 95.5922C72.6351 96.6571 74.0892 97.2526 75.6034 97.2477C76.3538 97.2495 77.0972 97.1033 77.7909 96.8177C78.4845 96.5321 79.1149 96.1126 79.6456 95.5833C80.1764 95.054 80.5972 94.4253 80.8839 93.7333C81.1705 93.0413 81.3174 92.2996 81.3161 91.5508C81.3566 88.3702 78.5104 85.6887 75.5662 85.854Z" fill="white"/>
<path d="M83.307 20.6118L103.142 40.4142L83.2901 60.2334L63.4546 40.431L83.307 20.6118ZM83.2799 55.5788L98.4202 40.4749L83.2461 25.317L68.1059 40.431L83.2799 55.5788Z" fill="white"/>
<path d="M85.1831 62.4224C91.8761 55.7395 98.524 49.1061 105.127 42.5222L125.07 62.4224H124.624C123.421 62.4224 122.221 62.4224 121.017 62.4224C120.879 62.4295 120.74 62.4064 120.611 62.3545C120.482 62.3027 120.366 62.2234 120.27 62.1222C115.358 57.2045 110.439 52.2913 105.515 47.3826C105.414 47.278 105.306 47.1802 105.069 46.9542C104.992 47.12 104.895 47.2761 104.782 47.4197C99.8941 52.3059 95.0062 57.1921 90.1183 62.0783C90.01 62.1927 89.8779 62.2821 89.7314 62.3404C89.5849 62.3987 89.4274 62.4243 89.2699 62.4156C87.9178 62.3988 86.569 62.4224 85.1831 62.4224Z" fill="white"/>
<path d="M135.624 103.548C135.482 103.548 135.377 103.548 135.269 103.548C133.241 103.548 131.212 103.548 129.184 103.548C128.846 103.548 128.779 103.444 128.779 103.13C128.779 95.4286 128.779 87.726 128.779 80.0223C128.779 79.9042 128.779 79.7828 128.799 79.6411H135.613L135.624 103.548Z" fill="white"/>
<path d="M41.4795 62.3987L61.3961 42.5188L81.3093 62.3987C81.2417 62.3987 81.1167 62.419 80.995 62.419C79.724 62.419 78.453 62.419 77.1854 62.419C77.0582 62.4239 76.9315 62.4004 76.8145 62.3502C76.6976 62.3 76.5933 62.2244 76.5093 62.1289C71.6102 57.2314 66.711 52.3373 61.8119 47.4466C61.6868 47.3218 61.5786 47.1835 61.4333 47.0149C61.2778 47.1633 61.1595 47.2679 61.0513 47.3758C56.1386 52.2778 51.2293 57.1808 46.3234 62.085C46.2222 62.1984 46.0968 62.2875 45.9563 62.3459C45.8159 62.4043 45.6641 62.4304 45.5122 62.4223C44.2817 62.4055 43.0513 62.4223 41.8209 62.4223C41.6992 62.4223 41.5775 62.3987 41.4795 62.3987Z" fill="white"/>
<path d="M113.398 62.3988H96.9769L105.188 54.2026L113.398 62.3988Z" fill="white"/>
<path d="M61.4197 54.1689L69.6338 62.3786H53.1989L61.4197 54.1689Z" fill="white"/>
<path d="M88.1848 5.53151C88.4282 5.19422 88.6141 4.96486 88.7933 4.71526C89.5606 3.67304 90.3313 2.63418 91.0817 1.57846C91.1848 1.40363 91.3423 1.26718 91.5302 1.18986C91.7181 1.11253 91.9262 1.09857 92.1229 1.1501C92.3088 1.1872 92.4981 1.21081 92.684 1.24454C93.2958 1.35922 93.36 1.54473 93.022 2.04055L92.1905 3.18734C90.8383 5.04244 89.4862 6.89754 88.1341 8.74252C88.0158 8.90442 87.7623 9.07981 87.6102 9.07981C87.4581 9.07981 87.2722 8.78637 87.2248 8.59411C86.3933 5.96324 85.5707 3.33012 84.7572 0.694757C84.5747 0.101126 84.7167 -0.0607741 85.3183 0.0437861C86.6705 0.27989 86.4879 0.161838 86.9003 1.44354C87.3127 2.72525 87.7352 4.09802 88.1848 5.53151Z" fill="white"/>
<path d="M78.7606 5.50796C78.8992 5.07285 79.0243 4.69508 79.1426 4.31394C79.4806 3.17053 79.8592 2.03049 80.2006 0.880324C80.2297 0.679464 80.3286 0.495178 80.4799 0.359578C80.6313 0.223979 80.8255 0.145665 81.0288 0.138284C81.2417 0.138284 81.4513 0.057334 81.6642 0.0236049C82.1848 -0.0640907 82.3403 0.118046 82.1983 0.62061C81.7893 1.96977 81.3735 3.29533 80.9611 4.63437C80.5488 5.97342 80.1566 7.28548 79.7273 8.60429C79.6976 8.70592 79.6471 8.80033 79.579 8.88158C79.5109 8.96284 79.4268 9.02919 79.3319 9.07649C79.2034 9.11359 78.9499 8.92134 78.8383 8.76956C77.1786 6.52657 75.5358 4.2701 73.8896 2.02374C73.5516 1.58526 73.6462 1.39301 74.1837 1.29519C75.5865 1.0321 75.4141 1.0321 76.1781 2.07433L78.5104 5.228C78.5578 5.30221 78.6321 5.37641 78.7606 5.50796Z" fill="white"/>
<path d="M54.7977 31.4457C54.5915 31.3108 54.4597 31.2198 54.3245 31.1388C53.0975 30.3833 51.8738 29.6176 50.6332 28.879C50.444 28.7877 50.2908 28.6358 50.1983 28.4474C50.1058 28.2591 50.0792 28.0453 50.1228 27.8401C50.16 27.604 50.1668 27.3578 50.1938 27.1183C50.2377 26.781 50.4372 26.6562 50.7617 26.8114C50.9285 26.8995 51.09 26.9975 51.2451 27.1048L57.9076 31.1725C57.994 31.2103 58.0739 31.2615 58.1442 31.3243C58.249 31.4525 58.4146 31.6178 58.3944 31.7358C58.3678 31.8194 58.324 31.8965 58.2658 31.9621C58.2076 32.0278 58.1362 32.0805 58.0563 32.117C56.4372 32.7915 54.8079 33.4223 53.1786 34.0699C52.178 34.4701 51.1763 34.8681 50.1735 35.2639C49.68 35.4595 49.5144 35.3482 49.5482 34.8187C49.6428 33.3548 49.609 33.5403 50.7414 33.085L54.7977 31.4457Z" fill="white"/>
<path d="M112.192 31.3917L114.074 32.1405C114.95 32.4778 115.822 32.8555 116.708 33.1827C116.919 33.2342 117.105 33.3594 117.232 33.5356C117.359 33.7119 117.419 33.9277 117.401 34.144C117.401 34.343 117.441 34.5454 117.458 34.7477C117.499 35.22 117.303 35.3785 116.856 35.2065C115.751 34.7781 114.649 34.3396 113.547 33.9045C112.043 33.3109 110.535 32.724 109.038 32.1135C108.938 32.0748 108.848 32.0158 108.773 31.9403C108.698 31.8648 108.64 31.7744 108.602 31.675C108.578 31.5435 108.788 31.3108 108.94 31.2129C111.29 29.7513 113.644 28.301 116.001 26.8619C116.549 26.5246 116.701 26.5954 116.789 27.1992C116.787 27.2261 116.787 27.2532 116.789 27.2801C116.898 27.6202 116.874 27.9887 116.722 28.312C116.571 28.6353 116.302 28.8896 115.971 29.0239C114.781 29.658 113.665 30.4271 112.519 31.1387C112.438 31.2163 112.344 31.2871 112.192 31.3917Z" fill="white"/>
<path d="M69.6947 8.52998C69.6947 7.25839 69.6947 6.02053 69.6947 4.78605C69.6694 4.35581 69.6694 3.92446 69.6947 3.49422C69.7476 3.23994 69.8845 3.01072 70.0834 2.84325C70.3215 2.66723 70.5818 2.52321 70.8575 2.41489C71.2462 2.22601 71.4423 2.34069 71.4592 2.77242C71.52 4.41503 71.5674 6.05763 71.6248 7.70024C71.662 8.87401 71.7127 10.0613 71.7398 11.2148C71.7398 11.3969 71.6823 11.6803 71.564 11.7342C71.467 11.7662 71.364 11.7759 71.2627 11.7625C71.1614 11.749 71.0645 11.7128 70.9792 11.6567C68.6468 10.0467 66.3223 8.42654 64.0057 6.7963C63.644 6.54333 63.6677 6.31735 64.0327 6.09474L64.0699 6.0745C65.3139 5.39992 65.1584 5.37968 66.2874 6.17231C67.3015 6.89074 68.3527 7.60243 69.3837 8.31411C69.4817 8.39506 69.6034 8.47264 69.6947 8.52998Z" fill="white"/>
<path d="M97.1595 8.57062L99.8806 6.67168C100.337 6.35462 100.79 6.04094 101.233 5.72051C101.363 5.61196 101.525 5.54785 101.695 5.53754C101.864 5.52723 102.033 5.57124 102.176 5.66318C102.385 5.7846 102.605 5.88916 102.818 6.00047C103.291 6.26018 103.312 6.48616 102.876 6.7931L99.9955 8.81684C98.6907 9.73203 97.3871 10.6461 96.0846 11.559C95.9683 11.6508 95.8382 11.7236 95.6992 11.7749C95.4051 11.8626 95.1955 11.6535 95.2057 11.2757C95.2429 9.98387 95.2868 8.69205 95.324 7.40022C95.3691 5.87567 95.4107 4.35336 95.4491 2.8333C95.466 2.26328 95.6248 2.19245 96.1589 2.41506C96.9533 2.75236 97.3555 3.19421 97.2474 4.15886C97.0986 5.48104 97.1527 6.82346 97.1223 8.15913C97.1274 8.29685 97.1398 8.43422 97.1595 8.57062Z" fill="white"/>
<path d="M109.839 22.2611L113.922 22.4567C114.056 22.4751 114.19 22.4852 114.325 22.4871C115.558 22.4028 115.474 22.7637 115.967 23.9206C116.099 24.2275 115.869 24.3658 115.575 24.3557C114.796 24.3287 114.014 24.2961 113.229 24.2579L108.058 24.0184C107.747 24.0015 107.439 23.9746 107.128 23.9644C106.885 23.9644 106.577 23.9948 106.523 23.7047C106.512 23.4872 106.584 23.2736 106.726 23.1077C107.966 21.5798 109.224 20.0721 110.478 18.5475C110.992 17.9236 111.492 17.2962 112.023 16.6756C112.378 16.2506 112.584 16.2742 112.81 16.7666C113.408 18.0686 113.351 17.9236 112.523 18.9287C111.695 19.9338 110.873 20.912 110.069 21.9238C110.005 22.0081 109.95 22.0958 109.839 22.2611Z" fill="white"/>
<path d="M55.5482 40.8393L51.0254 39.8274C50.6337 39.7449 50.2879 39.5174 50.0577 39.1907C49.8275 38.864 49.73 38.4623 49.7848 38.0667C49.822 37.7767 50.0147 37.7294 50.258 37.7969L53.4186 38.4715L58.4789 39.6048C58.5702 39.625 58.6648 39.6452 58.7527 39.6722C58.8307 39.6817 58.904 39.7142 58.9635 39.7654C59.0229 39.8167 59.0657 39.8845 59.0863 39.9601C59.107 40.0357 59.1046 40.1158 59.0795 40.1901C59.0544 40.2643 59.0077 40.3295 58.9454 40.3772C58.8135 40.5121 58.6614 40.6301 58.5194 40.7516L52.4654 45.9357C52.0023 46.3303 51.8096 46.273 51.6676 45.6962C51.3566 44.4213 51.2586 44.5629 52.293 43.6725C53.2496 42.8596 54.1927 42.0299 55.1392 41.2103L55.5482 40.8393Z" fill="white"/>
<path d="M57.1268 22.2814C57.0017 22.1195 56.9172 22.0048 56.8293 21.8969C55.8998 20.7737 54.9803 19.6438 54.0406 18.524C53.8899 18.3778 53.7926 18.1853 53.7644 17.9774C53.7362 17.7695 53.7787 17.5582 53.8851 17.3772C53.9831 17.1849 54.0609 16.9826 54.1522 16.7869C54.3584 16.3451 54.5781 16.308 54.8958 16.6824C55.6665 17.6032 56.4305 18.5274 57.1978 19.4515C58.2119 20.6793 59.226 21.9003 60.24 23.1348C60.3116 23.215 60.3657 23.3092 60.3988 23.4114C60.432 23.5136 60.4435 23.6215 60.4327 23.7284C60.3719 23.8701 60.071 23.9814 59.8716 23.9915C57.0829 24.1433 54.2907 24.2748 51.502 24.4097C51.0153 24.4333 50.8699 24.2444 51.0558 23.806C51.671 22.3556 51.5054 22.6288 52.8203 22.531C54.1353 22.4332 55.4603 22.3893 56.782 22.3185C56.8699 22.3219 56.9612 22.305 57.1268 22.2814Z" fill="white"/>
<path d="M62.3222 14.3721C61.9504 13.3602 61.609 12.4563 61.2642 11.5388C61.0445 10.9621 60.8383 10.3752 60.5882 9.80515C60.4942 9.6245 60.4651 9.41719 60.5057 9.21773C60.5463 9.01828 60.6541 8.83872 60.8113 8.70895C60.9397 8.58753 61.0546 8.45599 61.1763 8.32781C61.6259 7.84549 61.8186 7.87922 62.0484 8.47622C62.6839 10.1492 63.3172 11.8233 63.9482 13.4985C64.2862 14.4193 64.658 15.3333 64.9859 16.2609C65.0199 16.355 65.0342 16.455 65.0278 16.5548C65.0214 16.6546 64.9945 16.7521 64.9487 16.841C64.871 16.9422 64.5769 16.9557 64.4079 16.9051C61.7037 16.1406 58.9994 15.3637 56.2952 14.5744C55.7949 14.4328 55.7341 14.2372 56.0856 13.8459C57.0186 12.834 56.8327 12.834 58.1814 13.2354C59.4389 13.5997 60.6963 13.9505 61.9572 14.3046C62.0484 14.3282 62.1397 14.3383 62.3222 14.3721Z" fill="white"/>
<path d="M111.475 40.8121C111.938 41.2101 112.364 41.5811 112.793 41.9454C113.591 42.62 114.389 43.3216 115.197 43.9928C115.355 44.102 115.474 44.2598 115.535 44.4424C115.596 44.6249 115.596 44.8222 115.535 45.0046C115.477 45.2138 115.427 45.4229 115.376 45.632C115.234 46.1852 115.038 46.2594 114.602 45.8951C113.858 45.2711 113.121 44.637 112.381 44.0096C111.005 42.8359 109.626 41.6688 108.26 40.4816C108.108 40.35 107.922 40.0903 107.976 39.9352C108.03 39.78 108.291 39.635 108.483 39.5979C111.164 38.9773 113.845 38.3735 116.528 37.7664C117.181 37.6213 117.265 37.7664 117.178 38.4072C117.063 39.2909 116.616 39.6856 115.738 39.834C114.409 40.0566 113.104 40.4141 111.793 40.7177C111.685 40.7429 111.579 40.7744 111.475 40.8121Z" fill="white"/>
<path d="M104.633 14.3585C106.239 13.8964 107.753 13.4748 109.261 13.0093C109.464 12.9158 109.694 12.896 109.911 12.9532C110.127 13.0105 110.317 13.1412 110.447 13.323C110.562 13.4714 110.704 13.5996 110.829 13.7413C111.201 14.1561 111.144 14.3619 110.596 14.5238C109.396 14.8611 108.193 15.2253 106.989 15.5761L102.761 16.8173C102.7 16.8477 102.635 16.866 102.568 16.8713C102.365 16.8713 102.088 16.9017 101.98 16.787C101.935 16.6975 101.909 16.5993 101.906 16.4991C101.902 16.399 101.921 16.2993 101.959 16.2069C102.734 14.1123 103.524 12.0244 104.309 9.93324C104.515 9.39358 104.714 8.85054 104.924 8.31087C105.103 7.8589 105.319 7.82517 105.657 8.1827L105.684 8.21306C106.715 9.30251 106.546 9.11362 106.114 10.311C105.681 11.5084 105.225 12.7058 104.782 13.9032C104.731 14.0246 104.697 14.1662 104.633 14.3585Z" fill="white"/>
<path d="M174 79.7659C174.002 80.2217 173.914 80.6734 173.741 81.0953C173.568 81.5171 173.314 81.9008 172.992 82.2245C172.67 82.5482 172.288 82.8056 171.867 82.9818C171.446 83.1581 170.994 83.2498 170.537 83.2518C170.08 83.2538 169.627 83.166 169.205 82.9934C168.782 82.8208 168.397 82.5669 168.073 82.246C167.748 81.9251 167.491 81.5436 167.314 81.1233C167.137 80.703 167.045 80.252 167.043 79.7963C167.043 77.7725 168.517 76.194 170.481 76.1771C172.445 76.1603 173.986 77.7152 174 79.7659ZM171.448 79.9177L172.546 81.6041C172.81 81.3595 173.02 81.0633 173.164 80.7339C173.308 80.4046 173.382 80.0492 173.382 79.69C173.382 79.3308 173.308 78.9754 173.164 78.6461C173.02 78.3168 172.81 78.0205 172.546 77.7759C172.274 77.5042 171.948 77.2907 171.59 77.1483C171.232 77.0058 170.849 76.9374 170.464 76.9472C170.078 76.957 169.699 77.0447 169.349 77.2051C168.998 77.3656 168.685 77.5953 168.426 77.8805C168.166 78.1562 167.968 78.4833 167.844 78.8406C167.719 79.1978 167.671 79.5771 167.703 79.954C167.735 80.3309 167.846 80.6969 168.029 81.0282C168.211 81.3596 168.462 81.6489 168.764 81.8774C169.873 82.7374 171.701 82.67 172.394 81.6817C171.718 81.9111 171.532 81.4389 171.282 81.0409C171.171 80.8554 171.052 80.6766 170.927 80.5012C170.589 80.0256 170.251 79.9278 169.626 80.1234V81.6851H169.014V77.6376H170.748C170.856 77.6376 170.964 77.6376 171.086 77.6376C171.789 77.7118 172.131 78.1031 172.154 78.8147C172.173 79.0502 172.114 79.2853 171.986 79.4844C171.859 79.6834 171.67 79.8355 171.448 79.9177ZM169.666 79.2431C170.101 79.2686 170.537 79.2619 170.971 79.2229C171.137 79.1993 171.272 78.9497 171.424 78.8013C171.279 78.6697 171.154 78.4842 170.985 78.4167C170.777 78.3614 170.561 78.3421 170.346 78.3594C169.538 78.3662 169.538 78.3695 169.666 79.2633V79.2431Z" fill="white"/>
<path d="M48.5104 124.875V123.145C48.5104 122.093 48.5104 121.04 48.5104 119.991C48.5104 119.654 48.6152 119.597 48.9228 119.576C49.1193 119.547 49.3201 119.583 49.4942 119.679C49.6683 119.774 49.806 119.924 49.8862 120.106C50.3628 120.932 50.9002 121.725 51.4715 122.629C51.4952 122.42 51.5154 122.312 51.5154 122.204C51.5154 121.448 51.5154 120.693 51.5154 119.937C51.5154 119.681 51.5864 119.576 51.8535 119.6C52.8676 119.627 52.6614 119.485 52.6681 120.41C52.6681 121.742 52.6681 123.077 52.6681 124.413V124.909C52.3529 124.926 52.0369 124.926 51.7216 124.909C51.6202 124.909 51.5121 124.761 51.4478 124.656C50.8867 123.786 50.3357 122.905 49.6901 122.035V124.902L48.5104 124.875Z" fill="white"/>
<path d="M119.037 121.954C119.244 122.216 119.421 122.5 119.564 122.801C119.654 123.029 119.687 123.275 119.661 123.518C119.635 123.762 119.551 123.996 119.415 124.2C119.278 124.403 119.095 124.571 118.879 124.689C118.664 124.807 118.423 124.87 118.178 124.875C117.36 124.929 116.535 124.875 115.68 124.875C115.68 124.744 115.653 124.626 115.653 124.507C115.653 122.996 115.653 121.489 115.653 119.978C115.653 119.64 115.761 119.559 116.072 119.573C116.664 119.603 117.259 119.593 117.854 119.62C119.121 119.688 119.757 120.969 119.037 121.954ZM116.826 123.91C117.208 123.91 117.543 123.927 117.877 123.91C118.212 123.894 118.479 123.752 118.496 123.357C118.508 123.277 118.504 123.196 118.483 123.117C118.462 123.039 118.425 122.966 118.375 122.903C118.324 122.839 118.261 122.787 118.19 122.749C118.118 122.711 118.039 122.689 117.958 122.683C117.581 122.661 117.203 122.661 116.826 122.683V123.91ZM116.826 121.641C117.164 121.641 117.431 121.657 117.708 121.641C117.773 121.641 117.837 121.628 117.896 121.602C117.956 121.577 118.009 121.54 118.054 121.493C118.098 121.446 118.133 121.391 118.156 121.331C118.178 121.27 118.188 121.206 118.185 121.141C118.192 121.08 118.186 121.019 118.169 120.96C118.151 120.901 118.122 120.847 118.083 120.799C118.044 120.752 117.996 120.713 117.941 120.685C117.887 120.657 117.827 120.64 117.766 120.635C117.453 120.619 117.139 120.619 116.826 120.635V121.641Z" fill="white"/>
<path d="M72.1994 124.852C71.5065 125.027 71.0603 124.852 70.7392 124.177C70.3678 123.505 69.9605 122.853 69.5189 122.224C69.4537 122.111 69.3591 122.018 69.2451 121.954V124.855H68.1364V119.664C68.8124 119.445 69.1065 119.543 69.4614 120.106L70.9927 122.528H71.0806V119.634H72.1994V124.852Z" fill="white"/>
<path d="M76.8609 115.623H75.7589V110.335C76.0425 110.316 76.3271 110.316 76.6107 110.335C76.7458 110.374 76.8598 110.465 76.9285 110.588C77.4288 111.353 77.9122 112.132 78.4023 112.905C78.4726 113.045 78.5817 113.162 78.7167 113.242V110.368H79.822V115.583C79.0547 115.772 78.8789 115.704 78.4699 115.063C78.035 114.369 77.5955 113.674 77.1516 112.979C77.084 112.874 77.0029 112.777 76.8575 112.574L76.8609 115.623Z" fill="white"/>
<path d="M50.3662 113.023C50.526 113.201 50.6486 113.409 50.7269 113.635C50.8052 113.861 50.8378 114.1 50.8226 114.338C50.8421 114.626 50.9025 114.91 51.0017 115.181C51.1065 115.495 51.0355 115.627 50.7009 115.644C49.9268 115.677 49.6868 115.644 49.6868 114.75C49.7071 113.36 49.3116 113.552 48.3076 113.566C48.284 113.566 48.2603 113.589 48.1961 113.623C48.1961 114.149 48.1961 114.699 48.1961 115.249C48.1961 115.536 48.1352 115.657 47.8175 115.647C46.8845 115.617 47.0434 115.755 47.04 114.888C47.04 113.539 47.04 112.166 47.04 110.803V110.355C47.8614 110.355 48.6321 110.294 49.4062 110.355C50.8936 110.513 51.2147 112.116 50.3662 113.023ZM48.2029 112.52C48.5406 112.55 48.8806 112.543 49.2169 112.5C49.3175 112.466 49.4091 112.41 49.4846 112.336C49.5602 112.262 49.6178 112.171 49.653 112.072C49.6969 111.89 49.5921 111.522 49.4705 111.485C49.1037 111.375 48.7198 111.334 48.3381 111.363C48.284 111.363 48.24 111.802 48.213 112.038C48.2004 112.198 48.1981 112.36 48.2062 112.52H48.2029Z" fill="white"/>
<path d="M90.5375 112.992C90.9037 113.827 91.1144 114.72 91.1594 115.63C90.8823 115.63 90.6017 115.63 90.3211 115.63C89.9831 115.61 89.8986 115.323 89.858 115.06C89.8175 114.797 89.858 114.52 89.8344 114.25C89.8141 113.741 89.6146 113.552 89.1076 113.549H88.3808V115.603H87.2518V110.294C88.1366 110.291 89.0207 110.346 89.8986 110.456C91.0242 110.662 91.3251 112.156 90.5375 112.992ZM88.3842 112.503C88.722 112.522 89.0605 112.522 89.3983 112.503C89.4629 112.497 89.5256 112.479 89.5827 112.448C89.6399 112.418 89.6903 112.376 89.731 112.326C89.7716 112.275 89.8018 112.217 89.8195 112.155C89.8373 112.093 89.8423 112.028 89.8344 111.964C89.8344 111.687 89.7499 111.431 89.4524 111.383C89.098 111.339 88.7414 111.313 88.3842 111.306V112.503Z" fill="white"/>
<path d="M84.4192 112.267C84.3685 111.788 84.2874 111.363 83.7431 111.282C83.1989 111.201 82.702 111.461 82.631 112.024C82.5432 112.648 82.5432 113.28 82.631 113.903C82.7392 114.608 83.4964 114.915 84.1555 114.618C84.4936 114.463 84.4057 114.166 84.3719 113.923C84.3719 113.842 84.1251 113.755 83.9831 113.734C83.7581 113.717 83.5321 113.717 83.3071 113.734V112.79H85.5212C85.5212 113.444 85.5212 114.112 85.5212 114.78C85.5212 114.912 85.3657 115.06 85.2474 115.158C84.8927 115.454 84.4606 115.643 84.002 115.703C83.5433 115.763 83.0771 115.691 82.6581 115.495C81.7826 115.138 81.404 114.389 81.4243 113.455C81.4001 112.904 81.4307 112.353 81.5155 111.809C81.6047 111.473 81.7747 111.164 82.0105 110.909C82.2464 110.654 82.5411 110.459 82.8691 110.344C83.1971 110.228 83.5485 110.193 83.8928 110.243C84.2371 110.294 84.564 110.427 84.8451 110.631C85.0438 110.774 85.2079 110.959 85.3249 111.173C85.442 111.388 85.509 111.625 85.5212 111.869C85.5414 112.115 85.4874 112.294 85.1831 112.267C84.9127 112.25 84.6727 112.267 84.4192 112.267Z" fill="white"/>
<path d="M66.6388 122.318C66.6179 122.676 66.5728 123.032 66.5036 123.384C66.3752 123.893 66.0622 124.337 65.6252 124.629C65.1882 124.921 64.6581 125.041 64.1374 124.966C63.6354 124.918 63.168 124.689 62.8228 124.322C62.4775 123.956 62.2779 123.476 62.2614 122.973C62.2259 122.462 62.2259 121.949 62.2614 121.438C62.294 120.935 62.5133 120.463 62.8765 120.113C63.2397 119.763 63.7206 119.561 64.2253 119.546C65.4321 119.502 66.3549 120.197 66.534 121.296C66.5915 121.613 66.6084 121.941 66.6388 122.318ZM63.4073 122.227C63.4073 122.47 63.387 122.713 63.4073 122.956C63.4124 123.207 63.5112 123.448 63.6842 123.63C63.8573 123.813 64.0924 123.925 64.3436 123.944C64.4723 123.958 64.6025 123.946 64.7266 123.91C64.8507 123.873 64.9663 123.812 65.0666 123.731C65.1669 123.649 65.25 123.548 65.311 123.435C65.372 123.321 65.4097 123.196 65.4219 123.067C65.4794 122.531 65.4794 121.991 65.4219 121.455C65.3959 121.205 65.2777 120.974 65.0903 120.806C64.9028 120.638 64.6596 120.546 64.4078 120.548C64.1621 120.556 63.9279 120.654 63.7488 120.822C63.5697 120.99 63.4579 121.217 63.4343 121.462C63.405 121.716 63.396 121.972 63.4073 122.227Z" fill="white"/>
<path d="M106.607 122.214C106.691 122.834 106.566 123.464 106.252 124.005C106.002 124.384 105.639 124.675 105.215 124.839C104.791 125.002 104.327 125.031 103.886 124.919C103.442 124.816 103.044 124.57 102.753 124.22C102.462 123.87 102.294 123.434 102.274 122.98C102.225 122.403 102.244 121.822 102.331 121.249C102.537 120.079 103.45 119.458 104.697 119.563C105.207 119.614 105.681 119.847 106.032 120.219C106.383 120.591 106.589 121.076 106.611 121.587C106.621 121.799 106.607 122.028 106.607 122.214ZM103.366 122.258C103.38 122.562 103.412 122.865 103.46 123.165C103.494 123.38 103.603 123.576 103.768 123.718C103.932 123.861 104.142 123.941 104.359 123.944C104.877 123.944 105.313 123.718 105.373 123.219C105.455 122.584 105.455 121.942 105.373 121.307C105.331 121.076 105.203 120.871 105.015 120.73C104.827 120.589 104.593 120.524 104.359 120.548C104.135 120.556 103.92 120.643 103.752 120.792C103.584 120.942 103.474 121.145 103.44 121.367C103.399 121.663 103.374 121.96 103.366 122.258Z" fill="white"/>
<path d="M41.1516 112.959C41.1755 112.557 41.2274 112.158 41.3071 111.765C41.5809 110.776 42.4023 110.233 43.484 110.264C43.9482 110.264 44.3978 110.426 44.7559 110.721C45.1141 111.015 45.3587 111.425 45.4479 111.879C45.5668 112.58 45.5725 113.295 45.4649 113.997C45.2756 115.181 44.2919 115.795 43.0006 115.684C42.496 115.609 42.0355 115.355 41.7038 114.968C41.3721 114.581 41.1916 114.088 41.1956 113.579C41.1956 113.377 41.1956 113.174 41.1956 112.972L41.1516 112.959ZM42.3077 112.979C42.3181 113.284 42.3486 113.588 42.3989 113.89C42.4364 114.111 42.5512 114.313 42.7232 114.459C42.8951 114.604 43.1131 114.685 43.3387 114.686C43.5651 114.704 43.7906 114.638 43.9711 114.501C44.1516 114.363 44.2744 114.163 44.3156 113.94C44.3952 113.303 44.3952 112.658 44.3156 112.021C44.2711 111.793 44.1416 111.591 43.9533 111.455C43.765 111.319 43.532 111.26 43.3015 111.289C43.0831 111.297 42.8742 111.38 42.7107 111.525C42.5472 111.669 42.4394 111.866 42.4057 112.082C42.3546 112.383 42.3219 112.687 42.3077 112.992V112.979Z" fill="white"/>
<path d="M101.043 112.169H100.012C99.7994 111.4 99.5864 111.215 98.9983 111.276C98.8757 111.273 98.7561 111.314 98.6604 111.39C98.5647 111.467 98.4988 111.574 98.4743 111.694C98.4472 111.808 98.465 111.928 98.5242 112.029C98.5834 112.13 98.6793 112.205 98.7921 112.237C99.0524 112.348 99.3329 112.409 99.5864 112.53C99.9605 112.675 100.312 112.871 100.631 113.114C100.799 113.267 100.927 113.458 101.007 113.671C101.086 113.884 101.113 114.113 101.086 114.338C101.058 114.564 100.978 114.78 100.851 114.968C100.723 115.156 100.553 115.311 100.354 115.421C99.9261 115.645 99.4422 115.739 98.9617 115.691C98.4812 115.644 98.0251 115.457 97.6495 115.154C97.4963 115.021 97.3751 114.856 97.2949 114.669C97.2147 114.483 97.1777 114.281 97.1864 114.079C97.1864 113.856 97.2845 113.741 97.5042 113.761C97.6528 113.77 97.8018 113.77 97.9504 113.761C98.2039 113.738 98.3087 113.819 98.3155 114.099C98.3155 114.477 98.6298 114.615 98.9408 114.686C99.0951 114.742 99.2627 114.75 99.4219 114.71C99.581 114.67 99.7244 114.582 99.8332 114.46C99.8786 114.408 99.9114 114.346 99.929 114.279C99.9467 114.213 99.9487 114.143 99.935 114.076C99.9213 114.008 99.8921 113.945 99.8499 113.89C99.8076 113.836 99.7533 113.792 99.6912 113.761C99.4747 113.649 99.2484 113.557 99.0152 113.485C98.735 113.392 98.4597 113.285 98.1904 113.164C97.9004 113.044 97.6573 112.832 97.4972 112.563C97.337 112.293 97.2683 111.979 97.3014 111.667C97.3442 111.344 97.4871 111.042 97.7101 110.804C97.9331 110.565 98.2251 110.403 98.5453 110.338C99.7453 110.028 100.864 110.642 101.02 111.687C101.038 111.847 101.046 112.008 101.043 112.169Z" fill="white"/>
<path d="M95.3645 122.98C95.5234 123.813 96.0169 124.15 96.6659 123.921C96.7544 123.885 96.8338 123.83 96.8986 123.76C96.9635 123.69 97.0121 123.607 97.0412 123.516C97.0421 123.421 97.0217 123.327 96.9813 123.241C96.9409 123.156 96.8817 123.08 96.8079 123.02C96.5861 122.896 96.35 122.798 96.1048 122.73C95.8126 122.634 95.5259 122.521 95.2462 122.393C94.9747 122.264 94.7522 122.052 94.612 121.787C94.4719 121.522 94.4216 121.218 94.4688 120.922C94.4993 120.639 94.6113 120.371 94.7913 120.15C94.9712 119.929 95.2114 119.765 95.4829 119.678C95.898 119.507 96.3575 119.474 96.7925 119.585C97.2276 119.697 97.6149 119.946 97.8964 120.295C97.9511 120.373 98.0008 120.454 98.0451 120.538C98.3831 121.212 98.2074 121.499 97.4569 121.502H97.1189C96.9938 120.743 96.72 120.474 96.169 120.544C96.0387 120.545 95.9124 120.589 95.8109 120.671C95.7095 120.752 95.6391 120.866 95.6113 120.993C95.5505 121.29 95.7465 121.448 95.9798 121.543C96.3414 121.691 96.72 121.789 97.0817 121.934C97.9505 122.271 98.3324 122.946 98.1905 123.762C98.1531 123.99 98.0558 124.203 97.9085 124.381C97.7612 124.559 97.5692 124.695 97.3521 124.774C96.9531 124.964 96.5089 125.038 96.0698 124.988C95.6307 124.939 95.2143 124.768 94.8676 124.494L94.8372 124.47C94.4823 124.174 94.1443 123.405 94.364 123.239C94.5837 123.074 95.0231 123.054 95.3645 122.98Z" fill="white"/>
<path d="M125.564 112.186C125.466 111.458 125.206 111.218 124.617 111.272C124.333 111.299 124.077 111.427 124.08 111.714C124.094 111.82 124.132 111.922 124.19 112.012C124.248 112.102 124.326 112.178 124.418 112.234C124.764 112.381 125.117 112.511 125.476 112.621C126.115 112.885 126.632 113.272 126.666 114.048C126.709 114.387 126.625 114.73 126.43 115.011C126.236 115.293 125.944 115.492 125.611 115.573C125.247 115.701 124.857 115.741 124.473 115.689C124.09 115.638 123.725 115.496 123.407 115.276C123.229 115.152 123.081 114.99 122.973 114.803C122.865 114.615 122.8 114.406 122.782 114.19C122.752 113.92 122.833 113.741 123.15 113.758C123.38 113.758 123.607 113.758 123.826 113.758C124.019 114.52 124.388 114.827 124.989 114.679C125.1 114.648 125.202 114.595 125.291 114.523C125.38 114.451 125.453 114.362 125.506 114.261C125.628 113.987 125.422 113.772 125.168 113.667C124.915 113.562 124.621 113.512 124.367 113.39C123.995 113.241 123.645 113.04 123.33 112.793C123.184 112.647 123.072 112.471 123.001 112.277C122.931 112.083 122.904 111.877 122.921 111.671C122.939 111.466 123.001 111.267 123.104 111.088C123.207 110.909 123.347 110.754 123.515 110.635C123.877 110.383 124.307 110.248 124.748 110.248C125.188 110.248 125.618 110.383 125.98 110.635C126.261 110.881 126.476 111.193 126.608 111.542C126.798 112.045 126.652 112.193 126.125 112.193L125.564 112.186Z" fill="white"/>
<path d="M124.425 119.59V120.602H122.184V121.674H124.11V122.686H122.16C122.141 123.023 122.141 123.361 122.16 123.698C122.16 123.789 122.366 123.917 122.481 123.921C123.113 123.944 123.745 123.921 124.421 123.921V124.875H121.031C121.031 124.757 121.004 124.653 121.004 124.538C121.004 123.017 121.004 121.502 121.004 119.968C121.004 119.664 121.095 119.573 121.396 119.58C122.386 119.6 123.38 119.59 124.425 119.59Z" fill="white"/>
<path d="M121.589 110.368V111.306H119.899C119.327 111.306 119.327 111.306 119.327 111.866V112.358H121.268V113.394H119.351V114.605H121.592V115.634H118.986C118.161 115.634 118.161 115.634 118.161 114.794V110.368H121.589Z" fill="white"/>
<path d="M131.064 119.607H132.135C132.135 119.758 132.159 119.9 132.159 120.042C132.159 121.01 132.159 121.981 132.159 122.953C132.159 123.597 132.497 123.964 133.038 123.988C133.643 123.988 134.008 123.62 134.011 122.953C134.011 121.995 134.011 121.04 134.011 120.082V119.617H135.12C135.12 119.735 135.144 119.85 135.144 119.954C135.144 120.966 135.144 122.001 135.144 123.027C135.144 124.221 134.319 124.973 133.038 124.966C131.814 124.966 131.03 124.211 131.026 123.034C131.026 121.941 131.026 120.851 131.026 119.758C131.036 119.707 131.049 119.657 131.064 119.607Z" fill="white"/>
<path d="M80.4507 120.592V121.664H82.4315C82.4523 121.931 82.4523 122.2 82.4315 122.467C82.4315 122.555 82.2422 122.669 82.1374 122.676C81.6 122.696 81.0591 122.676 80.4845 122.676V123.907C81.0388 123.907 81.5898 123.907 82.1374 123.907C82.8473 123.907 82.7662 123.803 82.7695 124.565C82.7675 124.664 82.7596 124.763 82.7459 124.862H79.3656V119.617H82.7121V120.592H80.4507Z" fill="white"/>
<path d="M95.9764 110.365V111.306H93.7386V112.372H95.662V113.384H93.7589V114.608H95.973C96.0136 114.672 96.0372 114.696 96.0406 114.719C96.1285 115.633 96.1285 115.633 95.2327 115.633H92.6198V110.365H95.9764Z" fill="white"/>
<path d="M57.8265 110.348H61.1831V111.306H58.9555V112.375C59.4491 112.375 59.9324 112.406 60.4091 112.375C60.835 112.338 60.9702 112.497 60.9127 112.895C60.9023 113.058 60.9023 113.221 60.9127 113.384H58.9724V114.622H61.1831V115.607H57.8029L57.8265 110.348Z" fill="white"/>
<path d="M85.2034 122.949V124.872H84.1082V119.583C85.0783 119.647 86.0653 119.431 87.0186 119.745C87.7656 119.991 88.1442 120.727 88.0327 121.566C87.9836 121.938 87.8047 122.28 87.5277 122.532C87.2506 122.784 86.8931 122.931 86.5183 122.946C86.1025 122.973 85.6867 122.949 85.2034 122.949ZM85.2034 120.588C85.2034 121.013 85.2034 121.388 85.2034 121.759C85.2177 121.809 85.245 121.854 85.2823 121.89C85.3197 121.926 85.3659 121.952 85.4163 121.964C85.7108 121.993 86.0074 121.993 86.302 121.964C86.4813 121.954 86.6491 121.873 86.7686 121.739C86.8881 121.606 86.9495 121.43 86.9391 121.251C86.9288 121.072 86.8477 120.905 86.7136 120.785C86.5796 120.666 86.4035 120.605 86.2242 120.615C85.92 120.588 85.5989 120.602 85.2101 120.602L85.2034 120.588Z" fill="white"/>
<path d="M71.5977 115.64C71.2655 115.657 70.9327 115.657 70.6005 115.64C70.5333 115.618 70.4721 115.58 70.4217 115.53C70.3713 115.481 70.333 115.42 70.3098 115.353C69.9244 114.362 69.9312 114.372 68.8597 114.372C68.5723 114.372 68.4675 114.49 68.3797 114.736C68.0416 115.694 68.0416 115.691 67.0039 115.616C66.9803 115.61 66.9575 115.601 66.9363 115.59C66.9455 115.506 66.9613 115.424 66.9836 115.343C67.5481 113.772 68.1295 112.21 68.6737 110.621C68.8022 110.243 69.0456 110.314 69.3059 110.308C69.5661 110.301 69.7216 110.308 69.823 110.601C70.3943 112.281 70.9859 113.92 71.5977 115.64ZM69.3025 112.402H69.2044L68.8867 113.326H69.6033L69.3025 112.402Z" fill="white"/>
<path d="M34.1408 124.868C34.1019 124.879 34.0624 124.887 34.0225 124.892C33.0287 124.929 33.0084 124.932 32.6941 123.995C32.6096 123.749 32.4946 123.631 32.2344 123.674H32.1566C31.1425 123.674 31.1425 123.674 30.7808 124.632C30.7132 124.825 30.622 124.916 30.4056 124.902C30.1251 124.885 29.8411 124.902 29.4963 124.902C29.6146 124.565 29.7194 124.271 29.8344 123.975C30.3279 122.609 30.8248 121.243 31.3048 119.873C31.3145 119.824 31.3344 119.777 31.3631 119.736C31.3919 119.695 31.4289 119.66 31.4719 119.634C31.5148 119.608 31.5627 119.592 31.6125 119.585C31.6623 119.579 31.7129 119.582 31.7611 119.597C31.991 119.634 32.2783 119.462 32.4068 119.829C32.9713 121.455 33.5493 123.077 34.1206 124.703C34.1319 124.758 34.1386 124.813 34.1408 124.868ZM31.4839 122.602H32.2107L31.8727 121.681L31.778 121.698L31.4839 122.602Z" fill="white"/>
<path d="M47.3239 124.869C47.2361 124.869 47.209 124.892 47.1853 124.892C46.1713 124.929 46.1544 124.933 45.8332 123.978C45.7555 123.745 45.6541 123.641 45.4073 123.675H45.3668C45.0287 123.675 44.5859 123.563 44.3527 123.725C44.1194 123.887 44.0822 124.332 43.9234 124.639C43.8882 124.702 43.8398 124.757 43.7814 124.799C43.7231 124.842 43.6562 124.871 43.5853 124.885C43.2724 124.904 42.9586 124.904 42.6456 124.885C42.862 124.285 43.0682 123.722 43.271 123.155C43.6631 122.069 44.0687 120.986 44.4338 119.89C44.5589 119.516 44.8158 119.593 45.0727 119.576C45.1269 119.563 45.1834 119.56 45.2387 119.568C45.294 119.577 45.347 119.597 45.3945 119.626C45.4419 119.656 45.4828 119.695 45.5146 119.741C45.5465 119.787 45.5686 119.839 45.5797 119.894C46.1442 121.556 46.7391 123.199 47.3239 124.869ZM45.36 122.612L45.0422 121.685H44.9442L44.6299 122.605L45.36 122.612Z" fill="white"/>
<path d="M125.29 124.895C125.703 123.752 126.098 122.666 126.49 121.58C126.7 120.996 126.926 120.42 127.116 119.829C127.197 119.58 127.362 119.566 127.552 119.593C127.741 119.62 128.059 119.448 128.18 119.789C128.775 121.475 129.37 123.162 129.985 124.895C129.648 124.915 129.309 124.915 128.971 124.895C128.867 124.895 128.738 124.744 128.694 124.632C128.326 123.685 128.329 123.695 127.305 123.681C127.007 123.681 126.855 123.749 126.761 124.056C126.487 124.929 126.47 124.922 125.557 124.909L125.29 124.895ZM127.694 121.671H127.606L127.268 122.619H128.001L127.694 121.671Z" fill="white"/>
<path d="M55.271 112.399C55.271 112.207 55.2439 112.115 55.2372 112.024C55.2428 111.861 55.1917 111.7 55.0927 111.569C54.9936 111.438 54.8525 111.345 54.693 111.306C54.5143 111.238 54.3183 111.231 54.1351 111.285C53.9519 111.339 53.7916 111.452 53.6789 111.606C53.59 111.708 53.5294 111.831 53.5031 111.964C53.453 112.637 53.453 113.314 53.5031 113.987C53.5285 114.199 53.6371 114.392 53.805 114.525C53.9729 114.657 54.1865 114.717 54.3989 114.692C54.5041 114.703 54.6106 114.692 54.711 114.659C54.8115 114.625 54.9036 114.571 54.9811 114.499C55.0586 114.427 55.1198 114.339 55.1605 114.242C55.2011 114.144 55.2204 114.039 55.2169 113.933C55.2169 113.637 55.342 113.579 55.609 113.579C56.3797 113.579 56.5284 113.772 56.2445 114.507C56.1227 114.838 55.9045 115.126 55.6178 115.332C55.3311 115.539 54.989 115.656 54.6355 115.667C53.7127 115.762 52.9453 115.468 52.5465 114.615C52.3002 114.101 52.1724 113.54 52.1724 112.97C52.1724 112.401 52.3002 111.839 52.5465 111.326C53.1042 110.132 54.818 109.856 55.8085 110.736C55.8682 110.79 55.9246 110.847 55.9775 110.908C56.2682 111.245 56.5082 112.095 56.2986 112.207C55.9679 112.323 55.6213 112.387 55.271 112.399Z" fill="white"/>
<path d="M76.8034 121.631C76.7764 121.455 76.7527 121.324 76.7324 121.192C76.7162 121.036 76.6493 120.89 76.5419 120.775C76.4345 120.661 76.2925 120.584 76.1375 120.558C75.9826 120.507 75.8161 120.502 75.6586 120.545C75.5011 120.587 75.3597 120.675 75.2519 120.797C75.159 120.894 75.0876 121.009 75.0423 121.135C74.8157 121.858 74.8157 122.634 75.0423 123.357C75.0937 123.564 75.2237 123.743 75.4048 123.855C75.5859 123.968 75.8038 124.006 76.0124 123.961C76.506 123.894 76.6885 123.691 76.7629 123.121C76.7629 123.054 76.7831 122.99 76.7933 122.902H77.7634C77.9933 123.391 77.7634 124.1 77.2429 124.521C76.0699 125.469 74.2378 124.943 73.9032 123.472C73.7392 122.683 73.7392 121.87 73.9032 121.081C74.2006 119.63 75.9313 119.057 77.1584 119.88C77.3768 120.029 77.5572 120.226 77.6852 120.457C77.8132 120.688 77.8851 120.945 77.8953 121.209C77.9189 121.492 77.8006 121.644 77.4998 121.631C77.2598 121.624 77.0367 121.631 76.8034 121.631Z" fill="white"/>
<path d="M59.9323 121.634C59.9323 121.489 59.9053 121.384 59.8952 121.28C59.8889 121.109 59.8255 120.946 59.7152 120.816C59.6049 120.685 59.454 120.596 59.2867 120.561C59.119 120.506 58.9381 120.505 58.7696 120.557C58.601 120.61 58.4533 120.714 58.347 120.855C58.2596 120.94 58.1986 121.049 58.1712 121.168C58.1171 121.884 58.1171 122.602 58.1712 123.317C58.1869 123.425 58.2251 123.529 58.2835 123.622C58.3419 123.715 58.4192 123.794 58.5103 123.855C58.6015 123.916 58.7044 123.957 58.8125 123.976C58.9206 123.995 59.0315 123.991 59.138 123.965C59.6416 123.904 59.8309 123.681 59.8952 123.088C59.8952 123.037 59.8952 122.983 59.9222 122.905H60.9363C61.0342 123.286 60.9881 123.69 60.8066 124.039C60.6251 124.388 60.3211 124.658 59.9526 124.798C59.6272 124.952 59.2677 125.02 58.9083 124.997C58.5489 124.973 58.2015 124.859 57.8989 124.664C57.5963 124.469 57.3485 124.2 57.1791 123.883C57.0097 123.566 56.9241 123.211 56.9307 122.851C56.8936 122.274 56.9231 121.695 57.0185 121.125C57.0958 120.788 57.2551 120.475 57.4823 120.214C57.7095 119.954 57.9977 119.753 58.3213 119.63C58.6449 119.507 58.9939 119.465 59.3374 119.509C59.6809 119.552 60.0083 119.68 60.2907 119.88C60.5046 120.023 60.6823 120.214 60.8096 120.438C60.9368 120.662 61.0103 120.912 61.0242 121.168C61.058 121.482 60.9532 121.661 60.6016 121.634C60.3785 121.62 60.169 121.634 59.9323 121.634Z" fill="white"/>
<path d="M109.288 120.598V121.762H111.282V122.774H109.274V124.879H108.139C108.139 124.754 108.112 124.649 108.112 124.541C108.112 123.02 108.112 121.506 108.112 119.974C108.112 119.671 108.203 119.58 108.504 119.587C109.433 119.587 110.366 119.587 111.296 119.587C111.401 119.587 111.505 119.607 111.634 119.617V120.595L109.288 120.598Z" fill="white"/>
<path d="M143.73 121.762C144.068 121.108 144.382 120.531 144.662 119.934C144.698 119.82 144.775 119.722 144.878 119.66C144.98 119.598 145.102 119.576 145.22 119.597C145.501 119.62 145.781 119.597 146.146 119.597C146.001 119.873 145.89 120.079 145.778 120.271C145.383 121.007 144.994 121.749 144.578 122.474C144.366 122.818 144.266 123.218 144.291 123.621C144.314 124.022 144.291 124.427 144.291 124.858H143.138C143.138 124.464 143.118 124.076 143.138 123.691C143.168 123.218 143.05 122.746 142.8 122.342C142.29 121.459 141.82 120.551 141.292 119.58C141.732 119.58 142.104 119.556 142.472 119.58C142.577 119.58 142.692 119.752 142.753 119.87C143.084 120.487 143.388 121.088 143.73 121.762Z" fill="white"/>
<path d="M139.031 124.885H137.895V120.619H136.337V119.607H140.572V120.588H139.031V124.885Z" fill="white"/>
<path d="M28.9893 119.627V120.588H27.4546V124.872H26.3121V120.615H24.7538V119.627H28.9893Z" fill="white"/>
<path d="M90.5915 124.868V120.608H89.0535V119.624H93.2957V120.588H91.7374V124.868H90.5915Z" fill="white"/>
<path d="M104.89 111.306V110.348H109.183C109.2 110.608 109.2 110.868 109.183 111.127C109.183 111.198 108.994 111.293 108.892 111.296C108.477 111.316 108.061 111.296 107.608 111.296V115.593H106.479C106.479 115.448 106.452 115.306 106.452 115.165C106.452 114.021 106.452 112.874 106.452 111.731C106.452 111.394 106.371 111.266 106.026 111.289C105.681 111.313 105.296 111.306 104.89 111.306Z" fill="white"/>
<path d="M114.541 110.368V114.625H116.806C116.843 114.686 116.866 114.706 116.87 114.73C116.958 115.644 116.958 115.644 116.062 115.644C115.278 115.644 114.497 115.644 113.696 115.644C113.584 115.644 113.381 115.502 113.378 115.421C113.378 113.735 113.378 112.085 113.378 110.382L114.541 110.368Z" fill="white"/>
<path d="M62.5758 110.355H63.6947V114.611H66.0406V115.64C64.9454 115.64 63.8705 115.64 62.7922 115.64C62.7178 115.64 62.586 115.475 62.586 115.387C62.5724 113.718 62.5758 112.061 62.5758 110.355Z" fill="white"/>
<path d="M35.3882 119.617H36.5071C36.5071 120.292 36.5071 120.966 36.5071 121.617C36.5071 122.268 36.5273 122.855 36.5071 123.476C36.4902 123.843 36.6254 123.938 36.9735 123.921C37.5786 123.897 38.1837 123.921 38.8293 123.921V124.875H35.3882V119.617Z" fill="white"/>
<path d="M72.8383 115.59V110.365H73.9166V115.59H72.8383Z" fill="white"/>
<path d="M111.603 115.613H110.535V110.365H111.617L111.603 115.613Z" fill="white"/>
<path d="M22.4045 119.617H23.4795V124.865H22.4045V119.617Z" fill="white"/>
<path d="M40.2456 119.617H41.3205V124.865H40.2456V119.617Z" fill="white"/>
<path d="M113.151 19.438C113.504 19.4468 113.84 19.5928 114.086 19.8449C114.332 20.097 114.47 20.4351 114.47 20.7872C114.464 21.0477 114.382 21.3009 114.233 21.5149C114.084 21.7289 113.875 21.8942 113.632 21.9899C113.389 22.0856 113.123 22.1076 112.868 22.053C112.612 21.9985 112.379 21.8698 112.196 21.6832C112.014 21.4966 111.891 21.2604 111.843 21.0042C111.795 20.7481 111.823 20.4834 111.925 20.2435C112.027 20.0036 112.198 19.7991 112.416 19.6558C112.635 19.5125 112.89 19.4367 113.151 19.438Z" fill="white"/>
<path d="M53.3409 41.7261C53.35 41.9047 53.3225 42.0833 53.2603 42.2509C53.198 42.4186 53.1023 42.5719 52.9788 42.7015C52.8554 42.8311 52.7068 42.9342 52.5421 43.0048C52.3774 43.0753 52.2001 43.1116 52.0209 43.1116C51.8417 43.1116 51.6644 43.0753 51.4997 43.0048C51.335 42.9342 51.1865 42.8311 51.063 42.7015C50.9395 42.5719 50.8438 42.4186 50.7815 42.2509C50.7193 42.0833 50.6918 41.9047 50.7009 41.7261C50.7062 41.3718 50.851 41.0339 51.104 40.7852C51.357 40.5365 51.6979 40.3972 52.053 40.3972C52.3991 40.4069 52.7277 40.5514 52.9684 40.7998C53.2091 41.0481 53.3428 41.3806 53.3409 41.7261Z" fill="white"/>
<path d="M98.8699 4.0474C99.2169 4.04829 99.5494 4.18599 99.7951 4.4305C100.041 4.675 100.18 5.00649 100.181 5.35272C100.192 5.53109 100.166 5.70976 100.106 5.8779C100.045 6.04604 99.9509 6.20013 99.8288 6.33083C99.7067 6.46152 99.5592 6.56609 99.3954 6.63819C99.2315 6.71029 99.0547 6.74841 98.8756 6.75024C98.6966 6.75207 98.519 6.71757 98.3537 6.64884C98.1884 6.5801 98.0388 6.47857 97.914 6.3504C97.7893 6.22223 97.6919 6.07009 97.6279 5.90323C97.5638 5.73636 97.5344 5.55825 97.5414 5.3797C97.5392 5.20469 97.5719 5.03098 97.6378 4.86877C97.7037 4.70655 97.8014 4.55909 97.9251 4.43501C98.0488 4.31093 98.1961 4.21274 98.3583 4.14618C98.5206 4.07962 98.6945 4.04604 98.8699 4.0474Z" fill="white"/>
<path d="M51.1842 32.4509C51.0052 32.4599 50.8263 32.4325 50.6582 32.3704C50.4902 32.3083 50.3366 32.2128 50.2067 32.0896C50.0768 31.9664 49.9734 31.8181 49.9028 31.6538C49.8321 31.4895 49.7957 31.3126 49.7957 31.1337C49.7957 30.9549 49.8321 30.778 49.9028 30.6137C49.9734 30.4494 50.0768 30.3011 50.2067 30.1779C50.3366 30.0547 50.4902 29.9592 50.6582 29.8971C50.8263 29.835 51.0052 29.8076 51.1842 29.8166C51.5227 29.8337 51.8417 29.98 52.0753 30.2251C52.3088 30.4702 52.439 30.7955 52.439 31.1337C52.439 31.472 52.3088 31.7973 52.0753 32.0424C51.8417 32.2875 51.5227 32.4338 51.1842 32.4509Z" fill="white"/>
<path d="M55.1223 20.8413C55.125 21.1878 54.9899 21.5213 54.7465 21.7685C54.5032 22.0157 54.1715 22.1566 53.8243 22.1601C53.4657 22.1601 53.1218 22.018 52.8682 21.765C52.6146 21.5119 52.4722 21.1688 52.4722 20.811C52.4744 20.6365 52.5112 20.4641 52.5804 20.3039C52.6497 20.1436 52.7501 19.9987 52.8758 19.8773C53.0015 19.756 53.15 19.6607 53.3128 19.5969C53.4756 19.5331 53.6494 19.5021 53.8243 19.5056C53.9987 19.5037 54.1718 19.5372 54.3329 19.6041C54.4939 19.671 54.6396 19.77 54.7611 19.895C54.8826 20.02 54.9772 20.1684 55.0393 20.3311C55.1014 20.4938 55.1297 20.6674 55.1223 20.8413Z" fill="white"/>
<path d="M107.28 13.1847C107.105 13.191 106.93 13.1609 106.768 13.0962C106.605 13.0315 106.457 12.9337 106.335 12.809C106.212 12.6843 106.117 12.5354 106.055 12.3718C105.993 12.2083 105.966 12.0337 105.975 11.8591C105.975 11.6873 106.009 11.5172 106.076 11.3585C106.142 11.1999 106.239 11.0559 106.361 10.9349C106.483 10.8139 106.628 10.7182 106.788 10.6534C106.947 10.5885 107.118 10.5558 107.29 10.5572C107.643 10.5651 107.98 10.7107 108.227 10.9629C108.474 11.2151 108.612 11.5537 108.612 11.9063C108.609 12.0777 108.573 12.2469 108.504 12.4041C108.436 12.5614 108.337 12.7035 108.213 12.8223C108.089 12.9412 107.943 13.0344 107.783 13.0966C107.623 13.1587 107.452 13.1887 107.28 13.1847Z" fill="white"/>
<path d="M115.812 32.3799C115.64 32.3853 115.469 32.3562 115.308 32.2941C115.148 32.2321 115.002 32.1385 114.878 32.0189C114.755 31.8993 114.657 31.7561 114.59 31.598C114.524 31.4398 114.49 31.2698 114.49 31.0982C114.485 30.9238 114.514 30.7501 114.577 30.5873C114.64 30.4245 114.735 30.2758 114.856 30.1501C114.977 30.0244 115.123 29.9242 115.283 29.8553C115.444 29.7864 115.617 29.7503 115.792 29.749C116.15 29.749 116.494 29.8912 116.748 30.1442C117.001 30.3972 117.144 30.7404 117.144 31.0982C117.137 31.4441 116.992 31.7731 116.743 32.0133C116.493 32.2535 116.159 32.3853 115.812 32.3799Z" fill="white"/>
<path d="M60.9634 11.9334C60.9661 12.1082 60.9336 12.2818 60.8678 12.4439C60.802 12.6059 60.7043 12.7532 60.5804 12.8768C60.4564 13.0004 60.3089 13.098 60.1465 13.1636C59.9841 13.2293 59.8101 13.2617 59.6349 13.2589C59.2835 13.2549 58.948 13.1118 58.7024 12.861C58.4567 12.6102 58.321 12.2723 58.325 11.9216C58.3291 11.5709 58.4725 11.2362 58.7239 10.9911C58.9753 10.746 59.3139 10.6106 59.6653 10.6146C60.0126 10.6182 60.3442 10.759 60.5876 11.0062C60.8309 11.2535 60.9661 11.5869 60.9634 11.9334Z" fill="white"/>
<path d="M68.0619 4.11159C68.3208 4.11496 68.5728 4.19488 68.7861 4.34124C68.9994 4.48759 69.1644 4.6938 69.2602 4.93376C69.356 5.17373 69.3783 5.43665 69.3242 5.68926C69.2702 5.94187 69.1423 6.17281 68.9566 6.35283C68.771 6.53286 68.536 6.65389 68.2814 6.7006C68.0268 6.7473 67.7641 6.71759 67.5264 6.61521C67.2887 6.51284 67.0868 6.34241 66.9463 6.1255C66.8058 5.90858 66.7329 5.65494 66.7368 5.39667C66.7358 5.22448 66.7697 5.05385 66.8364 4.89504C66.9031 4.73623 67.0013 4.5925 67.125 4.47248C67.2488 4.35247 67.3956 4.25864 67.5566 4.19662C67.7176 4.1346 67.8895 4.10568 68.0619 4.11159Z" fill="white"/>
<path d="M116.282 41.6688C116.286 41.8411 116.255 42.0124 116.191 42.1724C116.127 42.3325 116.031 42.4779 115.909 42.5999C115.787 42.7219 115.642 42.8179 115.481 42.8823C115.321 42.9466 115.15 42.9779 114.977 42.9742C114.798 42.9815 114.619 42.9524 114.452 42.8887C114.285 42.825 114.132 42.7281 114.003 42.6037C113.875 42.4794 113.773 42.3302 113.704 42.1654C113.635 42.0005 113.6 41.8233 113.601 41.6446C113.603 41.4659 113.641 41.2894 113.713 41.1258C113.785 40.9622 113.89 40.8149 114.021 40.6929C114.151 40.5709 114.306 40.4767 114.474 40.416C114.643 40.3553 114.822 40.3294 115.001 40.3399C115.173 40.3403 115.344 40.3752 115.502 40.4428C115.661 40.5103 115.804 40.6091 115.924 40.7331C116.043 40.8571 116.137 41.0039 116.198 41.1646C116.26 41.3254 116.288 41.4969 116.282 41.6688Z" fill="white"/>
<path d="M83.2698 48.6138L75.1064 40.475L83.2563 32.3328L91.4163 40.475L83.2698 48.6138Z" fill="white"/>
</g>
<defs>
<clipPath id="clip0_2096_7854">
<rect width="174" height="125" fill="white"/>
</clipPath>
</defs>
</svg>
