<svg width="85" height="65" viewBox="0 0 85 65" fill="none" xmlns="http://www.w3.org/2000/svg">
<g opacity="0.1" clip-path="url(#clip0_2096_14020)">
<path d="M44.1797 21.436L64.6991 42.0305L44.1622 62.6425L23.6427 42.048L44.1797 21.436ZM44.1517 57.8017L59.814 42.0936L44.1167 26.3295L28.4544 42.048L44.1517 57.8017Z" fill="white"/>
<path d="M46.1205 64.9193C53.0442 57.9691 59.9214 51.0704 66.7519 44.2231L87.3832 64.9193H86.9216C85.6768 64.9193 84.4354 64.9193 83.1905 64.9193C83.0468 64.9268 82.9032 64.9027 82.7698 64.8488C82.6363 64.7949 82.5162 64.7124 82.4177 64.6071C77.3356 59.4927 72.2477 54.383 67.154 49.2779C67.0491 49.1692 66.9372 49.0675 66.6924 48.8324C66.6123 49.0048 66.5126 49.1672 66.3952 49.3165C61.3387 54.3982 56.2823 59.4798 51.2259 64.5615C51.1138 64.6805 50.9772 64.7735 50.8256 64.8341C50.674 64.8946 50.5111 64.9213 50.3482 64.9123C48.9494 64.8948 47.5542 64.9193 46.1205 64.9193Z" fill="white"/>
<path d="M0.90979 64.8946L21.5132 44.2195L42.1131 64.8946C42.0431 64.8946 41.9138 64.9156 41.7879 64.9156C40.4731 64.9156 39.1583 64.9156 37.8469 64.9156C37.7153 64.9208 37.5842 64.8963 37.4633 64.8441C37.3423 64.7919 37.2344 64.7133 37.1476 64.614C32.0795 59.5206 27.0114 54.4308 21.9433 49.3444C21.8139 49.2146 21.702 49.0708 21.5517 48.8954C21.3908 49.0498 21.2684 49.1585 21.1565 49.2708C16.0744 54.3688 10.9958 59.468 5.92076 64.5684C5.81607 64.6863 5.68627 64.779 5.541 64.8397C5.39572 64.9004 5.23868 64.9276 5.08152 64.9192C3.80867 64.9016 2.53582 64.9192 1.26297 64.9192C1.13709 64.9192 1.0112 64.8946 0.90979 64.8946Z" fill="white"/>
<path d="M75.3086 64.8946H58.3209L66.8147 56.3706L75.3086 64.8946Z" fill="white"/>
<path d="M21.5376 56.3354L30.035 64.8735H13.0333L21.5376 56.3354Z" fill="white"/>
<path d="M49.2256 5.75269C49.4774 5.40191 49.6697 5.16338 49.8551 4.9038C50.6488 3.81988 51.4461 2.73947 52.2224 1.64152C52.329 1.4597 52.492 1.31779 52.6864 1.23737C52.8808 1.15696 53.0961 1.14244 53.2994 1.19603C53.4918 1.23461 53.6876 1.25917 53.8799 1.29425C54.5128 1.41351 54.5793 1.60644 54.2296 2.12209L53.3694 3.31475C51.9706 5.24406 50.5719 7.17336 49.1732 9.09214C49.0508 9.26052 48.7885 9.44292 48.6312 9.44292C48.4738 9.44292 48.2815 9.13774 48.2325 8.9378C47.3723 6.20169 46.5214 3.46325 45.6798 0.72247C45.491 0.105092 45.6379 -0.0632832 46.2603 0.0454594C47.659 0.291007 47.4702 0.168233 47.8968 1.50121C48.3234 2.83418 48.7605 4.26186 49.2256 5.75269Z" fill="white"/>
<path d="M39.4765 5.72817C39.6199 5.27567 39.7493 4.88279 39.8716 4.4864C40.2213 3.29725 40.613 2.11161 40.9662 0.915439C40.9963 0.706545 41.0986 0.514887 41.2551 0.373864C41.4117 0.232841 41.6126 0.151394 41.8229 0.143717C42.0432 0.143717 42.26 0.0595297 42.4803 0.0244515C43.0188 -0.066752 43.1797 0.122671 43.0328 0.645336C42.6097 2.04847 42.1796 3.42704 41.7529 4.81965C41.3263 6.21225 40.9207 7.5768 40.4766 8.94836C40.4458 9.05406 40.3935 9.15224 40.3231 9.23675C40.2527 9.32125 40.1657 9.39026 40.0675 9.43945C39.9346 9.47804 39.6723 9.27809 39.5569 9.12024C37.84 6.78754 36.1405 4.4408 34.4375 2.10459C34.0879 1.64857 34.1858 1.44863 34.7418 1.3469C36.193 1.07329 36.0146 1.07329 36.8049 2.15721L39.2177 5.43702C39.2667 5.5142 39.3436 5.59137 39.4765 5.72817Z" fill="white"/>
<path d="M14.6873 32.7033C14.474 32.563 14.3376 32.4683 14.1977 32.3841C12.9284 31.5984 11.6625 30.8021 10.3792 30.0339C10.1834 29.939 10.025 29.781 9.92924 29.5851C9.83352 29.3893 9.80603 29.1669 9.85115 28.9535C9.88961 28.7079 9.89661 28.4519 9.92459 28.2028C9.97004 27.852 10.1764 27.7222 10.5121 27.8836C10.6847 27.9752 10.8516 28.0771 11.0121 28.1888L17.9044 32.4192C17.9938 32.4585 18.0764 32.5117 18.1492 32.5771C18.2576 32.7104 18.4289 32.8822 18.4079 33.005C18.3805 33.0919 18.3352 33.1721 18.275 33.2404C18.2147 33.3086 18.1409 33.3635 18.0582 33.4014C16.3833 34.103 14.6978 34.7589 13.0123 35.4324C11.9772 35.8487 10.941 36.2626 9.9036 36.6742C9.39306 36.8777 9.22172 36.7619 9.25669 36.2112C9.3546 34.6888 9.31963 34.8817 10.4911 34.4081L14.6873 32.7033Z" fill="white"/>
<path d="M74.0603 32.6471L76.008 33.4258C76.9137 33.7766 77.8159 34.1695 78.7321 34.5098C78.9507 34.5633 79.1431 34.6935 79.2746 34.8768C79.406 35.0601 79.4678 35.2845 79.4489 35.5095C79.4489 35.7164 79.4909 35.9269 79.5084 36.1374C79.5503 36.6285 79.3475 36.7933 78.8859 36.6145C77.7425 36.169 76.6025 35.7129 75.4625 35.2604C73.9064 34.6431 72.3468 34.0327 70.7977 33.3978C70.695 33.3576 70.6018 33.2962 70.5241 33.2177C70.4464 33.1391 70.3859 33.0451 70.3466 32.9418C70.3222 32.805 70.539 32.5629 70.6963 32.4612C73.1278 30.9411 75.5628 29.4328 78.0012 27.9361C78.5677 27.5853 78.7251 27.659 78.816 28.2869C78.8143 28.3149 78.8143 28.343 78.816 28.3711C78.9287 28.7247 78.9041 29.108 78.7472 29.4442C78.5903 29.7805 78.3126 30.0449 77.9697 30.1846C76.7389 30.8441 75.5849 31.6439 74.3995 32.384C74.3155 32.4647 74.2176 32.5384 74.0603 32.6471Z" fill="white"/>
<path d="M30.0979 8.87135C30.0979 7.5489 30.0979 6.26153 30.0979 4.97766C30.0718 4.53022 30.0718 4.08162 30.0979 3.63417C30.1527 3.36971 30.2943 3.13132 30.5001 2.95716C30.7464 2.77409 31.0156 2.62431 31.3008 2.51166C31.703 2.31522 31.9058 2.43449 31.9233 2.88349C31.9862 4.5918 32.0352 6.30011 32.0946 8.00843C32.1331 9.22915 32.1855 10.4639 32.2135 11.6636C32.2135 11.853 32.1541 12.1477 32.0317 12.2038C31.9313 12.2371 31.8248 12.2471 31.72 12.2331C31.6152 12.2192 31.5149 12.1815 31.4267 12.1231C29.0139 10.4487 26.6093 8.76378 24.2127 7.06833C23.8386 6.80524 23.8631 6.57022 24.2407 6.3387L24.2792 6.31765C25.566 5.61609 25.4052 5.59504 26.5731 6.41938C27.6222 7.16655 28.7097 7.9067 29.7762 8.64685C29.8776 8.73104 30.0035 8.81172 30.0979 8.87135Z" fill="white"/>
<path d="M58.5098 8.91333L61.3248 6.93843C61.7969 6.60869 62.2654 6.28246 62.7235 5.94922C62.8586 5.83632 63.0261 5.76965 63.2016 5.75892C63.3771 5.7482 63.5514 5.79398 63.6991 5.88959C63.9159 6.01587 64.1432 6.12461 64.3635 6.24037C64.8531 6.51047 64.8741 6.74549 64.423 7.06471L61.4437 9.1694C60.0939 10.1212 58.7453 11.0718 57.3978 12.0213C57.2776 12.1167 57.143 12.1925 56.9992 12.2458C56.695 12.337 56.4782 12.1195 56.4886 11.7266C56.5271 10.3831 56.5726 9.03961 56.611 7.69612C56.6577 6.11058 56.7008 4.52738 56.7404 2.94652C56.7579 2.3537 56.9223 2.28003 57.4748 2.51155C58.2965 2.86233 58.7126 3.32186 58.6007 4.3251C58.4469 5.70016 58.5028 7.09628 58.4714 8.48538C58.4766 8.62861 58.4894 8.77147 58.5098 8.91333Z" fill="white"/>
<path d="M71.6264 23.1516L75.8506 23.355C75.9885 23.3741 76.1275 23.3847 76.2667 23.3866C77.5431 23.2989 77.4556 23.6742 77.9662 24.8774C78.1026 25.1966 77.8648 25.3404 77.5605 25.3299C76.7539 25.3019 75.945 25.2679 75.1337 25.2282L69.7836 24.9791C69.4619 24.9616 69.1436 24.9335 68.8219 24.923C68.5702 24.923 68.2519 24.9546 68.196 24.6529C68.1844 24.4267 68.2594 24.2045 68.4058 24.032C69.6892 22.443 70.99 20.875 72.2873 19.2894C72.8188 18.6405 73.3364 17.988 73.8854 17.3426C74.2525 16.9006 74.4658 16.9252 74.7001 17.4373C75.3191 18.7913 75.2596 18.6405 74.4029 19.6858C73.5462 20.7312 72.6964 21.7484 71.8642 22.8008C71.7977 22.8885 71.7418 22.9797 71.6264 23.1516Z" fill="white"/>
<path d="M15.4636 42.4725L10.7848 41.4202C10.3797 41.3345 10.022 41.0978 9.78385 40.7581C9.54571 40.4183 9.44481 40.0006 9.5015 39.5891C9.53997 39.2874 9.73928 39.2383 9.99106 39.3085L13.2606 40.01L18.4954 41.1887C18.5898 41.2097 18.6877 41.2308 18.7786 41.2588C18.8593 41.2687 18.9352 41.3024 18.9967 41.3558C19.0581 41.4091 19.1024 41.4796 19.1238 41.5582C19.1452 41.6369 19.1427 41.7201 19.1167 41.7974C19.0908 41.8746 19.0424 41.9424 18.9779 41.992C18.8416 42.1323 18.6842 42.255 18.5373 42.3813L12.2745 47.7729C11.7954 48.1833 11.5961 48.1236 11.4492 47.5238C11.1275 46.1978 11.0261 46.3452 12.0962 45.4191C13.0858 44.5737 14.0614 43.7108 15.0405 42.8584L15.4636 42.4725Z" fill="white"/>
<path d="M17.0967 23.1726C16.9673 23.0042 16.8798 22.885 16.7889 22.7727C15.8273 21.6046 14.8762 20.4295 13.904 19.2649C13.7481 19.1128 13.6475 18.9126 13.6183 18.6964C13.5892 18.4802 13.6331 18.2604 13.7432 18.0722C13.8446 17.8723 13.925 17.6618 14.0194 17.4584C14.2327 16.9988 14.46 16.9602 14.7887 17.3496C15.586 18.3072 16.3763 19.2684 17.1701 20.2295C18.2191 21.5064 19.2682 22.7762 20.3172 24.0601C20.3913 24.1435 20.4472 24.2415 20.4815 24.3478C20.5158 24.4541 20.5278 24.5663 20.5166 24.6775C20.4536 24.8248 20.1424 24.9405 19.9361 24.9511C17.0512 25.1089 14.1628 25.2457 11.2779 25.386C10.7744 25.4106 10.624 25.2142 10.8163 24.7581C11.4527 23.2498 11.2814 23.5339 12.6417 23.4322C14.0019 23.3305 15.3727 23.2849 16.74 23.2112C16.8309 23.2147 16.9253 23.1972 17.0967 23.1726Z" fill="white"/>
<path d="M22.4712 14.9468C22.0866 13.8944 21.7334 12.9543 21.3767 12.0002C21.1494 11.4003 20.9361 10.79 20.6774 10.1972C20.5802 10.0093 20.5501 9.79368 20.592 9.58625C20.634 9.37881 20.7456 9.19207 20.9082 9.05712C21.041 8.93083 21.1599 8.79403 21.2858 8.66073C21.7509 8.15911 21.9502 8.19419 22.188 8.81508C22.8454 10.555 23.5005 12.296 24.1532 14.0382C24.5029 14.9959 24.8876 15.9465 25.2268 16.9111C25.262 17.009 25.2767 17.113 25.2701 17.2168C25.2635 17.3206 25.2356 17.4219 25.1883 17.5145C25.1079 17.6197 24.8036 17.6337 24.6288 17.5811C21.8313 16.786 19.0339 15.9781 16.2364 15.1572C15.7188 15.0099 15.6559 14.8064 16.0196 14.3995C16.9847 13.3472 16.7924 13.3472 18.1876 13.7646C19.4884 14.1435 20.7893 14.5083 22.0936 14.8766C22.188 14.9012 22.2824 14.9117 22.4712 14.9468Z" fill="white"/>
<path d="M73.3188 42.4446C73.7979 42.8585 74.2385 43.2443 74.6826 43.6232C75.5079 44.3247 76.3331 45.0544 77.1689 45.7524C77.333 45.8661 77.4559 46.0302 77.519 46.22C77.5821 46.4098 77.5819 46.6151 77.5186 46.8048C77.4591 47.0223 77.4067 47.2397 77.3542 47.4572C77.2073 48.0325 77.0045 48.1097 76.5534 47.7308C75.7841 47.0819 75.0218 46.4224 74.256 45.77C72.8328 44.5492 71.4061 43.3355 69.9933 42.1008C69.836 41.964 69.6437 41.6939 69.6996 41.5325C69.7556 41.3712 70.0248 41.2203 70.2241 41.1817C72.9971 40.5363 75.7701 39.9084 78.5466 39.277C79.2215 39.1262 79.3089 39.277 79.218 39.9435C79.0991 40.8625 78.6375 41.2729 77.7284 41.4273C76.3541 41.6588 75.0043 42.0306 73.6475 42.3463C73.5361 42.3726 73.4264 42.4054 73.3188 42.4446Z" fill="white"/>
<path d="M66.2413 14.9329C67.9023 14.4523 69.4689 14.0138 71.0285 13.5297C71.239 13.4325 71.4767 13.4118 71.7007 13.4714C71.9247 13.5309 72.121 13.6669 72.2559 13.856C72.3748 14.0103 72.5217 14.1436 72.651 14.2909C73.0357 14.7224 72.9762 14.9364 72.4098 15.1047C71.1684 15.4555 69.9235 15.8344 68.6786 16.1992L64.3041 17.4901C64.2419 17.5216 64.1742 17.5407 64.1048 17.5462C63.8949 17.5462 63.6082 17.5778 63.4963 17.4585C63.4496 17.3654 63.4236 17.2633 63.42 17.1591C63.4164 17.055 63.4352 16.9513 63.4753 16.8551C64.2761 14.6768 65.0944 12.5054 65.9056 10.3306C66.1189 9.76934 66.3252 9.20458 66.5421 8.64333C66.7274 8.17328 66.9512 8.1382 67.3009 8.51003L67.3288 8.5416C68.3954 9.67463 68.2205 9.47819 67.7729 10.7235C67.3254 11.9687 66.8533 13.214 66.3952 14.4593C66.3427 14.5856 66.3078 14.7329 66.2413 14.9329Z" fill="white"/>
<path d="M75.0534 20.2153C75.4182 20.2245 75.7651 20.3764 76.0199 20.6385C76.2747 20.9007 76.4173 21.2523 76.4171 21.6185C76.4116 21.8895 76.3264 22.1528 76.1721 22.3753C76.0179 22.5979 75.8015 22.7698 75.5502 22.8693C75.2989 22.9689 75.0239 22.9917 74.7596 22.935C74.4954 22.8782 74.2538 22.7444 74.0652 22.5503C73.8766 22.3563 73.7493 22.1106 73.6995 21.8442C73.6496 21.5778 73.6793 21.3026 73.7849 21.0531C73.8905 20.8036 74.0672 20.5909 74.2929 20.4419C74.5186 20.2928 74.7832 20.214 75.0534 20.2153Z" fill="white"/>
<path d="M13.1802 43.3953C13.1895 43.581 13.1612 43.7667 13.0968 43.941C13.0324 44.1154 12.9333 44.2748 12.8056 44.4096C12.6779 44.5444 12.5242 44.6517 12.3538 44.725C12.1835 44.7984 12 44.8362 11.8147 44.8362C11.6293 44.8362 11.4458 44.7984 11.2755 44.725C11.1051 44.6517 10.9514 44.5444 10.8237 44.4096C10.696 44.2748 10.5969 44.1154 10.5325 43.941C10.4681 43.7667 10.4398 43.581 10.4491 43.3953C10.4546 43.0268 10.6044 42.6753 10.8662 42.4167C11.1279 42.1581 11.4805 42.0131 11.8479 42.0132C12.2059 42.0233 12.5458 42.1735 12.7948 42.4318C13.0438 42.6901 13.1821 43.036 13.1802 43.3953Z" fill="white"/>
<path d="M60.2791 4.20927C60.6381 4.21019 60.9821 4.3534 61.2363 4.60769C61.4904 4.86197 61.6341 5.20672 61.6359 5.5668C61.647 5.7523 61.6203 5.93812 61.5576 6.11299C61.4949 6.28785 61.3975 6.44811 61.2711 6.58403C61.1448 6.71995 60.9923 6.82871 60.8227 6.90369C60.6532 6.97867 60.4703 7.01832 60.2851 7.02022C60.0998 7.02212 59.9161 6.98624 59.7451 6.91476C59.5741 6.84328 59.4194 6.73768 59.2903 6.60439C59.1613 6.47109 59.0605 6.31287 58.9943 6.13933C58.928 5.96579 58.8976 5.78055 58.9049 5.59486C58.9025 5.41285 58.9364 5.23219 59.0046 5.06349C59.0727 4.89479 59.1738 4.74142 59.3017 4.61238C59.4297 4.48334 59.5821 4.38122 59.7499 4.312C59.9178 4.24278 60.0977 4.20785 60.2791 4.20927Z" fill="white"/>
<path d="M10.9492 33.7487C10.7641 33.7581 10.579 33.7296 10.4051 33.665C10.2313 33.6004 10.0724 33.5011 9.93803 33.3729C9.80368 33.2448 9.69671 33.0906 9.62361 32.9197C9.55051 32.7489 9.51282 32.5648 9.51282 32.3789C9.51282 32.1929 9.55051 32.0089 9.62361 31.838C9.69671 31.6671 9.80368 31.513 9.93803 31.3848C10.0724 31.2567 10.2313 31.1573 10.4051 31.0927C10.579 31.0281 10.7641 30.9997 10.9492 31.0091C11.2994 31.0269 11.6294 31.1789 11.871 31.4339C12.1126 31.6888 12.2473 32.0271 12.2473 32.3789C12.2473 32.7306 12.1126 33.0689 11.871 33.3239C11.6294 33.5788 11.2994 33.7309 10.9492 33.7487Z" fill="white"/>
<path d="M15.023 21.6745C15.0258 22.0349 14.886 22.3817 14.6343 22.6388C14.3826 22.8959 14.0395 23.0424 13.6802 23.0461C13.3093 23.0461 12.9535 22.8983 12.6912 22.6351C12.4289 22.372 12.2815 22.0151 12.2815 21.643C12.2838 21.4615 12.3218 21.2823 12.3935 21.1156C12.4651 20.9489 12.569 20.7982 12.699 20.672C12.829 20.5458 12.9827 20.4466 13.1511 20.3803C13.3195 20.314 13.4993 20.2817 13.6802 20.2854C13.8607 20.2834 14.0397 20.3182 14.2063 20.3878C14.373 20.4575 14.5237 20.5604 14.6493 20.6904C14.775 20.8204 14.8729 20.9747 14.9372 21.1439C15.0014 21.3131 15.0306 21.4936 15.023 21.6745Z" fill="white"/>
<path d="M68.9793 13.7121C68.7981 13.7187 68.6176 13.6874 68.4493 13.6201C68.2809 13.5529 68.1283 13.4511 68.0013 13.3214C67.8743 13.1917 67.7757 13.0369 67.7117 12.8668C67.6476 12.6967 67.6196 12.5151 67.6295 12.3336C67.6295 12.1549 67.6647 11.9779 67.7332 11.813C67.8017 11.648 67.9021 11.4982 68.0285 11.3724C68.155 11.2465 68.305 11.147 68.47 11.0796C68.635 11.0121 68.8116 10.9781 68.9898 10.9795C69.3552 10.9878 69.703 11.1392 69.9585 11.4015C70.2141 11.6637 70.3571 12.0159 70.357 12.3827C70.3543 12.5609 70.3164 12.7369 70.2456 12.9004C70.1747 13.0639 70.0723 13.2117 69.9442 13.3353C69.8161 13.4589 69.6649 13.5558 69.4993 13.6205C69.3337 13.6852 69.1569 13.7163 68.9793 13.7121Z" fill="white"/>
<path d="M77.8053 33.6751C77.6274 33.6807 77.4503 33.6504 77.2844 33.5859C77.1185 33.5214 76.9672 33.4241 76.8397 33.2997C76.7121 33.1753 76.6107 33.0264 76.5417 32.8619C76.4727 32.6973 76.4375 32.5206 76.438 32.3421C76.4324 32.1607 76.463 31.9801 76.5281 31.8108C76.5931 31.6414 76.6912 31.4869 76.8166 31.3561C76.942 31.2254 77.0923 31.1211 77.2585 31.0495C77.4246 30.9779 77.6034 30.9403 77.7843 30.939C78.1553 30.939 78.511 31.0868 78.7734 31.3499C79.0357 31.6131 79.183 31.97 79.183 32.3421C79.1757 32.7019 79.0266 33.0441 78.7684 33.2938C78.5102 33.5436 78.1639 33.6807 77.8053 33.6751Z" fill="white"/>
<path d="M21.0656 12.4107C21.0684 12.5925 21.0348 12.7731 20.9667 12.9416C20.8987 13.1102 20.7975 13.2633 20.6694 13.3918C20.5412 13.5204 20.3885 13.6219 20.2205 13.6901C20.0525 13.7584 19.8726 13.7921 19.6913 13.7893C19.3277 13.7851 18.9807 13.6362 18.7266 13.3754C18.4725 13.1145 18.3321 12.7631 18.3363 12.3984C18.3404 12.0337 18.4889 11.6857 18.7489 11.4307C19.0089 11.1758 19.3592 11.035 19.7228 11.0392C20.082 11.0429 20.4251 11.1893 20.6768 11.4465C20.9286 11.7036 21.0684 12.0503 21.0656 12.4107Z" fill="white"/>
<path d="M28.4089 4.27593C28.6767 4.27943 28.9374 4.36255 29.158 4.51476C29.3787 4.66697 29.5494 4.88143 29.6485 5.13099C29.7475 5.38055 29.7706 5.65399 29.7147 5.91671C29.6588 6.17942 29.5265 6.41959 29.3344 6.60682C29.1424 6.79405 28.8993 6.91992 28.6359 6.96849C28.3726 7.01707 28.1008 6.98616 27.8549 6.8797C27.609 6.77323 27.4002 6.59598 27.2548 6.37039C27.1094 6.1448 27.034 5.88101 27.0381 5.61241C27.0371 5.43333 27.0721 5.25588 27.1411 5.09072C27.2101 4.92555 27.3117 4.77607 27.4397 4.65126C27.5677 4.52644 27.7196 4.42885 27.8861 4.36436C28.0527 4.29986 28.2305 4.26978 28.4089 4.27593Z" fill="white"/>
<path d="M78.2914 43.3356C78.2957 43.5148 78.2637 43.6929 78.1975 43.8594C78.1312 44.0258 78.032 44.177 77.9058 44.3039C77.7797 44.4308 77.6292 44.5307 77.4635 44.5976C77.2977 44.6645 77.1202 44.697 76.9416 44.6932C76.7565 44.7007 76.5718 44.6705 76.3986 44.6043C76.2255 44.538 76.0676 44.4372 75.9345 44.3079C75.8014 44.1786 75.696 44.0235 75.6245 43.852C75.553 43.6805 75.5169 43.4963 75.5186 43.3104C75.5203 43.1246 75.5596 42.941 75.6341 42.7709C75.7087 42.6007 75.8169 42.4475 75.9523 42.3206C76.0877 42.1937 76.2473 42.0957 76.4216 42.0326C76.5959 41.9695 76.7811 41.9426 76.9661 41.9535C77.1445 41.9539 77.321 41.9903 77.4851 42.0605C77.6492 42.1308 77.7975 42.2334 77.9212 42.3624C78.0448 42.4914 78.1414 42.644 78.205 42.8112C78.2686 42.9784 78.298 43.1568 78.2914 43.3356Z" fill="white"/>
<path d="M44.1412 50.5583L35.6963 42.0939L44.1272 33.626L52.5686 42.0939L44.1412 50.5583Z" fill="white"/>
</g>
<defs>
<clipPath id="clip0_2096_14020">
<rect width="86.4734" height="64.9182" fill="white" transform="translate(0.90979 0.00244141)"/>
</clipPath>
</defs>
</svg>
