<svg width="34" height="34" viewBox="0 0 34 34" fill="none " xmlns="http://www.w3.org/2000/svg">
<path d="M21.05 23.375V23.575H21.25H23.375H23.575V23.375V21.25V21.05H23.375H21.25H21.05V21.25V23.375ZM9.02444 2.51492L9.02466 2.51475C9.17729 2.3923 9.36702 2.32539 9.56269 2.325H24.4373C24.633 2.32539 24.8227 2.3923 24.9753 2.51475L24.9756 2.51492L30.2881 6.76492L30.2885 6.76529C30.5589 6.9803 30.6125 7.36067 30.6125 7.79025V11.6875C30.6125 12.839 30.2322 13.9 29.5901 14.7549L29.55 14.8082V14.875V30.8125C29.55 31.0412 29.4591 31.2606 29.2974 31.4224C29.1356 31.5841 28.9162 31.675 28.6875 31.675H5.3125C5.08375 31.675 4.86437 31.5841 4.70262 31.4224L4.5612 31.5638L4.70262 31.4224C4.54087 31.2606 4.45 31.0412 4.45 30.8125V14.875V14.8082L4.40991 14.7549C3.76776 13.9 3.3875 12.839 3.3875 11.6875V7.79875C3.3875 7.36814 3.44144 6.98002 3.71148 6.76529L3.71194 6.76492L9.02444 2.51492ZM30.413 6.60875L25.1005 2.35875L29.75 14.875C30.4172 13.9867 30.8125 12.8839 30.8125 11.6875V7.79025C30.8125 7.36525 30.7658 6.88925 30.413 6.60875ZM11.8875 8.5V8.3H11.6875H5.3125H5.1125V8.5V11.6875C5.1125 12.5859 5.4694 13.4475 6.10468 14.0828C6.73996 14.7181 7.60158 15.075 8.5 15.075C9.39842 15.075 10.26 14.7181 10.8953 14.0828C11.5306 13.4475 11.8875 12.5859 11.8875 11.6875V8.5ZM20.3875 8.5V8.3H20.1875H13.8125H13.6125V8.5V11.6875C13.6125 12.5859 13.9694 13.4475 14.6047 14.0828C15.24 14.7181 16.1016 15.075 17 15.075C17.8984 15.075 18.76 14.7181 19.3953 14.0828C20.0306 13.4475 20.3875 12.5859 20.3875 11.6875V8.5ZM28.8875 8.5V8.3H28.6875H22.3125H22.1125V8.5V11.6875C22.1125 12.5859 22.4694 13.4475 23.1047 14.0828C23.74 14.7181 24.6016 15.075 25.5 15.075C26.3984 15.075 27.26 14.7181 27.8953 14.0828C28.5306 13.4475 28.8875 12.5859 28.8875 11.6875V8.5ZM12.9989 4.32022L13.1002 4.05H12.8116H9.93438H9.86422L9.80944 4.09383L7.15319 6.21883L6.70797 6.575H7.27812H12.0147H12.1533L12.202 6.44522L12.9989 4.32022ZM14.097 6.30478L13.9957 6.575H14.2843H19.5989H19.8763L19.7886 6.31181L19.081 4.18681L19.0354 4.05H18.8913H15.0811H14.9425L14.8939 4.17978L14.097 6.30478ZM21.131 4.05H20.8536L20.9412 4.31319L21.6489 6.43819L21.6944 6.575H21.8386H26.7198H27.2899L26.8447 6.21883L24.1884 4.09383L24.1337 4.05H24.0635H21.131ZM27.825 16.558V16.2521L27.5448 16.3748C26.4895 16.8367 25.309 16.9281 24.1953 16.6341C23.0815 16.34 22.0999 15.6779 21.4102 14.7552L21.2504 14.5415L21.0901 14.7549C20.1572 15.9967 18.6726 16.8 17 16.8C15.3274 16.8 13.8428 15.9967 12.9099 14.7549L12.7496 14.5415L12.5898 14.7552C11.9001 15.6779 10.9185 16.34 9.80473 16.6341C8.69096 16.9281 7.51046 16.8367 6.4552 16.3748L6.175 16.2521V16.558V29.75V29.95H6.375H8.5H8.7V29.75V20.1875C8.7 19.9588 8.79087 19.7394 8.95262 19.5776C9.11437 19.4159 9.33375 19.325 9.5625 19.325H15.9375C16.1662 19.325 16.3856 19.4159 16.5474 19.5776C16.7091 19.7394 16.8 19.9588 16.8 20.1875V29.75V29.95H17H27.625H27.825V29.75V16.558ZM14.875 29.95H15.075V29.75V21.25V21.05H14.875H10.625H10.425V21.25V29.75V29.95H10.625H14.875ZM19.325 20.1875C19.325 19.9588 19.4159 19.7394 19.5776 19.5776C19.7394 19.4159 19.9588 19.325 20.1875 19.325H24.4375C24.6662 19.325 24.8856 19.4159 25.0474 19.5776C25.2091 19.7394 25.3 19.9588 25.3 20.1875V24.4375C25.3 24.6662 25.2091 24.8856 25.0474 25.0474C24.8856 25.2091 24.6662 25.3 24.4375 25.3H20.1875C19.9588 25.3 19.7394 25.2091 19.5776 25.0474C19.4159 24.8856 19.325 24.6662 19.325 24.4375V20.1875Z" fill="#747475" stroke="#747475" stroke-width="0.4"/>
</svg>
