<svg width="12" height="12" viewBox="0 0 12 12" fill="none" xmlns="http://www.w3.org/2000/svg">
<path d="M6 9.7375C6.34365 9.7375 6.67957 9.6356 6.9653 9.44468C7.25103 9.25376 7.47373 8.9824 7.60524 8.66491C7.73675 8.34743 7.77116 7.99807 7.70411 7.66103C7.63707 7.32399 7.47159 7.0144 7.2286 6.7714C6.9856 6.52841 6.67601 6.36293 6.33897 6.29589C6.00193 6.22884 5.65257 6.26325 5.33509 6.39476C5.0176 6.52627 4.74624 6.74897 4.55532 7.0347C4.3644 7.32043 4.2625 7.65635 4.2625 8C4.2625 8.46081 4.44556 8.90275 4.7714 9.2286C5.09725 9.55444 5.53919 9.7375 6 9.7375ZM6 6.7375C6.2497 6.7375 6.49379 6.81154 6.70141 6.95027C6.90902 7.08899 7.07084 7.28617 7.1664 7.51686C7.26195 7.74755 7.28696 8.0014 7.23824 8.2463C7.18953 8.4912 7.06929 8.71616 6.89272 8.89272C6.71616 9.06929 6.4912 9.18953 6.2463 9.23824C6.0014 9.28696 5.74755 9.26195 5.51686 9.1664C5.28617 9.07084 5.08899 8.90902 4.95027 8.70141C4.81154 8.49379 4.7375 8.2497 4.7375 8C4.7375 7.66516 4.87051 7.34404 5.10728 7.10728C5.34404 6.87051 5.66516 6.7375 6 6.7375ZM11.25 4.7625H0.75C0.687011 4.7625 0.626602 4.78752 0.582062 4.83206C0.537522 4.8766 0.5125 4.93701 0.5125 5V11C0.5125 11.063 0.537522 11.1234 0.582062 11.1679C0.626602 11.2125 0.687011 11.2375 0.75 11.2375H11.25C11.313 11.2375 11.3734 11.2125 11.4179 11.1679C11.4625 11.1234 11.4875 11.063 11.4875 11V5C11.4875 4.93701 11.4625 4.8766 11.4179 4.83206C11.3734 4.78752 11.313 4.7625 11.25 4.7625ZM0.9875 8.93291V7.06709C1.429 6.95581 1.83242 6.72703 2.15473 6.40473C2.47703 6.08242 2.70581 5.679 2.81709 5.2375H9.18291C9.29419 5.679 9.52297 6.08242 9.84527 6.40473C10.1676 6.72703 10.571 6.95581 11.0125 7.06709V8.93291C10.571 9.04419 10.1676 9.27297 9.84527 9.59527C9.52297 9.91758 9.29419 10.321 9.18291 10.7625H2.81709C2.70581 10.321 2.47703 9.91758 2.15473 9.59527C1.83242 9.27297 1.429 9.04419 0.9875 8.93291ZM11.0125 5.2375V6.57351C10.6993 6.4744 10.4142 6.30135 10.1814 6.0686C9.94865 5.83585 9.7756 5.55071 9.67649 5.2375H11.0125ZM0.9875 6.57351V5.2375H2.32351C2.2244 5.55071 2.05135 5.83585 1.8186 6.0686C1.58585 6.30135 1.30071 6.4744 0.9875 6.57351ZM0.9875 10.7625V9.42649C1.30071 9.5256 1.58585 9.69865 1.8186 9.9314C2.05135 10.1642 2.2244 10.4493 2.32351 10.7625H0.9875ZM11.0125 10.7625H9.67649C9.7756 10.4493 9.94865 10.1642 10.1814 9.9314C10.4142 9.69865 10.6993 9.5256 11.0125 9.42649V10.7625Z" fill="#FF4956" stroke="#FF4956" stroke-width="0.1"/>
<path d="M6.76222 0.474609L8.28564 1.99918L6.76183 3.52337M3.33326 1.99956H8.28564" stroke="#FF4956" stroke-width="0.6" stroke-linecap="round" stroke-linejoin="round"/>
</svg>
