<svg width="30" height="31" viewBox="0 0 30 31" fill="none" xmlns="http://www.w3.org/2000/svg">
<path d="M28.125 14.5625H20.625V9.875H25.6153C25.8026 9.875 25.9857 9.93114 26.1409 10.0362C26.296 10.1412 26.4161 10.2904 26.4857 10.4643L28.125 14.5625Z" stroke="#242424" stroke-width="1.4" stroke-linecap="round" stroke-linejoin="round"/>
<path d="M1.875 17.375H20.625" stroke="#242424" stroke-width="1.4" stroke-linecap="round" stroke-linejoin="round"/>
<path d="M22.0312 25.8125C23.5846 25.8125 24.8438 24.5533 24.8438 23C24.8438 21.4467 23.5846 20.1875 22.0312 20.1875C20.4779 20.1875 19.2188 21.4467 19.2188 23C19.2188 24.5533 20.4779 25.8125 22.0312 25.8125Z" stroke="#242424" stroke-width="1.4" stroke-miterlimit="10"/>
<path d="M7.96875 25.8125C9.52205 25.8125 10.7812 24.5533 10.7812 23C10.7812 21.4467 9.52205 20.1875 7.96875 20.1875C6.41545 20.1875 5.15625 21.4467 5.15625 23C5.15625 24.5533 6.41545 25.8125 7.96875 25.8125Z" stroke="#242424" stroke-width="1.4" stroke-miterlimit="10"/>
<path d="M19.2188 23H10.7812" stroke="#242424" stroke-width="1.4" stroke-linecap="round" stroke-linejoin="round"/>
<path d="M5.15625 23H2.8125C2.56386 23 2.3254 22.9012 2.14959 22.7254C1.97377 22.5496 1.875 22.3111 1.875 22.0625V8.9375C1.875 8.68886 1.97377 8.4504 2.14959 8.27459C2.3254 8.09877 2.56386 8 2.8125 8H20.625V20.5643" stroke="#242424" stroke-width="1.4" stroke-linecap="round" stroke-linejoin="round"/>
<path d="M20.625 20.5643V14.5625H28.125V22.0625C28.125 22.3111 28.0262 22.5496 27.8504 22.7254C27.6746 22.9012 27.4361 23 27.1875 23H24.8438" stroke="#242424" stroke-width="1.4" stroke-linecap="round" stroke-linejoin="round"/>
</svg>
