<svg width="27" height="26" viewBox="0 0 27 26" fill="none" xmlns="http://www.w3.org/2000/svg">
    <path fill-rule="evenodd" clip-rule="evenodd"
        d="M17.6615 2.0288C19.8975 3.14366 22.9134 4.64703 24.3635 5.36961L27 6.68338V7.27066V7.85794H13.5357H0.0714302V7.27073V6.68353L1.19848 6.12066C7.70683 2.87011 13.4977 -0.00144194 13.5417 5.43229e-07C13.5716 0.000962202 15.4255 0.913909 17.6615 2.0288ZM24.0012 9.17097V9.91071H13.5357H3.0702V9.17097V8.43123H13.5357H24.0012V9.17097ZM23.0001 10.4748C23.0149 10.5015 23.381 20.9556 23.3679 20.979C23.3594 20.9943 22.7015 21.0068 21.9058 21.0068H20.4591L20.4581 20.7756C20.4565 20.3848 20.782 10.9428 20.8056 10.6967L20.8277 10.4655H21.9113C22.5073 10.4655 22.9973 10.4697 23.0001 10.4748ZM17.4804 10.6904C17.4804 10.995 17.7921 19.9839 17.8225 20.5537L17.8466 21.0068H16.3754H14.9043V20.835C14.9043 20.5628 15.2206 11.4996 15.2491 10.9556L15.2748 10.4655H16.3776H17.4804V10.6904ZM11.9259 10.5857C11.9261 10.6519 12.0075 13.0111 12.1069 15.8286C12.2063 18.6461 12.2877 20.9638 12.2877 20.979C12.2878 20.9943 11.6268 21.0068 10.8187 21.0068C9.44628 21.0068 9.34951 21.0025 9.34955 20.942C9.34955 20.9065 9.43098 18.5721 9.53048 15.7546C9.63002 12.9372 9.71149 10.5945 9.71161 10.5487L9.71178 10.4655H10.8187H11.9256L11.9259 10.5857ZM6.38829 10.9926C6.41599 11.5579 6.73313 20.643 6.73313 20.8705V21.0068H5.26071H3.78826L3.81349 20.5167C3.84292 19.9463 4.15701 10.9239 4.15701 10.65V10.4655H5.25975H6.36249L6.38829 10.9926ZM24.0012 22.3198V23.041H24.7459H25.4906V23.7808V24.5205H26.2352H26.9799V25.2603V26H13.5357H0.0915546V25.2603V24.5205H0.836216H1.58088V23.7808V23.041H2.32554H3.0702V22.3198V21.5986H13.5357H24.0012V22.3198Z"
        fill="url(#paint0_linear_2119_12340)" />
    <defs>
        <linearGradient id="paint0_linear_2119_12340" x1="13.5357" y1="0" x2="13.5357" y2="26"
            gradientUnits="userSpaceOnUse">
            <stop stop-color="white" />
            <stop offset="1" stop-color="white" stop-opacity="0.8" />
        </linearGradient>
    </defs>
</svg>