<svg width="16" height="16" viewBox="0 0 16 16" fill="none" xmlns="http://www.w3.org/2000/svg">
<path d="M7.66646 1.61713L2.62556 2.62531L1.61738 7.66622C1.60123 7.74693 1.60527 7.83039 1.62912 7.90917C1.65297 7.98795 1.69591 8.05962 1.75411 8.11783L8.28241 14.6461C8.32884 14.6926 8.38396 14.7294 8.44462 14.7545C8.50529 14.7796 8.5703 14.7926 8.63596 14.7926C8.70163 14.7926 8.76664 14.7796 8.82731 14.7545C8.88797 14.7294 8.94309 14.6926 8.98952 14.6461L14.6464 8.98927C14.6928 8.94284 14.7296 8.88773 14.7548 8.82706C14.7799 8.7664 14.7928 8.70138 14.7928 8.63572C14.7928 8.57006 14.7799 8.50504 14.7548 8.44438C14.7296 8.38372 14.6928 8.3286 14.6464 8.28217L8.11807 1.75387C8.05987 1.69566 7.98819 1.65273 7.90941 1.62888C7.83063 1.60502 7.74718 1.60099 7.66646 1.61713V1.61713Z" stroke="#F4AD22" stroke-linecap="round" stroke-linejoin="round"/>
<path d="M5.25 6C5.66421 6 6 5.66421 6 5.25C6 4.83579 5.66421 4.5 5.25 4.5C4.83579 4.5 4.5 4.83579 4.5 5.25C4.5 5.66421 4.83579 6 5.25 6Z" fill="#F4AD22"/>
</svg>
