<svg width="48" height="48" viewBox="0 0 48 48" fill="none" xmlns="http://www.w3.org/2000/svg">
<rect width="48" height="48" rx="16" fill="#FF7A00"/>
<path d="M29.1012 13.5H30.5625C31.3747 13.5 32.1537 13.8227 32.728 14.397C33.3023 14.9713 33.625 15.7503 33.625 16.5625V33.1875C33.625 33.9997 33.3023 34.7787 32.728 35.353C32.1537 35.9273 31.3747 36.25 30.5625 36.25H17.4375C16.6253 36.25 15.8463 35.9273 15.272 35.353C14.6977 34.7787 14.375 33.9997 14.375 33.1875V16.5625C14.375 15.7503 14.6977 14.9713 15.272 14.397C15.8463 13.8227 16.6253 13.5 17.4375 13.5H18.8988C19.0799 12.9881 19.4153 12.5449 19.8588 12.2315C20.3022 11.9181 20.832 11.7498 21.375 11.75H26.625C27.7677 11.75 28.7408 12.4806 29.1012 13.5ZM26.625 13.5H21.375C21.1429 13.5 20.9204 13.5922 20.7563 13.7563C20.5922 13.9204 20.5 14.1429 20.5 14.375C20.5 14.6071 20.5922 14.8296 20.7563 14.9937C20.9204 15.1578 21.1429 15.25 21.375 15.25H26.625C26.8571 15.25 27.0796 15.1578 27.2437 14.9937C27.4078 14.8296 27.5 14.6071 27.5 14.375C27.5 14.1429 27.4078 13.9204 27.2437 13.7563C27.0796 13.5922 26.8571 13.5 26.625 13.5ZM19.625 20.5C19.3929 20.5 19.1704 20.5922 19.0063 20.7563C18.8422 20.9204 18.75 21.1429 18.75 21.375C18.75 21.6071 18.8422 21.8296 19.0063 21.9937C19.1704 22.1578 19.3929 22.25 19.625 22.25H28.375C28.6071 22.25 28.8296 22.1578 28.9937 21.9937C29.1578 21.8296 29.25 21.6071 29.25 21.375C29.25 21.1429 29.1578 20.9204 28.9937 20.7563C28.8296 20.5922 28.6071 20.5 28.375 20.5H19.625ZM18.75 25.75C18.75 25.9821 18.8422 26.2046 19.0063 26.3687C19.1704 26.5328 19.3929 26.625 19.625 26.625H24C24.2321 26.625 24.4546 26.5328 24.6187 26.3687C24.7828 26.2046 24.875 25.9821 24.875 25.75C24.875 25.5179 24.7828 25.2954 24.6187 25.1313C24.4546 24.9672 24.2321 24.875 24 24.875H19.625C19.3929 24.875 19.1704 24.9672 19.0063 25.1313C18.8422 25.2954 18.75 25.5179 18.75 25.75ZM19.625 29.25C19.3929 29.25 19.1704 29.3422 19.0063 29.5063C18.8422 29.6704 18.75 29.8929 18.75 30.125C18.75 30.3571 18.8422 30.5796 19.0063 30.7437C19.1704 30.9078 19.3929 31 19.625 31H26.625C26.8571 31 27.0796 30.9078 27.2437 30.7437C27.4078 30.5796 27.5 30.3571 27.5 30.125C27.5 29.8929 27.4078 29.6704 27.2437 29.5063C27.0796 29.3422 26.8571 29.25 26.625 29.25H19.625Z" fill="url(#paint0_linear_2119_12361)"/>
<defs>
<linearGradient id="paint0_linear_2119_12361" x1="24" y1="11.75" x2="24" y2="36.25" gradientUnits="userSpaceOnUse">
<stop stop-color="white"/>
<stop offset="1" stop-color="white" stop-opacity="0.8"/>
</linearGradient>
</defs>
</svg>
