<svg width="14" height="10" viewBox="0 0 14 10" fill="none" xmlns="http://www.w3.org/2000/svg">
<path d="M0.974609 9.60255V0.397217H13.0253V9.60255H0.974609ZM1.64128 3.24322H3.81994V1.06388H1.63994L1.64128 3.24322ZM4.48728 3.24322H6.66661V1.06388H4.48661L4.48728 3.24322ZM7.33328 3.24322H9.51328V1.06388H7.33328V3.24322ZM10.1799 3.24322H12.3586V1.06388H10.1799V3.24322ZM10.1799 6.08988H12.3586V3.90988H10.1799V6.08988ZM7.33328 6.08988H9.51328V3.90988H7.33328V6.08988ZM4.48661 6.08988H6.66661V3.90988H4.48661V6.08988ZM3.81994 3.90988H1.64194V6.08988H3.81994V3.90988ZM10.1799 8.93588H12.3586V6.75588H10.1799V8.93588ZM7.33328 8.93588H9.51328V6.75588H7.33328V8.93588ZM4.48661 8.93588H6.66661V6.75588H4.48661V8.93588ZM1.64128 8.93588H3.81994V6.75588H1.63994L1.64128 8.93588Z" fill="white"/>
</svg>
